<svg xmlns="http://www.w3.org/2000/svg" xmlns:xlink="http://www.w3.org/1999/xlink" viewBox="0 0 2765.67 2765.67"><defs><style>.cls-1,.cls-10,.cls-11,.cls-12,.cls-13,.cls-14,.cls-15,.cls-16,.cls-17,.cls-18,.cls-19,.cls-2,.cls-20,.cls-21,.cls-22,.cls-23,.cls-24,.cls-25,.cls-26,.cls-27,.cls-28,.cls-29,.cls-3,.cls-30,.cls-31,.cls-32,.cls-33,.cls-34,.cls-35,.cls-36,.cls-37,.cls-38,.cls-39,.cls-4,.cls-40,.cls-41,.cls-42,.cls-43,.cls-44,.cls-45,.cls-46,.cls-47,.cls-48,.cls-49,.cls-5,.cls-50,.cls-6,.cls-7,.cls-8,.cls-9{fill:none;stroke-linecap:round;stroke-linejoin:round;stroke-width:14px;}.cls-1,.cls-11,.cls-13,.cls-16,.cls-19,.cls-23,.cls-24,.cls-25,.cls-29,.cls-3,.cls-31,.cls-36,.cls-37,.cls-4,.cls-41,.cls-7{opacity:0.5;}.cls-1{stroke:url(#linear-gradient);}.cls-2{stroke:url(#radial-gradient);}.cls-3{stroke:url(#radial-gradient-2);}.cls-4{stroke:url(#radial-gradient-3);}.cls-5{stroke:url(#radial-gradient-4);}.cls-6{stroke:url(#radial-gradient-5);}.cls-7{stroke:url(#radial-gradient-6);}.cls-8{stroke:url(#radial-gradient-7);}.cls-28,.cls-33,.cls-39,.cls-43,.cls-50,.cls-9{opacity:0.3;}.cls-9{stroke:url(#radial-gradient-8);}.cls-10{stroke:url(#radial-gradient-9);}.cls-11{stroke:url(#radial-gradient-10);}.cls-12{stroke:url(#radial-gradient-11);}.cls-13{stroke:url(#linear-gradient-2);}.cls-14{stroke:url(#radial-gradient-12);}.cls-15{stroke:url(#radial-gradient-13);}.cls-16{stroke:url(#linear-gradient-3);}.cls-17{stroke:url(#radial-gradient-14);}.cls-18{stroke:url(#radial-gradient-15);}.cls-19{stroke:url(#radial-gradient-16);}.cls-20{stroke:url(#linear-gradient-4);}.cls-21{stroke:url(#radial-gradient-17);}.cls-22{stroke:url(#radial-gradient-18);}.cls-23{stroke:url(#radial-gradient-19);}.cls-24{stroke:url(#linear-gradient-5);}.cls-25{stroke:url(#radial-gradient-20);}.cls-26{stroke:url(#linear-gradient-6);}.cls-27{stroke:url(#linear-gradient-7);}.cls-28{stroke:url(#radial-gradient-21);}.cls-29{stroke:url(#radial-gradient-22);}.cls-30{stroke:url(#linear-gradient-8);}.cls-31{stroke:url(#linear-gradient-9);}.cls-32{stroke:url(#radial-gradient-23);}.cls-33{stroke:url(#linear-gradient-10);}.cls-34{stroke:url(#linear-gradient-11);}.cls-35{stroke:url(#linear-gradient-12);}.cls-36{stroke:url(#radial-gradient-24);}.cls-37{stroke:url(#radial-gradient-25);}.cls-38{stroke:url(#radial-gradient-26);}.cls-39{stroke:url(#linear-gradient-13);}.cls-40{stroke:url(#linear-gradient-14);}.cls-41{stroke:url(#linear-gradient-15);}.cls-42{stroke:url(#radial-gradient-27);}.cls-43{stroke:url(#radial-gradient-28);}.cls-44{stroke:url(#radial-gradient-29);}.cls-45{stroke:url(#linear-gradient-16);}.cls-46{stroke:url(#radial-gradient-30);}.cls-47{stroke:url(#radial-gradient-31);}.cls-48{stroke:url(#radial-gradient-32);}.cls-49{stroke:url(#radial-gradient-33);}.cls-50{stroke:url(#radial-gradient-34);}</style><linearGradient id="linear-gradient" x1="2280.97" y1="2143.68" x2="2677.57" y2="2143.68" gradientUnits="userSpaceOnUse"><stop offset="0" stop-color="#101921" stop-opacity="0"/><stop offset="0.54" stop-color="#0cf" stop-opacity="0.46"/><stop offset="1" stop-color="#0fc"/></linearGradient><radialGradient id="radial-gradient" cx="2714.62" cy="1445.04" r="306.4" gradientUnits="userSpaceOnUse"><stop offset="0" stop-color="#0fc"/><stop offset="0.54" stop-color="#0cf" stop-opacity="0.46"/><stop offset="1" stop-color="#101921" stop-opacity="0"/></radialGradient><radialGradient id="radial-gradient-2" cx="2643.19" cy="859.17" r="131" xlink:href="#radial-gradient"/><radialGradient id="radial-gradient-3" cx="2226.91" cy="397.74" r="331.69" xlink:href="#radial-gradient"/><radialGradient id="radial-gradient-4" cx="1425.69" cy="52.95" r="327.1" xlink:href="#radial-gradient"/><radialGradient id="radial-gradient-5" cx="605.38" cy="344.55" r="331.86" xlink:href="#radial-gradient"/><radialGradient id="radial-gradient-6" cx="124.97" cy="940.58" r="246.56" xlink:href="#radial-gradient"/><radialGradient id="radial-gradient-7" cx="75.38" cy="1621.33" r="265.09" xlink:href="#radial-gradient"/><radialGradient id="radial-gradient-8" cx="371.87" cy="2247.98" r="254.98" xlink:href="#radial-gradient"/><radialGradient id="radial-gradient-9" cx="698.32" cy="2571.15" r="87.07" xlink:href="#radial-gradient"/><radialGradient id="radial-gradient-10" cx="1277.2" cy="2693.29" r="348.52" xlink:href="#radial-gradient"/><radialGradient id="radial-gradient-11" cx="2022.85" cy="2563.01" r="220.04" xlink:href="#radial-gradient"/><linearGradient id="linear-gradient-2" x1="724.21" y1="2506.19" x2="1751.96" y2="2506.19" xlink:href="#radial-gradient"/><radialGradient id="radial-gradient-12" cx="1939.69" cy="2443.46" r="162.27" xlink:href="#radial-gradient"/><radialGradient id="radial-gradient-13" cx="2205.26" cy="2275.79" r="75.11" xlink:href="#radial-gradient"/><linearGradient id="linear-gradient-3" x1="1955.59" y1="1261.09" x2="2607.6" y2="1261.09" xlink:href="#radial-gradient"/><radialGradient id="radial-gradient-14" cx="1750.16" cy="243.25" r="164.07" xlink:href="#radial-gradient"/><radialGradient id="radial-gradient-15" cx="1094.34" cy="287.26" r="331.31" xlink:href="#radial-gradient"/><radialGradient id="radial-gradient-16" cx="422.02" cy="765.72" r="306.3" xlink:href="#radial-gradient"/><linearGradient id="linear-gradient-4" x1="158.07" y1="1531.43" x2="307.16" y2="1531.43" xlink:href="#linear-gradient"/><radialGradient id="radial-gradient-17" cx="515.69" cy="2176.32" r="232.7" xlink:href="#radial-gradient"/><radialGradient id="radial-gradient-18" cx="432.17" cy="1915.67" r="240.53" xlink:href="#radial-gradient"/><radialGradient id="radial-gradient-19" cx="957.14" cy="2361.95" r="286.58" xlink:href="#radial-gradient"/><linearGradient id="linear-gradient-5" x1="1313.34" y1="2384.59" x2="2130.72" y2="2384.59" xlink:href="#radial-gradient"/><radialGradient id="radial-gradient-20" cx="2321.25" cy="1855.39" r="317.19" xlink:href="#radial-gradient"/><linearGradient id="linear-gradient-6" x1="2200.29" y1="1030.25" x2="2528.57" y2="1030.25" xlink:href="#radial-gradient"/><linearGradient id="linear-gradient-7" x1="1019.08" y1="420.73" x2="2214.29" y2="420.73" xlink:href="#linear-gradient"/><radialGradient id="radial-gradient-21" cx="694.36" cy="588.75" r="317.44" xlink:href="#radial-gradient"/><radialGradient id="radial-gradient-22" cx="303.38" cy="1251.86" r="274.47" xlink:href="#radial-gradient"/><linearGradient id="linear-gradient-8" x1="427.07" y1="616.72" x2="1736.03" y2="616.72" xlink:href="#radial-gradient"/><linearGradient id="linear-gradient-9" x1="318.43" y1="1111.5" x2="441.07" y2="1111.5" xlink:href="#linear-gradient"/><radialGradient id="radial-gradient-23" cx="349.71" cy="1513.9" r="149.12" xlink:href="#radial-gradient"/><linearGradient id="linear-gradient-10" x1="369.27" y1="2048.04" x2="1033.08" y2="2048.04" xlink:href="#radial-gradient"/><linearGradient id="linear-gradient-11" x1="1664.47" y1="2099.03" x2="2366.25" y2="2099.03" xlink:href="#radial-gradient"/><linearGradient id="linear-gradient-12" x1="2352.25" y1="1403.77" x2="2449.53" y2="1403.77" xlink:href="#radial-gradient"/><radialGradient id="radial-gradient-24" cx="2052.47" cy="696.6" r="326.55" xlink:href="#radial-gradient"/><radialGradient id="radial-gradient-25" cx="881.31" cy="903.83" r="196.96" xlink:href="#radial-gradient"/><radialGradient id="radial-gradient-26" cx="743.46" cy="1498.56" r="298.65" xlink:href="#radial-gradient"/><linearGradient id="linear-gradient-13" x1="840.64" y1="2005.99" x2="1248.45" y2="2005.99" xlink:href="#radial-gradient"/><linearGradient id="linear-gradient-14" x1="1234.45" y1="2105.34" x2="1637.1" y2="2105.34" xlink:href="#radial-gradient"/><linearGradient id="linear-gradient-15" x1="1623.1" y1="1483.39" x2="2133.39" y2="1483.39" xlink:href="#radial-gradient"/><radialGradient id="radial-gradient-27" cx="1802.17" cy="789.94" r="120.15" xlink:href="#radial-gradient"/><radialGradient id="radial-gradient-28" cx="1369.16" cy="674.42" r="220.73" xlink:href="#radial-gradient"/><radialGradient id="radial-gradient-29" cx="1799.21" cy="1419.39" r="375.72" xlink:href="#radial-gradient"/><linearGradient id="linear-gradient-16" x1="1262.07" y1="861.21" x2="1754.9" y2="861.21" xlink:href="#linear-gradient"/><radialGradient id="radial-gradient-30" cx="1099.32" cy="910.31" r="146.8" xlink:href="#radial-gradient"/><radialGradient id="radial-gradient-31" cx="863.46" cy="1226.08" r="164.51" xlink:href="#radial-gradient"/><radialGradient id="radial-gradient-32" cx="927.8" cy="1654.13" r="183.12" xlink:href="#radial-gradient"/><radialGradient id="radial-gradient-33" cx="1251.84" cy="1918.32" r="149.33" xlink:href="#radial-gradient"/><radialGradient id="radial-gradient-34" cx="1539.14" cy="1939.21" r="72.98" xlink:href="#radial-gradient"/></defs><title>ThorchainAnticlockwise</title><g id="Layer_2" data-name="Layer 2"><g id="Layer_1-2" data-name="Layer 1"><path class="cls-1" d="M2670.57,1868.33c-80.77,214.12-213.41,402.8-382.6,550.71"/><path class="cls-2" d="M2710.8,1021.74a1383.49,1383.49,0,0,1-40.23,846.59"/><path class="cls-3" d="M2575.58,696.59a1368,1368,0,0,1,135.22,325.15"/><path class="cls-4" d="M1878.25,98.89c295.1,114,541.07,326.7,697.33,597.7"/><path class="cls-5" d="M973.14,69a1375.42,1375.42,0,0,1,409.7-62c174.64,0,341.69,32.54,495.41,91.89"/><path class="cls-6" d="M237.63,620.07c173-259.22,431.65-456.38,735.51-551"/><path class="cls-7" d="M12.31,1261.09a1367.83,1367.83,0,0,1,225.32-641"/><path class="cls-8" d="M143.76,1981.57C56.13,1800.56,7,1597.44,7,1382.84q0-61.54,5.31-121.75"/><path class="cls-9" d="M600,2514.39a1381.73,1381.73,0,0,1-456.22-532.82"/><path class="cls-10" d="M796.66,2627.91A1374.74,1374.74,0,0,1,600,2514.39"/><path class="cls-11" d="M1757.74,2707a1376.75,1376.75,0,0,1-374.9,51.7c-209.65,0-408.35-46.89-586.18-130.76"/><path class="cls-12" d="M2288,2419A1373,1373,0,0,1,1757.74,2707"/><path class="cls-13" d="M1745,2545.85a1217.36,1217.36,0,0,1-362.12,54.75c-239.69,0-463.21-69.25-651.63-188.83"/><path class="cls-14" d="M2134.42,2341.07A1214.51,1214.51,0,0,1,1745,2545.85"/><path class="cls-15" d="M2276.1,2210.51a1225.7,1225.7,0,0,1-141.68,130.56"/><path class="cls-16" d="M1962.59,311.67c380,206.1,638,608.5,638,1071.17,0,319.59-123.11,610.43-324.5,827.67"/><path class="cls-17" d="M1537.73,174.83a1209.41,1209.41,0,0,1,424.86,136.84"/><path class="cls-18" d="M651,409.45C854.7,256,1108.14,165.07,1382.84,165.07a1229.43,1229.43,0,0,1,154.89,9.76"/><path class="cls-19" d="M193.07,1122C256.23,832.6,422.28,581.67,651,409.45"/><path class="cls-20" d="M300.16,1940.86c-86.33-167.17-135.09-356.9-135.09-558a1222.23,1222.23,0,0,1,28-260.85"/><path class="cls-21" d="M731.21,2411.77a1223.44,1223.44,0,0,1-431-470.91"/><path class="cls-22" d="M593.93,2204c-159.54-153.31-274.5-352.67-323.52-576.7"/><path class="cls-23" d="M1320.34,2519.88c-281.47-15.22-535.77-132.67-726.41-315.86"/><path class="cls-24" d="M2123.72,2247.62c-199.15,170.77-458,274-740.88,274q-31.46,0-62.5-1.69"/><path class="cls-25" d="M2518.78,1463.16c-21.84,313.43-170.53,591.91-395.06,784.46"/><path class="cls-26" d="M2207.29,597.35c194.73,204.33,314.28,480.95,314.28,785.49q0,40.5-2.79,80.32"/><path class="cls-27" d="M1026.08,301.11a1137.66,1137.66,0,0,1,356.76-57c324.36,0,617.05,135.61,824.45,353.24"/><path class="cls-28" d="M362.65,876.39C497.08,606.1,735.76,396.8,1026.08,301.11"/><path class="cls-29" d="M270.41,1627.32a1143.51,1143.51,0,0,1-26.3-244.48c0-181.94,42.66-353.91,118.54-506.45"/><path class="cls-30" d="M434.07,910.31c173.7-348.09,533.31-587.17,948.77-587.17A1058.3,1058.3,0,0,1,1729,381"/><path class="cls-31" d="M325.43,1312.7A1053.35,1053.35,0,0,1,434.07,910.31"/><path class="cls-32" d="M376.27,1715.09a1058.86,1058.86,0,0,1-53.13-332.25q0-35.35,2.29-70.14"/><path class="cls-33" d="M1026.08,2381c-306.38-109.52-547.61-356.1-649.81-665.89"/><path class="cls-34" d="M2359.25,1795.32c-124.2,293.64-377,519.65-687.78,607.43"/><path class="cls-35" d="M2375.91,1012.22a1063.65,1063.65,0,0,1-16.66,783.1"/><path class="cls-36" d="M1729,381c298.58,103.16,536.66,336,646.88,631.24"/><path class="cls-37" d="M695.75,1098.1a746.3,746.3,0,0,1,371.11-388.53"/><path class="cls-38" d="M847.64,1899c-129-133.73-208.36-315.68-208.36-516.17a741.41,741.41,0,0,1,56.47-284.74"/><path class="cls-39" d="M1241.45,2113a742.15,742.15,0,0,1-393.81-214"/><path class="cls-40" d="M1630.1,2084.29A748.52,748.52,0,0,1,1241.45,2113"/><path class="cls-41" d="M1932.87,882.49c120.23,132.09,193.52,307.66,193.52,500.35,0,324-207.19,599.54-496.29,701.45"/><path class="cls-42" d="M1671.46,697.38a745.35,745.35,0,0,1,261.41,185.11"/><path class="cls-43" d="M1066.86,709.57a745.64,745.64,0,0,1,604.6-12.19"/><path class="cls-44" d="M1747.9,925.07c134.34,107.28,220.42,272.47,220.42,457.77,0,235-138.45,437.65-338.22,530.86"/><path class="cls-45" d="M1269.07,808.4A586.81,586.81,0,0,1,1747.9,925.07"/><path class="cls-46" d="M929.57,1012.22c84.5-103.22,203.55-177.05,339.5-203.82"/><path class="cls-47" d="M800.1,1439.94q-2.73-28.18-2.75-57.1a583,583,0,0,1,132.22-370.62"/><path class="cls-48" d="M1055.49,1868.33c-140.9-95.19-238.13-250.09-255.39-428.39"/><path class="cls-49" d="M1448.18,1964.71a589.88,589.88,0,0,1-65.34,3.61,582.75,582.75,0,0,1-327.35-100"/><path class="cls-50" d="M1630.1,1913.7a581.77,581.77,0,0,1-181.92,51"/></g></g></svg>