<?xml version="1.0" encoding="UTF-8"?>
<svg width="425px" height="426px" viewBox="0 0 425 426" version="1.1" xmlns="http://www.w3.org/2000/svg" xmlns:xlink="http://www.w3.org/1999/xlink">
    <!-- Generator: Sketch 51.1 (57501) - http://www.bohemiancoding.com/sketch -->
    <title>Group 2</title>
    <desc>Created with Sketch.</desc>
    <defs>
        <linearGradient x1="100.004575%" y1="49.9848459%" x2="-0.00788715791%" y2="49.9848459%" id="linearGradient-1">
            <stop stop-color="#00FFCC" offset="0%"></stop>
            <stop stop-color="#00CCFF" stop-opacity="0.46" offset="54%"></stop>
            <stop stop-color="#101921" stop-opacity="0" offset="100%"></stop>
        </linearGradient>
        <radialGradient cx="49.9801601%" cy="50.031874%" fx="49.9801601%" fy="50.031874%" r="74.1226068%" gradientTransform="translate(0.499802,0.500319),scale(0.542365,1.000000),translate(-0.499802,-0.500319)" id="radialGradient-2">
            <stop stop-color="#00FFCC" offset="0%"></stop>
            <stop stop-color="#00CCFF" stop-opacity="0.46" offset="54%"></stop>
            <stop stop-color="#101921" stop-opacity="0" offset="100%"></stop>
        </radialGradient>
        <linearGradient x1="0.0324573724%" y1="50.0021451%" x2="99.999879%" y2="50.0021451%" id="linearGradient-3">
            <stop stop-color="#00FFCC" offset="0%"></stop>
            <stop stop-color="#00CCFF" stop-opacity="0.46" offset="54%"></stop>
            <stop stop-color="#101921" stop-opacity="0" offset="100%"></stop>
        </linearGradient>
        <radialGradient cx="50.0004442%" cy="49.9722488%" fx="50.0004442%" fy="49.9722488%" r="108.773564%" gradientTransform="translate(0.500004,0.499722),scale(0.343701,1.000000),translate(-0.500004,-0.499722)" id="radialGradient-4">
            <stop stop-color="#00FFCC" offset="0%"></stop>
            <stop stop-color="#00CCFF" stop-opacity="0.46" offset="54%"></stop>
            <stop stop-color="#101921" stop-opacity="0" offset="100%"></stop>
        </radialGradient>
        <linearGradient x1="-0.000316259992%" y1="50.0060863%" x2="99.9999345%" y2="50.0060863%" id="linearGradient-5">
            <stop stop-color="#00FFCC" offset="0%"></stop>
            <stop stop-color="#00CCFF" stop-opacity="0.46" offset="54%"></stop>
            <stop stop-color="#101921" stop-opacity="0" offset="100%"></stop>
        </linearGradient>
        <radialGradient cx="50.0038432%" cy="49.9980054%" fx="50.0038432%" fy="49.9980054%" r="64.9038937%" gradientTransform="translate(0.500038,0.499980),scale(1.000000,0.649510),translate(-0.500038,-0.499980)" id="radialGradient-6">
            <stop stop-color="#00FFCC" offset="0%"></stop>
            <stop stop-color="#00CCFF" stop-opacity="0.46" offset="54%"></stop>
            <stop stop-color="#101921" stop-opacity="0" offset="100%"></stop>
        </radialGradient>
        <linearGradient x1="2.14117658e-05%" y1="49.9996412%" x2="100.000401%" y2="49.9996412%" id="linearGradient-7">
            <stop stop-color="#101921" stop-opacity="0" offset="0%"></stop>
            <stop stop-color="#00CCFF" stop-opacity="0.46" offset="54%"></stop>
            <stop stop-color="#00FFCC" offset="100%"></stop>
        </linearGradient>
        <radialGradient cx="49.995774%" cy="49.9952992%" fx="49.995774%" fy="49.9952992%" r="52.2920104%" gradientTransform="translate(0.499958,0.499953),scale(1.000000,0.917766),translate(-0.499958,-0.499953)" id="radialGradient-8">
            <stop stop-color="#00FFCC" offset="0%"></stop>
            <stop stop-color="#00CCFF" stop-opacity="0.46" offset="54%"></stop>
            <stop stop-color="#101921" stop-opacity="0" offset="100%"></stop>
        </radialGradient>
        <radialGradient cx="49.9846703%" cy="50.0062952%" fx="49.9846703%" fy="50.0062952%" r="51.1280136%" gradientTransform="translate(0.499847,0.500063),scale(1.000000,0.956875),translate(-0.499847,-0.500063)" id="radialGradient-9">
            <stop stop-color="#00FFCC" offset="0%"></stop>
            <stop stop-color="#00CCFF" stop-opacity="0.46" offset="54%"></stop>
            <stop stop-color="#101921" stop-opacity="0" offset="100%"></stop>
        </radialGradient>
        <radialGradient cx="49.9878755%" cy="49.9973751%" fx="49.9878755%" fy="49.9973751%" r="134.302683%" gradientTransform="translate(0.499879,0.499974),scale(1.000000,0.272875),translate(-0.499879,-0.499974)" id="radialGradient-10">
            <stop stop-color="#00FFCC" offset="0%"></stop>
            <stop stop-color="#00CCFF" stop-opacity="0.46" offset="54%"></stop>
            <stop stop-color="#101921" stop-opacity="0" offset="100%"></stop>
        </radialGradient>
        <linearGradient x1="99.9926628%" y1="50.0335502%" x2="0.0278938079%" y2="50.0335502%" id="linearGradient-11">
            <stop stop-color="#00FFCC" offset="0%"></stop>
            <stop stop-color="#00CCFF" stop-opacity="0.46" offset="54%"></stop>
            <stop stop-color="#101921" stop-opacity="0" offset="100%"></stop>
        </linearGradient>
        <linearGradient x1="99.957786%" y1="50.0544451%" x2="0.0019397643%" y2="50.0544451%" id="linearGradient-12">
            <stop stop-color="#00FFCC" offset="0%"></stop>
            <stop stop-color="#00CCFF" stop-opacity="0.46" offset="54%"></stop>
            <stop stop-color="#101921" stop-opacity="0" offset="100%"></stop>
        </linearGradient>
        <linearGradient x1="100.033973%" y1="50.0061304%" x2="-0.00229354362%" y2="50.0061304%" id="linearGradient-13">
            <stop stop-color="#00FFCC" offset="0%"></stop>
            <stop stop-color="#00CCFF" stop-opacity="0.46" offset="54%"></stop>
            <stop stop-color="#101921" stop-opacity="0" offset="100%"></stop>
        </linearGradient>
        <radialGradient cx="50.0115159%" cy="50.0000281%" fx="50.0115159%" fy="50.0000281%" r="60.340458%" gradientTransform="translate(0.500115,0.500000),scale(0.722925,1.000000),translate(-0.500115,-0.500000)" id="radialGradient-14">
            <stop stop-color="#00FFCC" offset="0%"></stop>
            <stop stop-color="#00CCFF" stop-opacity="0.46" offset="54%"></stop>
            <stop stop-color="#101921" stop-opacity="0" offset="100%"></stop>
        </radialGradient>
        <radialGradient cx="50.0024528%" cy="50.030451%" fx="50.0024528%" fy="50.030451%" r="261.741245%" gradientTransform="translate(0.500025,0.500305),scale(0.136327,1.000000),translate(-0.500025,-0.500305)" id="radialGradient-15">
            <stop stop-color="#00FFCC" offset="0%"></stop>
            <stop stop-color="#00CCFF" stop-opacity="0.46" offset="54%"></stop>
            <stop stop-color="#101921" stop-opacity="0" offset="100%"></stop>
        </radialGradient>
        <linearGradient x1="0.000425827586%" y1="49.9993273%" x2="100.000197%" y2="49.9993273%" id="linearGradient-16">
            <stop stop-color="#101921" stop-opacity="0" offset="0%"></stop>
            <stop stop-color="#00CCFF" stop-opacity="0.46" offset="54%"></stop>
            <stop stop-color="#00FFCC" offset="100%"></stop>
        </linearGradient>
        <linearGradient x1="0.000777846778%" y1="50.0035143%" x2="100.000749%" y2="50.0035143%" id="linearGradient-17">
            <stop stop-color="#101921" stop-opacity="0" offset="0%"></stop>
            <stop stop-color="#00CCFF" stop-opacity="0.46" offset="54%"></stop>
            <stop stop-color="#00FFCC" offset="100%"></stop>
        </linearGradient>
        <radialGradient cx="49.9990578%" cy="49.9994064%" fx="49.9990578%" fy="49.9994064%" r="133.75747%" gradientTransform="translate(0.499991,0.499994),scale(1.000000,0.274079),translate(-0.499991,-0.499994)" id="radialGradient-18">
            <stop stop-color="#00FFCC" offset="0%"></stop>
            <stop stop-color="#00CCFF" stop-opacity="0.46" offset="54%"></stop>
            <stop stop-color="#101921" stop-opacity="0" offset="100%"></stop>
        </radialGradient>
        <linearGradient x1="99.9986935%" y1="50.0815505%" x2="0.000345025276%" y2="50.0815505%" id="linearGradient-19">
            <stop stop-color="#101921" stop-opacity="0" offset="0%"></stop>
            <stop stop-color="#00CCFF" stop-opacity="0.46" offset="54%"></stop>
            <stop stop-color="#00FFCC" offset="100%"></stop>
        </linearGradient>
        <radialGradient cx="50.0006972%" cy="49.9842508%" fx="50.0006972%" fy="49.9842508%" r="61.4721869%" gradientTransform="translate(0.500007,0.499843),scale(0.702905,1.000000),translate(-0.500007,-0.499843)" id="radialGradient-20">
            <stop stop-color="#00FFCC" offset="0%"></stop>
            <stop stop-color="#00CCFF" stop-opacity="0.46" offset="54%"></stop>
            <stop stop-color="#101921" stop-opacity="0" offset="100%"></stop>
        </radialGradient>
        <linearGradient x1="-0.00102501423%" y1="49.9998032%" x2="99.9994618%" y2="49.9998032%" id="linearGradient-21">
            <stop stop-color="#00FFCC" offset="0%"></stop>
            <stop stop-color="#00CCFF" stop-opacity="0.46" offset="54%"></stop>
            <stop stop-color="#101921" stop-opacity="0" offset="100%"></stop>
        </linearGradient>
        <linearGradient x1="0.0001264587%" y1="50.0000238%" x2="100.001821%" y2="50.0000238%" id="linearGradient-22">
            <stop stop-color="#101921" stop-opacity="0" offset="0%"></stop>
            <stop stop-color="#00CCFF" stop-opacity="0.46" offset="54%"></stop>
            <stop stop-color="#00FFCC" offset="100%"></stop>
        </linearGradient>
        <radialGradient cx="49.9973139%" cy="50.0494704%" fx="49.9973139%" fy="50.0494704%" r="204.644329%" gradientTransform="translate(0.499973,0.500495),scale(0.175298,1.000000),translate(-0.499973,-0.500495)" id="radialGradient-23">
            <stop stop-color="#00FFCC" offset="0%"></stop>
            <stop stop-color="#00CCFF" stop-opacity="0.46" offset="54%"></stop>
            <stop stop-color="#101921" stop-opacity="0" offset="100%"></stop>
        </radialGradient>
        <radialGradient cx="50.0175261%" cy="49.9705138%" fx="50.0175261%" fy="49.9705138%" r="53.0776417%" gradientTransform="translate(0.500175,0.499705),scale(0.893800,1.000000),translate(-0.500175,-0.499705)" id="radialGradient-24">
            <stop stop-color="#00FFCC" offset="0%"></stop>
            <stop stop-color="#00CCFF" stop-opacity="0.46" offset="54%"></stop>
            <stop stop-color="#101921" stop-opacity="0" offset="100%"></stop>
        </radialGradient>
        <radialGradient cx="49.9424709%" cy="49.9999278%" fx="49.9424709%" fy="49.9999278%" r="189.950056%" gradientTransform="translate(0.499425,0.499999),scale(1.000000,0.189436),translate(-0.499425,-0.499999)" id="radialGradient-25">
            <stop stop-color="#00FFCC" offset="0%"></stop>
            <stop stop-color="#00CCFF" stop-opacity="0.46" offset="54%"></stop>
            <stop stop-color="#101921" stop-opacity="0" offset="100%"></stop>
        </radialGradient>
        <linearGradient x1="-0.00464045745%" y1="49.9952405%" x2="99.9899201%" y2="49.9952405%" id="linearGradient-26">
            <stop stop-color="#00FFCC" offset="0%"></stop>
            <stop stop-color="#00CCFF" stop-opacity="0.46" offset="54%"></stop>
            <stop stop-color="#101921" stop-opacity="0" offset="100%"></stop>
        </linearGradient>
        <radialGradient cx="50.0009635%" cy="49.9999504%" fx="50.0009635%" fy="49.9999504%" r="82.7951317%" gradientTransform="translate(0.500010,0.500000),scale(1.000000,0.472244),translate(-0.500010,-0.500000)" id="radialGradient-27">
            <stop stop-color="#00FFCC" offset="0%"></stop>
            <stop stop-color="#00CCFF" stop-opacity="0.46" offset="54%"></stop>
            <stop stop-color="#101921" stop-opacity="0" offset="100%"></stop>
        </radialGradient>
        <linearGradient x1="0.00583601364%" y1="50.0003867%" x2="100.003175%" y2="50.0003867%" id="linearGradient-28">
            <stop stop-color="#00FFCC" offset="0%"></stop>
            <stop stop-color="#00CCFF" stop-opacity="0.46" offset="54%"></stop>
            <stop stop-color="#101921" stop-opacity="0" offset="100%"></stop>
        </linearGradient>
        <linearGradient x1="-0.00171835008%" y1="49.9950974%" x2="99.9714035%" y2="49.9950974%" id="linearGradient-29">
            <stop stop-color="#00FFCC" offset="0%"></stop>
            <stop stop-color="#00CCFF" stop-opacity="0.46" offset="54%"></stop>
            <stop stop-color="#101921" stop-opacity="0" offset="100%"></stop>
        </linearGradient>
        <radialGradient cx="49.9956492%" cy="49.9997347%" fx="49.9956492%" fy="49.9997347%" r="100.742169%" gradientTransform="translate(0.499956,0.499997),scale(1.000000,0.374788),translate(-0.499956,-0.499997)" id="radialGradient-30">
            <stop stop-color="#00FFCC" offset="0%"></stop>
            <stop stop-color="#00CCFF" stop-opacity="0.46" offset="54%"></stop>
            <stop stop-color="#101921" stop-opacity="0" offset="100%"></stop>
        </radialGradient>
        <radialGradient cx="49.9784902%" cy="50.0018822%" fx="49.9784902%" fy="50.0018822%" r="166.256372%" gradientTransform="translate(0.499785,0.500019),scale(1.000000,0.217622),translate(-0.499785,-0.500019)" id="radialGradient-31">
            <stop stop-color="#00FFCC" offset="0%"></stop>
            <stop stop-color="#00CCFF" stop-opacity="0.46" offset="54%"></stop>
            <stop stop-color="#101921" stop-opacity="0" offset="100%"></stop>
        </radialGradient>
        <radialGradient cx="50.006161%" cy="50.027835%" fx="50.006161%" fy="50.027835%" r="86.4870083%" gradientTransform="translate(0.500062,0.500278),scale(0.447819,1.000000),translate(-0.500062,-0.500278)" id="radialGradient-32">
            <stop stop-color="#00FFCC" offset="0%"></stop>
            <stop stop-color="#00CCFF" stop-opacity="0.46" offset="54%"></stop>
            <stop stop-color="#101921" stop-opacity="0" offset="100%"></stop>
        </radialGradient>
        <linearGradient x1="0%" y1="50%" x2="100%" y2="50%" id="linearGradient-33">
            <stop stop-color="#00FFCC" offset="0%"></stop>
            <stop stop-color="#00CCFF" offset="100%"></stop>
        </linearGradient>
        <linearGradient x1="100%" y1="50%" x2="-1.05071015e-14%" y2="50%" id="linearGradient-34">
            <stop stop-color="#00FFCC" offset="0%"></stop>
            <stop stop-color="#00CCFF" offset="100%"></stop>
        </linearGradient>
        <linearGradient x1="100%" y1="50%" x2="0%" y2="50%" id="linearGradient-35">
            <stop stop-color="#00FFCC" offset="0%"></stop>
            <stop stop-color="#00CCFF" offset="100%"></stop>
        </linearGradient>
    </defs>
    <g id="Block-Explorer" stroke="none" stroke-width="1" fill="none" fill-rule="evenodd">
        <g id="Artboard" transform="translate(-7.000000, -7.000000)" fill-rule="nonzero">
            <g id="Group-2" transform="translate(7.000000, 7.000000)">
                <g id="Thorchain_AntiClockwise">
                    <g id="Group" opacity="0.5" transform="translate(105.231890, 378.899962)" fill="url(#linearGradient-1)">
                        <path d="M107.31698,33.161077 C69.3618245,33.161077 32.4492143,22.4619586 0.557110004,2.22355309 C0.0352391609,1.88218755 -0.115610399,1.18491356 0.218494215,0.658364692 C0.552598829,0.131815821 1.24771658,-0.0286768719 1.77884247,0.298102721 C33.304427,20.3051936 69.7983902,30.8805098 107.31698,30.8805098 C127.199928,30.8969268 146.971086,27.9070885 165.960138,22.0123611 C166.56156,21.825232 167.200807,22.1610828 167.387936,22.7625048 C167.575065,23.3639268 167.239214,24.0031737 166.637792,24.1903028 C147.42932,30.1532043 127.429695,33.1776424 107.31698,33.161077 Z" id="Shape"></path>
                    </g>
                    <path d="M271.537371,403.142392 C270.97283,403.143194 270.492684,402.730785 270.408282,402.172588 C270.32388,401.614392 270.660632,401.078463 271.200172,400.912323 C294.07513,393.803594 315.45351,382.562567 334.275776,367.746359 C334.594565,367.479766 335.033144,367.407711 335.420471,367.558295 C335.807798,367.708879 336.082535,368.058255 336.137535,368.470168 C336.192536,368.882082 336.01909,369.291301 335.684841,369.538233 C316.644895,384.528645 295.01856,395.902209 271.877827,403.095151 C271.767413,403.128159 271.6526,403.14409 271.537371,403.142392 Z" id="Shape" fill="url(#radialGradient-2)"></path>
                    <g id="Group" opacity="0.5" transform="translate(305.758911, 36.814872)" fill="url(#linearGradient-3)">
                        <path d="M52.2999233,311.701418 C51.8465947,311.701257 51.4364176,311.432577 51.2551599,311.017063 C51.0739022,310.601548 51.1559948,310.118128 51.4642583,309.785742 C85.3583749,273.22499 104.02156,225.613262 104.02156,175.733998 C104.04439,103.318368 64.3738923,36.7162079 0.687428133,2.24798773 C0.314815554,2.0618428 0.0733437594,1.68734175 0.0575603978,1.27111951 C0.0417770362,0.854897261 0.254193611,0.463184537 0.611638968,0.249355426 C0.969084326,0.0355263153 1.41468052,0.0336060452 1.77395554,0.244346493 C66.2393,35.0655476 106.385153,102.465384 106.302127,175.733998 C106.302127,226.194806 87.4206593,274.352242 53.1372173,311.336527 C52.9211493,311.569504 52.6176705,311.701759 52.2999233,311.701418 Z" id="Shape"></path>
                    </g>
                    <path d="M306.988789,39.1980644 C306.799188,39.1984003 306.612584,39.1507685 306.44634,39.0596014 C285.087507,27.4590986 261.751628,19.9458304 237.636738,16.9055194 C237.011925,16.8263493 236.569594,16.2556583 236.648764,15.6308452 C236.727934,15.006032 237.298625,14.5637009 237.923438,14.6428708 C262.319325,17.7202996 285.926613,25.3236673 307.532867,37.062476 C307.990994,37.3115239 308.221814,37.8396093 308.093447,38.3450071 C307.96508,38.8504048 307.510234,39.2043363 306.988789,39.2045803 L306.988789,39.1980644 Z" id="Shape" fill="url(#radialGradient-4)"></path>
                    <g id="Group" opacity="0.5" transform="translate(92.037179, 12.868915)" fill="url(#linearGradient-5)">
                        <path d="M1.29177846,42.2572825 C0.801263641,42.2577522 0.365411017,41.9444758 0.209521001,41.4793916 C0.053630984,41.0143074 0.212638802,40.5016417 0.604350326,40.2064009 C35.1459137,14.1562355 77.2482387,0.0960071215 120.51169,0.162897662 C128.995022,0.162920391 137.469951,0.696649904 145.886259,1.76092373 C146.290442,1.81213771 146.636601,2.07509059 146.79434,2.45073054 C146.952079,2.82637049 146.897434,3.25762888 146.65099,3.58205483 C146.404546,3.90648078 146.003742,4.07478627 145.599559,4.02357225 C137.278912,2.97107107 128.900269,2.44332534 120.513319,2.44346493 C77.744821,2.37645775 36.1239565,16.2754368 1.97757762,42.0275968 C1.77995764,42.1765472 1.53924534,42.2571658 1.29177846,42.2572825 Z" id="Shape"></path>
                    </g>
                    <g id="Group" opacity="0.5" transform="translate(17.430050, 52.778842)" fill="url(#radialGradient-6)">
                        <path d="M1.3031813,118.4266 C1.22098052,118.426067 1.13907012,118.416783 1.0588348,118.398908 C0.444107557,118.264136 0.0547889793,117.656828 0.188961288,117.04197 C10.3407436,70.5460905 36.9777693,29.0870065 75.2114795,0.296473745 C75.5368048,0.0511703158 75.9682856,-0.00194041501 76.3433873,0.157147851 C76.7184889,0.316236116 76.9802246,0.663354086 77.0300009,1.06774578 C77.0797772,1.47213748 76.9100321,1.87236618 76.5847068,2.11766961 C38.7924492,30.5791491 12.4518973,71.5625719 2.42391721,117.520889 C2.31259456,118.050491 1.84435189,118.428897 1.3031813,118.4266 Z" id="Shape"></path>
                    </g>
                    <path d="M36.1844576,304.590935 C35.7578136,304.590898 35.366881,304.352694 35.1712342,303.973553 C28.0192217,290.124774 22.5242515,275.481362 18.8000192,260.346301 C11.5369159,230.649937 11.1352538,199.689086 17.625527,169.814297 C17.7604759,169.19893 18.3687268,168.809474 18.9840935,168.944423 C19.5994602,169.079372 19.9889159,169.687623 19.853967,170.30299 C13.4381016,199.836408 13.834748,230.443357 21.0137984,259.800594 C24.6960819,274.76198 30.128147,289.237463 37.1976811,302.92775 C37.3800848,303.281227 37.3651103,303.704208 37.158167,304.043902 C36.9512236,304.383595 36.5822227,304.590901 36.1844576,304.590935 Z" id="Shape" fill="url(#linearGradient-7)"></path>
                    <path d="M106.398237,381.301073 C106.182448,381.300726 105.971187,381.239155 105.789,381.123515 C75.8343899,362.109774 51.4649849,335.483932 35.1712342,303.967037 C34.89183,303.408797 35.1132448,302.72966 35.6679859,302.443371 C36.2227269,302.157082 36.9045507,302.370077 37.1976811,302.921234 C53.3071353,334.076179 77.398677,360.396035 107.010732,379.191548 C107.439194,379.463505 107.636366,379.985891 107.494459,380.473131 C107.352552,380.960371 106.905721,381.295192 106.398237,381.294557 L106.398237,381.301073 Z" id="Shape" fill="url(#radialGradient-8)"></path>
                    <g id="Group" opacity="0.5" transform="translate(99.367574, 101.648141)" fill="url(#radialGradient-9)">
                        <path d="M1.25594097,65.6591606 C1.10600866,65.6592498 0.957573722,65.6293413 0.81937524,65.5711959 C0.540055687,65.455209 0.318256991,65.233006 0.202778905,64.9534757 C0.0873008178,64.6739455 0.0876041193,64.3599889 0.203622077,64.0806823 C11.9065988,35.9478106 33.6581226,13.1754866 61.2250862,0.195477194 C61.5950911,0.0131928518 62.034693,0.0449351355 62.3746718,0.278485187 C62.7146506,0.512035239 62.9020006,0.910980573 62.8646035,1.32175138 C62.8272063,1.73252219 62.5708925,2.09107572 62.1943273,2.25939057 C35.1409462,14.9980413 13.7947554,37.3464497 2.30988885,64.9554427 C2.13326842,65.3816156 1.71726306,65.6593812 1.25594097,65.6591606 Z" id="Shape"></path>
                    </g>
                    <path d="M125.36767,297.776926 C125.060285,297.775258 124.766593,297.649557 124.553181,297.428325 C90.7954047,262.394031 80.9906425,210.693287 99.5777118,165.732081 C99.8192702,165.150452 100.486596,164.87477 101.068225,165.116328 C101.649855,165.357887 101.925537,166.025212 101.683979,166.606842 C95.6418013,181.166877 92.5451898,196.780044 92.5731123,212.543982 C92.5731123,243.781238 104.513511,273.361824 126.193561,295.836815 C126.510412,296.16525 126.600925,296.650967 126.423641,297.071484 C126.246357,297.492002 125.835426,297.766317 125.379072,297.768781 L125.36767,297.776926 Z" id="Shape" fill="url(#radialGradient-10)"></path>
                    <g id="Group" opacity="0.3" transform="translate(124.128018, 295.333461)" fill="url(#linearGradient-11)">
                        <path d="M65.3920084,37.2921617 C65.3187276,37.2923087 65.2456116,37.2852153 65.1737256,37.2709851 C40.4782834,32.4962979 17.861578,20.2070838 0.418646991,2.08509007 C0.123930729,1.79430816 0.00998218601,1.36662678 0.120952177,0.967756556 C0.231922167,0.568886327 0.550373546,0.261503268 0.952918269,0.164706862 C1.35546299,0.0679104555 1.77884764,0.196910697 2.05902645,0.501724799 C10.4940585,9.25081992 20.2060063,16.6714006 30.86422,22.5108279 C41.7232009,28.4637927 53.4445918,32.6858457 65.6054044,35.0246263 C66.1847769,35.1332949 66.5858229,35.6656434 66.5304341,36.2525109 C66.4750453,36.8393784 65.9814816,37.2872934 65.3920084,37.2856458 L65.3920084,37.2921617 Z" id="Shape"></path>
                    </g>
                    <path d="M212.548869,334.811709 C204.74745,334.813034 196.96351,334.073966 189.301744,332.604446 C188.683229,332.485241 188.278457,331.887201 188.397662,331.268685 C188.516867,330.65017 189.114907,330.245399 189.733423,330.364603 C210.680463,334.385993 232.318788,332.789815 252.449023,325.73831 C252.83627,325.590251 253.273367,325.66404 253.590549,325.93102 C253.90773,326.197999 254.055015,326.616097 253.975198,327.022928 C253.895381,327.429759 253.601042,327.761214 253.206497,327.888559 C240.14516,332.487303 226.396132,334.828477 212.548869,334.811709 Z" id="Shape" fill="url(#linearGradient-12)"></path>
                    <g id="Group" opacity="0.5" transform="translate(251.676888, 129.829437)" fill="url(#linearGradient-13)">
                        <path d="M1.15005749,198.124281 C0.595046746,198.123302 0.121353631,197.722857 0.028023412,197.175748 C-0.0653068068,196.62864 0.248837391,196.093799 0.772134918,195.908873 C23.902568,187.725922 43.9783211,172.666833 58.3075891,152.750767 C73.0579724,132.264757 80.8542545,108.04839 80.8542545,82.7194327 C80.8830399,52.8538542 69.7453558,24.0564711 49.6284017,1.98246455 C49.3411523,1.68338606 49.2389108,1.25194134 49.3614023,0.855764649 C49.4838938,0.459587952 49.8118064,0.16113997 50.2177324,0.0763801841 C50.6236584,-0.00837960214 51.0436,0.133911923 51.3143925,0.44796857 C78.8644043,30.7710774 89.406679,72.8718702 79.3978701,112.599918 C69.3890611,152.327967 40.1580444,184.408552 1.52960905,198.059122 C1.40770104,198.102203 1.27935386,198.124237 1.15005749,198.124281 Z" id="Shape"></path>
                    </g>
                    <path d="M302.14747,132.184937 C301.826777,132.184551 301.52107,132.049142 301.305289,131.811901 C289.572778,118.914668 275.176919,108.721955 259.114795,101.939728 C258.73942,101.78143 258.477009,101.434896 258.426412,101.030663 C258.375814,100.626429 258.544716,100.225909 258.869493,99.979973 C259.194271,99.7340373 259.625583,99.6800502 260.000958,99.838348 C276.36743,106.748841 291.035768,117.135069 302.989651,130.277405 C303.412402,130.743172 303.378145,131.463301 302.913089,131.886834 C302.704472,132.07898 302.431091,132.185424 302.14747,132.184937 Z" id="Shape" fill="url(#radialGradient-14)"></path>
                    <g id="Group" opacity="0.3" transform="translate(159.802606, 90.245305)" fill="url(#radialGradient-15)">
                        <path d="M1.27548869,13.7697394 C0.741489482,13.7706186 0.278400183,13.4007923 0.161152786,12.879823 C0.0439053883,12.3588537 0.303906471,11.8262914 0.786795707,11.5983135 C17.0993676,3.92909161 34.5799157,0.0325795324 52.743005,0.0325795324 C69.0436311,0.00135202949 85.1839404,3.24991129 100.203239,9.58489843 C100.783519,9.82960568 101.055554,10.49839 100.810847,11.07867 C100.56614,11.65895 99.8973555,11.9309855 99.3170755,11.6862783 C84.5781158,5.46998462 68.7392012,2.28236912 52.743005,2.3131468 C34.9171138,2.3131468 17.7623611,6.12821004 1.7560368,13.654082 C1.60623667,13.7273049 1.44220085,13.7667847 1.27548869,13.7697394 Z" id="Shape"></path>
                    </g>
                    <g id="Group" opacity="0.5" transform="translate(110.607512, 397.144500)" fill="url(#linearGradient-16)">
                        <path d="M101.941357,27.7903411 C66.5837181,27.8433968 31.7771074,19.0301504 0.705346876,2.15676504 C0.151606846,1.85627893 -0.053696041,1.16379184 0.246790031,0.610051784 C0.547276103,0.0563117318 1.23976318,-0.148991206 1.79350326,0.151494826 C49.6471794,26.0135817 105.644746,32.3795017 158.082407,17.9187428 C158.475242,17.810204 158.896141,17.9194849 159.186555,18.2054203 C159.47697,18.4913557 159.592779,18.9105053 159.490359,19.3049795 C159.387939,19.6994537 159.08285,20.0093225 158.690015,20.1178612 C140.20572,25.2197183 121.11681,27.8005596 101.941357,27.7903411 Z" id="Shape"></path>
                    </g>
                    <g id="Group" opacity="0.3" transform="translate(267.803756, 302.663856)" fill="url(#linearGradient-17)">
                        <path d="M1.18915293,114.645745 C0.618097031,114.646232 0.134741419,114.224221 0.0581903196,113.658319 C-0.0183607795,113.092417 0.335501826,112.557154 0.886163281,112.405903 C29.9077955,104.361823 56.8547624,90.1571596 79.8915293,70.7594864 C102.766269,51.5306399 121.293508,27.6601693 134.245592,0.729781525 C134.419963,0.359250528 134.779634,0.110676012 135.187881,0.0785492275 C135.596129,0.0464224428 135.990254,0.23567751 136.220437,0.57437243 C136.45062,0.913067349 136.481508,1.34918441 136.301361,1.71694136 C109.761472,57.0387297 60.612254,98.1948678 1.48888463,114.605021 C1.39119901,114.631714 1.29041942,114.645407 1.18915293,114.645745 Z" id="Shape"></path>
                    </g>
                    <g id="Group" opacity="0.5" transform="translate(357.397470, 58.643158)" fill="url(#radialGradient-18)">
                        <path d="M45.6830203,246.384343 C45.292739,246.382975 44.9302686,246.182096 44.7222327,245.85188 C44.5141968,245.521664 44.4894982,245.107989 44.656765,244.755366 C51.3312736,230.852869 56.4459283,216.254086 59.9072442,201.225853 C66.7462242,171.361422 67.0313233,140.369535 60.7429092,110.384343 C54.9234094,82.7874475 43.5790251,56.6537496 27.3928708,33.5569184 C19.4453011,22.2107343 10.4029149,11.6722869 0.395841319,2.09323496 C-0.0593861075,1.65780003 -0.0754310964,0.935775529 0.360003833,0.480548103 C0.795438762,0.0253206767 1.51746326,0.00927568785 1.97269069,0.444710617 C22.333245,19.9150988 38.6257265,43.2339726 49.9053277,69.0490609 C55.6373926,82.1922544 60.0163991,95.8849049 62.9746071,109.915197 C69.3307791,140.224061 69.0429021,171.550419 62.1307972,201.737351 C58.6306959,216.929676 53.4597924,231.687921 46.7125335,245.742526 C46.521089,246.136417 46.1209687,246.385859 45.6830203,246.384343 Z" id="Shape"></path>
                    </g>
                    <path d="M342.032963,46.7695477 C341.780269,46.7686576 341.535028,46.6838548 341.335761,46.5284592 C275.354433,-4.71217887 185.27553,-11.9680019 111.943273,28.0509774 C111.390433,28.3532628 110.697216,28.1501478 110.394931,27.5973074 C110.092646,27.044467 110.295761,26.3512505 110.848601,26.0489651 C184.972248,-14.4360837 276.049198,-7.09948578 342.736681,44.72844 C343.121887,45.0273922 343.27438,45.5381939 343.116107,45.9993947 C342.957834,46.4605954 342.523823,46.770123 342.036221,46.7695477 L342.032963,46.7695477 Z" id="Shape" fill="url(#linearGradient-19)"></path>
                    <path d="M76.8404561,51.8014565 C76.3612576,51.8013014 75.9332843,51.5015583 75.7693461,51.0512745 C75.6054078,50.6009908 75.7404875,50.0962527 76.1074166,49.7880414 C86.8775383,40.7499121 98.5144815,32.7982464 110.848601,26.0489651 C111.401441,25.7466798 112.094658,25.9497948 112.396943,26.5026351 C112.699229,27.0554755 112.496114,27.748692 111.943273,28.0509774 C99.7403801,34.7246254 88.22724,42.588482 77.5718666,51.5277884 C77.3678735,51.7022553 77.1088711,51.7991649 76.8404561,51.8014565 Z" id="Shape" fill="url(#radialGradient-20)"></path>
                    <g id="Group" opacity="0.5" transform="translate(1.140284, 49.357992)" fill="url(#linearGradient-21)">
                        <path d="M1.22824837,142.994826 C1.18973286,142.997212 1.15110654,142.997212 1.11259103,142.994826 C0.486653411,142.931431 0.0303306614,142.373055 0.0928516673,141.74703 C2.83157106,114.11244 11.0178362,87.2942005 24.1789,62.841031 C36.9943082,39.000507 54.2304447,17.8171638 74.967133,0.421904944 C75.4498,0.0170584821 76.1692719,0.0801444858 76.5741184,0.562811482 C76.9789649,1.04547848 76.9158789,1.76495032 76.433212,2.16979686 C55.9175587,19.3777113 38.8654097,40.3339704 26.1874281,63.9194136 C13.1693816,88.1071532 5.07172558,114.634091 2.3620161,141.96857 C2.30348639,142.550935 1.81354671,142.994415 1.22824837,142.994826 Z" id="Shape"></path>
                    </g>
                    <g id="Group" opacity="0.3" transform="translate(0.000000, 189.938674)" fill="url(#linearGradient-22)">
                        <path d="M111.855309,209.499425 C111.665935,209.499565 111.479508,209.452539 111.312859,209.362591 C42.754752,172.272054 0.0726966138,100.558344 0.162897662,22.6101955 C0.162897662,15.4541012 0.522901495,8.23773476 1.2331353,1.15983135 C1.29611143,0.533218898 1.85513342,0.0763013748 2.48174588,0.139277501 C3.10835833,0.202253627 3.56527586,0.761275625 3.50229973,1.38788808 C2.80021081,8.39248754 2.44346493,15.5290341 2.44346493,22.6101955 C2.41611997,99.7042214 44.6221756,170.618523 112.399387,207.357321 C112.857781,207.606513 113.08857,208.135041 112.959767,208.640642 C112.830963,209.146242 112.375428,209.499927 111.85368,209.499425 L111.855309,209.499425 Z" id="Shape"></path>
                    </g>
                    <g id="Group" opacity="0.5" transform="translate(168.273285, 352.184745)" fill="url(#radialGradient-23)">
                        <path d="M44.2755845,21.251629 C29.6162192,21.2608446 15.0240678,19.2709061 0.902453047,15.3368149 C0.499803245,15.2364999 0.183433218,14.9253692 0.076408892,14.5244505 C-0.0306154344,14.1235319 0.0886027954,13.6961219 0.38768845,13.4084802 C0.686774104,13.1208386 1.11850794,13.0183777 1.51494826,13.1409544 C40.919274,24.1712459 83.0619635,19.5452095 119.135205,0.229685703 C119.495591,0.0186071447 119.942538,0.0214401535 120.300219,0.237070239 C120.6579,0.452700324 120.869077,0.846621104 120.850675,1.26386622 C120.832272,1.68111134 120.587235,2.0549108 120.211959,2.23821388 C96.8620628,14.7592211 70.7707088,21.2921343 44.2755845,21.251629 Z" id="Shape"></path>
                    </g>
                    <g id="Group" opacity="0.5" transform="translate(286.699885, 302.663856)" fill="url(#radialGradient-24)">
                        <path d="M1.24779609,51.8959371 C0.724858781,51.8962196 0.268754381,51.5407607 0.141289266,51.0335959 C0.0138241524,50.5264311 0.2476728,49.9975672 0.708604829,49.7505749 C22.7385523,37.9207874 41.6758447,21.0733158 55.9895554,0.570141817 C56.3576309,0.0771436833 57.0504368,-0.0349639962 57.5552079,0.316792853 C58.059979,0.668549702 58.1946825,1.35731903 57.8596205,1.87332311 C43.3435373,22.6709045 24.1364998,39.7601958 1.79187428,51.7591031 C1.62502242,51.8500367 1.43781467,51.8971189 1.24779609,51.8959371 Z" id="Shape"></path>
                    </g>
                    <g id="Group" opacity="0.5" transform="translate(340.781909, 117.775010)" fill="url(#radialGradient-25)">
                        <path d="M12.2319854,172.059026 C12.0423848,172.059362 11.8557802,172.011731 11.6895362,171.920563 C11.1363643,171.619982 10.9314592,170.927971 11.2317938,170.374665 C40.3221796,116.785846 36.0811992,51.2587407 0.325795324,1.86680721 C-0.0425610935,1.35669027 0.0718961307,0.644611791 0.581556949,0.27562455 C1.09121777,-0.0933626917 1.80343731,0.0202134763 2.17305481,0.529417401 C38.4249479,50.6391747 42.7248261,117.099495 13.2321771,171.462821 C13.0330239,171.829633 12.6493729,172.058324 12.2319854,172.059026 Z" id="Shape"></path>
                    </g>
                    <path d="M342.034592,120.11422 C341.668761,120.114031 341.325234,119.938329 341.110962,119.641817 C326.640913,99.653221 307.72699,83.297736 285.859333,71.8639325 C263.231458,60.0557743 238.078941,53.9073811 212.555385,53.9451897 C206.061819,53.9451334 199.574213,54.338437 193.12821,55.1229398 C192.502947,55.198961 191.934444,54.7537126 191.858423,54.1284496 C191.782402,53.5031866 192.22765,52.9346835 192.852913,52.8586623 C199.39302,52.0634405 205.975254,51.6646985 212.56353,51.6646225 C264.207485,51.6711351 312.711871,76.4583205 342.972882,118.307685 C343.224611,118.654738 343.260394,119.113661 343.065503,119.495538 C342.870611,119.877415 342.477987,120.1177 342.049253,120.117478 L342.034592,120.11422 Z" id="Shape" fill="url(#linearGradient-26)"></path>
                    <path d="M269.719433,349.019644 C269.176483,349.020433 268.70828,348.638284 268.600278,348.106184 C268.492275,347.574084 268.774432,347.039631 269.274722,346.82867 C295.300237,335.794545 317.570957,317.455616 333.392871,294.03028 C349.682637,269.921426 358.280376,241.754791 358.280376,212.550498 C358.280376,192.875719 354.427846,173.790629 346.82867,155.824645 C346.583513,155.244365 346.855184,154.575216 347.435464,154.330059 C348.015744,154.084902 348.684893,154.356573 348.93005,154.936853 C356.648141,173.181391 360.560943,192.566213 360.560943,212.550498 C360.560943,242.210905 351.819854,270.827137 335.282484,295.302511 C319.213284,319.094015 296.594643,337.719767 270.162514,348.926792 C270.022418,348.986751 269.871815,349.018311 269.719433,349.019644 Z" id="Shape" fill="url(#radialGradient-27)"></path>
                    <g id="Group" opacity="0.5" transform="translate(268.455347, 76.073208)" fill="url(#linearGradient-28)">
                        <path d="M79.424013,80.4470103 C78.9654548,80.4470149 78.5515058,80.1723325 78.3733231,79.7498084 C63.5602249,44.8158409 35.7493891,17.0067574 0.81448831,2.19586048 C0.234208333,1.95070339 -0.037462464,1.28155446 0.207694587,0.701274463 C0.452851638,0.120994471 1.12200056,-0.15067637 1.70228057,0.0944806439 C37.1825851,15.1378703 65.4273216,43.3820227 80.471445,78.8620161 C80.6206441,79.2142844 80.5832525,79.6178968 80.3718781,79.9367608 C80.1605038,80.2556247 79.8033165,80.4472452 79.4207551,80.4470103 L79.424013,80.4470103 Z" id="Shape"></path>
                    </g>
                    <path d="M92.3010732,129.340744 C91.8771166,129.339258 91.4889855,129.102684 91.2933907,128.72654 C91.097796,128.350396 91.1270335,127.89679 91.3692986,127.548869 C104.824796,108.434476 122.581105,92.7471231 143.208222,81.7501916 C164.560276,70.4124537 188.373401,64.5009895 212.548869,64.5367957 C217.602374,64.5363847 222.65267,64.7913732 227.680433,65.3007857 C228.096551,65.3281014 228.464569,65.5803887 228.640094,65.9586623 C228.81562,66.3369359 228.770654,66.780855 228.522839,67.1162472 C228.275024,67.4516393 227.863891,67.6250039 227.450747,67.5683212 C222.499198,67.0681643 217.525615,66.8175279 212.548869,66.817363 C165.036373,66.7828343 120.497501,89.9397642 93.2344768,128.852051 C93.0217623,129.15754 92.6733243,129.339969 92.3010732,129.340744 Z" id="Shape" fill="url(#linearGradient-29)"></path>
                    <g id="Group" opacity="0.5" transform="translate(64.833269, 126.897279)" fill="url(#radialGradient-30)">
                        <path d="M1.21358758,76.2996359 L1.13213875,76.2996359 C0.504299425,76.2553069 0.0311100618,75.7106652 0.0749329245,75.0827903 C1.96296343,48.3237851 11.1114202,22.5860065 26.5360291,0.638558835 C26.8994913,0.123504104 27.61167,0.000614085836 28.1267248,0.364076294 C28.6417795,0.727538502 28.7646696,1.4397172 28.4012074,1.95477194 C13.2169948,23.5618079 4.21005023,48.8992953 2.34898429,75.24243 C2.30550287,75.8376587 1.81040144,76.2986641 1.21358758,76.2996359 Z" id="Shape"></path>
                    </g>
                    <path d="M79.9192219,276.862495 C79.4790519,276.862209 79.0783529,276.608602 78.8897087,276.210905 C74.2380602,266.45931 70.6741112,256.225248 68.2622652,245.693657 C65.7822389,234.81937 64.5325682,223.700743 64.5367957,212.54724 C64.5367957,209.028651 64.6605979,205.470966 64.9082024,201.975182 C64.9373012,201.567798 65.1815265,201.206884 65.5488809,201.028392 C65.9162354,200.8499 66.350909,200.880948 66.6891646,201.109841 C67.0274202,201.338733 67.2178685,201.730696 67.1887696,202.13808 C66.9460521,205.581736 66.8238789,209.084036 66.8238789,212.550498 C66.8193753,223.53247 68.0499266,234.480114 70.4923342,245.187045 C72.8664435,255.555507 76.3746663,265.631131 80.9536221,275.23189 C81.2246571,275.800035 80.9840365,276.480336 80.4160598,276.751725 C80.2611165,276.826213 80.0911325,276.864111 79.9192219,276.862495 Z" id="Shape" fill="url(#radialGradient-31)"></path>
                    <g id="Group" opacity="0.5" transform="translate(78.679571, 274.482560)" fill="url(#radialGradient-32)">
                        <path d="M133.869299,86.0783825 C105.37524,86.0783825 77.7070717,77.962821 53.857225,62.6097164 C30.6642378,47.6968404 12.0867805,26.6147856 0.210137984,1.72997317 C0.0108759048,1.3592248 0.0320545422,0.908856854 0.265229367,0.558443914 C0.498404193,0.208030974 0.905651608,0.0145642678 1.32459042,0.0551845088 C1.74352922,0.0958047498 2.10602313,0.363905454 2.26753545,0.752587198 C13.9625649,25.2550111 32.2543585,46.0135766 55.0903603,60.6989268 C78.5720583,75.8142008 105.813434,83.8043312 133.869299,83.8043312 C153.544078,83.8043312 172.629168,79.9518015 190.595151,72.3526255 C191.175431,72.1074685 191.84458,72.3791393 192.089737,72.9594193 C192.334895,73.5396993 192.063224,74.2088483 191.482944,74.4540054 C173.235148,82.1655807 153.850326,86.0783825 133.869299,86.0783825 Z" id="Shape"></path>
                    </g>
                </g>
                <g id="Thorchain_Organisation" transform="translate(25.000000, 25.000000)">
                    <path d="M187.470098,374.940197 C162.162875,374.940197 137.611984,369.983583 114.498124,360.207552 C69.5591369,341.155037 33.7851597,305.38106 14.7326454,260.442073 C4.95661351,237.328213 0,212.777322 0,187.470098 C0,162.162875 4.95661351,137.611984 14.7326454,114.505159 C33.785327,69.5622102 69.5622102,33.785327 114.505159,14.7326454 C137.611984,4.95661351 162.17167,0 187.470098,0 C212.768527,0 237.329972,4.95661351 260.442073,14.7326454 C305.382369,33.786828 341.156538,69.5635196 360.207552,114.505159 C369.983583,137.61902 374.940197,162.17167 374.940197,187.477134 C374.940197,212.782598 369.983583,237.335249 360.207552,260.449109 C341.155037,305.388096 305.38106,341.162073 260.442073,360.214587 C237.329972,369.983583 212.777322,374.940197 187.470098,374.940197 Z M187.470098,3.69371482 C162.669442,3.69371482 138.591698,8.55182927 115.936914,18.1343809 C71.8868583,36.8129971 36.8200327,71.8798227 18.1414165,115.929878 C8.55182927,138.591698 3.69371482,162.658888 3.69371482,187.470098 C3.69371482,212.281309 8.55182927,236.348499 18.1343809,259.003283 C36.8129971,303.053339 71.8798227,338.120164 115.929878,356.79878 C138.584662,366.381332 162.653612,371.239447 187.463063,371.239447 C212.272514,371.239447 236.341463,366.381332 258.996248,356.79878 C303.046303,338.120164 338.113129,303.053339 356.791745,259.003283 C366.374296,236.348499 371.232411,212.281309 371.232411,187.470098 C371.232411,162.658888 366.374296,138.591698 356.791745,115.936914 C338.113129,71.8868583 303.046303,36.8200327 258.996248,18.1414165 C236.348499,8.55182927 212.281309,3.69371482 187.470098,3.69371482 Z" id="Shape" fill="url(#linearGradient-33)"></path>
                    <circle id="Oval" fill="url(#linearGradient-34)" cx="187.443715" cy="187.496482" r="95.1571295"></circle>
                    <circle id="Oval" fill="url(#linearGradient-35)" cx="344.338649" cy="90.0527674" r="27.2631332"></circle>
                    <circle id="Oval" fill="url(#linearGradient-34)" cx="29.141651" cy="90.0527674" r="27.2631332"></circle>
                    <circle id="Oval" fill="url(#linearGradient-34)" cx="188.14728" cy="373.061679" r="27.2631332"></circle>
                </g>
            </g>
        </g>
    </g>
</svg>