<?xml version="1.0" encoding="UTF-8"?>
<svg width="3970px" height="529px" viewBox="0 0 3970 529" version="1.1" xmlns="http://www.w3.org/2000/svg" xmlns:xlink="http://www.w3.org/1999/xlink">
    <!-- Generator: Sketch 52.6 (67491) - http://www.bohemiancoding.com/sketch -->
    <title>Chainfuel PRO</title>
    <desc>Created with Sketch.</desc>
    <g id="Chainfuel-PRO" stroke="none" stroke-width="1" fill="none" fill-rule="evenodd">
        <path d="M640.874395,256.732464 C637.063669,232.5759 624.043686,211.255106 604.143226,196.656139 C588.053492,184.997971 569.105713,178.801288 549.311106,178.801288 C520.095536,178.801288 492.256062,192.770083 474.896085,216.191447 C470.132677,222.598188 465.898537,229.740129 463.040492,236.461956 L443.034178,280.573942 C437.953209,290.551653 430.966877,298.848908 422.710303,305.045592 C411.48983,313.447875 398.787409,313.027761 387.778643,305.045592 C373.382565,290.866739 369.148425,283.304684 369.148425,263.139204 C369.148425,242.973725 396.987899,216.191447 396.987899,216.191447 C423.557131,193.820369 440.176133,160.316265 439.435158,123.031133 C438.376623,59.3838386 386.190841,7.39471179 322.043611,6.02934078 C254.297362,4.55894124 199.041828,58.5436103 199.041828,125.44679 C199.041828,129.122789 199.253535,132.798787 199.571096,136.474786 C201.899873,160.946436 182.422826,182.372258 157.653104,182.792372 C157.441397,182.792372 157.22969,182.792372 157.123836,182.792372 L102.291716,183.317515 C101.021474,183.212486 99.6453784,183.212486 98.2692827,183.212486 C72.5468788,183.212486 48.3064241,193.71534 30.6288873,212.620477 C15.5976883,228.689844 6.81184669,249.80058 6.0708721,271.646516 C5.11819047,296.013137 13.7981786,319.224444 30.4171803,337.079296 C47.1420355,355.144205 69.900541,365.647059 94.6702632,366.697344 C96.0463589,366.802373 97.4224546,366.802373 98.6926968,366.802373 C136.905815,366.802373 171.519914,342.960894 185.069164,307.461248 L207.086695,257.67772 C210.897422,249.06538 216.613511,241.608354 223.705697,235.621727 C229.104226,231.000471 235.772997,228.689844 242.547622,228.479787 C244.558839,228.794872 270.49295,231.945728 270.49295,263.45429 C270.49295,279.313599 268.164173,289.606396 259.695891,299.794165 L251.651024,308.406505 C251.651024,308.406505 251.651024,308.406505 251.651024,308.406505 L242.653476,318.06913 C215.237416,340.755295 198.089146,375.309684 199.359389,413.75013 C201.476459,476.662224 253.344681,527.496037 316.750935,528.966437 C384.497184,530.541865 439.858572,476.452167 439.752719,409.548988 C439.752719,409.233902 439.752719,408.813788 439.752719,408.498703 C439.541012,382.346596 459.759033,360.290603 486.010704,359.135289 C486.222411,359.135289 486.434118,359.135289 486.645825,359.135289 C487.069239,359.135289 487.492653,359.135289 487.916067,359.135289 C489.50387,359.135289 491.30338,359.240318 493.10289,359.450375 L541.160385,365.331973 C544.01843,365.647059 546.770621,365.752087 549.522813,365.752087 C577.785701,365.752087 604.8842,350.838035 624.043686,325.001014 C638.757325,305.15062 644.685122,280.994056 640.874395,256.732464 Z M154.477499,275.532572 C153.63067,305.255649 128.543388,328.677013 98.5868433,327.836785 C68.6302988,326.996556 45.0249652,302.104792 45.8717933,272.381716 C46.7186214,242.658639 71.8059042,219.237275 101.762449,220.077503 C131.824847,220.917732 155.324327,245.809496 154.477499,275.532572 Z M265.623688,90.9974289 C285.206588,61.0642953 325.642631,52.5569836 355.810882,72.0922919 C385.979134,91.5225716 394.553268,131.643474 374.864515,161.576607 C355.281615,191.509741 314.845572,200.017052 284.677321,180.481744 C254.509069,160.946436 245.934935,120.930563 265.623688,90.9974289 Z M385.238159,418.896528 C382.591821,454.501203 351.365034,481.28348 315.480693,478.657767 C279.596352,476.032053 252.603706,445.048634 255.250044,409.443959 C257.896382,373.839285 289.123168,347.057007 325.00751,349.682721 C360.891851,352.308434 387.884497,383.291853 385.238159,418.896528 Z M556.826705,327.101585 C527.187721,331.932898 499.242393,312.082504 494.373132,282.779541 C489.50387,253.37155 509.510184,225.644016 539.043315,220.812703 C568.682299,215.98139 596.627626,235.831784 601.496888,265.134747 C606.36615,294.437709 586.359835,322.270272 556.826705,327.101585 Z" id="Shape" fill="#5533FF" fill-rule="nonzero"></path>
        <path d="M949.575,225.337 C940.485621,213.841609 929.658729,204.685534 917.094,197.8685 C904.529271,191.051466 892.098395,187.643 879.801,187.643 C865.632262,187.643 852.733558,191.185131 841.1045,198.2695 C829.475442,205.353869 820.319367,215.111438 813.636,227.5425 C806.952633,239.973562 803.611,253.807924 803.611,269.046 C803.611,284.284076 806.952633,298.118438 813.636,310.5495 C820.319367,322.980562 829.475442,332.738131 841.1045,339.8225 C852.733558,346.906869 865.632262,350.449 879.801,350.449 C891.296391,350.449 903.326271,347.508363 915.891,341.627 C928.455729,335.745637 939.683617,327.725717 949.575,317.567 L992.482,363.682 C977.243924,379.72208 959.132272,392.487119 938.1465,401.9775 C917.160728,411.467881 896.37577,416.213 875.791,416.213 C847.988194,416.213 822.859112,409.797064 800.403,396.965 C777.946888,384.132936 760.303064,366.622778 747.471,344.434 C734.638936,322.245222 728.223,297.383471 728.223,269.848 C728.223,242.579864 734.772601,217.985443 747.872,196.064 C760.971399,174.142557 778.949386,156.899729 801.8065,144.335 C824.663614,131.770271 850.260525,125.488 878.598,125.488 C899.450104,125.488 920.034565,129.832123 940.352,138.5205 C960.669435,147.208877 977.912262,159.038258 992.081,174.009 L949.575,225.337 Z M1023.76,129.899 L1097.143,129.899 L1097.143,244.585 L1210.626,244.585 L1210.626,129.899 L1284.009,129.899 L1284.009,411 L1210.626,411 L1210.626,303.131 L1097.143,303.131 L1097.143,411 L1023.76,411 L1023.76,129.899 Z M1545.06,411 L1525.812,361.276 L1404.309,361.276 L1384.66,411 L1309.272,411 L1429.973,129.899 L1505.361,129.899 L1623.255,411 L1545.06,411 Z M1426.364,305.136 L1504.158,305.136 L1465.662,204.886 L1426.364,305.136 Z M1648.518,129.899 L1721.901,129.899 L1721.901,411 L1648.518,411 L1648.518,129.899 Z M1968.516,129.899 L2036.686,129.899 L2036.686,411 L1972.526,411 L1845.008,242.981 L1845.008,411 L1776.437,411 L1776.437,129.899 L1840.998,129.899 L1968.917,299.121 L1968.516,129.899 Z M2091.623,129.899 L2301.747,129.899 L2301.346,188.445 L2165.006,188.445 L2165.006,251.001 L2290.92,251.001 L2290.92,309.547 L2165.006,309.547 L2165.006,411 L2091.623,411 L2091.623,129.899 Z M2403.601,295.111 C2403.601,312.755088 2408.81395,326.923613 2419.24,337.617 C2429.66605,348.310387 2442.89892,353.657 2458.939,353.657 C2474.71175,353.657 2487.47678,348.377219 2497.2345,337.8175 C2506.99222,327.257781 2511.871,313.022423 2511.871,295.111 L2511.871,129.899 L2585.254,129.899 L2585.254,295.111 C2585.254,319.438455 2580.10788,340.758075 2569.8155,359.0705 C2559.52312,377.382925 2544.81993,391.484617 2525.7055,401.376 C2506.59107,411.267383 2484.20213,416.213 2458.538,416.213 C2432.87387,416.213 2410.35126,411.267383 2390.9695,401.376 C2371.58774,391.484617 2356.61722,377.382925 2346.0575,359.0705 C2335.49778,340.758075 2330.218,319.438455 2330.218,295.111 L2330.218,129.899 L2403.601,129.899 L2403.601,295.111 Z M2635.379,129.899 L2857.132,129.899 L2857.132,188.445 L2708.762,188.445 L2708.762,240.976 L2842.696,240.976 L2842.696,299.121 L2708.762,299.522 L2708.762,352.454 L2861.142,352.454 L2861.142,411 L2635.379,411 L2635.379,129.899 Z M2906.054,129.899 L2979.437,129.899 L2979.437,348.444 L3098.534,348.444 L3098.534,411 L2906.054,411 L2906.054,129.899 Z" id="CHAINFUEL" fill="#000000"></path>
    </g>
</svg>
