<svg xmlns="http://www.w3.org/2000/svg" xmlns:xlink="http://www.w3.org/1999/xlink" viewBox="0 0 2367 2368.9"><defs><style>.cls-1,.cls-3{opacity:0.2;}.cls-1{fill:url(#radial-gradient);}.cls-2{opacity:0.38;}.cls-3{fill:url(#radial-gradient-2);}.cls-4{fill:url(#radial-gradient-3);}.cls-5{fill:url(#radial-gradient-5);}.cls-6{fill:url(#radial-gradient-7);}.cls-7{fill:url(#radial-gradient-8);}.cls-8{fill:url(#radial-gradient-13);}.cls-9{fill:url(#radial-gradient-15);}.cls-10{fill:url(#radial-gradient-17);}.cls-11{fill:url(#radial-gradient-19);}.cls-12{fill:url(#radial-gradient-21);}.cls-13{fill:url(#radial-gradient-23);}.cls-14{fill:url(#radial-gradient-25);}.cls-15{fill:url(#radial-gradient-27);}.cls-16{fill:url(#radial-gradient-29);}.cls-17{fill:url(#radial-gradient-31);}.cls-18{fill:url(#radial-gradient-33);}.cls-19{fill:url(#radial-gradient-35);}.cls-20{fill:url(#radial-gradient-37);}.cls-21{fill:url(#radial-gradient-39);}.cls-22{fill:url(#radial-gradient-41);}.cls-23{fill:url(#radial-gradient-42);}.cls-24{fill:url(#radial-gradient-44);}.cls-25{fill:url(#radial-gradient-49);}.cls-26{fill:url(#radial-gradient-51);}.cls-27{fill:url(#radial-gradient-53);}.cls-28{fill:url(#radial-gradient-55);}.cls-29{fill:url(#radial-gradient-57);}.cls-30{fill:url(#radial-gradient-59);}.cls-31{fill:url(#radial-gradient-62);}.cls-32{fill:url(#radial-gradient-64);}.cls-33{fill:url(#radial-gradient-66);}.cls-34{fill:url(#radial-gradient-68);}.cls-35{fill:url(#radial-gradient-71);}.cls-36{fill:url(#radial-gradient-73);}.cls-37{fill:url(#radial-gradient-75);}.cls-38{fill:url(#radial-gradient-77);}.cls-39{fill:url(#radial-gradient-80);}.cls-40{fill:url(#radial-gradient-85);}.cls-41{fill:url(#radial-gradient-87);}.cls-42{fill:url(#linear-gradient);}.cls-43{fill:url(#radial-gradient-90);}.cls-44{fill:url(#linear-gradient-2);}.cls-45{fill:url(#linear-gradient-3);}.cls-46{fill:url(#radial-gradient-94);}.cls-47{fill:url(#radial-gradient-96);}.cls-48{fill:url(#linear-gradient-4);}.cls-49{fill:url(#radial-gradient-100);}.cls-50{fill:url(#radial-gradient-102);}.cls-51{fill:url(#radial-gradient-107);}.cls-52{fill:url(#linear-gradient-5);}.cls-53{fill:url(#linear-gradient-6);}.cls-54{fill:url(#radial-gradient-112);}.cls-55{fill:url(#linear-gradient-7);}.cls-56{fill:url(#radial-gradient-117);}.cls-57{fill:url(#radial-gradient-119);}.cls-58{fill:url(#radial-gradient-121);}.cls-59{fill:url(#linear-gradient-8);}.cls-60{fill:url(#radial-gradient-123);}.cls-61{fill:url(#radial-gradient-125);}.cls-62{fill:url(#radial-gradient-127);}.cls-63{fill:url(#radial-gradient-128);}.cls-64{fill:url(#linear-gradient-9);}.cls-65{fill:url(#linear-gradient-10);}.cls-66{fill:url(#radial-gradient-132);}.cls-67{fill:url(#linear-gradient-11);}.cls-68{fill:url(#radial-gradient-135);}.cls-69{fill:url(#radial-gradient-137);}.cls-70{fill:url(#linear-gradient-12);}.cls-71{fill:url(#radial-gradient-140);}.cls-72{fill:url(#radial-gradient-142);}.cls-73{fill:url(#linear-gradient-13);}.cls-74{fill:url(#linear-gradient-14);}.cls-75{fill:url(#radial-gradient-148);}.cls-76{fill:url(#radial-gradient-150);}.cls-77{fill:url(#radial-gradient-152);}.cls-78{fill:url(#radial-gradient-153);}.cls-79{fill:url(#radial-gradient-155);}.cls-80{fill:url(#linear-gradient-15);}.cls-81{fill:url(#radial-gradient-158);}.cls-82{fill:url(#linear-gradient-16);}.cls-83{fill:url(#radial-gradient-160);}.cls-84{fill:url(#radial-gradient-162);}.cls-85{fill:url(#linear-gradient-17);}.cls-86{fill:url(#radial-gradient-167);}.cls-87{fill:url(#linear-gradient-18);}.cls-88{fill:url(#radial-gradient-170);}.cls-89{fill:url(#radial-gradient-172);}.cls-90{fill:url(#radial-gradient-174);}.cls-91{fill:url(#radial-gradient-176);}.cls-92{fill:url(#radial-gradient-177);}.cls-93{fill:url(#linear-gradient-19);}.cls-94{fill:url(#linear-gradient-20);}.cls-95{fill:url(#radial-gradient-180);}.cls-96{fill:url(#radial-gradient-182);}.cls-97{fill:url(#radial-gradient-184);}.cls-98{fill:url(#radial-gradient-186);}.cls-99{fill:url(#radial-gradient-189);}.cls-100{fill:url(#linear-gradient-21);}.cls-101{fill:url(#radial-gradient-193);}.cls-102{fill:url(#linear-gradient-22);}.cls-103{fill:url(#radial-gradient-196);}.cls-104{fill:url(#linear-gradient-23);}.cls-105{fill:url(#radial-gradient-198);}.cls-106{fill:url(#radial-gradient-200);}.cls-107{fill:url(#radial-gradient-202);}.cls-108{fill:url(#radial-gradient-204);}.cls-109{fill:url(#radial-gradient-206);}.cls-110{fill:url(#radial-gradient-207);}.cls-111{fill:url(#radial-gradient-209);}.cls-112{fill:url(#radial-gradient-211);}.cls-113{fill:url(#radial-gradient-212);}.cls-114{fill:url(#linear-gradient-24);}.cls-115{fill:url(#radial-gradient-218);}.cls-116{fill:url(#radial-gradient-220);}.cls-117{fill:url(#radial-gradient-222);}.cls-118{fill:url(#radial-gradient-224);}.cls-119{fill:url(#radial-gradient-226);}.cls-120{fill:url(#radial-gradient-227);}.cls-121{fill:url(#radial-gradient-229);}.cls-122{fill:url(#radial-gradient-231);}.cls-123{fill:url(#radial-gradient-234);}.cls-124{fill:url(#radial-gradient-237);}.cls-125{fill:url(#radial-gradient-240);}.cls-126{fill:url(#radial-gradient-243);}.cls-127{fill:url(#radial-gradient-252);}.cls-128{fill:url(#radial-gradient-255);}.cls-129{fill:url(#radial-gradient-258);}.cls-130{fill:url(#radial-gradient-261);}.cls-131{fill:url(#radial-gradient-264);}.cls-132{fill:url(#radial-gradient-267);}.cls-133{fill:url(#radial-gradient-269);}.cls-134{fill:url(#radial-gradient-271);}.cls-135{fill:url(#radial-gradient-273);}.cls-136{fill:url(#radial-gradient-274);}</style><radialGradient id="radial-gradient" cx="2370.89" cy="-2.42" r="2048.3" gradientTransform="translate(-372.8) scale(1.16 1.16)" gradientUnits="userSpaceOnUse"><stop offset="0" stop-color="#0fc"/><stop offset="1" stop-color="#0cf" stop-opacity="0"/></radialGradient><radialGradient id="radial-gradient-2" cx="2395.89" cy="-2.88" r="2441.47" gradientTransform="translate(-79.33) scale(1.03 1.04)" xlink:href="#radial-gradient"/><radialGradient id="radial-gradient-3" cx="2179.09" cy="62.84" r="32.82" gradientUnits="userSpaceOnUse"><stop offset="0" stop-color="#0fc"/><stop offset="0.54" stop-color="#0cf" stop-opacity="0.46"/><stop offset="1" stop-color="#101921" stop-opacity="0"/></radialGradient><radialGradient id="radial-gradient-5" cx="2272.93" cy="175.59" r="84.34" xlink:href="#radial-gradient-3"/><radialGradient id="radial-gradient-7" cx="2376.74" cy="244.73" r="11.9" xlink:href="#radial-gradient-3"/><radialGradient id="radial-gradient-8" cx="2272.93" cy="175.59" r="84.34" xlink:href="#radial-gradient-3"/><radialGradient id="radial-gradient-13" cx="2240.35" cy="156.47" r="139.63" xlink:href="#radial-gradient-3"/><radialGradient id="radial-gradient-15" cx="2210.82" cy="163.9" r="181.18" xlink:href="#radial-gradient-3"/><radialGradient id="radial-gradient-17" cx="2181.29" cy="183.63" r="215.97" xlink:href="#radial-gradient-3"/><radialGradient id="radial-gradient-19" cx="2151.76" cy="212.12" r="245.85" xlink:href="#radial-gradient-3"/><radialGradient id="radial-gradient-21" cx="2122.22" cy="242.66" r="274.65" xlink:href="#radial-gradient-3"/><radialGradient id="radial-gradient-23" cx="2156.34" cy="503.5" r="164.83" xlink:href="#radial-gradient-3"/><radialGradient id="radial-gradient-25" cx="1828.42" cy="-2.42" r="45.57" xlink:href="#radial-gradient-3"/><radialGradient id="radial-gradient-27" cx="2224.55" cy="624.98" r="104.14" xlink:href="#radial-gradient-3"/><radialGradient id="radial-gradient-29" cx="1767.93" cy="1.31" r="42.81" xlink:href="#radial-gradient-3"/><radialGradient id="radial-gradient-31" cx="1907.54" cy="431.82" r="85.57" xlink:href="#radial-gradient-3"/><radialGradient id="radial-gradient-33" cx="2111.6" cy="601.13" r="199.62" xlink:href="#radial-gradient-3"/><radialGradient id="radial-gradient-35" cx="1761.97" cy="182.48" r="184.76" xlink:href="#radial-gradient-3"/><radialGradient id="radial-gradient-37" cx="1747.19" cy="413.05" r="78.26" xlink:href="#radial-gradient-3"/><radialGradient id="radial-gradient-39" cx="2082.34" cy="641.11" r="224.11" xlink:href="#radial-gradient-3"/><radialGradient id="radial-gradient-41" cx="1747.19" cy="413.05" r="78.26" xlink:href="#radial-gradient-3"/><radialGradient id="radial-gradient-42" cx="2081.99" cy="641.11" r="224.34" xlink:href="#radial-gradient-3"/><radialGradient id="radial-gradient-44" cx="1669.3" cy="132.06" r="137.42" xlink:href="#radial-gradient-3"/><radialGradient id="radial-gradient-49" cx="2050.46" cy="678.05" r="251.27" xlink:href="#radial-gradient-3"/><radialGradient id="radial-gradient-51" cx="1633.66" cy="192.2" r="176.82" xlink:href="#radial-gradient-3"/><radialGradient id="radial-gradient-53" cx="1945.03" cy="423.61" r="449.27" xlink:href="#radial-gradient-3"/><radialGradient id="radial-gradient-55" cx="1855.75" cy="791.33" r="66.05" xlink:href="#radial-gradient-3"/><radialGradient id="radial-gradient-57" cx="2146.22" cy="898.18" r="161.68" xlink:href="#radial-gradient-3"/><radialGradient id="radial-gradient-59" cx="1855.75" cy="791.33" r="66.05" xlink:href="#radial-gradient-3"/><radialGradient id="radial-gradient-62" cx="1470.37" cy="5.06" r="39.98" xlink:href="#radial-gradient-3"/><radialGradient id="radial-gradient-64" cx="1542.13" cy="371.27" r="126.8" xlink:href="#radial-gradient-3"/><radialGradient id="radial-gradient-66" cx="1622.97" cy="561.91" r="26.39" xlink:href="#radial-gradient-3"/><radialGradient id="radial-gradient-68" cx="1542.13" cy="371.27" r="126.8" xlink:href="#radial-gradient-3"/><radialGradient id="radial-gradient-71" cx="2182.72" cy="977.98" r="133.15" xlink:href="#radial-gradient-3"/><radialGradient id="radial-gradient-73" cx="1435.33" cy="162.44" r="154.85" xlink:href="#radial-gradient-3"/><radialGradient id="radial-gradient-75" cx="1604.63" cy="581.84" r="180.11" xlink:href="#radial-gradient-3"/><radialGradient id="radial-gradient-77" cx="1435.33" cy="162.44" r="154.85" xlink:href="#radial-gradient-3"/><radialGradient id="radial-gradient-80" cx="1812.49" cy="834.36" r="60.22" xlink:href="#radial-gradient-3"/><radialGradient id="radial-gradient-85" cx="2052.01" cy="964.99" r="236.11" xlink:href="#radial-gradient-3"/><radialGradient id="radial-gradient-87" cx="1372.06" cy="158.78" r="145.99" xlink:href="#radial-gradient-3"/><linearGradient id="linear-gradient" x1="1391.84" y1="609.68" x2="1742.47" y2="609.68" gradientUnits="userSpaceOnUse"><stop offset="0" stop-color="#101921" stop-opacity="0"/><stop offset="0.54" stop-color="#0cf" stop-opacity="0.46"/><stop offset="1" stop-color="#0fc"/></linearGradient><radialGradient id="radial-gradient-90" cx="2051.38" cy="964.99" r="236.53" xlink:href="#radial-gradient-3"/><linearGradient id="linear-gradient-2" x1="1391.69" y1="857.46" x2="1742.32" y2="857.46" xlink:href="#linear-gradient"/><linearGradient id="linear-gradient-3" x1="1391.69" y1="360.3" x2="1742.32" y2="360.3" xlink:href="#linear-gradient"/><radialGradient id="radial-gradient-94" cx="1333.26" cy="220.33" r="189.14" xlink:href="#radial-gradient-3"/><radialGradient id="radial-gradient-96" cx="1881.66" cy="806.03" r="428.2" xlink:href="#radial-gradient-3"/><linearGradient id="linear-gradient-4" x1="1521.54" y1="852.01" x2="1591.88" y2="852.01" xlink:href="#radial-gradient-3"/><radialGradient id="radial-gradient-100" cx="1801.1" cy="1032.96" r="93.28" xlink:href="#radial-gradient-3"/><radialGradient id="radial-gradient-102" cx="1997.52" cy="1126.25" r="67.32" xlink:href="#radial-gradient-3"/><radialGradient id="radial-gradient-107" cx="1413.1" cy="635.44" r="155.16" xlink:href="#radial-gradient-3"/><linearGradient id="linear-gradient-5" x1="1521.54" y1="819.04" x2="1591.88" y2="819.04" xlink:href="#radial-gradient-3"/><linearGradient id="linear-gradient-6" x1="1329.19" y1="928" x2="2024.66" y2="928" xlink:href="#radial-gradient-3"/><radialGradient id="radial-gradient-112" cx="2159.94" cy="1223.89" r="102.15" xlink:href="#radial-gradient-3"/><linearGradient id="linear-gradient-7" x1="1329.19" y1="1199.81" x2="2024.66" y2="1199.81" xlink:href="#radial-gradient-3"/><radialGradient id="radial-gradient-117" cx="2345.51" cy="1248.84" r="35.68" xlink:href="#radial-gradient-3"/><radialGradient id="radial-gradient-119" cx="1174.05" cy="7.72" r="38.04" xlink:href="#radial-gradient-3"/><radialGradient id="radial-gradient-121" cx="1346.65" cy="395.69" r="97.74" gradientTransform="matrix(1, -0.02, 0.02, 1, -76.57, 168)" xlink:href="#radial-gradient-3"/><linearGradient id="linear-gradient-8" x1="1329.19" y1="655.06" x2="2024.66" y2="655.06" xlink:href="#radial-gradient-3"/><radialGradient id="radial-gradient-123" cx="1346.66" cy="395.69" r="97.74" gradientTransform="matrix(1, -0.02, 0.02, 1, -76.57, 168)" xlink:href="#radial-gradient-3"/><radialGradient id="radial-gradient-125" cx="1655.75" cy="1059.48" r="177.06" xlink:href="#radial-gradient-3"/><radialGradient id="radial-gradient-127" cx="1655.75" cy="1059.63" r="177" xlink:href="#radial-gradient-3"/><radialGradient id="radial-gradient-128" cx="2124.44" cy="1255.18" r="196.06" xlink:href="#radial-gradient-3"/><linearGradient id="linear-gradient-9" x1="1109.62" y1="397.15" x2="1353.39" y2="397.15" xlink:href="#linear-gradient"/><linearGradient id="linear-gradient-10" x1="1149.56" y1="916.5" x2="1880.65" y2="916.5" xlink:href="#radial-gradient-3"/><radialGradient id="radial-gradient-132" cx="1122.86" cy="401.94" r="336.11" xlink:href="#radial-gradient-3"/><linearGradient id="linear-gradient-11" x1="1286.03" y1="1073.24" x2="1676.22" y2="1073.24" xlink:href="#radial-gradient-3"/><radialGradient id="radial-gradient-135" cx="938.03" cy="0" r="43.49" xlink:href="#radial-gradient-3"/><radialGradient id="radial-gradient-137" cx="1165.24" cy="774.04" r="216.07" xlink:href="#radial-gradient-3"/><linearGradient id="linear-gradient-12" x1="1410.2" y1="1207.89" x2="1648.46" y2="1207.89" xlink:href="#linear-gradient"/><radialGradient id="radial-gradient-140" cx="1751.72" cy="1343.11" r="86.57" xlink:href="#radial-gradient-3"/><radialGradient id="radial-gradient-142" cx="2125.43" cy="1439.95" r="194.39" xlink:href="#radial-gradient-3"/><linearGradient id="linear-gradient-13" x1="1410.2" y1="1292.29" x2="1648.46" y2="1292.29" xlink:href="#linear-gradient"/><linearGradient id="linear-gradient-14" x1="1108.37" y1="937.18" x2="1227.72" y2="937.18" xlink:href="#linear-gradient"/><radialGradient id="radial-gradient-148" cx="1730.69" cy="1403.55" r="26.34" xlink:href="#radial-gradient-3"/><radialGradient id="radial-gradient-150" cx="1844.85" cy="1449.06" r="66.74" xlink:href="#radial-gradient-3"/><radialGradient id="radial-gradient-152" cx="1730.69" cy="1403.55" r="26.34" xlink:href="#radial-gradient-3"/><radialGradient id="radial-gradient-153" cx="1844.85" cy="1449.06" r="66.74" xlink:href="#radial-gradient-3"/><radialGradient id="radial-gradient-155" cx="1031.77" cy="546.22" r="440.16" xlink:href="#radial-gradient-3"/><linearGradient id="linear-gradient-15" x1="1242.67" y1="1211.39" x2="1440.97" y2="1211.39" xlink:href="#linear-gradient"/><radialGradient id="radial-gradient-158" cx="1031.77" cy="546.22" r="440.16" xlink:href="#radial-gradient-3"/><linearGradient id="linear-gradient-16" x1="1242.67" y1="1126.2" x2="1440.97" y2="1126.2" xlink:href="#linear-gradient"/><radialGradient id="radial-gradient-160" cx="1619.64" cy="1397.48" r="150.39" xlink:href="#radial-gradient-3"/><radialGradient id="radial-gradient-162" cx="2127.89" cy="1551.41" r="236.39" xlink:href="#radial-gradient-3"/><linearGradient id="linear-gradient-17" x1="1242.67" y1="1296.22" x2="1440.97" y2="1296.22" xlink:href="#linear-gradient"/><radialGradient id="radial-gradient-167" cx="1427.75" cy="297.3" r="43.56" gradientTransform="translate(-130.77 1139.75) rotate(-6.41)" xlink:href="#radial-gradient-3"/><linearGradient id="linear-gradient-18" x1="1207.34" y1="4672.65" x2="1794.92" y2="4672.65" gradientTransform="translate(1569.32 -3970.77) rotate(23.89)" xlink:href="#radial-gradient-3"/><radialGradient id="radial-gradient-170" cx="1434.31" cy="1437.98" r="35.43" xlink:href="#radial-gradient-3"/><radialGradient id="radial-gradient-172" cx="712.16" cy="157.98" r="138.25" xlink:href="#radial-gradient-3"/><radialGradient id="radial-gradient-174" cx="797.08" cy="570.29" r="167.13" xlink:href="#radial-gradient-3"/><radialGradient id="radial-gradient-176" cx="712.19" cy="157.98" r="138.25" xlink:href="#radial-gradient-3"/><radialGradient id="radial-gradient-177" cx="797.05" cy="570.29" r="167.13" xlink:href="#radial-gradient-3"/><linearGradient id="linear-gradient-19" x1="1154.39" y1="1509.15" x2="1942.14" y2="1509.15" xlink:href="#radial-gradient-3"/><linearGradient id="linear-gradient-20" x1="1154.39" y1="1728.52" x2="1942.14" y2="1728.52" xlink:href="#radial-gradient-3"/><radialGradient id="radial-gradient-180" cx="2329.4" cy="1754.9" r="279.26" xlink:href="#radial-gradient-3"/><radialGradient id="radial-gradient-182" cx="688.34" cy="296.42" r="238.69" xlink:href="#radial-gradient-3"/><radialGradient id="radial-gradient-184" cx="779.08" cy="727.49" r="80.39" xlink:href="#radial-gradient-3"/><radialGradient id="radial-gradient-186" cx="688.43" cy="296.42" r="238.68" xlink:href="#radial-gradient-3"/><radialGradient id="radial-gradient-189" cx="1046.67" cy="1155.92" r="125.77" xlink:href="#radial-gradient-3"/><linearGradient id="linear-gradient-21" x1="1154.39" y1="1288.94" x2="1942.14" y2="1288.94" xlink:href="#radial-gradient-3"/><radialGradient id="radial-gradient-193" cx="675.28" cy="410.82" r="324.06" xlink:href="#radial-gradient-3"/><linearGradient id="linear-gradient-22" x1="841.61" y1="1073.12" x2="963.12" y2="1073.12" xlink:href="#linear-gradient"/><radialGradient id="radial-gradient-196" cx="1296.89" cy="1420.28" r="305.61" xlink:href="#radial-gradient-3"/><linearGradient id="linear-gradient-23" x1="841.61" y1="1156.28" x2="963.12" y2="1156.28" xlink:href="#linear-gradient"/><radialGradient id="radial-gradient-198" cx="1296.54" cy="1420.28" r="305.8" xlink:href="#radial-gradient-3"/><radialGradient id="radial-gradient-200" cx="537.12" cy="171.71" r="156.59" xlink:href="#radial-gradient-3"/><radialGradient id="radial-gradient-202" cx="670.71" cy="782.75" r="26.46" xlink:href="#radial-gradient-3"/><radialGradient id="radial-gradient-204" cx="742.54" cy="923.47" r="91.36" xlink:href="#radial-gradient-3"/><radialGradient id="radial-gradient-206" cx="670.71" cy="782.75" r="26.46" xlink:href="#radial-gradient-3"/><radialGradient id="radial-gradient-207" cx="742.64" cy="923.27" r="91.45" xlink:href="#radial-gradient-3"/><radialGradient id="radial-gradient-209" cx="1091.96" cy="1325.75" r="294.67" xlink:href="#radial-gradient-3"/><radialGradient id="radial-gradient-211" cx="2059.12" cy="1758.24" r="490.87" xlink:href="#radial-gradient-3"/><radialGradient id="radial-gradient-212" cx="1092.47" cy="1325.23" r="294.67" xlink:href="#radial-gradient-3"/><linearGradient id="linear-gradient-24" x1="731.96" y1="1184.96" x2="956.36" y2="1184.96" xlink:href="#radial-gradient-3"/><radialGradient id="radial-gradient-218" cx="1124.9" cy="1486.34" r="139.9" xlink:href="#radial-gradient-3"/><radialGradient id="radial-gradient-220" cx="574.91" cy="696.14" r="61.21" xlink:href="#radial-gradient-3"/><radialGradient id="radial-gradient-222" cx="418.9" cy="178.07" r="159.07" xlink:href="#radial-gradient-3"/><radialGradient id="radial-gradient-224" cx="461" cy="513.35" r="85.92" xlink:href="#radial-gradient-3"/><radialGradient id="radial-gradient-226" cx="418.93" cy="178.07" r="159.07" xlink:href="#radial-gradient-3"/><radialGradient id="radial-gradient-227" cx="460.98" cy="513.35" r="85.92" xlink:href="#radial-gradient-3"/><radialGradient id="radial-gradient-229" cx="770.39" cy="1140.87" r="257.73" xlink:href="#radial-gradient-3"/><radialGradient id="radial-gradient-231" cx="1592.83" cy="1885.2" r="270.54" xlink:href="#radial-gradient-3"/><radialGradient id="radial-gradient-234" cx="1881.79" cy="806.03" r="428.13" xlink:href="#radial-gradient-3"/><radialGradient id="radial-gradient-237" cx="2345.51" cy="1248.84" r="35.68" xlink:href="#radial-gradient-3"/><radialGradient id="radial-gradient-240" cx="2124.44" cy="1255.18" r="196.06" xlink:href="#radial-gradient-3"/><radialGradient id="radial-gradient-243" cx="2168.72" cy="1396.13" r="154.18" xlink:href="#radial-gradient-3"/><radialGradient id="radial-gradient-252" cx="2307.76" cy="734.27" r="446.12" gradientTransform="translate(-100.02 1144.32) rotate(-6.42)" xlink:href="#radial-gradient-3"/><radialGradient id="radial-gradient-255" cx="2329.4" cy="1754.95" r="279.18" xlink:href="#radial-gradient-3"/><radialGradient id="radial-gradient-258" cx="2226.94" cy="1781.68" r="358.97" xlink:href="#radial-gradient-3"/><radialGradient id="radial-gradient-261" cx="2059.12" cy="1758.5" r="490.73" xlink:href="#radial-gradient-3"/><radialGradient id="radial-gradient-264" cx="2036.72" cy="1869.52" r="515.02" xlink:href="#radial-gradient-3"/><radialGradient id="radial-gradient-267" cx="2477.95" cy="2060.05" r="180.95" xlink:href="#radial-gradient-3"/><radialGradient id="radial-gradient-269" cx="435.41" cy="418.59" r="345.3" xlink:href="#radial-gradient-3"/><radialGradient id="radial-gradient-271" cx="647.12" cy="1094.44" r="168.35" xlink:href="#radial-gradient-3"/><radialGradient id="radial-gradient-273" cx="435.55" cy="418.59" r="345.28" xlink:href="#radial-gradient-3"/><radialGradient id="radial-gradient-274" cx="646.97" cy="1094.44" r="168.41" xlink:href="#radial-gradient-3"/></defs><title>Thorchain_Asset 32</title><g id="Layer_2" data-name="Layer 2"><g id="Layer_1-2" data-name="Layer 1"><path class="cls-1" d="M2363.72,1607.38A1562.43,1562.43,0,0,1,2073,1580.15a1543.14,1543.14,0,0,1-272.62-78.36,3.28,3.28,0,0,0,2.39-6.11,1536.33,1536.33,0,0,0,271.45,78,1556.22,1556.22,0,0,0,289.49,27.12l3.28,0V1489.23l-3.28,0c-174.47,0-344.92-31-506.63-92.25h0a3.43,3.43,0,0,0,1.16.21,3.28,3.28,0,0,0,1.17-6.35h0c160.95,60.93,330.63,91.83,504.3,91.83l3.28,0v-52.49h-3.28a1372.35,1372.35,0,0,1-408.06-61.7,3.28,3.28,0,1,1,1.95-6.26,1365.84,1365.84,0,0,0,406.11,61.39H2367V1312l-3.28,0a1262.13,1262.13,0,0,1-264-27.83A1247.56,1247.56,0,0,1,1855,1204.59a3.28,3.28,0,1,0,2.66-6,1240.84,1240.84,0,0,0,243.46,79.22,1255.9,1255.9,0,0,0,262.59,27.69l3.28,0V1253l-3.28,0c-21.75,0-43.75-.59-65.39-1.75h.18a3.28,3.28,0,0,0,.17-6.56c21.53,1.16,43.41,1.75,65,1.75l3.28,0V1134.85l-3.28,0c-214.92,0-422.42-63.12-600-182.54a1081.73,1081.73,0,0,1-228.57-206.5,1076.23,1076.23,0,0,1-161.69-264.07,3.28,3.28,0,1,0,6-2.58,1069.9,1069.9,0,0,0,160.7,262.46,1075.43,1075.43,0,0,0,227.19,205.25c176.55,118.68,382.78,181.42,596.39,181.42l3.28,0V0H0C1.51,1308.56,1060.67,2368.9,2367,2368.9v-289l-3.28,0c-45.88,0-92.26-1.56-137.84-4.63a3.28,3.28,0,0,1,.44-6.54c45.44,3.05,91.66,4.61,137.4,4.61l3.28,0v-52.5h-3.28A1965.63,1965.63,0,0,1,1814.77,1943a1952.75,1952.75,0,0,1-489-218.76,3.28,3.28,0,1,1,3.47-5.56,1946.72,1946.72,0,0,0,487.32,218,1959,1959,0,0,0,547.12,77.53H2367V1902.68l-3.28,0A1847.24,1847.24,0,0,1,1844,1828.47a1836.07,1836.07,0,0,1-462.32-208.62,3.28,3.28,0,0,0,3.5-5.55,1829.16,1829.16,0,0,0,460.66,207.87,1840.53,1840.53,0,0,0,517.9,74H2367v-52.5h-3.28a1800.77,1800.77,0,0,1-329.28-30.3,1777.23,1777.23,0,0,1-309.25-87.25,3.28,3.28,0,0,1,2.34-6.13,1771,1771,0,0,0,308.11,86.93,1794.8,1794.8,0,0,0,328.08,30.19H2367v-52.51l-3.28,0a1733.26,1733.26,0,0,1-425.66-52.87,3.21,3.21,0,0,0,.81.1,3.28,3.28,0,0,0,.8-6.46,1726.51,1726.51,0,0,0,424,52.67l3.28,0v-50.74A1656.16,1656.16,0,0,1,1649.78,1559a3.28,3.28,0,1,1,2.88-5.89A1649.13,1649.13,0,0,0,2367,1720.67V1607.36Z"/><g class="cls-2"><path class="cls-3" d="M2181.31,102.37a3.29,3.29,0,0,1,4,2.35,185.89,185.89,0,0,1-2.23-83.92,3.28,3.28,0,0,0-6.43-1.32,192.6,192.6,0,0,0,2.31,86.9A3.28,3.28,0,0,1,2181.31,102.37Z"/><path class="cls-4" d="M2181.31,102.37a3.29,3.29,0,0,1,4,2.35,185.89,185.89,0,0,1-2.23-83.92,3.28,3.28,0,0,0-6.43-1.32,192.6,192.6,0,0,0,2.31,86.9A3.28,3.28,0,0,1,2181.31,102.37Z"/><path class="cls-3" d="M2360.44,245.63a3.28,3.28,0,0,1,3.28-3.28,183.61,183.61,0,0,1-113.57-39.12,184.77,184.77,0,0,1-40.28-43.6,183.21,183.21,0,0,1-24.56-54.91h0a3.28,3.28,0,0,1-2.35,4,3.26,3.26,0,0,1-4-2.34h0a189.62,189.62,0,0,0,25.44,56.87,191.52,191.52,0,0,0,41.7,45.15,190.19,190.19,0,0,0,117.62,40.51A3.28,3.28,0,0,1,2360.44,245.63Z"/><path class="cls-5" d="M2360.44,245.63a3.28,3.28,0,0,1,3.28-3.28,183.61,183.61,0,0,1-113.57-39.12,184.77,184.77,0,0,1-40.28-43.6,183.21,183.21,0,0,1-24.56-54.91h0a3.28,3.28,0,0,1-2.35,4,3.26,3.26,0,0,1-4-2.34h0a189.62,189.62,0,0,0,25.44,56.87,191.52,191.52,0,0,0,41.7,45.15,190.19,190.19,0,0,0,117.62,40.51A3.28,3.28,0,0,1,2360.44,245.63Z"/><path class="cls-3" d="M2367,245.63a3.28,3.28,0,1,0-3.28,3.28A3.28,3.28,0,0,0,2367,245.63Z"/><path class="cls-6" d="M2367,245.63a3.28,3.28,0,1,0-3.28,3.28A3.28,3.28,0,0,0,2367,245.63Z"/><path class="cls-7" d="M2367,245.63a3.28,3.28,0,1,0-3.28,3.28A3.28,3.28,0,0,0,2367,245.63Z"/><path class="cls-3" d="M2182.13,108.83a3.32,3.32,0,0,0,.83-.11,3.28,3.28,0,0,0,2.35-4h0a3.28,3.28,0,1,0-6.35,1.66h0A3.29,3.29,0,0,0,2182.13,108.83Z"/><path class="cls-4" d="M2182.13,108.83a3.32,3.32,0,0,0,.83-.11,3.28,3.28,0,0,0,2.35-4h0a3.28,3.28,0,1,0-6.35,1.66h0A3.29,3.29,0,0,0,2182.13,108.83Z"/><path class="cls-5" d="M2182.13,108.83a3.32,3.32,0,0,0,.83-.11,3.28,3.28,0,0,0,2.35-4h0a3.28,3.28,0,1,0-6.35,1.66h0A3.29,3.29,0,0,0,2182.13,108.83Z"/><path class="cls-3" d="M2363.72,301.41A241.79,241.79,0,0,1,2269,282.28,243.25,243.25,0,0,1,2120.27,58a245.44,245.44,0,0,1,4.94-49.07,3.28,3.28,0,1,0-6.42-1.31A251.11,251.11,0,0,0,2113.71,58,250.28,250.28,0,0,0,2266.4,288.33,248.61,248.61,0,0,0,2363.72,308a3.28,3.28,0,1,0,0-6.56Z"/><path class="cls-8" d="M2363.72,301.41A241.79,241.79,0,0,1,2269,282.28,243.25,243.25,0,0,1,2120.27,58a245.44,245.44,0,0,1,4.94-49.07,3.28,3.28,0,1,0-6.42-1.31A251.11,251.11,0,0,0,2113.71,58,250.28,250.28,0,0,0,2266.4,288.33,248.61,248.61,0,0,0,2363.72,308a3.28,3.28,0,1,0,0-6.56Z"/><path class="cls-3" d="M2078.93,178.27a308,308,0,0,0,66.24,98.24,308,308,0,0,0,98.24,66.24A307.11,307.11,0,0,0,2363.72,367a3.28,3.28,0,1,0,0-6.56A300.67,300.67,0,0,1,2246,336.71a301.37,301.37,0,0,1-96.16-64.84A301.52,301.52,0,0,1,2061.2,58a303.87,303.87,0,0,1,5.56-58h-6.68a310.63,310.63,0,0,0-5.44,58A307.11,307.11,0,0,0,2078.93,178.27Z"/><path class="cls-9" d="M2078.93,178.27a308,308,0,0,0,66.24,98.24,308,308,0,0,0,98.24,66.24A307.11,307.11,0,0,0,2363.72,367a3.28,3.28,0,1,0,0-6.56A300.67,300.67,0,0,1,2246,336.71a301.37,301.37,0,0,1-96.16-64.84A301.52,301.52,0,0,1,2061.2,58a303.87,303.87,0,0,1,5.56-58h-6.68a310.63,310.63,0,0,0-5.44,58A307.11,307.11,0,0,0,2078.93,178.27Z"/><path class="cls-3" d="M2024.51,201.26a367,367,0,0,0,78.89,117,367,367,0,0,0,117,78.89,365.8,365.8,0,0,0,143.3,28.93,3.28,3.28,0,1,0,0-6.56A359.33,359.33,0,0,1,2223,391.13,361.27,361.27,0,0,1,2002.14,58a363.4,363.4,0,0,1,4.63-58h-6.65a370.65,370.65,0,0,0-4.54,58A365.8,365.8,0,0,0,2024.51,201.26Z"/><path class="cls-10" d="M2024.51,201.26a367,367,0,0,0,78.89,117,367,367,0,0,0,117,78.89,365.8,365.8,0,0,0,143.3,28.93,3.28,3.28,0,1,0,0-6.56A359.33,359.33,0,0,1,2223,391.13,361.27,361.27,0,0,1,2002.14,58a363.4,363.4,0,0,1,4.63-58h-6.65a370.65,370.65,0,0,0-4.54,58A365.8,365.8,0,0,0,2024.51,201.26Z"/><path class="cls-3" d="M1970.09,224.25A425.69,425.69,0,0,0,2061.64,360a425.69,425.69,0,0,0,135.79,91.55,424.51,424.51,0,0,0,166.29,33.58,3.29,3.29,0,0,0,0-6.57A418,418,0,0,1,2200,445.55a419.33,419.33,0,0,1-133.71-90.15A419.29,419.29,0,0,1,1943.08,58a424.12,424.12,0,0,1,4-58h-6.61a430.67,430.67,0,0,0-3.92,58A424.51,424.51,0,0,0,1970.09,224.25Z"/><path class="cls-11" d="M1970.09,224.25A425.69,425.69,0,0,0,2061.64,360a425.69,425.69,0,0,0,135.79,91.55,424.51,424.51,0,0,0,166.29,33.58,3.29,3.29,0,0,0,0-6.57A418,418,0,0,1,2200,445.55a419.33,419.33,0,0,1-133.71-90.15A419.29,419.29,0,0,1,1943.08,58a424.12,424.12,0,0,1,4-58h-6.61a430.67,430.67,0,0,0-3.92,58A424.51,424.51,0,0,0,1970.09,224.25Z"/><path class="cls-3" d="M1915.67,247.24A484.41,484.41,0,0,0,2019.88,401.8,484.52,484.52,0,0,0,2174.44,506a483.17,483.17,0,0,0,189.28,38.22,3.28,3.28,0,1,0,0-6.56A476.55,476.55,0,0,1,2177,500a478.18,478.18,0,0,1-152.49-102.8A478.29,478.29,0,0,1,1884,58a484.92,484.92,0,0,1,3.48-58h-6.61a491.34,491.34,0,0,0-3.43,58A483.17,483.17,0,0,0,1915.67,247.24Z"/><path class="cls-12" d="M1915.67,247.24A484.41,484.41,0,0,0,2019.88,401.8,484.52,484.52,0,0,0,2174.44,506a483.17,483.17,0,0,0,189.28,38.22,3.28,3.28,0,1,0,0-6.56A476.55,476.55,0,0,1,2177,500a478.18,478.18,0,0,1-152.49-102.8A478.29,478.29,0,0,1,1884,58a484.92,484.92,0,0,1,3.48-58h-6.61a491.34,491.34,0,0,0-3.43,58A483.17,483.17,0,0,0,1915.67,247.24Z"/><path class="cls-3" d="M2363.72,596.73a541.48,541.48,0,0,1-120.3-13.48,536.33,536.33,0,0,1-110.79-38.45,540.08,540.08,0,0,1-98.31-60.46,542.51,542.51,0,0,1-82.84-79.47,3.28,3.28,0,1,0-5,4.22,549.14,549.14,0,0,0,83.85,80.44,546.07,546.07,0,0,0,99.5,61.19A542.21,542.21,0,0,0,2242,589.65a548.61,548.61,0,0,0,121.76,13.64,3.28,3.28,0,1,0,0-6.56Z"/><path class="cls-13" d="M2363.72,596.73a541.48,541.48,0,0,1-120.3-13.48,536.33,536.33,0,0,1-110.79-38.45,540.08,540.08,0,0,1-98.31-60.46,542.51,542.51,0,0,1-82.84-79.47,3.28,3.28,0,1,0-5,4.22,549.14,549.14,0,0,0,83.85,80.44,546.07,546.07,0,0,0,99.5,61.19A542.21,542.21,0,0,0,2242,589.65a548.61,548.61,0,0,0,121.76,13.64,3.28,3.28,0,1,0,0-6.56Z"/><path class="cls-3" d="M1821.67,61.24A3.28,3.28,0,0,0,1825,58a543.77,543.77,0,0,1,3.1-58h-6.6a551.73,551.73,0,0,0-3.06,58A3.28,3.28,0,0,0,1821.67,61.24Z"/><path class="cls-14" d="M1821.67,61.24A3.28,3.28,0,0,0,1825,58a543.77,543.77,0,0,1,3.1-58h-6.6a551.73,551.73,0,0,0-3.06,58A3.28,3.28,0,0,0,1821.67,61.24Z"/><path class="cls-3" d="M2363.72,655.8a600.34,600.34,0,0,1-144.83-17.67,594.52,594.52,0,0,1-132-50.14,3.28,3.28,0,1,0-3,5.81,601.4,601.4,0,0,0,133.44,50.7,606.87,606.87,0,0,0,146.42,17.86,3.28,3.28,0,1,0,0-6.56Z"/><path class="cls-15" d="M2363.72,655.8a600.34,600.34,0,0,1-144.83-17.67,594.52,594.52,0,0,1-132-50.14,3.28,3.28,0,1,0-3,5.81,601.4,601.4,0,0,0,133.44,50.7,606.87,606.87,0,0,0,146.42,17.86,3.28,3.28,0,1,0,0-6.56Z"/><path class="cls-3" d="M1762.6,61.24a3.28,3.28,0,0,0,3.28-3.28c0-19.36.94-38.72,2.79-58h-6.59c-1.83,19.24-2.76,38.6-2.76,58A3.28,3.28,0,0,0,1762.6,61.24Z"/><path class="cls-16" d="M1762.6,61.24a3.28,3.28,0,0,0,3.28-3.28c0-19.36.94-38.72,2.79-58h-6.59c-1.83,19.24-2.76,38.6-2.76,58A3.28,3.28,0,0,0,1762.6,61.24Z"/><path class="cls-3" d="M1979.27,524.34a3.27,3.27,0,0,0,4.61-.44,3.27,3.27,0,0,0-.44-4.62,602.48,602.48,0,0,1-82-82.19,600.65,600.65,0,0,1-64.84-96.81,3.28,3.28,0,1,0-5.78,3.1,607,607,0,0,0,65.55,97.87A609.42,609.42,0,0,0,1979.27,524.34Z"/><path class="cls-17" d="M1979.27,524.34a3.27,3.27,0,0,0,4.61-.44,3.27,3.27,0,0,0-.44-4.62,602.48,602.48,0,0,1-82-82.19,600.65,600.65,0,0,1-64.84-96.81,3.28,3.28,0,1,0-5.78,3.1,607,607,0,0,0,65.55,97.87A609.42,609.42,0,0,0,1979.27,524.34Z"/><path class="cls-3" d="M2363.72,714.86a660.26,660.26,0,0,1-146.33-16.36,653,653,0,0,1-134.79-46.66,658,658,0,0,1-119.67-73.37A661.45,661.45,0,0,1,1862,482a3.28,3.28,0,0,0-5,4.24,667.48,667.48,0,0,0,102,97.43,664,664,0,0,0,120.86,74.11,659.83,659.83,0,0,0,136.15,47.13,667.23,667.23,0,0,0,147.78,16.52,3.28,3.28,0,1,0,0-6.56Z"/><path class="cls-18" d="M2363.72,714.86a660.26,660.26,0,0,1-146.33-16.36,653,653,0,0,1-134.79-46.66,658,658,0,0,1-119.67-73.37A661.45,661.45,0,0,1,1862,482a3.28,3.28,0,0,0-5,4.24,667.48,667.48,0,0,0,102,97.43,664,664,0,0,0,120.86,74.11,659.83,659.83,0,0,0,136.15,47.13,667.23,667.23,0,0,0,147.78,16.52,3.28,3.28,0,1,0,0-6.56Z"/><path class="cls-3" d="M1817.71,435a3.27,3.27,0,0,0,2.7,1.42,3.23,3.23,0,0,0,1.86-.59,3.28,3.28,0,0,0,.83-4.56c-76.07-110-116.28-239-116.28-373.27,0-19.35.86-38.71,2.54-58h-6.58c-1.67,19.25-2.52,38.61-2.52,58C1700.26,193.53,1740.87,323.89,1817.71,435Z"/><path class="cls-19" d="M1817.71,435a3.27,3.27,0,0,0,2.7,1.42,3.23,3.23,0,0,0,1.86-.59,3.28,3.28,0,0,0,.83-4.56c-76.07-110-116.28-239-116.28-373.27,0-19.35.86-38.71,2.54-58h-6.58c-1.67,19.25-2.52,38.61-2.52,58C1700.26,193.53,1740.87,323.89,1817.71,435Z"/><path class="cls-3" d="M1695.33,324.13a3.2,3.2,0,0,1-1.2.23,3.29,3.29,0,0,1-3.06-2.08h0a720.89,720.89,0,0,0,106.62,184.78,3.28,3.28,0,1,1,5.14-4.08h0a714.37,714.37,0,0,1-105.65-183.1A3.28,3.28,0,0,1,1695.33,324.13Z"/><path class="cls-20" d="M1695.33,324.13a3.2,3.2,0,0,1-1.2.23,3.29,3.29,0,0,1-3.06-2.08h0a720.89,720.89,0,0,0,106.62,184.78,3.28,3.28,0,1,1,5.14-4.08h0a714.37,714.37,0,0,1-105.65-183.1A3.28,3.28,0,0,1,1695.33,324.13Z"/><path class="cls-3" d="M1802.3,507.59a3.28,3.28,0,0,1-4.61-.53,727.82,727.82,0,0,0,112,113,725,725,0,0,0,134.63,86.18,719,719,0,0,0,152.8,54.94,726.38,726.38,0,0,0,166.57,19.29,3.28,3.28,0,1,0,0-6.56,719.42,719.42,0,0,1-165.06-19.12,711.53,711.53,0,0,1-151.41-54.44A717.55,717.55,0,0,1,1913.85,615a721.33,721.33,0,0,1-111-112A3.29,3.29,0,0,1,1802.3,507.59Z"/><path class="cls-21" d="M1802.3,507.59a3.28,3.28,0,0,1-4.61-.53,727.82,727.82,0,0,0,112,113,725,725,0,0,0,134.63,86.18,719,719,0,0,0,152.8,54.94,726.38,726.38,0,0,0,166.57,19.29,3.28,3.28,0,1,0,0-6.56,719.42,719.42,0,0,1-165.06-19.12,711.53,711.53,0,0,1-151.41-54.44A717.55,717.55,0,0,1,1913.85,615a721.33,721.33,0,0,1-111-112A3.29,3.29,0,0,1,1802.3,507.59Z"/><path class="cls-3" d="M1798.22,502.45a3.28,3.28,0,1,0,4.61.53h0A3.29,3.29,0,0,0,1798.22,502.45Z"/><path class="cls-22" d="M1798.22,502.45a3.28,3.28,0,1,0,4.61.53h0A3.29,3.29,0,0,0,1798.22,502.45Z"/><path class="cls-23" d="M1798.22,502.45a3.28,3.28,0,1,0,4.61.53h0A3.29,3.29,0,0,0,1798.22,502.45Z"/><path class="cls-3" d="M1691.07,322.28a3.28,3.28,0,0,1,6.11-2.4A712.5,712.5,0,0,1,1647.76,58c0-19.33.78-38.69,2.32-58h-6.58c-1.53,19.27-2.3,38.63-2.3,58A719.26,719.26,0,0,0,1691.07,322.28Z"/><path class="cls-24" d="M1691.07,322.28a3.28,3.28,0,0,1,6.11-2.4A712.5,712.5,0,0,1,1647.76,58c0-19.33.78-38.69,2.32-58h-6.58c-1.53,19.27-2.3,38.63-2.3,58A719.26,719.26,0,0,0,1691.07,322.28Z"/><path class="cls-3" d="M1692.93,318a3.28,3.28,0,0,0-1.86,4.25h0a3.29,3.29,0,0,0,3.06,2.08,3.2,3.2,0,0,0,1.2-.23,3.28,3.28,0,0,0-2.4-6.1Z"/><path class="cls-20" d="M1692.93,318a3.28,3.28,0,0,0-1.86,4.25h0a3.29,3.29,0,0,0,3.06,2.08,3.2,3.2,0,0,0,1.2-.23,3.28,3.28,0,0,0-2.4-6.1Z"/><path class="cls-24" d="M1692.93,318a3.28,3.28,0,0,0-1.86,4.25h0a3.29,3.29,0,0,0,3.06,2.08,3.2,3.2,0,0,0,1.2-.23,3.28,3.28,0,0,0-2.4-6.1Z"/><path class="cls-3" d="M2363.72,833a778.23,778.23,0,0,1-185.57-22.36,771.14,771.14,0,0,1-169.37-63.51,777.48,777.48,0,0,1-147.88-99.36,780.72,780.72,0,0,1-121.05-129.87,3.28,3.28,0,0,0-5.28,3.89,787.37,787.37,0,0,0,122.07,131A784,784,0,0,0,2005.77,753a777.28,777.28,0,0,0,170.82,64,785,785,0,0,0,187.13,22.55,3.28,3.28,0,1,0,0-6.56Z"/><path class="cls-25" d="M2363.72,833a778.23,778.23,0,0,1-185.57-22.36,771.14,771.14,0,0,1-169.37-63.51,777.48,777.48,0,0,1-147.88-99.36,780.72,780.72,0,0,1-121.05-129.87,3.28,3.28,0,0,0-5.28,3.89,787.37,787.37,0,0,0,122.07,131A784,784,0,0,0,2005.77,753a777.28,777.28,0,0,0,170.82,64,785,785,0,0,0,187.13,22.55,3.28,3.28,0,1,0,0-6.56Z"/><path class="cls-3" d="M1607.42,255.93A777.6,777.6,0,0,0,1679,435.2a3.29,3.29,0,0,0,2.88,1.69,3.24,3.24,0,0,0,1.58-.41,3.28,3.28,0,0,0,1.28-4.46,771.08,771.08,0,0,1-71-177.74A777.73,777.73,0,0,1,1588.69,58c0-19.31.73-38.69,2.15-58h-6.58c-1.41,19.28-2.13,38.65-2.13,58A784.28,784.28,0,0,0,1607.42,255.93Z"/><path class="cls-26" d="M1607.42,255.93A777.6,777.6,0,0,0,1679,435.2a3.29,3.29,0,0,0,2.88,1.69,3.24,3.24,0,0,0,1.58-.41,3.28,3.28,0,0,0,1.28-4.46,771.08,771.08,0,0,1-71-177.74A777.73,777.73,0,0,1,1588.69,58c0-19.31.73-38.69,2.15-58h-6.58c-1.41,19.28-2.13,38.65-2.13,58A784.28,784.28,0,0,0,1607.42,255.93Z"/><path class="cls-3" d="M1540.15,227.38a836,836,0,0,0,49,157.8A841,841,0,0,0,1666.64,528,845.37,845.37,0,0,0,1893.7,755a841,841,0,0,0,142.8,77.51,836,836,0,0,0,157.8,49,846.29,846.29,0,0,0,169.42,17.08,3.28,3.28,0,1,0,0-6.56,840.53,840.53,0,0,1-168.1-16.94,830,830,0,0,1-156.57-48.6,834.32,834.32,0,0,1-141.68-76.91,838.8,838.8,0,0,1-225.29-225.29,834.32,834.32,0,0,1-76.91-141.68,830,830,0,0,1-48.6-156.57A840.53,840.53,0,0,1,1529.63,58c0-19.3.69-38.68,2-58h-6.57c-1.32,19.29-2,38.66-2,58A846.29,846.29,0,0,0,1540.15,227.38Z"/><path class="cls-27" d="M1540.15,227.38a836,836,0,0,0,49,157.8A841,841,0,0,0,1666.64,528,845.37,845.37,0,0,0,1893.7,755a841,841,0,0,0,142.8,77.51,836,836,0,0,0,157.8,49,846.29,846.29,0,0,0,169.42,17.08,3.28,3.28,0,1,0,0-6.56,840.53,840.53,0,0,1-168.1-16.94,830,830,0,0,1-156.57-48.6,834.32,834.32,0,0,1-141.68-76.91,838.8,838.8,0,0,1-225.29-225.29,834.32,834.32,0,0,1-76.91-141.68,830,830,0,0,1-48.6-156.57A840.53,840.53,0,0,1,1529.63,58c0-19.3.69-38.68,2-58h-6.57c-1.32,19.29-2,38.66-2,58A846.29,846.29,0,0,0,1540.15,227.38Z"/><path class="cls-3" d="M1925.87,840.38a3.28,3.28,0,0,1,4.46-1.27h0a897.06,897.06,0,0,1-145.44-100.92,3.28,3.28,0,1,0-4.26,5,904.07,904.07,0,0,0,146.51,101.66A3.28,3.28,0,0,1,1925.87,840.38Z"/><path class="cls-28" d="M1925.87,840.38a3.28,3.28,0,0,1,4.46-1.27h0a897.06,897.06,0,0,1-145.44-100.92,3.28,3.28,0,1,0-4.26,5,904.07,904.07,0,0,0,146.51,101.66A3.28,3.28,0,0,1,1925.87,840.38Z"/><path class="cls-3" d="M2363.72,951.11a895.87,895.87,0,0,1-227.55-29.24,888.42,888.42,0,0,1-205.84-82.76,3.28,3.28,0,0,1-3.19,5.73,895,895,0,0,0,207.37,83.38,902.9,902.9,0,0,0,229.21,29.46,3.29,3.29,0,0,0,0-6.57Z"/><path class="cls-29" d="M2363.72,951.11a895.87,895.87,0,0,1-227.55-29.24,888.42,888.42,0,0,1-205.84-82.76,3.28,3.28,0,0,1-3.19,5.73,895,895,0,0,0,207.37,83.38,902.9,902.9,0,0,0,229.21,29.46,3.29,3.29,0,0,0,0-6.57Z"/><path class="cls-3" d="M1931.6,843.57a3.28,3.28,0,0,0-1.27-4.46h0a3.28,3.28,0,1,0,1.27,4.46Z"/><path class="cls-30" d="M1931.6,843.57a3.28,3.28,0,0,0-1.27-4.46h0a3.28,3.28,0,1,0,1.27,4.46Z"/><path class="cls-29" d="M1931.6,843.57a3.28,3.28,0,0,0-1.27-4.46h0a3.28,3.28,0,1,0,1.27,4.46Z"/><path class="cls-3" d="M1467.29,61.24a3.28,3.28,0,0,0,3.28-3.28c0-19.3.64-38.67,1.88-58h-6.58c-1.23,19.29-1.87,38.66-1.87,58A3.28,3.28,0,0,0,1467.29,61.24Z"/><path class="cls-31" d="M1467.29,61.24a3.28,3.28,0,0,0,3.28-3.28c0-19.3.64-38.67,1.88-58h-6.58c-1.23,19.29-1.87,38.66-1.87,58A3.28,3.28,0,0,0,1467.29,61.24Z"/><path class="cls-3" d="M1602.77,532.07a3.27,3.27,0,0,1,4.52,1,892.45,892.45,0,0,1-77.74-155.26A889.36,889.36,0,0,1,1483,207.15a3.28,3.28,0,1,0-6.47,1.09,895.35,895.35,0,0,0,46.93,172,898.48,898.48,0,0,0,78.31,156.4A3.28,3.28,0,0,1,1602.77,532.07Z"/><path class="cls-32" d="M1602.77,532.07a3.27,3.27,0,0,1,4.52,1,892.45,892.45,0,0,1-77.74-155.26A889.36,889.36,0,0,1,1483,207.15a3.28,3.28,0,1,0-6.47,1.09,895.35,895.35,0,0,0,46.93,172,898.48,898.48,0,0,0,78.31,156.4A3.28,3.28,0,0,1,1602.77,532.07Z"/><path class="cls-3" d="M1607.29,533.1a3.28,3.28,0,1,1-5.55,3.49c11.62,18.47,24.08,36.75,37,54.33a3.28,3.28,0,1,0,5.29-3.89C1631.2,569.57,1618.83,551.43,1607.29,533.1Z"/><path class="cls-33" d="M1607.29,533.1a3.28,3.28,0,1,1-5.55,3.49c11.62,18.47,24.08,36.75,37,54.33a3.28,3.28,0,1,0,5.29-3.89C1631.2,569.57,1618.83,551.43,1607.29,533.1Z"/><path class="cls-3" d="M1604.52,538.13a3.28,3.28,0,1,0-2.78-1.54A3.26,3.26,0,0,0,1604.52,538.13Z"/><path class="cls-34" d="M1604.52,538.13a3.28,3.28,0,1,0-2.78-1.54A3.26,3.26,0,0,0,1604.52,538.13Z"/><path class="cls-33" d="M1604.52,538.13a3.28,3.28,0,1,0-2.78-1.54A3.26,3.26,0,0,0,1604.52,538.13Z"/><path class="cls-3" d="M2363.72,1010.18a960.24,960.24,0,0,1-186.53-18.26A947.49,947.49,0,0,1,2003,939.47a3.28,3.28,0,1,0-2.49,6.07,954,954,0,0,0,175.43,52.81,966.31,966.31,0,0,0,187.81,18.39,3.28,3.28,0,1,0,0-6.56Z"/><path class="cls-35" d="M2363.72,1010.18a960.24,960.24,0,0,1-186.53-18.26A947.49,947.49,0,0,1,2003,939.47a3.28,3.28,0,1,0-2.49,6.07,954,954,0,0,0,175.43,52.81,966.31,966.31,0,0,0,187.81,18.39,3.28,3.28,0,1,0,0-6.56Z"/><path class="cls-3" d="M1459.34,377.12h0a3.28,3.28,0,0,1,6.19-2.19,949.92,949.92,0,0,1-54-317c0-19.29.6-38.66,1.76-58h-6.57c-1.15,19.3-1.75,38.67-1.75,58A956.46,956.46,0,0,0,1459.34,377.12Z"/><path class="cls-36" d="M1459.34,377.12h0a3.28,3.28,0,0,1,6.19-2.19,949.92,949.92,0,0,1-54-317c0-19.29.6-38.66,1.76-58h-6.57c-1.15,19.3-1.75,38.67-1.75,58A956.46,956.46,0,0,0,1459.34,377.12Z"/><path class="cls-3" d="M1463.53,379.12a3.21,3.21,0,0,1-1.09.19,3.29,3.29,0,0,1-3.1-2.19,960.67,960.67,0,0,0,285.36,413,3.28,3.28,0,1,1,4.24-5,954.11,954.11,0,0,1-283.41-410.21h0A3.28,3.28,0,0,1,1463.53,379.12Z"/><path class="cls-37" d="M1463.53,379.12a3.21,3.21,0,0,1-1.09.19,3.29,3.29,0,0,1-3.1-2.19,960.67,960.67,0,0,0,285.36,413,3.28,3.28,0,1,1,4.24-5,954.11,954.11,0,0,1-283.41-410.21h0A3.28,3.28,0,0,1,1463.53,379.12Z"/><path class="cls-3" d="M1461.35,372.93a3.29,3.29,0,0,0-2,4.19h0a3.29,3.29,0,0,0,3.1,2.19,3.21,3.21,0,0,0,1.09-.19,3.28,3.28,0,0,0,2-4.18h0A3.29,3.29,0,0,0,1461.35,372.93Z"/><path class="cls-38" d="M1461.35,372.93a3.29,3.29,0,0,0-2,4.19h0a3.29,3.29,0,0,0,3.1,2.19,3.21,3.21,0,0,0,1.09-.19,3.28,3.28,0,0,0,2-4.18h0A3.29,3.29,0,0,0,1461.35,372.93Z"/><path class="cls-37" d="M1461.35,372.93a3.29,3.29,0,0,0-2,4.19h0a3.29,3.29,0,0,0,3.1,2.19,3.21,3.21,0,0,0,1.09-.19,3.28,3.28,0,0,0,2-4.18h0A3.29,3.29,0,0,0,1461.35,372.93Z"/><path class="cls-3" d="M1749.32,789.77a3.26,3.26,0,0,1-2.51,1.16,3.21,3.21,0,0,1-2.11-.78,963.15,963.15,0,0,0,131.79,93.73,3.23,3.23,0,0,0,1.66.46,3.28,3.28,0,0,0,1.67-6.1,958.17,958.17,0,0,1-130.88-93.09A3.28,3.28,0,0,1,1749.32,789.77Z"/><path class="cls-39" d="M1749.32,789.77a3.26,3.26,0,0,1-2.51,1.16,3.21,3.21,0,0,1-2.11-.78,963.15,963.15,0,0,0,131.79,93.73,3.23,3.23,0,0,0,1.66.46,3.28,3.28,0,0,0,1.67-6.1,958.17,958.17,0,0,1-130.88-93.09A3.28,3.28,0,0,1,1749.32,789.77Z"/><path class="cls-3" d="M1744.31,785.53a3.27,3.27,0,0,0,.39,4.62,3.21,3.21,0,0,0,2.11.78,3.28,3.28,0,1,0-2.5-5.4Z"/><path class="cls-37" d="M1744.31,785.53a3.27,3.27,0,0,0,.39,4.62,3.21,3.21,0,0,0,2.11.78,3.28,3.28,0,1,0-2.5-5.4Z"/><path class="cls-39" d="M1744.31,785.53a3.27,3.27,0,0,0,.39,4.62,3.21,3.21,0,0,0,2.11.78,3.28,3.28,0,1,0-2.5-5.4Z"/><path class="cls-3" d="M1741.62,859.48a3.28,3.28,0,0,1-4.6.57,1013.88,1013.88,0,0,0,289.5,158.57,1015.68,1015.68,0,0,0,337.2,57.18,3.28,3.28,0,1,0,0-6.56,1009,1009,0,0,1-335-56.81,1007.34,1007.34,0,0,1-287.63-157.55A3.27,3.27,0,0,1,1741.62,859.48Z"/><path class="cls-40" d="M1741.62,859.48a3.28,3.28,0,0,1-4.6.57,1013.88,1013.88,0,0,0,289.5,158.57,1015.68,1015.68,0,0,0,337.2,57.18,3.28,3.28,0,1,0,0-6.56,1009,1009,0,0,1-335-56.81,1007.34,1007.34,0,0,1-287.63-157.55A3.27,3.27,0,0,1,1741.62,859.48Z"/><path class="cls-3" d="M1391.84,361.27h0a3.28,3.28,0,1,1,6.26-1.95h0A1011.36,1011.36,0,0,1,1352.44,58c0-19.28.57-38.66,1.65-58h-6.57c-1.08,19.3-1.64,38.68-1.64,58A1017.81,1017.81,0,0,0,1391.84,361.27Z"/><path class="cls-41" d="M1391.84,361.27h0a3.28,3.28,0,1,1,6.26-1.95h0A1011.36,1011.36,0,0,1,1352.44,58c0-19.28.57-38.66,1.65-58h-6.57c-1.08,19.3-1.64,38.68-1.64,58A1017.81,1017.81,0,0,0,1391.84,361.27Z"/><path class="cls-3" d="M1395.94,363.43a3.26,3.26,0,0,1-4.1-2.16,1013.06,1013.06,0,0,0,135.59,277.05A1022.5,1022.5,0,0,0,1737,860.05a3.28,3.28,0,0,1,4-5.17,1015.54,1015.54,0,0,1-208.24-220.31A1006.26,1006.26,0,0,1,1398.1,359.32,3.28,3.28,0,0,1,1395.94,363.43Z"/><path class="cls-42" d="M1395.94,363.43a3.26,3.26,0,0,1-4.1-2.16,1013.06,1013.06,0,0,0,135.59,277.05A1022.5,1022.5,0,0,0,1737,860.05a3.28,3.28,0,0,1,4-5.17,1015.54,1015.54,0,0,1-208.24-220.31A1006.26,1006.26,0,0,1,1398.1,359.32,3.28,3.28,0,0,1,1395.94,363.43Z"/><path class="cls-3" d="M1736.46,855.44a3.28,3.28,0,1,0,4.6-.56A3.28,3.28,0,0,0,1736.46,855.44Z"/><path class="cls-43" d="M1736.46,855.44a3.28,3.28,0,1,0,4.6-.56A3.28,3.28,0,0,0,1736.46,855.44Z"/><path class="cls-44" d="M1736.46,855.44a3.28,3.28,0,1,0,4.6-.56A3.28,3.28,0,0,0,1736.46,855.44Z"/><path class="cls-3" d="M1394,357.16a3.28,3.28,0,0,0-2.15,4.11h0a3.28,3.28,0,1,0,6.26-1.95h0A3.28,3.28,0,0,0,1394,357.16Z"/><path class="cls-41" d="M1394,357.16a3.28,3.28,0,0,0-2.15,4.11h0a3.28,3.28,0,1,0,6.26-1.95h0A3.28,3.28,0,0,0,1394,357.16Z"/><path class="cls-45" d="M1394,357.16a3.28,3.28,0,0,0-2.15,4.11h0a3.28,3.28,0,1,0,6.26-1.95h0A3.28,3.28,0,0,0,1394,357.16Z"/><path class="cls-3" d="M1309.21,277.51a1071.3,1071.3,0,0,0,64.2,204.25h0a3.28,3.28,0,0,1,6-2.58,1065.3,1065.3,0,0,1-63.81-203A1078.12,1078.12,0,0,1,1293.37,58c0-19.28.54-38.66,1.56-58h-6.56c-1,19.3-1.56,38.68-1.56,58A1084.79,1084.79,0,0,0,1309.21,277.51Z"/><path class="cls-46" d="M1309.21,277.51a1071.3,1071.3,0,0,0,64.2,204.25h0a3.28,3.28,0,0,1,6-2.58,1065.3,1065.3,0,0,1-63.81-203A1078.12,1078.12,0,0,1,1293.37,58c0-19.28.54-38.66,1.56-58h-6.56c-1,19.3-1.56,38.68-1.56,58A1084.79,1084.79,0,0,0,1309.21,277.51Z"/><path class="cls-3" d="M1375.13,477.46a3.28,3.28,0,0,0-1.72,4.3h0a3.28,3.28,0,1,0,1.72-4.3Z"/><path class="cls-47" d="M1375.13,477.46a3.28,3.28,0,0,0-1.72,4.3h0a3.28,3.28,0,1,0,1.72-4.3Z"/><path class="cls-46" d="M1375.13,477.46a3.28,3.28,0,0,0-1.72,4.3h0a3.28,3.28,0,1,0,1.72-4.3Z"/><path class="cls-3" d="M1527,821.47a3.28,3.28,0,0,1-4.63-.22c20.36,22.43,41.88,44.31,64,65a3.28,3.28,0,0,0,2.24.89,3.28,3.28,0,0,0,2.25-5.67c-22-20.62-43.36-42.38-63.6-64.68A3.28,3.28,0,0,1,1527,821.47Z"/><path class="cls-48" d="M1527,821.47a3.28,3.28,0,0,1-4.63-.22c20.36,22.43,41.88,44.31,64,65a3.28,3.28,0,0,0,2.24.89,3.28,3.28,0,0,0,2.25-5.67c-22-20.62-43.36-42.38-63.6-64.68A3.28,3.28,0,0,1,1527,821.47Z"/><path class="cls-3" d="M1688.83,971.81a1136.25,1136.25,0,0,0,221.27,127.93,3.28,3.28,0,0,1,2.63-6,1129.91,1129.91,0,0,1-220-127.19,3.28,3.28,0,1,0-3.91,5.27Z"/><path class="cls-49" d="M1688.83,971.81a1136.25,1136.25,0,0,0,221.27,127.93,3.28,3.28,0,0,1,2.63-6,1129.91,1129.91,0,0,1-220-127.19,3.28,3.28,0,1,0-3.91,5.27Z"/><path class="cls-3" d="M1914.42,1098.05a3.29,3.29,0,0,1-3,2,3.25,3.25,0,0,1-1.31-.28,1130.27,1130.27,0,0,0,172.72,59.19,3.22,3.22,0,0,0,.81.11,3.28,3.28,0,0,0,.81-6.46,1125,1125,0,0,1-171.71-58.85A3.28,3.28,0,0,1,1914.42,1098.05Z"/><path class="cls-50" d="M1914.42,1098.05a3.29,3.29,0,0,1-3,2,3.25,3.25,0,0,1-1.31-.28,1130.27,1130.27,0,0,0,172.72,59.19,3.22,3.22,0,0,0,.81.11,3.28,3.28,0,0,0,.81-6.46,1125,1125,0,0,1-171.71-58.85A3.28,3.28,0,0,1,1914.42,1098.05Z"/><path class="cls-3" d="M1908.41,1095.43a3.28,3.28,0,1,0,4.32-1.7A3.27,3.27,0,0,0,1908.41,1095.43Z"/><path class="cls-49" d="M1908.41,1095.43a3.28,3.28,0,1,0,4.32-1.7A3.27,3.27,0,0,0,1908.41,1095.43Z"/><path class="cls-50" d="M1908.41,1095.43a3.28,3.28,0,1,0,4.32-1.7A3.27,3.27,0,0,0,1908.41,1095.43Z"/><path class="cls-3" d="M1393.24,648.7a1143.27,1143.27,0,0,0,129.15,172.55,3.28,3.28,0,1,1,4.86-4.41,1135.05,1135.05,0,0,1-128.41-171.56,1127.65,1127.65,0,0,1-94.38-194.59,3.28,3.28,0,0,0-6.15,2.29A1134.57,1134.57,0,0,0,1393.24,648.7Z"/><path class="cls-51" d="M1393.24,648.7a1143.27,1143.27,0,0,0,129.15,172.55,3.28,3.28,0,1,1,4.86-4.41,1135.05,1135.05,0,0,1-128.41-171.56,1127.65,1127.65,0,0,1-94.38-194.59,3.28,3.28,0,0,0-6.15,2.29A1134.57,1134.57,0,0,0,1393.24,648.7Z"/><path class="cls-3" d="M1522.61,816.61a3.28,3.28,0,1,0,4.64.23A3.29,3.29,0,0,0,1522.61,816.61Z"/><path class="cls-52" d="M1522.61,816.61a3.28,3.28,0,1,0,4.64.23A3.29,3.29,0,0,0,1522.61,816.61Z"/><path class="cls-51" d="M1522.61,816.61a3.28,3.28,0,1,0,4.64.23A3.29,3.29,0,0,0,1522.61,816.61Z"/><path class="cls-3" d="M1621.54,994.65a1199,1199,0,0,0,188.31,122.51A1189.4,1189.4,0,0,0,2020.44,1203a3.28,3.28,0,1,1,1.88-6.28,1183.3,1183.3,0,0,1-209.43-85.32,1193,1193,0,0,1-187.28-121.84,1199.75,1199.75,0,0,1-160.68-153.92,1195,1195,0,0,1-127.81-178.48,1.77,1.77,0,0,1-.17.12,3.25,3.25,0,0,1-1.71.49,3.29,3.29,0,0,1-2.8-1.57c-.63-1-1.26-2.07-1.88-3.11a3.26,3.26,0,0,0-.92,4.29A1201.07,1201.07,0,0,0,1460,839.88,1204.34,1204.34,0,0,0,1621.54,994.65Z"/><path class="cls-53" d="M1621.54,994.65a1199,1199,0,0,0,188.31,122.51A1189.4,1189.4,0,0,0,2020.44,1203a3.28,3.28,0,1,1,1.88-6.28,1183.3,1183.3,0,0,1-209.43-85.32,1193,1193,0,0,1-187.28-121.84,1199.75,1199.75,0,0,1-160.68-153.92,1195,1195,0,0,1-127.81-178.48,1.77,1.77,0,0,1-.17.12,3.25,3.25,0,0,1-1.71.49,3.29,3.29,0,0,1-2.8-1.57c-.63-1-1.26-2.07-1.88-3.11a3.26,3.26,0,0,0-.92,4.29A1201.07,1201.07,0,0,0,1460,839.88,1204.34,1204.34,0,0,0,1621.54,994.65Z"/><path class="cls-3" d="M2024.52,1200.75a3.29,3.29,0,0,1-3.14,2.34,3.06,3.06,0,0,1-.94-.14,1193.93,1193.93,0,0,0,277.89,48.29,3.28,3.28,0,0,1,.35-6.56,1187.37,1187.37,0,0,1-276.36-48A3.28,3.28,0,0,1,2024.52,1200.75Z"/><path class="cls-54" d="M2024.52,1200.75a3.29,3.29,0,0,1-3.14,2.34,3.06,3.06,0,0,1-.94-.14,1193.93,1193.93,0,0,0,277.89,48.29,3.28,3.28,0,0,1,.35-6.56,1187.37,1187.37,0,0,1-276.36-48A3.28,3.28,0,0,1,2024.52,1200.75Z"/><path class="cls-3" d="M2018.23,1198.87a3.27,3.27,0,0,0,2.21,4.08,3.06,3.06,0,0,0,.94.14,3.28,3.28,0,1,0-3.15-4.22Z"/><path class="cls-55" d="M2018.23,1198.87a3.27,3.27,0,0,0,2.21,4.08,3.06,3.06,0,0,0,.94.14,3.28,3.28,0,1,0-3.15-4.22Z"/><path class="cls-54" d="M2018.23,1198.87a3.27,3.27,0,0,0,2.21,4.08,3.06,3.06,0,0,0,.94.14,3.28,3.28,0,1,0-3.15-4.22Z"/><path class="cls-3" d="M2295.23,1247.78a3.29,3.29,0,0,0,3.1,3.46h.18a3.28,3.28,0,1,0-3.28-3.46Z"/><path class="cls-54" d="M2295.23,1247.78a3.29,3.29,0,0,0,3.1,3.46h.18a3.28,3.28,0,1,0-3.28-3.46Z"/><path class="cls-56" d="M2295.23,1247.78a3.29,3.29,0,0,0,3.1,3.46h.18a3.28,3.28,0,1,0-3.28-3.46Z"/><path class="cls-3" d="M1172,61.24a3.28,3.28,0,0,0,3.28-3.28c0-19.27.48-38.65,1.41-58h-6.57c-.92,19.31-1.4,38.69-1.4,58A3.28,3.28,0,0,0,1172,61.24Z"/><path class="cls-57" d="M1172,61.24a3.28,3.28,0,0,0,3.28-3.28c0-19.27.48-38.65,1.41-58h-6.57c-.92,19.31-1.4,38.69-1.4,58A3.28,3.28,0,0,0,1172,61.24Z"/><path class="cls-3" d="M1335.31,654c.59,1,1.21,2,1.81,3.07a3.29,3.29,0,0,0,.92-4.39,1183.41,1183.41,0,0,1-112.75-242.08,3.28,3.28,0,0,0-6.22,2.08A1190.09,1190.09,0,0,0,1330.56,653l.26-.19A3.28,3.28,0,0,1,1335.31,654Z"/><path class="cls-58" d="M1335.31,654c.59,1,1.21,2,1.81,3.07a3.29,3.29,0,0,0,.92-4.39,1183.41,1183.41,0,0,1-112.75-242.08,3.28,3.28,0,0,0-6.22,2.08A1190.09,1190.09,0,0,0,1330.56,653l.26-.19A3.28,3.28,0,0,1,1335.31,654Z"/><path class="cls-3" d="M1335.24,657.72a3.25,3.25,0,0,0,1.71-.49,1.77,1.77,0,0,0,.17-.12c-.6-1-1.22-2.05-1.81-3.07a3.28,3.28,0,0,0-4.49-1.19l-.26.19c.62,1,1.25,2.07,1.88,3.11A3.29,3.29,0,0,0,1335.24,657.72Z"/><path class="cls-59" d="M1335.24,657.72a3.25,3.25,0,0,0,1.71-.49,1.77,1.77,0,0,0,.17-.12c-.6-1-1.22-2.05-1.81-3.07a3.28,3.28,0,0,0-4.49-1.19l-.26.19c.62,1,1.25,2.07,1.88,3.11A3.29,3.29,0,0,0,1335.24,657.72Z"/><path class="cls-60" d="M1335.24,657.72a3.25,3.25,0,0,0,1.71-.49,1.77,1.77,0,0,0,.17-.12c-.6-1-1.22-2.05-1.81-3.07a3.28,3.28,0,0,0-4.49-1.19l-.26.19c.62,1,1.25,2.07,1.88,3.11A3.29,3.29,0,0,0,1335.24,657.72Z"/><path class="cls-3" d="M1853.34,1200.26a3.3,3.3,0,0,1,4.33-1.67,1248.74,1248.74,0,0,1-214.73-122.26A1256.43,1256.43,0,0,1,1457.55,915.4a3.28,3.28,0,0,0-4.77,4.51,1263,1263,0,0,0,186.37,161.77A1254.34,1254.34,0,0,0,1855,1204.59,3.28,3.28,0,0,1,1853.34,1200.26Z"/><path class="cls-61" d="M1853.34,1200.26a3.3,3.3,0,0,1,4.33-1.67,1248.74,1248.74,0,0,1-214.73-122.26A1256.43,1256.43,0,0,1,1457.55,915.4a3.28,3.28,0,0,0-4.77,4.51,1263,1263,0,0,0,186.37,161.77A1254.34,1254.34,0,0,0,1855,1204.59,3.28,3.28,0,0,1,1853.34,1200.26Z"/><path class="cls-3" d="M1859.34,1202.92a3.29,3.29,0,1,0-3,1.95A3.29,3.29,0,0,0,1859.34,1202.92Z"/><path class="cls-62" d="M1859.34,1202.92a3.29,3.29,0,1,0-3,1.95A3.29,3.29,0,0,0,1859.34,1202.92Z"/><path class="cls-63" d="M1859.34,1202.92a3.29,3.29,0,1,0-3,1.95A3.29,3.29,0,0,0,1859.34,1202.92Z"/><path class="cls-3" d="M1172.43,451a1248.75,1248.75,0,0,0,175,342,3.28,3.28,0,0,0,5.31-3.85A1241.84,1241.84,0,0,1,1116.18,58c0-19.27.46-38.65,1.35-58H1111c-.88,19.32-1.34,38.69-1.34,58A1252.76,1252.76,0,0,0,1172.43,451Z"/><path class="cls-64" d="M1172.43,451a1248.75,1248.75,0,0,0,175,342,3.28,3.28,0,0,0,5.31-3.85A1241.84,1241.84,0,0,1,1116.18,58c0-19.27.46-38.65,1.35-58H1111c-.88,19.32-1.34,38.69-1.34,58A1252.76,1252.76,0,0,0,1172.43,451Z"/><path class="cls-3" d="M1440.5,991.8a1322.05,1322.05,0,0,0,202.63,164.13,1312.8,1312.8,0,0,0,233,121.7,3.28,3.28,0,0,0,2.44-6.09,1306,1306,0,0,1-231.85-121.09,1314,1314,0,0,1-367.19-363,1306.65,1306.65,0,0,1-123.68-230.27,3.28,3.28,0,1,0-6.06,2.51,1313.11,1313.11,0,0,0,124.3,231.43A1323.2,1323.2,0,0,0,1440.5,991.8Z"/><path class="cls-65" d="M1440.5,991.8a1322.05,1322.05,0,0,0,202.63,164.13,1312.8,1312.8,0,0,0,233,121.7,3.28,3.28,0,0,0,2.44-6.09,1306,1306,0,0,1-231.85-121.09,1314,1314,0,0,1-367.19-363,1306.65,1306.65,0,0,1-123.68-230.27,3.28,3.28,0,1,0-6.06,2.51,1313.11,1313.11,0,0,0,124.3,231.43A1323.2,1323.2,0,0,0,1440.5,991.8Z"/><path class="cls-3" d="M1059.28,485.11a1366.59,1366.59,0,0,0,189,372.28,3.28,3.28,0,1,0,5.33-3.83,1359.76,1359.76,0,0,1-188.1-370.49A1364.6,1364.6,0,0,1,998.06,58c0-19.27.41-38.64,1.22-58h-6.57c-.8,19.32-1.21,38.69-1.21,58A1371,1371,0,0,0,1059.28,485.11Z"/><path class="cls-66" d="M1059.28,485.11a1366.59,1366.59,0,0,0,189,372.28,3.28,3.28,0,1,0,5.33-3.83,1359.76,1359.76,0,0,1-188.1-370.49A1364.6,1364.6,0,0,1,998.06,58c0-19.27.41-38.64,1.22-58h-6.57c-.8,19.32-1.21,38.69-1.21,58A1371,1371,0,0,0,1059.28,485.11Z"/><path class="cls-3" d="M1671.29,1242.93a3.31,3.31,0,0,0,1.65.45,3.28,3.28,0,0,0,1.66-6.11,1373.78,1373.78,0,0,1-207.11-148.84,1376.9,1376.9,0,0,1-175.6-184.09,3.28,3.28,0,1,0-5.15,4.07,1383.31,1383.31,0,0,0,176.45,185A1379.64,1379.64,0,0,0,1671.29,1242.93Z"/><path class="cls-67" d="M1671.29,1242.93a3.31,3.31,0,0,0,1.65.45,3.28,3.28,0,0,0,1.66-6.11,1373.78,1373.78,0,0,1-207.11-148.84,1376.9,1376.9,0,0,1-175.6-184.09,3.28,3.28,0,1,0-5.15,4.07,1383.31,1383.31,0,0,0,176.45,185A1379.64,1379.64,0,0,0,1671.29,1242.93Z"/><path class="cls-3" d="M935.71,61.24A3.28,3.28,0,0,0,939,58c0-19.27.39-38.63,1.16-58h-6.56c-.77,19.33-1.16,38.69-1.16,58A3.28,3.28,0,0,0,935.71,61.24Z"/><path class="cls-68" d="M935.71,61.24A3.28,3.28,0,0,0,939,58c0-19.27.39-38.63,1.16-58h-6.56c-.77,19.33-1.16,38.69-1.16,58A3.28,3.28,0,0,0,935.71,61.24Z"/><path class="cls-3" d="M1135.7,793.61a1438.47,1438.47,0,0,0,181.74,241,3.28,3.28,0,0,0,4.79-4.47,1432.15,1432.15,0,0,1-180.9-239.93,1420.22,1420.22,0,0,1-127.57-275.59,3.28,3.28,0,0,0-6.22,2.1A1427,1427,0,0,0,1135.7,793.61Z"/><path class="cls-69" d="M1135.7,793.61a1438.47,1438.47,0,0,0,181.74,241,3.28,3.28,0,0,0,4.79-4.47,1432.15,1432.15,0,0,1-180.9-239.93,1420.22,1420.22,0,0,1-127.57-275.59,3.28,3.28,0,0,0-6.22,2.1A1427,1427,0,0,0,1135.7,793.61Z"/><path class="cls-3" d="M1642.34,1290.64a3.29,3.29,0,0,1,4.49-1.18,1432.42,1432.42,0,0,1-231.17-168,3.28,3.28,0,0,0-4.37,4.9,1438.43,1438.43,0,0,0,232.23,168.74A3.28,3.28,0,0,1,1642.34,1290.64Z"/><path class="cls-70" d="M1642.34,1290.64a3.29,3.29,0,0,1,4.49-1.18,1432.42,1432.42,0,0,1-231.17-168,3.28,3.28,0,0,0-4.37,4.9,1438.43,1438.43,0,0,0,232.23,168.74A3.28,3.28,0,0,1,1642.34,1290.64Z"/><path class="cls-3" d="M1855.19,1392.77a3.28,3.28,0,0,1,4.22-1.91,1423.65,1423.65,0,0,1-212.58-101.4,3.28,3.28,0,0,1-1.66,6.11,3.21,3.21,0,0,1-1.65-.45A1429.62,1429.62,0,0,0,1857.09,1397,3.28,3.28,0,0,1,1855.19,1392.77Z"/><path class="cls-71" d="M1855.19,1392.77a3.28,3.28,0,0,1,4.22-1.91,1423.65,1423.65,0,0,1-212.58-101.4,3.28,3.28,0,0,1-1.66,6.11,3.21,3.21,0,0,1-1.65-.45A1429.62,1429.62,0,0,0,1857.09,1397,3.28,3.28,0,0,1,1855.19,1392.77Z"/><path class="cls-3" d="M1858.25,1397.21a3.28,3.28,0,0,0,1.17-6.35h0a3.28,3.28,0,0,0-2.32,6.14h0A3.43,3.43,0,0,0,1858.25,1397.21Z"/><path class="cls-72" d="M1858.25,1397.21a3.28,3.28,0,0,0,1.17-6.35h0a3.28,3.28,0,0,0-2.32,6.14h0A3.43,3.43,0,0,0,1858.25,1397.21Z"/><path class="cls-71" d="M1858.25,1397.21a3.28,3.28,0,0,0,1.17-6.35h0a3.28,3.28,0,0,0-2.32,6.14h0A3.43,3.43,0,0,0,1858.25,1397.21Z"/><path class="cls-3" d="M1648,1293.94a3.28,3.28,0,1,0-4.49,1.18,3.21,3.21,0,0,0,1.65.45A3.27,3.27,0,0,0,1648,1293.94Z"/><path class="cls-73" d="M1648,1293.94a3.28,3.28,0,1,0-4.49,1.18,3.21,3.21,0,0,0,1.65.45A3.27,3.27,0,0,0,1648,1293.94Z"/><path class="cls-71" d="M1648,1293.94a3.28,3.28,0,1,0-4.49,1.18,3.21,3.21,0,0,0,1.65.45A3.27,3.27,0,0,0,1648,1293.94Z"/><path class="cls-3" d="M1186.37,961.12c-25.32-33-49.53-67.36-72-102.28a3.28,3.28,0,0,0-5.52,3.54c22.53,35.08,46.85,69.64,72.27,102.74,13.16,17.13,26.88,34.2,40.77,50.74a3.28,3.28,0,0,0,2.51,1.17,3.23,3.23,0,0,0,2.11-.77,3.27,3.27,0,0,0,.4-4.62C1213.12,995.17,1199.47,978.17,1186.37,961.12Z"/><path class="cls-74" d="M1186.37,961.12c-25.32-33-49.53-67.36-72-102.28a3.28,3.28,0,0,0-5.52,3.54c22.53,35.08,46.85,69.64,72.27,102.74,13.16,17.13,26.88,34.2,40.77,50.74a3.28,3.28,0,0,0,2.51,1.17,3.23,3.23,0,0,0,2.11-.77,3.27,3.27,0,0,0,.4-4.62C1213.12,995.17,1199.47,978.17,1186.37,961.12Z"/><path class="cls-3" d="M1757.4,1416.22a3.28,3.28,0,0,1,4.33-1.66c-19.87-8.84-39.82-18.24-59.29-28a3.28,3.28,0,0,0-2.93,5.87c19.56,9.76,39.59,19.2,59.56,28.07A3.27,3.27,0,0,1,1757.4,1416.22Z"/><path class="cls-75" d="M1757.4,1416.22a3.28,3.28,0,0,1,4.33-1.66c-19.87-8.84-39.82-18.24-59.29-28a3.28,3.28,0,0,0-2.93,5.87c19.56,9.76,39.59,19.2,59.56,28.07A3.27,3.27,0,0,1,1757.4,1416.22Z"/><path class="cls-3" d="M1930.26,1477.44a1479.78,1479.78,0,0,1-168.53-62.88,3.28,3.28,0,0,1-2.66,6,1484.5,1484.5,0,0,0,169.27,63.16,3.2,3.2,0,0,0,1,.15,3.28,3.28,0,0,0,1-6.42Z"/><path class="cls-76" d="M1930.26,1477.44a1479.78,1479.78,0,0,1-168.53-62.88,3.28,3.28,0,0,1-2.66,6,1484.5,1484.5,0,0,0,169.27,63.16,3.2,3.2,0,0,0,1,.15,3.28,3.28,0,0,0,1-6.42Z"/><path class="cls-3" d="M1763.4,1418.89a3.29,3.29,0,1,0-3,1.94A3.28,3.28,0,0,0,1763.4,1418.89Z"/><path class="cls-77" d="M1763.4,1418.89a3.29,3.29,0,1,0-3,1.94A3.28,3.28,0,0,0,1763.4,1418.89Z"/><path class="cls-78" d="M1763.4,1418.89a3.29,3.29,0,1,0-3,1.94A3.28,3.28,0,0,0,1763.4,1418.89Z"/><path class="cls-3" d="M844,361.28a1541.44,1541.44,0,0,0,85.24,283.33,1548.4,1548.4,0,0,0,135.1,257.63,1559.7,1559.7,0,0,0,179.26,226.23,3.28,3.28,0,1,1,4.74-4.54,1554.19,1554.19,0,0,1-178.51-225.27A1542.09,1542.09,0,0,1,935.29,642.12,1535.08,1535.08,0,0,1,850.42,360,1555,1555,0,0,1,820.86,58c0-19.25.37-38.65,1.08-58h-6.57c-.71,19.31-1.07,38.71-1.07,58A1561.75,1561.75,0,0,0,844,361.28Z"/><path class="cls-79" d="M844,361.28a1541.44,1541.44,0,0,0,85.24,283.33,1548.4,1548.4,0,0,0,135.1,257.63,1559.7,1559.7,0,0,0,179.26,226.23,3.28,3.28,0,1,1,4.74-4.54,1554.19,1554.19,0,0,1-178.51-225.27A1542.09,1542.09,0,0,1,935.29,642.12,1535.08,1535.08,0,0,1,850.42,360,1555,1555,0,0,1,820.86,58c0-19.25.37-38.65,1.08-58h-6.57c-.71,19.31-1.07,38.71-1.07,58A1561.75,1561.75,0,0,0,844,361.28Z"/><path class="cls-3" d="M1435.06,1294.26a3.29,3.29,0,0,1,4.6-.66,1555.61,1555.61,0,0,1-191.34-169.67,3.28,3.28,0,0,1-4.74,4.54,1563.93,1563.93,0,0,0,192.14,170.38A3.28,3.28,0,0,1,1435.06,1294.26Z"/><path class="cls-80" d="M1435.06,1294.26a3.29,3.29,0,0,1,4.6-.66,1555.61,1555.61,0,0,1-191.34-169.67,3.28,3.28,0,0,1-4.74,4.54,1563.93,1563.93,0,0,0,192.14,170.38A3.28,3.28,0,0,1,1435.06,1294.26Z"/><path class="cls-3" d="M1248.22,1128.57a3.29,3.29,0,1,0-2.27.91A3.28,3.28,0,0,0,1248.22,1128.57Z"/><path class="cls-81" d="M1248.22,1128.57a3.29,3.29,0,1,0-2.27.91A3.28,3.28,0,0,0,1248.22,1128.57Z"/><path class="cls-82" d="M1248.22,1128.57a3.29,3.29,0,1,0-2.27.91A3.28,3.28,0,0,0,1248.22,1128.57Z"/><path class="cls-3" d="M1798.53,1497.54a3.28,3.28,0,0,1,4.25-1.86,1540.45,1540.45,0,0,1-363.12-202.08,3.28,3.28,0,0,1-3.94,5.25,1547,1547,0,0,0,364.67,202.94A3.28,3.28,0,0,1,1798.53,1497.54Z"/><path class="cls-83" d="M1798.53,1497.54a3.28,3.28,0,0,1,4.25-1.86,1540.45,1540.45,0,0,1-363.12-202.08,3.28,3.28,0,0,1-3.94,5.25,1547,1547,0,0,0,364.67,202.94A3.28,3.28,0,0,1,1798.53,1497.54Z"/><path class="cls-3" d="M1804.64,1499.92a3.29,3.29,0,1,0-3.06,2.09A3.27,3.27,0,0,0,1804.64,1499.92Z"/><path class="cls-84" d="M1804.64,1499.92a3.29,3.29,0,1,0-3.06,2.09A3.27,3.27,0,0,0,1804.64,1499.92Z"/><path class="cls-83" d="M1804.64,1499.92a3.29,3.29,0,1,0-3.06,2.09A3.27,3.27,0,0,0,1804.64,1499.92Z"/><path class="cls-3" d="M1440.32,1298.19a3.3,3.3,0,1,0-2.63,1.31A3.28,3.28,0,0,0,1440.32,1298.19Z"/><path class="cls-85" d="M1440.32,1298.19a3.3,3.3,0,1,0-2.63,1.31A3.28,3.28,0,0,0,1440.32,1298.19Z"/><path class="cls-83" d="M1440.32,1298.19a3.3,3.3,0,1,0-2.63,1.31A3.28,3.28,0,0,0,1440.32,1298.19Z"/><path class="cls-3" d="M1366.54,1310.29c-29.51-23.55-58.55-48.45-86.32-74a3.28,3.28,0,1,0-4.44,4.83c27.88,25.67,57,50.67,86.67,74.32a3.28,3.28,0,0,0,4.09-5.13Z"/><path class="cls-86" d="M1366.54,1310.29c-29.51-23.55-58.55-48.45-86.32-74a3.28,3.28,0,1,0-4.44,4.83c27.88,25.67,57,50.67,86.67,74.32a3.28,3.28,0,0,0,4.09-5.13Z"/><path class="cls-3" d="M1019.91,927a1611.82,1611.82,0,0,1-157.82-306.4,3.28,3.28,0,0,0-6.12,2.36,1618.5,1618.5,0,0,0,158.46,307.65,1605.63,1605.63,0,0,0,222.9,268.95,3.28,3.28,0,0,0,4.57-4.71A1598.25,1598.25,0,0,1,1019.91,927Z"/><path class="cls-87" d="M1019.91,927a1611.82,1611.82,0,0,1-157.82-306.4,3.28,3.28,0,0,0-6.12,2.36,1618.5,1618.5,0,0,0,158.46,307.65,1605.63,1605.63,0,0,0,222.9,268.95,3.28,3.28,0,0,0,4.57-4.71A1598.25,1598.25,0,0,1,1019.91,927Z"/><path class="cls-3" d="M1473.83,1460.69c-25.46-16.18-50.81-33.29-75.37-50.85a3.28,3.28,0,0,0-3.81,5.33c24.65,17.64,50.1,34.81,75.66,51.06a3.2,3.2,0,0,0,1.75.51,3.28,3.28,0,0,0,1.77-6Z"/><path class="cls-88" d="M1473.83,1460.69c-25.46-16.18-50.81-33.29-75.37-50.85a3.28,3.28,0,0,0-3.81,5.33c24.65,17.64,50.1,34.81,75.66,51.06a3.2,3.2,0,0,0,1.75.51,3.28,3.28,0,0,0,1.77-6Z"/><path class="cls-3" d="M721.69,350.14h0a3.28,3.28,0,0,1,6.46-1.14A1677.09,1677.09,0,0,1,702.74,58c0-19.25.33-38.64,1-58h-6.56c-.66,19.32-1,38.71-1,58A1683.35,1683.35,0,0,0,721.69,350.14Z"/><path class="cls-89" d="M721.69,350.14h0a3.28,3.28,0,0,1,6.46-1.14A1677.09,1677.09,0,0,1,702.74,58c0-19.25.33-38.64,1-58h-6.56c-.66,19.32-1,38.71-1,58A1683.35,1683.35,0,0,0,721.69,350.14Z"/><path class="cls-3" d="M725.49,352.8a3.79,3.79,0,0,1-.58.05,3.28,3.28,0,0,1-3.22-2.71A1655.87,1655.87,0,0,0,866.24,792.46a3.28,3.28,0,1,0,5.88-2.89A1649.92,1649.92,0,0,1,728.15,349,3.29,3.29,0,0,1,725.49,352.8Z"/><path class="cls-90" d="M725.49,352.8a3.79,3.79,0,0,1-.58.05,3.28,3.28,0,0,1-3.22-2.71A1655.87,1655.87,0,0,0,866.24,792.46a3.28,3.28,0,1,0,5.88-2.89A1649.92,1649.92,0,0,1,728.15,349,3.29,3.29,0,0,1,725.49,352.8Z"/><path class="cls-3" d="M724.35,346.34a3.27,3.27,0,0,0-2.66,3.8h0a3.28,3.28,0,0,0,3.22,2.71,3.79,3.79,0,0,0,.58-.05,3.28,3.28,0,1,0-1.14-6.46Z"/><path class="cls-91" d="M724.35,346.34a3.27,3.27,0,0,0-2.66,3.8h0a3.28,3.28,0,0,0,3.22,2.71,3.79,3.79,0,0,0,.58-.05,3.28,3.28,0,1,0-1.14-6.46Z"/><path class="cls-92" d="M724.35,346.34a3.27,3.27,0,0,0-2.66,3.8h0a3.28,3.28,0,0,0,3.22,2.71,3.79,3.79,0,0,0,.58-.05,3.28,3.28,0,1,0-1.14-6.46Z"/><path class="cls-3" d="M1935.68,1727.72a3.29,3.29,0,0,1,4-2.38A1709.78,1709.78,0,0,1,1517.8,1556,1726.41,1726.41,0,0,1,1160,1286.6a3.28,3.28,0,0,1-4.6,4.68,1733.14,1733.14,0,0,0,359.2,270.39,1716.48,1716.48,0,0,0,423.49,170h0A3.28,3.28,0,0,1,1935.68,1727.72Z"/><path class="cls-93" d="M1935.68,1727.72a3.29,3.29,0,0,1,4-2.38A1709.78,1709.78,0,0,1,1517.8,1556,1726.41,1726.41,0,0,1,1160,1286.6a3.28,3.28,0,0,1-4.6,4.68,1733.14,1733.14,0,0,0,359.2,270.39,1716.48,1716.48,0,0,0,423.49,170h0A3.28,3.28,0,0,1,1935.68,1727.72Z"/><path class="cls-3" d="M1942,1729.33a3.28,3.28,0,1,0-4,2.37h0a3.21,3.21,0,0,0,.81.1A3.27,3.27,0,0,0,1942,1729.33Z"/><path class="cls-94" d="M1942,1729.33a3.28,3.28,0,1,0-4,2.37h0a3.21,3.21,0,0,0,.81.1A3.27,3.27,0,0,0,1942,1729.33Z"/><path class="cls-95" d="M1942,1729.33a3.28,3.28,0,1,0-4,2.37h0a3.21,3.21,0,0,0,.81.1A3.27,3.27,0,0,0,1942,1729.33Z"/><path class="cls-3" d="M733.37,627.84h0a3.28,3.28,0,0,1,6.19-2.17c-63.62-182-95.89-373-95.89-567.71,0-19.25.33-38.64,1-58h-6.57c-.64,19.32-1,38.71-1,58C637.11,253.36,669.5,445.09,733.37,627.84Z"/><path class="cls-96" d="M733.37,627.84h0a3.28,3.28,0,0,1,6.19-2.17c-63.62-182-95.89-373-95.89-567.71,0-19.25.33-38.64,1-58h-6.57c-.64,19.32-1,38.71-1,58C637.11,253.36,669.5,445.09,733.37,627.84Z"/><path class="cls-3" d="M737.55,629.85a3.15,3.15,0,0,1-1.08.19,3.29,3.29,0,0,1-3.1-2.2,1724,1724,0,0,0,85.38,201.84,3.28,3.28,0,1,0,5.87-2.93,1716.16,1716.16,0,0,1-85.06-201.08A3.28,3.28,0,0,1,737.55,629.85Z"/><path class="cls-97" d="M737.55,629.85a3.15,3.15,0,0,1-1.08.19,3.29,3.29,0,0,1-3.1-2.2,1724,1724,0,0,0,85.38,201.84,3.28,3.28,0,1,0,5.87-2.93,1716.16,1716.16,0,0,1-85.06-201.08A3.28,3.28,0,0,1,737.55,629.85Z"/><path class="cls-3" d="M735.39,623.66a3.28,3.28,0,0,0-2,4.18h0a3.29,3.29,0,0,0,3.1,2.2,3.15,3.15,0,0,0,1.08-.19,3.28,3.28,0,0,0-2.16-6.19Z"/><path class="cls-98" d="M735.39,623.66a3.28,3.28,0,0,0-2,4.18h0a3.29,3.29,0,0,0,3.1,2.2,3.15,3.15,0,0,0,1.08-.19,3.28,3.28,0,0,0-2.16-6.19Z"/><path class="cls-97" d="M735.39,623.66a3.28,3.28,0,0,0-2,4.18h0a3.29,3.29,0,0,0,3.1,2.2,3.15,3.15,0,0,0,1.08-.19,3.28,3.28,0,0,0-2.16-6.19Z"/><path class="cls-3" d="M1155.33,1286.64a3.29,3.29,0,0,1,4.64-.05h0a1731.45,1731.45,0,0,1-221.58-265.52,3.28,3.28,0,0,0-5.43,3.68,1738.2,1738.2,0,0,0,222.41,266.53A3.28,3.28,0,0,1,1155.33,1286.64Z"/><path class="cls-99" d="M1155.33,1286.64a3.29,3.29,0,0,1,4.64-.05h0a1731.45,1731.45,0,0,1-221.58-265.52,3.28,3.28,0,0,0-5.43,3.68,1738.2,1738.2,0,0,0,222.41,266.53A3.28,3.28,0,0,1,1155.33,1286.64Z"/><path class="cls-3" d="M1160,1291.23a3.27,3.27,0,0,0,0-4.63h0a3.28,3.28,0,1,0-2.3,5.63A3.25,3.25,0,0,0,1160,1291.23Z"/><path class="cls-100" d="M1160,1291.23a3.27,3.27,0,0,0,0-4.63h0a3.28,3.28,0,1,0-2.3,5.63A3.25,3.25,0,0,0,1160,1291.23Z"/><path class="cls-99" d="M1160,1291.23a3.27,3.27,0,0,0,0-4.63h0a3.28,3.28,0,1,0-2.3,5.63A3.25,3.25,0,0,0,1160,1291.23Z"/><path class="cls-3" d="M627,475A1776.08,1776.08,0,0,0,766.3,856.87a3.26,3.26,0,0,0,2.93,1.81,3.21,3.21,0,0,0,1.47-.35,3.28,3.28,0,0,0,1.46-4.4A1770.07,1770.07,0,0,1,633.38,473.44,1788,1788,0,0,1,584.61,58c0-19.25.31-38.64.93-58H579c-.62,19.32-.93,38.71-.93,58A1794.52,1794.52,0,0,0,627,475Z"/><path class="cls-101" d="M627,475A1776.08,1776.08,0,0,0,766.3,856.87a3.26,3.26,0,0,0,2.93,1.81,3.21,3.21,0,0,0,1.47-.35,3.28,3.28,0,0,0,1.46-4.4A1770.07,1770.07,0,0,1,633.38,473.44,1788,1788,0,0,1,584.61,58c0-19.25.31-38.64.93-58H579c-.62,19.32-.93,38.71-.93,58A1794.52,1794.52,0,0,0,627,475Z"/><path class="cls-3" d="M843.17,988.42a3.29,3.29,0,0,0-1.07,4.52A1796.91,1796.91,0,0,0,957.25,1158.3a3.28,3.28,0,0,1,5.17-4A1790.59,1790.59,0,0,1,847.68,989.5,3.27,3.27,0,0,0,843.17,988.42Z"/><path class="cls-102" d="M843.17,988.42a3.29,3.29,0,0,0-1.07,4.52A1796.91,1796.91,0,0,0,957.25,1158.3a3.28,3.28,0,0,1,5.17-4A1790.59,1790.59,0,0,1,847.68,989.5,3.27,3.27,0,0,0,843.17,988.42Z"/><path class="cls-3" d="M961.86,1158.86a3.28,3.28,0,0,1-4.61-.56A1797.71,1797.71,0,0,0,1261.51,1463a1787,1787,0,0,0,370.39,224.31,3.37,3.37,0,0,0,1.34.29,3.28,3.28,0,0,0,1.35-6.28,1779.89,1779.89,0,0,1-369-223.47,1791.23,1791.23,0,0,1-303.15-303.55A3.29,3.29,0,0,1,961.86,1158.86Z"/><path class="cls-103" d="M961.86,1158.86a3.28,3.28,0,0,1-4.61-.56A1797.71,1797.71,0,0,0,1261.51,1463a1787,1787,0,0,0,370.39,224.31,3.37,3.37,0,0,0,1.34.29,3.28,3.28,0,0,0,1.35-6.28,1779.89,1779.89,0,0,1-369-223.47,1791.23,1791.23,0,0,1-303.15-303.55A3.29,3.29,0,0,1,961.86,1158.86Z"/><path class="cls-3" d="M957.81,1153.7a3.28,3.28,0,1,0,4.61.56A3.29,3.29,0,0,0,957.81,1153.7Z"/><path class="cls-104" d="M957.81,1153.7a3.28,3.28,0,1,0,4.61.56A3.29,3.29,0,0,0,957.81,1153.7Z"/><path class="cls-105" d="M957.81,1153.7a3.28,3.28,0,1,0,4.61.56A3.29,3.29,0,0,0,957.81,1153.7Z"/><path class="cls-3" d="M548.74,389.73a3.29,3.29,0,0,0,3.22,2.7,3,3,0,0,0,.59-.06,3.27,3.27,0,0,0,2.64-3.81A1855.38,1855.38,0,0,1,525.55,58c0-19.25.31-38.63.91-58h-6.57c-.59,19.33-.9,38.71-.9,58A1861.83,1861.83,0,0,0,548.74,389.73Z"/><path class="cls-106" d="M548.74,389.73a3.29,3.29,0,0,0,3.22,2.7,3,3,0,0,0,.59-.06,3.27,3.27,0,0,0,2.64-3.81A1855.38,1855.38,0,0,1,525.55,58c0-19.25.31-38.63.91-58h-6.57c-.59,19.33-.9,38.71-.9,58A1861.83,1861.83,0,0,0,548.74,389.73Z"/><path class="cls-3" d="M682.4,810.16a3.29,3.29,0,0,1,4.34,1.65c-9-20-17.76-40.41-26-60.7a3.28,3.28,0,1,0-6.08,2.48c8.3,20.36,17.08,40.85,26.11,60.91A3.29,3.29,0,0,1,682.4,810.16Z"/><path class="cls-107" d="M682.4,810.16a3.29,3.29,0,0,1,4.34,1.65c-9-20-17.76-40.41-26-60.7a3.28,3.28,0,1,0-6.08,2.48c8.3,20.36,17.08,40.85,26.11,60.91A3.29,3.29,0,0,1,682.4,810.16Z"/><path class="cls-3" d="M799.8,1030.6a3.29,3.29,0,0,1,4.52,1A1839.7,1839.7,0,0,1,686.74,811.81a3.29,3.29,0,0,1-1.65,4.34,3.37,3.37,0,0,1-1.34.29,3.29,3.29,0,0,1-3-1.94,1847.11,1847.11,0,0,0,118,220.62A3.28,3.28,0,0,1,799.8,1030.6Z"/><path class="cls-108" d="M799.8,1030.6a3.29,3.29,0,0,1,4.52,1A1839.7,1839.7,0,0,1,686.74,811.81a3.29,3.29,0,0,1-1.65,4.34,3.37,3.37,0,0,1-1.34.29,3.29,3.29,0,0,1-3-1.94,1847.11,1847.11,0,0,0,118,220.62A3.28,3.28,0,0,1,799.8,1030.6Z"/><path class="cls-3" d="M683.75,816.44a3.37,3.37,0,0,0,1.34-.29,3.28,3.28,0,1,0-1.34.29Z"/><path class="cls-109" d="M683.75,816.44a3.37,3.37,0,0,0,1.34-.29,3.28,3.28,0,1,0-1.34.29Z"/><path class="cls-110" d="M683.75,816.44a3.37,3.37,0,0,0,1.34-.29,3.28,3.28,0,1,0-1.34.29Z"/><path class="cls-3" d="M1380.63,1615.33a3.28,3.28,0,0,1,4.53-1,1849.23,1849.23,0,0,1-323.25-258.58,1848.71,1848.71,0,0,1-257.59-324.08,3.28,3.28,0,1,1-5.56,3.48,1855.1,1855.1,0,0,0,258.5,325.23,1855.58,1855.58,0,0,0,324.4,259.5A3.29,3.29,0,0,1,1380.63,1615.33Z"/><path class="cls-111" d="M1380.63,1615.33a3.28,3.28,0,0,1,4.53-1,1849.23,1849.23,0,0,1-323.25-258.58,1848.71,1848.71,0,0,1-257.59-324.08,3.28,3.28,0,1,1-5.56,3.48,1855.1,1855.1,0,0,0,258.5,325.23,1855.58,1855.58,0,0,0,324.4,259.5A3.29,3.29,0,0,1,1380.63,1615.33Z"/><path class="cls-3" d="M1386.18,1618.82a3.29,3.29,0,1,0-2.77,1.53A3.27,3.27,0,0,0,1386.18,1618.82Z"/><path class="cls-112" d="M1386.18,1618.82a3.29,3.29,0,1,0-2.77,1.53A3.27,3.27,0,0,0,1386.18,1618.82Z"/><path class="cls-113" d="M1386.18,1618.82a3.29,3.29,0,1,0-2.77,1.53A3.27,3.27,0,0,0,1386.18,1618.82Z"/><path class="cls-3" d="M801.54,1036.66a3.28,3.28,0,1,0-2.78-1.54A3.27,3.27,0,0,0,801.54,1036.66Z"/><path class="cls-110" d="M801.54,1036.66a3.28,3.28,0,1,0-2.78-1.54A3.27,3.27,0,0,0,801.54,1036.66Z"/><path class="cls-113" d="M801.54,1036.66a3.28,3.28,0,1,0-2.78-1.54A3.27,3.27,0,0,0,801.54,1036.66Z"/><path class="cls-3" d="M950.65,1333.79a3.28,3.28,0,0,0,4.87-4.4,1908,1908,0,0,1-217.47-292.76,3.28,3.28,0,0,0-5.62,3.39A1914.74,1914.74,0,0,0,950.65,1333.79Z"/><path class="cls-114" d="M950.65,1333.79a3.28,3.28,0,0,0,4.87-4.4,1908,1908,0,0,1-217.47-292.76,3.28,3.28,0,0,0-5.62,3.39A1914.74,1914.74,0,0,0,950.65,1333.79Z"/><path class="cls-3" d="M1268.93,1615.68a3.28,3.28,0,1,0,3.78-5.36,1911.1,1911.1,0,0,1-291.34-252.88,3.28,3.28,0,0,0-4.78,4.49A1917.87,1917.87,0,0,0,1268.93,1615.68Z"/><path class="cls-115" d="M1268.93,1615.68a3.28,3.28,0,1,0,3.78-5.36,1911.1,1911.1,0,0,1-291.34-252.88,3.28,3.28,0,0,0-4.78,4.49A1917.87,1917.87,0,0,0,1268.93,1615.68Z"/><path class="cls-3" d="M602.58,777a3.41,3.41,0,0,0,1.24-.24,3.28,3.28,0,0,0,1.8-4.27C585,721.87,566.46,669.78,550.38,617.61a3.28,3.28,0,0,0-6.27,1.94c16.13,52.34,34.78,104.62,55.43,155.38A3.29,3.29,0,0,0,602.58,777Z"/><path class="cls-116" d="M602.58,777a3.41,3.41,0,0,0,1.24-.24,3.28,3.28,0,0,0,1.8-4.27C585,721.87,566.46,669.78,550.38,617.61a3.28,3.28,0,0,0-6.27,1.94c16.13,52.34,34.78,104.62,55.43,155.38A3.29,3.29,0,0,0,602.58,777Z"/><path class="cls-3" d="M430.48,399.59a3.28,3.28,0,1,1,6.47-1.13h0A1974.56,1974.56,0,0,1,407.42,58c0-19.25.29-38.63.85-58h-6.56c-.56,19.33-.85,38.71-.85,58A1982.59,1982.59,0,0,0,430.48,399.59Z"/><path class="cls-117" d="M430.48,399.59a3.28,3.28,0,1,1,6.47-1.13h0A1974.56,1974.56,0,0,1,407.42,58c0-19.25.29-38.63.85-58h-6.56c-.56,19.33-.85,38.71-.85,58A1982.59,1982.59,0,0,0,430.48,399.59Z"/><path class="cls-3" d="M434.28,402.25a2.75,2.75,0,0,1-.57.05,3.29,3.29,0,0,1-3.23-2.71,1958.73,1958.73,0,0,0,54.62,229,3.28,3.28,0,0,0,3.14,2.33,3.41,3.41,0,0,0,.95-.14,3.28,3.28,0,0,0,2.19-4.1A1949.42,1949.42,0,0,1,437,398.46,3.28,3.28,0,0,1,434.28,402.25Z"/><path class="cls-118" d="M434.28,402.25a2.75,2.75,0,0,1-.57.05,3.29,3.29,0,0,1-3.23-2.71,1958.73,1958.73,0,0,0,54.62,229,3.28,3.28,0,0,0,3.14,2.33,3.41,3.41,0,0,0,.95-.14,3.28,3.28,0,0,0,2.19-4.1A1949.42,1949.42,0,0,1,437,398.46,3.28,3.28,0,0,1,434.28,402.25Z"/><path class="cls-3" d="M433.15,395.79a3.28,3.28,0,0,0,.56,6.51,2.75,2.75,0,0,0,.57-.05,3.28,3.28,0,0,0,2.67-3.79h0A3.29,3.29,0,0,0,433.15,395.79Z"/><path class="cls-119" d="M433.15,395.79a3.28,3.28,0,0,0,.56,6.51,2.75,2.75,0,0,0,.57-.05,3.28,3.28,0,0,0,2.67-3.79h0A3.29,3.29,0,0,0,433.15,395.79Z"/><path class="cls-120" d="M433.15,395.79a3.28,3.28,0,0,0,.56,6.51,2.75,2.75,0,0,0,.57-.05,3.28,3.28,0,0,0,2.67-3.79h0A3.29,3.29,0,0,0,433.15,395.79Z"/><path class="cls-3" d="M566.55,840.33a3.29,3.29,0,0,0-1.69,4.32,1964.57,1964.57,0,0,0,176,317.82,1977.31,1977.31,0,0,0,229.72,278.25,3.28,3.28,0,1,0,4.66-4.62,1971.25,1971.25,0,0,1-229-277.33A1958,1958,0,0,1,570.87,842,3.28,3.28,0,0,0,566.55,840.33Z"/><path class="cls-121" d="M566.55,840.33a3.29,3.29,0,0,0-1.69,4.32,1964.57,1964.57,0,0,0,176,317.82,1977.31,1977.31,0,0,0,229.72,278.25,3.28,3.28,0,1,0,4.66-4.62,1971.25,1971.25,0,0,1-229-277.33A1958,1958,0,0,1,570.87,842,3.28,3.28,0,0,0,566.55,840.33Z"/><path class="cls-3" d="M1241.59,1736.24a3.28,3.28,0,0,0,.91,4.55,2022.29,2022.29,0,0,0,332.22,179.37,2012.76,2012.76,0,0,0,365.94,115.4,3.23,3.23,0,0,0,.69.07,3.28,3.28,0,0,0,.68-6.49,2005.06,2005.06,0,0,1-364.74-115,2015,2015,0,0,1-331.15-178.79A3.28,3.28,0,0,0,1241.59,1736.24Z"/><path class="cls-122" d="M1241.59,1736.24a3.28,3.28,0,0,0,.91,4.55,2022.29,2022.29,0,0,0,332.22,179.37,2012.76,2012.76,0,0,0,365.94,115.4,3.23,3.23,0,0,0,.69.07,3.28,3.28,0,0,0,.68-6.49,2005.06,2005.06,0,0,1-364.74-115,2015,2015,0,0,1-331.15-178.79A3.28,3.28,0,0,0,1241.59,1736.24Z"/><path class="cls-1" d="M1767.33,946.89a1075.43,1075.43,0,0,1-227.19-205.25,1069.9,1069.9,0,0,1-160.7-262.46,3.28,3.28,0,1,1-6,2.58A1076.23,1076.23,0,0,0,1535.1,745.83a1081.73,1081.73,0,0,0,228.57,206.5c177.63,119.42,385.13,182.54,600,182.54l3.28,0v-6.56l-3.28,0C2150.11,1128.31,1943.88,1065.57,1767.33,946.89Z"/><path class="cls-3" d="M1767.33,946.89a1075.43,1075.43,0,0,1-227.19-205.25,1069.9,1069.9,0,0,1-160.7-262.46,3.28,3.28,0,1,1-6,2.58A1076.23,1076.23,0,0,0,1535.1,745.83a1081.73,1081.73,0,0,0,228.57,206.5c177.63,119.42,385.13,182.54,600,182.54l3.28,0v-6.56l-3.28,0C2150.11,1128.31,1943.88,1065.57,1767.33,946.89Z"/><path class="cls-123" d="M1767.33,946.89a1075.43,1075.43,0,0,1-227.19-205.25,1069.9,1069.9,0,0,1-160.7-262.46,3.28,3.28,0,1,1-6,2.58A1076.23,1076.23,0,0,0,1535.1,745.83a1081.73,1081.73,0,0,0,228.57,206.5c177.63,119.42,385.13,182.54,600,182.54l3.28,0v-6.56l-3.28,0C2150.11,1128.31,1943.88,1065.57,1767.33,946.89Z"/><path class="cls-1" d="M2298.68,1244.68a3.28,3.28,0,0,1-.17,6.56h-.18c21.64,1.16,43.64,1.75,65.39,1.75l3.28,0v-6.56l-3.28,0C2342.09,1246.43,2320.21,1245.84,2298.68,1244.68Z"/><path class="cls-3" d="M2298.68,1244.68a3.28,3.28,0,0,1-.17,6.56h-.18c21.64,1.16,43.64,1.75,65.39,1.75l3.28,0v-6.56l-3.28,0C2342.09,1246.43,2320.21,1245.84,2298.68,1244.68Z"/><path class="cls-124" d="M2298.68,1244.68a3.28,3.28,0,0,1-.17,6.56h-.18c21.64,1.16,43.64,1.75,65.39,1.75l3.28,0v-6.56l-3.28,0C2342.09,1246.43,2320.21,1245.84,2298.68,1244.68Z"/><path class="cls-1" d="M2101.13,1277.81a1240.84,1240.84,0,0,1-243.46-79.22,3.28,3.28,0,0,1-2.66,6,1247.56,1247.56,0,0,0,244.75,79.64,1262.13,1262.13,0,0,0,264,27.83l3.28,0v-6.56l-3.28,0A1255.9,1255.9,0,0,1,2101.13,1277.81Z"/><path class="cls-3" d="M2101.13,1277.81a1240.84,1240.84,0,0,1-243.46-79.22,3.28,3.28,0,0,1-2.66,6,1247.56,1247.56,0,0,0,244.75,79.64,1262.13,1262.13,0,0,0,264,27.83l3.28,0v-6.56l-3.28,0A1255.9,1255.9,0,0,1,2101.13,1277.81Z"/><path class="cls-125" d="M2101.13,1277.81a1240.84,1240.84,0,0,1-243.46-79.22,3.28,3.28,0,0,1-2.66,6,1247.56,1247.56,0,0,0,244.75,79.64,1262.13,1262.13,0,0,0,264,27.83l3.28,0v-6.56l-3.28,0A1255.9,1255.9,0,0,1,2101.13,1277.81Z"/><path class="cls-1" d="M1957.61,1362.23a3.28,3.28,0,1,0-1.95,6.26,1372.35,1372.35,0,0,0,408.06,61.7H2367v-6.57h-3.28A1365.84,1365.84,0,0,1,1957.61,1362.23Z"/><path class="cls-3" d="M1957.61,1362.23a3.28,3.28,0,1,0-1.95,6.26,1372.35,1372.35,0,0,0,408.06,61.7H2367v-6.57h-3.28A1365.84,1365.84,0,0,1,1957.61,1362.23Z"/><path class="cls-126" d="M1957.61,1362.23a3.28,3.28,0,1,0-1.95,6.26,1372.35,1372.35,0,0,0,408.06,61.7H2367v-6.57h-3.28A1365.84,1365.84,0,0,1,1957.61,1362.23Z"/><path class="cls-1" d="M1859.42,1390.86h0a3.28,3.28,0,0,1-1.17,6.35,3.43,3.43,0,0,1-1.16-.21h0c161.71,61.21,332.16,92.25,506.63,92.25l3.28,0v-6.56l-3.28,0C2190.05,1482.69,2020.37,1451.79,1859.42,1390.86Z"/><path class="cls-3" d="M1859.42,1390.86h0a3.28,3.28,0,0,1-1.17,6.35,3.43,3.43,0,0,1-1.16-.21h0c161.71,61.21,332.16,92.25,506.63,92.25l3.28,0v-6.56l-3.28,0C2190.05,1482.69,2020.37,1451.79,1859.42,1390.86Z"/><path class="cls-72" d="M1859.42,1390.86h0a3.28,3.28,0,0,1-1.17,6.35,3.43,3.43,0,0,1-1.16-.21h0c161.71,61.21,332.16,92.25,506.63,92.25l3.28,0v-6.56l-3.28,0C2190.05,1482.69,2020.37,1451.79,1859.42,1390.86Z"/><path class="cls-1" d="M2074.23,1573.7a1536.33,1536.33,0,0,1-271.45-78,3.28,3.28,0,0,1-2.39,6.11A1543.14,1543.14,0,0,0,2073,1580.15a1562.43,1562.43,0,0,0,290.71,27.23l3.28,0v-6.56l-3.28,0A1556.22,1556.22,0,0,1,2074.23,1573.7Z"/><path class="cls-3" d="M2074.23,1573.7a1536.33,1536.33,0,0,1-271.45-78,3.28,3.28,0,0,1-2.39,6.11A1543.14,1543.14,0,0,0,2073,1580.15a1562.43,1562.43,0,0,0,290.71,27.23l3.28,0v-6.56l-3.28,0A1556.22,1556.22,0,0,1,2074.23,1573.7Z"/><path class="cls-84" d="M2074.23,1573.7a1536.33,1536.33,0,0,1-271.45-78,3.28,3.28,0,0,1-2.39,6.11A1543.14,1543.14,0,0,0,2073,1580.15a1562.43,1562.43,0,0,0,290.71,27.23l3.28,0v-6.56l-3.28,0A1556.22,1556.22,0,0,1,2074.23,1573.7Z"/><path class="cls-1" d="M1652.66,1553.06a3.28,3.28,0,1,0-2.88,5.89A1656.16,1656.16,0,0,0,2367,1727.25v-6.58a1649.13,1649.13,0,0,1-714.34-167.61Z"/><path class="cls-3" d="M1652.66,1553.06a3.28,3.28,0,1,0-2.88,5.89A1656.16,1656.16,0,0,0,2367,1727.25v-6.58a1649.13,1649.13,0,0,1-714.34-167.61Z"/><path class="cls-127" d="M1652.66,1553.06a3.28,3.28,0,1,0-2.88,5.89A1656.16,1656.16,0,0,0,2367,1727.25v-6.58a1649.13,1649.13,0,0,1-714.34-167.61Z"/><path class="cls-1" d="M1939.67,1725.34a3.28,3.28,0,0,1-.8,6.46,3.21,3.21,0,0,1-.81-.1,1733.26,1733.26,0,0,0,425.66,52.87l3.28,0V1778l-3.28,0A1726.51,1726.51,0,0,1,1939.67,1725.34Z"/><path class="cls-3" d="M1939.67,1725.34a3.28,3.28,0,0,1-.8,6.46,3.21,3.21,0,0,1-.81-.1,1733.26,1733.26,0,0,0,425.66,52.87l3.28,0V1778l-3.28,0A1726.51,1726.51,0,0,1,1939.67,1725.34Z"/><path class="cls-128" d="M1939.67,1725.34a3.28,3.28,0,0,1-.8,6.46,3.21,3.21,0,0,1-.81-.1,1733.26,1733.26,0,0,0,425.66,52.87l3.28,0V1778l-3.28,0A1726.51,1726.51,0,0,1,1939.67,1725.34Z"/><path class="cls-1" d="M2035.64,1806.88A1771,1771,0,0,1,1727.53,1720a3.28,3.28,0,0,0-2.34,6.13,1777.23,1777.23,0,0,0,309.25,87.25,1800.77,1800.77,0,0,0,329.28,30.3H2367v-6.56h-3.28A1794.8,1794.8,0,0,1,2035.64,1806.88Z"/><path class="cls-3" d="M2035.64,1806.88A1771,1771,0,0,1,1727.53,1720a3.28,3.28,0,0,0-2.34,6.13,1777.23,1777.23,0,0,0,309.25,87.25,1800.77,1800.77,0,0,0,329.28,30.3H2367v-6.56h-3.28A1794.8,1794.8,0,0,1,2035.64,1806.88Z"/><path class="cls-129" d="M2035.64,1806.88A1771,1771,0,0,1,1727.53,1720a3.28,3.28,0,0,0-2.34,6.13,1777.23,1777.23,0,0,0,309.25,87.25,1800.77,1800.77,0,0,0,329.28,30.3H2367v-6.56h-3.28A1794.8,1794.8,0,0,1,2035.64,1806.88Z"/><path class="cls-1" d="M1845.82,1822.17a1829.16,1829.16,0,0,1-460.66-207.87,3.28,3.28,0,0,1-3.5,5.55A1836.07,1836.07,0,0,0,1844,1828.47a1847.24,1847.24,0,0,0,519.74,74.23l3.28,0v-6.56h-3.28A1840.53,1840.53,0,0,1,1845.82,1822.17Z"/><path class="cls-3" d="M1845.82,1822.17a1829.16,1829.16,0,0,1-460.66-207.87,3.28,3.28,0,0,1-3.5,5.55A1836.07,1836.07,0,0,0,1844,1828.47a1847.24,1847.24,0,0,0,519.74,74.23l3.28,0v-6.56h-3.28A1840.53,1840.53,0,0,1,1845.82,1822.17Z"/><path class="cls-130" d="M1845.82,1822.17a1829.16,1829.16,0,0,1-460.66-207.87,3.28,3.28,0,0,1-3.5,5.55A1836.07,1836.07,0,0,0,1844,1828.47a1847.24,1847.24,0,0,0,519.74,74.23l3.28,0v-6.56h-3.28A1840.53,1840.53,0,0,1,1845.82,1822.17Z"/><path class="cls-1" d="M1816.6,1936.73a1946.72,1946.72,0,0,1-487.32-218,3.28,3.28,0,1,0-3.47,5.56,1952.75,1952.75,0,0,0,489,218.76,1965.63,1965.63,0,0,0,548.95,77.79H2367v-6.56h-3.28A1959,1959,0,0,1,1816.6,1936.73Z"/><path class="cls-3" d="M1816.6,1936.73a1946.72,1946.72,0,0,1-487.32-218,3.28,3.28,0,1,0-3.47,5.56,1952.75,1952.75,0,0,0,489,218.76,1965.63,1965.63,0,0,0,548.95,77.79H2367v-6.56h-3.28A1959,1959,0,0,1,1816.6,1936.73Z"/><path class="cls-131" d="M1816.6,1936.73a1946.72,1946.72,0,0,1-487.32-218,3.28,3.28,0,1,0-3.47,5.56,1952.75,1952.75,0,0,0,489,218.76,1965.63,1965.63,0,0,0,548.95,77.79H2367v-6.56h-3.28A1959,1959,0,0,1,1816.6,1936.73Z"/><path class="cls-1" d="M2226.32,2068.72a3.28,3.28,0,0,0-.44,6.54c45.58,3.07,92,4.63,137.84,4.63l3.28,0v-6.56l-3.28,0C2318,2073.33,2271.76,2071.77,2226.32,2068.72Z"/><path class="cls-3" d="M2226.32,2068.72a3.28,3.28,0,0,0-.44,6.54c45.58,3.07,92,4.63,137.84,4.63l3.28,0v-6.56l-3.28,0C2318,2073.33,2271.76,2071.77,2226.32,2068.72Z"/><path class="cls-132" d="M2226.32,2068.72a3.28,3.28,0,0,0-.44,6.54c45.58,3.07,92,4.63,137.84,4.63l3.28,0v-6.56l-3.28,0C2318,2073.33,2271.76,2071.77,2226.32,2068.72Z"/><path class="cls-3" d="M388.77,493.26A2011.08,2011.08,0,0,0,523.05,895.88a3.28,3.28,0,1,1,6-2.73h0A2004.18,2004.18,0,0,1,395.18,491.86,2028.09,2028.09,0,0,1,348.35,58c0-19.25.28-38.62.83-58h-6.57c-.54,19.34-.82,38.71-.82,58A2034.62,2034.62,0,0,0,388.77,493.26Z"/><path class="cls-133" d="M388.77,493.26A2011.08,2011.08,0,0,0,523.05,895.88a3.28,3.28,0,1,1,6-2.73h0A2004.18,2004.18,0,0,1,395.18,491.86,2028.09,2028.09,0,0,1,348.35,58c0-19.25.28-38.62.83-58h-6.57c-.54,19.34-.82,38.71-.82,58A2034.62,2034.62,0,0,0,388.77,493.26Z"/><path class="cls-3" d="M527.39,897.5a3.26,3.26,0,0,1-4.34-1.62,2023.55,2023.55,0,0,0,242.26,400.49,3.27,3.27,0,0,0,2.6,1.27,3.2,3.2,0,0,0,2-.69,3.27,3.27,0,0,0,.59-4.6A2017,2017,0,0,1,529,893.16,3.28,3.28,0,0,1,527.39,897.5Z"/><path class="cls-134" d="M527.39,897.5a3.26,3.26,0,0,1-4.34-1.62,2023.55,2023.55,0,0,0,242.26,400.49,3.27,3.27,0,0,0,2.6,1.27,3.2,3.2,0,0,0,2-.69,3.27,3.27,0,0,0,.59-4.6A2017,2017,0,0,1,529,893.16,3.28,3.28,0,0,1,527.39,897.5Z"/><path class="cls-3" d="M524.67,891.53a3.28,3.28,0,1,0,4.35,1.63h0A3.29,3.29,0,0,0,524.67,891.53Z"/><path class="cls-135" d="M524.67,891.53a3.28,3.28,0,1,0,4.35,1.63h0A3.29,3.29,0,0,0,524.67,891.53Z"/><path class="cls-136" d="M524.67,891.53a3.28,3.28,0,1,0,4.35,1.63h0A3.29,3.29,0,0,0,524.67,891.53Z"/></g></g></g></svg>