<svg xmlns="http://www.w3.org/2000/svg" xmlns:xlink="http://www.w3.org/1999/xlink" viewBox="0 0 4074.14 918.15"><defs><style>.cls-1{fill:#101921;}.cls-2{fill:url(#New_Gradient_Swatch_1);}.cls-3{fill:url(#New_Gradient_Swatch_1-2);}.cls-4{fill:url(#New_Gradient_Swatch_1-3);}.cls-5{fill:#4e6376;}.cls-6,.cls-8{fill:#fff;}.cls-7{fill:url(#New_Gradient_Swatch_1-4);}.cls-8{fill-rule:evenodd;}</style><linearGradient id="New_Gradient_Swatch_1" x1="692.22" y1="609.04" x2="3634.22" y2="609.04" gradientUnits="userSpaceOnUse"><stop offset="0" stop-color="#0fc"/><stop offset="1" stop-color="#0cf"/></linearGradient><linearGradient id="New_Gradient_Swatch_1-2" x1="517.38" y1="472.96" x2="3459.37" y2="472.96" xlink:href="#New_Gradient_Swatch_1"/><linearGradient id="New_Gradient_Swatch_1-3" x1="713.45" y1="340.31" x2="3655.45" y2="340.31" xlink:href="#New_Gradient_Swatch_1"/><linearGradient id="New_Gradient_Swatch_1-4" x1="1568.93" y1="455.54" x2="2480.02" y2="455.54" xlink:href="#New_Gradient_Swatch_1"/></defs><title>Thorchain_Flash Network</title><g id="Layer_2" data-name="Layer 2"><g id="Layer_1-2" data-name="Layer 1"><rect class="cls-1" x="811.06" y="288.06" width="2513.4" height="383.57"/><path class="cls-2" d="M3634.22,619.54h-14v-21h14Zm-24,0h-14v-21h14Zm-24,0h-14v-21h14Zm-24,0h-14v-21h14Zm-24,0h-14v-21h14Zm-24,0h-14v-21h14Zm-24,0h-14v-21h14Zm-24,0h-14v-21h14Zm-24,0h-14v-21h14Zm-24,0h-14v-21h14Zm-24,0h-14v-21h14Zm-24,0h-14v-21h14Zm-24,0h-14v-21h14Zm-24,0h-14v-21h14Zm-24,0h-14v-21h14Zm-24,0h-14v-21h14Zm-24,0h-14v-21h14Zm-24,0h-14v-21h14Zm-24,0h-14v-21h14Zm-24,0h-14v-21h14Zm-24,0h-14v-21h14Zm-24,0h-14v-21h14Zm-24,0h-14v-21h14Zm-24,0h-14v-21h14Zm-24,0h-14v-21h14Zm-24,0h-14v-21h14Zm-24,0h-14v-21h14Zm-24,0h-14v-21h14Zm-24,0h-14v-21h14Zm-24,0h-14v-21h14Zm-24,0h-14v-21h14Zm-24,0h-14v-21h14Zm-24,0h-14v-21h14Zm-24,0h-14v-21h14Zm-24,0h-14v-21h14Zm-24,0h-14v-21h14Zm-24,0h-14v-21h14Zm-24,0h-14v-21h14Zm-24,0h-14v-21h14Zm-24,0h-14v-21h14Zm-24,0h-14v-21h14Zm-24,0h-14v-21h14Zm-24,0h-14v-21h14Zm-24,0h-14v-21h14Zm-24,0h-14v-21h14Zm-24,0h-14v-21h14Zm-24,0h-14v-21h14Zm-24,0h-14v-21h14Zm-24,0h-14v-21h14Zm-24,0h-14v-21h14Zm-24,0h-14v-21h14Zm-24,0h-14v-21h14Zm-24,0h-14v-21h14Zm-24,0h-14v-21h14Zm-24,0h-14v-21h14Zm-24,0h-14v-21h14Zm-24,0h-14v-21h14Zm-24,0h-14v-21h14Zm-24,0h-14v-21h14Zm-24,0h-14v-21h14Zm-24,0h-14v-21h14Zm-24,0h-14v-21h14Zm-24,0h-14v-21h14Zm-24,0h-14v-21h14Zm-24,0h-14v-21h14Zm-24,0h-14v-21h14Zm-24,0h-14v-21h14Zm-24,0h-14v-21h14Zm-24,0h-14v-21h14Zm-24,0h-14v-21h14Zm-24,0h-14v-21h14Zm-24,0h-14v-21h14Zm-24,0h-14v-21h14Zm-24,0h-14v-21h14Zm-24,0h-14v-21h14Zm-24,0h-14v-21h14Zm-24,0h-14v-21h14Zm-24,0h-14v-21h14Zm-24,0h-14v-21h14Zm-24,0h-14v-21h14Zm-24,0h-14v-21h14Zm-24,0h-14v-21h14Zm-24,0h-14v-21h14Zm-24,0h-14v-21h14Zm-24,0h-14v-21h14Zm-24,0h-14v-21h14Zm-24,0h-14v-21h14Zm-24,0h-14v-21h14Zm-24,0h-14v-21h14Zm-24,0h-14v-21h14Zm-24,0h-14v-21h14Zm-24,0h-14v-21h14Zm-24,0h-14v-21h14Zm-24,0h-14v-21h14Zm-24,0h-14v-21h14Zm-24,0h-14v-21h14Zm-24,0h-14v-21h14Zm-24,0h-14v-21h14Zm-24,0h-14v-21h14Zm-24,0h-14v-21h14Zm-24,0h-14v-21h14Zm-24,0h-14v-21h14Zm-24,0h-14v-21h14Zm-24,0h-14v-21h14Zm-24,0h-14v-21h14Zm-24,0h-14v-21h14Zm-24,0h-14v-21h14Zm-24,0h-14v-21h14Zm-24,0h-14v-21h14Zm-24,0h-14v-21h14Zm-24,0h-14v-21h14Zm-24,0h-14v-21h14Zm-24,0h-14v-21h14Zm-24,0h-14v-21h14Zm-24,0h-14v-21h14Zm-24,0h-14v-21h14Zm-24,0h-14v-21h14Zm-24,0h-14v-21h14Zm-24,0h-14v-21h14Zm-24,0h-14v-21h14Zm-24,0h-14v-21h14Zm-24,0h-14v-21h14Zm-24,0h-14v-21h14Z"/><path class="cls-3" d="M3459.37,483.46h-14v-21h14Zm-24,0h-14v-21h14Zm-24,0h-14v-21h14Zm-24,0h-14v-21h14Zm-24,0h-14v-21h14Zm-24,0h-14v-21h14Zm-24,0h-14v-21h14Zm-24,0h-14v-21h14Zm-24,0h-14v-21h14Zm-24,0h-14v-21h14Zm-24,0h-14v-21h14Zm-24,0h-14v-21h14Zm-24,0h-14v-21h14Zm-24,0h-14v-21h14Zm-24,0h-14v-21h14Zm-24,0h-14v-21h14Zm-24,0h-14v-21h14Zm-24,0h-14v-21h14Zm-24,0h-14v-21h14Zm-24,0h-14v-21h14Zm-24,0h-14v-21h14Zm-24,0h-14v-21h14Zm-24,0h-14v-21h14Zm-24,0h-14v-21h14Zm-24,0h-14v-21h14Zm-24,0h-14v-21h14Zm-24,0h-14v-21h14Zm-24,0h-14v-21h14Zm-24,0h-14v-21h14Zm-24,0h-14v-21h14Zm-24,0h-14v-21h14Zm-24,0h-14v-21h14Zm-24,0h-14v-21h14Zm-24,0h-14v-21h14Zm-24,0h-14v-21h14Zm-24,0h-14v-21h14Zm-24,0h-14v-21h14Zm-24,0h-14v-21h14Zm-24,0h-14v-21h14Zm-24,0h-14v-21h14Zm-24,0h-14v-21h14Zm-24,0h-14v-21h14Zm-24,0h-14v-21h14Zm-24,0h-14v-21h14Zm-24,0h-14v-21h14Zm-24,0h-14v-21h14Zm-24,0h-14v-21h14Zm-24,0h-14v-21h14Zm-24,0h-14v-21h14Zm-24,0h-14v-21h14Zm-24,0h-14v-21h14Zm-24,0h-14v-21h14Zm-24,0h-14v-21h14Zm-24,0h-14v-21h14Zm-24,0h-14v-21h14Zm-24,0h-14v-21h14Zm-24,0h-14v-21h14Zm-24,0h-14v-21h14Zm-24,0h-14v-21h14Zm-24,0h-14v-21h14Zm-24,0h-14v-21h14Zm-24,0h-14v-21h14Zm-24,0h-14v-21h14Zm-24,0h-14v-21h14Zm-24,0h-14v-21h14Zm-24,0h-14v-21h14Zm-24,0h-14v-21h14Zm-24,0h-14v-21h14Zm-24,0h-14v-21h14Zm-24,0h-14v-21h14Zm-24,0h-14v-21h14Zm-24,0h-14v-21h14Zm-24,0h-14v-21h14Zm-24,0h-14v-21h14Zm-24,0h-14v-21h14Zm-24,0h-14v-21h14Zm-24,0h-14v-21h14Zm-24,0h-14v-21h14Zm-24,0h-14v-21h14Zm-24,0h-14v-21h14Zm-24,0h-14v-21h14Zm-24,0h-14v-21h14Zm-24,0h-14v-21h14Zm-24,0h-14v-21h14Zm-24,0h-14v-21h14Zm-24,0h-14v-21h14Zm-24,0h-14v-21h14Zm-24,0h-14v-21h14Zm-24,0h-14v-21h14Zm-24,0h-14v-21h14Zm-24,0h-14v-21h14Zm-24,0h-14v-21h14Zm-24,0h-14v-21h14Zm-24,0h-14v-21h14Zm-24,0h-14v-21h14Zm-24,0h-14v-21h14Zm-24,0h-14v-21h14Zm-24,0h-14v-21h14Zm-24,0h-14v-21h14Zm-24,0h-14v-21h14Zm-24,0h-14v-21h14Zm-24,0h-14v-21h14Zm-24,0h-14v-21h14Zm-24,0h-14v-21h14Zm-24,0h-14v-21h14Zm-24,0h-14v-21h14Zm-24,0h-14v-21h14Zm-24,0h-14v-21h14Zm-24,0h-14v-21h14Zm-24,0h-14v-21h14Zm-24,0h-14v-21h14Zm-24,0h-14v-21h14Zm-24,0h-14v-21h14Zm-24,0h-14v-21h14Zm-24,0h-14v-21h14Zm-24,0h-14v-21h14Zm-24,0h-14v-21h14Zm-24,0h-14v-21h14Zm-24,0h-14v-21h14Zm-24,0h-14v-21h14Zm-24,0h-14v-21h14Zm-24,0h-14v-21h14Zm-24,0h-14v-21h14Z"/><path class="cls-4" d="M3655.45,350.81h-14v-21h14Zm-24,0h-14v-21h14Zm-24,0h-14v-21h14Zm-24,0h-14v-21h14Zm-24,0h-14v-21h14Zm-24,0h-14v-21h14Zm-24,0h-14v-21h14Zm-24,0h-14v-21h14Zm-24,0h-14v-21h14Zm-24,0h-14v-21h14Zm-24,0h-14v-21h14Zm-24,0h-14v-21h14Zm-24,0h-14v-21h14Zm-24,0h-14v-21h14Zm-24,0h-14v-21h14Zm-24,0h-14v-21h14Zm-24,0h-14v-21h14Zm-24,0h-14v-21h14Zm-24,0h-14v-21h14Zm-24,0h-14v-21h14Zm-24,0h-14v-21h14Zm-24,0h-14v-21h14Zm-24,0h-14v-21h14Zm-24,0h-14v-21h14Zm-24,0h-14v-21h14Zm-24,0h-14v-21h14Zm-24,0h-14v-21h14Zm-24,0h-14v-21h14Zm-24,0h-14v-21h14Zm-24,0h-14v-21h14Zm-24,0h-14v-21h14Zm-24,0h-14v-21h14Zm-24,0h-14v-21h14Zm-24,0h-14v-21h14Zm-24,0h-14v-21h14Zm-24,0h-14v-21h14Zm-24,0h-14v-21h14Zm-24,0h-14v-21h14Zm-24,0h-14v-21h14Zm-24,0h-14v-21h14Zm-24,0h-14v-21h14Zm-24,0h-14v-21h14Zm-24,0h-14v-21h14Zm-24,0h-14v-21h14Zm-24,0h-14v-21h14Zm-24,0h-14v-21h14Zm-24,0h-14v-21h14Zm-24,0h-14v-21h14Zm-24,0h-14v-21h14Zm-24,0h-14v-21h14Zm-24,0h-14v-21h14Zm-24,0h-14v-21h14Zm-24,0h-14v-21h14Zm-24,0h-14v-21h14Zm-24,0h-14v-21h14Zm-24,0h-14v-21h14Zm-24,0h-14v-21h14Zm-24,0h-14v-21h14Zm-24,0h-14v-21h14Zm-24,0h-14v-21h14Zm-24,0h-14v-21h14Zm-24,0h-14v-21h14Zm-24,0h-14v-21h14Zm-24,0h-14v-21h14Zm-24,0h-14v-21h14Zm-24,0h-14v-21h14Zm-24,0h-14v-21h14Zm-24,0h-14v-21h14Zm-24,0h-14v-21h14Zm-24,0h-14v-21h14Zm-24,0h-14v-21h14Zm-24,0h-14v-21h14Zm-24,0h-14v-21h14Zm-24,0h-14v-21h14Zm-24,0h-14v-21h14Zm-24,0h-14v-21h14Zm-24,0h-14v-21h14Zm-24,0h-14v-21h14Zm-24,0h-14v-21h14Zm-24,0h-14v-21h14Zm-24,0h-14v-21h14Zm-24,0h-14v-21h14Zm-24,0h-14v-21h14Zm-24,0h-14v-21h14Zm-24,0h-14v-21h14Zm-24,0h-14v-21h14Zm-24,0h-14v-21h14Zm-24,0h-14v-21h14Zm-24,0h-14v-21h14Zm-24,0h-14v-21h14Zm-24,0h-14v-21h14Zm-24,0h-14v-21h14Zm-24,0h-14v-21h14Zm-24,0h-14v-21h14Zm-24,0h-14v-21h14Zm-24,0h-14v-21h14Zm-24,0h-14v-21h14Zm-24,0h-14v-21h14Zm-24,0h-14v-21h14Zm-24,0h-14v-21h14Zm-24,0h-14v-21h14Zm-24,0h-14v-21h14Zm-24,0h-14v-21h14Zm-24,0h-14v-21h14Zm-24,0h-14v-21h14Zm-24,0h-14v-21h14Zm-24,0h-14v-21h14Zm-24,0h-14v-21h14Zm-24,0h-14v-21h14Zm-24,0h-14v-21h14Zm-24,0h-14v-21h14Zm-24,0h-14v-21h14Zm-24,0h-14v-21h14Zm-24,0h-14v-21h14Zm-24,0h-14v-21h14Zm-24,0h-14v-21h14Zm-24,0h-14v-21h14Zm-24,0h-14v-21h14Zm-24,0h-14v-21h14Zm-24,0h-14v-21h14Zm-24,0h-14v-21h14Zm-24,0h-14v-21h14Zm-24,0h-14v-21h14Z"/><circle class="cls-1" cx="455.54" cy="462.6" r="445.04"/><path class="cls-5" d="M455.55,918.15c-3.67,0-7.36,0-11-.13l.5-21c4.49.11,9.07.15,13.67.11l.15,21Zm13.57-.2-.62-21c4.54-.14,9.14-.34,13.66-.61l1.27,21C478.69,917.59,473.88,917.81,469.12,918Zm-34.77-.29c-4.76-.21-9.57-.51-14.29-.88l1.61-20.93c4.51.35,9.1.63,13.64.83Zm59.28-1.08-1.73-20.93c4.53-.38,9.11-.83,13.6-1.34l2.39,20.86C503.18,915.71,498.39,916.18,493.63,916.58Zm-83.76-.7c-4.74-.47-9.52-1-14.23-1.64l2.73-20.82c4.49.59,9.06,1.12,13.58,1.57Zm108.17-2-2.86-20.8c4.51-.62,9.06-1.32,13.51-2.07l3.51,20.7C527.53,912.51,522.77,913.24,518,913.89Zm-132.54-1.1c-4.72-.72-9.47-1.54-14.12-2.41l3.86-20.64c4.43.83,9,1.6,13.47,2.3Zm156.77-2.89-4-20.62c4.44-.86,8.94-1.8,13.37-2.8L556.3,907C551.65,908,546.93,909,542.27,909.9Zm-180.93-1.51c-4.66-1-9.37-2-14-3.17l5-20.4c4.39,1.07,8.87,2.09,13.32,3Zm204.91-3.79-5.08-20.38c4.4-1.1,8.84-2.28,13.2-3.52l5.73,20.21C575.53,902.2,570.87,903.44,566.25,904.6Zm-228.8-1.91c-4.58-1.23-9.22-2.55-13.78-3.93l6.07-20.1c4.35,1.31,8.77,2.57,13.14,3.74ZM589.92,898l-6.19-20.07c4.33-1.33,8.71-2.76,13-4.23l6.82,19.86C599.05,895.11,594.46,896.6,589.92,898Zm-276-2.32c-4.54-1.48-9.11-3.06-13.59-4.68l7.16-19.75c4.27,1.55,8.63,3.06,12.95,4.47Zm299.32-5.55-7.28-19.7c4.28-1.58,8.57-3.24,12.75-4.93L626.55,885C622.16,886.74,617.67,888.48,613.19,890.13Zm-322.53-2.74c-4.46-1.73-8.94-3.56-13.31-5.42l8.23-19.32c4.16,1.77,8.43,3.51,12.69,5.17ZM636,881l-8.33-19.28c4.16-1.79,8.34-3.68,12.42-5.59l8.93,19C644.7,877.16,640.32,879.14,636,881Zm-368-3.17c-4.35-2-8.72-4-13-6.13l9.26-18.84c4.07,2,8.24,4,12.39,5.84Zm390.21-7.14-9.36-18.8c4.06-2,8.14-4.13,12.11-6.26l9.94,18.5C666.7,866.38,662.43,868.59,658.17,870.71ZM245.81,867.1c-4.21-2.19-8.46-4.49-12.62-6.82L243.45,842c4,2.23,8,4.41,12.05,6.5Zm434-7.89-10.35-18.27c3.94-2.23,7.9-4.56,11.76-6.91L692.13,852C688.08,854.43,683.94,856.87,679.8,859.21Zm-455.5-4c-4.1-2.42-8.22-4.94-12.24-7.49L223.3,830c3.83,2.42,7.76,4.83,11.67,7.14Zm476.5-8.61-11.33-17.69c3.82-2.44,7.65-5,11.38-7.53l11.87,17.32C708.81,841.34,704.79,844,700.8,846.56ZM203.47,842.1c-4-2.64-7.95-5.37-11.82-8.13l12.19-17.1c3.68,2.62,7.47,5.23,11.26,7.75Zm517.62-9.31-12.26-17c3.68-2.64,7.37-5.38,11-8.14l12.79,16.66C728.8,827.15,724.94,830,721.09,832.79Zm-537.71-4.85c-3.83-2.85-7.65-5.8-11.36-8.76l13.09-16.42c3.54,2.82,7.18,5.63,10.83,8.35Zm557.24-10-13.15-16.37c3.53-2.84,7.07-5.77,10.51-8.72l13.66,16C748,811.89,744.33,815,740.62,817.94Zm-576.53-5.22c-3.66-3-7.31-6.19-10.87-9.34l13.95-15.71c3.39,3,6.87,6,10.36,8.92Zm595.24-10.65-14-15.64c3.37-3,6.75-6.14,10-9.28l14.49,15.2C766.4,795.64,762.86,798.91,759.33,802.07ZM145.65,796.5c-3.49-3.24-7-6.57-10.35-9.92l14.77-14.93c3.22,3.19,6.54,6.37,9.87,9.46Zm631.52-11.29-14.83-14.87c3.22-3.2,6.42-6.5,9.53-9.8l15.29,14.4C783.9,778.4,780.54,781.85,777.17,785.21Zm-649.06-5.9c-3.31-3.42-6.61-6.93-9.8-10.44l15.54-14.13c3.05,3.36,6.2,6.71,9.35,10Zm666-11.9-15.6-14.06c3-3.35,6-6.81,9-10.29l16,13.56C800.43,760.27,797.26,763.9,794.09,767.41Zm-682.57-6.19c-3.12-3.59-6.23-7.28-9.22-11L118.58,737c2.85,3.5,5.81,7,8.79,10.45ZM810,748.73l-16.33-13.2c2.85-3.54,5.69-7.16,8.42-10.77l16.74,12.68C816,741.22,813,745,810,748.73ZM95.93,742.27c-2.93-3.75-5.83-7.6-8.62-11.43l17-12.37c2.66,3.65,5.43,7.32,8.22,10.9Zm729-13.06-17-12.3c2.66-3.69,5.3-7.47,7.84-11.22l17.39,11.77C830.52,721.39,827.76,725.34,825,729.21ZM81.38,722.52c-2.71-3.89-5.39-7.88-8-11.86L91,699.2c2.47,3.81,5,7.62,7.62,11.33ZM838.83,708.9l-17.66-11.36c2.46-3.83,4.89-7.73,7.23-11.63l18,10.81C844,700.8,841.41,704.9,838.83,708.9ZM67.92,702c-2.5-4-5-8.17-7.33-12.28l18.19-10.48c2.26,3.91,4.61,7.85,7,11.71Zm783.66-14.16-18.25-10.4c2.25-3.93,4.46-8,6.6-12l18.56,9.82C856.25,679.52,853.93,683.75,851.58,687.87Zm-796-7c-2.27-4.15-4.52-8.41-6.66-12.65l18.73-9.49c2,4,4.19,8.1,6.35,12.07Zm807.59-14.68-18.78-9.39c2-4.08,4-8.23,5.93-12.34l19.07,8.79C867.41,657.55,865.32,661.9,863.18,666.17ZM44.42,659.05c-2.05-4.29-4.06-8.66-6-13l19.22-8.46c1.82,4.13,3.73,8.29,5.69,12.38ZM873.6,643.87l-19.27-8.37c1.81-4.16,3.58-8.42,5.26-12.65l19.52,7.75C877.35,635,875.49,639.5,873.6,643.87ZM34.45,636.69c-1.82-4.4-3.59-8.88-5.27-13.33L48.83,616c1.6,4.24,3.29,8.52,5,12.7ZM882.79,621l-19.69-7.31c1.58-4.26,3.11-8.61,4.56-12.92l19.91,6.67C886.05,612,884.44,616.55,882.79,621ZM25.67,613.74c-1.58-4.49-3.1-9.07-4.53-13.59l20-6.33c1.36,4.31,2.82,8.67,4.33,13Zm865.05-16.06-20.05-6.22c1.34-4.34,2.63-8.75,3.83-13.11l20.25,5.58C893.49,588.5,892.14,593.13,890.72,597.68ZM18.16,590.36c-1.33-4.57-2.61-9.22-3.79-13.82L34.7,571.3c1.13,4.39,2.35,8.82,3.62,13.18ZM897.36,574,877,568.91c1.11-4.4,2.16-8.87,3.13-13.3l20.51,4.47C899.62,564.73,898.52,569.42,897.36,574ZM11.93,566.6c-1.08-4.63-2.11-9.34-3-14l20.59-4.13c.89,4.45,1.87,8.94,2.9,13.35ZM902.7,550.06l-20.61-4c.86-4.45,1.67-9,2.39-13.45L905.21,536C904.45,540.65,903.61,545.4,902.7,550.06ZM7,542.54c-.83-4.68-1.59-9.44-2.27-14.14l20.78-3c.65,4.48,1.38,9,2.17,13.49Zm899.75-16.71-20.81-2.89c.63-4.48,1.19-9.05,1.67-13.56l20.88,2.23C908,516.35,907.39,521.13,906.74,525.83ZM3.37,518.25c-.58-4.71-1.09-9.5-1.51-14.24l20.91-1.89c.41,4.52.89,9.1,1.44,13.59Zm906.09-16.82-20.93-1.77c.38-4.52.7-9.11.94-13.63l21,1.11C910.19,491.88,909.86,496.69,909.46,501.43ZM1.05,493.81c-.32-4.73-.57-9.55-.74-14.31l21-.76c.17,4.54.41,9.13.71,13.65Zm909.82-16.89-21-.65c.14-4.53.21-9.13.21-13.67,0-4.27-.06-8.6-.19-12.84l21-.61c.13,4.45.2,9,.2,13.45C911.09,467.36,911,472.18,910.87,476.92ZM.05,469.29q0-3.35,0-6.69,0-3.83.06-7.63l21,.35Q21,459,21,462.6q0,3.19.05,6.39Zm21.28-23.74-21-.81c.19-4.75.45-9.56.78-14.3l21,1.46C21.75,436.42,21.5,441,21.33,445.55ZM889.51,440c-.23-4.54-.54-9.12-.91-13.64l20.93-1.73c.39,4.74.71,9.54,1,14.3ZM22.85,422.17,1.94,420.25c.44-4.74,1-9.53,1.54-14.25l20.84,2.59C23.77,413.08,23.27,417.65,22.85,422.17Zm864.84-5.53c-.48-4.51-1-9.08-1.64-13.57l20.8-2.84c.65,4.7,1.22,9.48,1.72,14.22ZM25.63,398.91,4.86,395.86c.69-4.7,1.46-9.46,2.3-14.14l20.67,3.7C27,389.89,26.29,394.43,25.63,398.91Zm859-5.49c-.71-4.49-1.51-9-2.37-13.46l20.62-4c.9,4.66,1.74,9.4,2.49,14.11ZM29.66,375.84,9.08,371.67c.94-4.66,2-9.37,3.07-14l20.44,4.82C31.55,366.9,30.56,371.39,29.66,375.84Zm850.63-5.44c-1-4.43-2-8.91-3.1-13.31L897.57,352c1.15,4.61,2.24,9.31,3.25,13.95ZM34.93,353l-20.32-5.28c1.19-4.6,2.48-9.25,3.82-13.81l20.15,5.92C37.3,344.2,36.07,348.63,34.93,353Zm839.79-5.37c-1.19-4.38-2.48-8.79-3.81-13.12L891,328.35c1.4,4.54,2.74,9.17,4,13.76ZM41.44,330.52l-20-6.38c1.45-4.54,3-9.13,4.58-13.63l19.8,7C44.29,321.81,42.82,326.18,41.44,330.52Zm826.49-5.29c-1.43-4.3-2.95-8.64-4.52-12.89l19.71-7.26c1.64,4.46,3.23,9,4.74,13.52ZM49.18,308.33l-19.63-7.46c1.69-4.45,3.48-8.94,5.31-13.35l19.39,8.08C52.5,299.8,50.79,304.08,49.18,308.33Zm810.75-5.11c-1.65-4.19-3.4-8.43-5.19-12.59L874,282.31c1.88,4.36,3.71,8.81,5.45,13.2ZM58.11,286.61l-19.19-8.52c1.92-4.34,3.95-8.73,6-13l18.91,9.12C61.88,278.28,60,282.46,58.11,286.61Zm792.67-4.87c-1.88-4.11-3.86-8.24-5.87-12.3l18.8-9.35c2.12,4.25,4.19,8.59,6.16,12.9ZM68.21,265.41,49.5,255.87c2.17-4.24,4.43-8.51,6.73-12.68l18.39,10.13C72.43,257.3,70.27,261.37,68.21,265.41Zm772.27-4.63c-2.11-4-4.3-8-6.53-12l18.27-10.34c2.34,4.12,4.64,8.35,6.85,12.55Zm-761-16L61.27,234.26c2.39-4.1,4.88-8.24,7.4-12.29l17.82,11.11C84.08,236.94,81.71,240.89,79.44,244.81Zm749.61-4.43c-2.32-3.88-4.73-7.79-7.17-11.6l17.69-11.32c2.56,4,5.09,8.09,7.52,12.17ZM91.75,224.84l-17.56-11.5c2.6-4,5.31-8,8-11.88l17.2,12C96.82,217.24,94.24,221.05,91.75,224.84Zm724.79-4.22c-2.52-3.74-5.14-7.51-7.79-11.2l17.06-12.25c2.78,3.87,5.52,7.82,8.16,11.75Zm-711.41-15L88.2,193.14c2.81-3.82,5.73-7.66,8.67-11.42l16.53,13C110.59,198.26,107.81,201.93,105.13,205.58Zm697.85-4c-2.73-3.62-5.55-7.25-8.39-10.78L811,177.63c3,3.7,5.93,7.51,8.78,11.3Zm-683.47-14.5-16.23-13.32c3-3.69,6.14-7.36,9.27-10.94l15.8,13.83C125.37,180,122.4,183.55,119.51,187.06Zm668.89-3.82c-2.91-3.47-5.92-6.94-8.95-10.32l15.65-14c3.17,3.54,6.32,7.18,9.38,10.82ZM134.86,169.35l-15.49-14.17c3.21-3.52,6.52-7,9.83-10.42l15.05,14.65C141.09,162.66,137.93,166,134.86,169.35Zm638-3.63c-3.08-3.3-6.27-6.6-9.49-9.83l14.88-14.82c3.37,3.38,6.71,6.85,10,10.3ZM151.14,152.5l-14.71-15c3.39-3.33,6.88-6.65,10.37-9.87L161,143.08C157.7,146.15,154.37,149.32,151.14,152.5Zm605.26-3.45c-3.27-3.14-6.64-6.28-10-9.31l14.07-15.6c3.52,3.18,7,6.46,10.49,9.76ZM168.28,136.54,154.4,120.79c3.55-3.14,7.21-6.26,10.88-9.3l13.39,16.18C175.17,130.56,171.68,133.55,168.28,136.54Zm570.79-3.26c-3.45-3-7-5.91-10.5-8.76l13.2-16.33c3.7,3,7.4,6.08,11,9.19ZM186.25,121.54l-13-16.48c3.72-2.94,7.54-5.87,11.36-8.7l12.51,16.87C193.45,115.93,189.8,118.73,186.25,121.54Zm534.66-3.08c-3.59-2.77-7.28-5.52-11-8.19l12.31-17c3.86,2.79,7.72,5.68,11.48,8.58ZM205,107.52,192.87,90.37c3.88-2.74,7.85-5.46,11.81-8.08l11.58,17.52C212.48,102.31,208.69,104.9,205,107.52Zm497-2.89c-3.74-2.57-7.57-5.13-11.39-7.59L702,79.39c4,2.58,8,5.26,11.93,8ZM224.45,94.53,213.27,76.76c4-2.53,8.13-5,12.22-7.43l10.62,18.12C232.21,89.73,228.29,92.12,224.45,94.53Zm457.86-2.69c-3.86-2.37-7.83-4.71-11.78-7l10.4-18.24c4.15,2.37,8.3,4.83,12.35,7.31ZM244.57,82.62,234.36,64.27c4.15-2.32,8.39-4.59,12.6-6.76l9.62,18.67C252.58,78.24,248.53,80.41,244.57,82.62ZM662,80.12c-4-2.16-8.08-4.28-12.14-6.32L659.24,55c4.26,2.14,8.55,4.37,12.73,6.64Zm-396.7-8.31-9.2-18.87c4.26-2.09,8.62-4.13,12.94-6.07L277.62,66C273.51,67.88,269.35,69.82,265.28,71.81ZM641,69.52c-4.1-1.94-8.3-3.84-12.48-5.66l8.37-19.26c4.39,1.91,8.79,3.9,13.09,5.94Zm-354.5-7.38L278.37,42.8c4.35-1.84,8.8-3.64,13.24-5.35L299.17,57C294.94,58.67,290.69,60.39,286.54,62.14Zm333-2.07c-4.21-1.72-8.5-3.4-12.76-5l7.3-19.68c4.48,1.66,9,3.41,13.39,5.21ZM308.31,53.63,301.2,33.87c4.45-1.6,9-3.16,13.55-4.64l6.49,20C316.91,50.61,312.56,52.1,308.31,53.63Zm289.25-1.84c-4.3-1.49-8.68-2.92-13-4.27l6.23-20.06c4.55,1.42,9.15,2.92,13.66,4.48Zm-267-5.49-6-20.12c4.56-1.37,9.2-2.68,13.79-3.9l5.39,20.3C339.33,43.74,334.91,45,330.56,46.3Zm244.62-1.57c-4.36-1.24-8.8-2.44-13.2-3.55l5.13-20.36c4.61,1.16,9.27,2.41,13.84,3.72Zm-222-4.55-4.93-20.41c4.61-1.11,9.31-2.17,14-3.14l4.28,20.55C362.05,38.11,357.56,39.12,353.17,40.18Zm199.32-1.27c-4.42-1-8.92-2-13.37-2.83l4-20.61c4.67.91,9.38,1.91,14,3Zm-176.41-3.6-3.82-20.65c4.66-.87,9.41-1.67,14.13-2.39L389.55,33C385.06,33.72,380.52,34.48,376.08,35.31Zm153.44-1c-4.46-.77-9-1.47-13.5-2.1l2.89-20.8c4.72.66,9.49,1.4,14.16,2.2ZM399.21,31.67l-2.69-20.82c4.71-.61,9.5-1.15,14.23-1.62l2.05,20.9C408.28,30.57,403.71,31.09,399.21,31.67ZM506.33,31c-4.49-.52-9.06-1-13.6-1.36L494.51,8.7c4.75.4,9.54.89,14.25,1.43Zm-83.81-1.7L421,8.35c4.73-.35,9.54-.64,14.3-.85l.92,21C431.63,28.68,427,29,422.52,29.29ZM483,28.91c-4.52-.28-9.11-.5-13.66-.64l.66-21c4.76.15,9.58.37,14.3.67Zm-37.1-.75-.45-21c3.37-.07,6.79-.09,10.1-.1,1.4,0,2.81,0,4.22,0l-.19,21c-1.39,0-2.76,0-4.16,0C452.28,28.06,449.08,28.09,445.9,28.16Z"/><circle class="cls-1" cx="3618.59" cy="462.6" r="445.04"/><path class="cls-6" d="M3618.6,918.15c-3.67,0-7.36,0-11-.13l.5-21c4.5.11,9.09.15,13.68.11l.15,21Zm13.57-.2-.62-21c4.54-.14,9.14-.34,13.66-.61l1.27,21C3641.74,917.59,3636.92,917.81,3632.17,918Zm-34.76-.29c-4.77-.21-9.58-.51-14.3-.88l1.62-20.93c4.5.35,9.09.63,13.63.83Zm59.27-1.08L3655,895.65c4.53-.38,9.11-.83,13.6-1.34l2.39,20.86C3666.23,915.71,3661.44,916.18,3656.68,916.58Zm-83.76-.7c-4.74-.47-9.53-1-14.23-1.64l2.73-20.82c4.49.59,9.06,1.12,13.58,1.57Zm108.17-2-2.86-20.8c4.51-.62,9.05-1.32,13.51-2.07l3.51,20.7C3690.58,912.51,3685.81,913.25,3681.09,913.89Zm-132.54-1.1c-4.72-.73-9.47-1.54-14.12-2.41l3.86-20.64c4.43.83,9,1.6,13.47,2.3Zm156.77-2.89-4-20.62c4.44-.86,8.94-1.8,13.37-2.8l4.63,20.48C3714.7,908,3710,909,3705.32,909.9Zm-180.93-1.51c-4.66-1-9.36-2-14-3.17l5-20.4c4.39,1.07,8.88,2.09,13.32,3Zm204.92-3.79-5.09-20.38c4.4-1.1,8.84-2.28,13.2-3.52l5.73,20.21C3738.58,902.2,3733.92,903.45,3729.31,904.6Zm-228.81-1.91c-4.58-1.23-9.22-2.55-13.78-3.93l6.07-20.1c4.35,1.31,8.77,2.57,13.14,3.74ZM3753,898l-6.18-20.07c4.33-1.33,8.7-2.76,13-4.23l6.82,19.86C3762.09,895.11,3757.51,896.6,3753,898Zm-276-2.32c-4.53-1.48-9.1-3.06-13.59-4.68l7.15-19.75c4.29,1.56,8.65,3.06,13,4.47Zm299.31-5.55-7.27-19.7c4.28-1.58,8.57-3.24,12.75-4.93L3789.6,885C3785.21,886.74,3780.71,888.48,3776.23,890.13Zm-322.52-2.74c-4.45-1.73-8.93-3.55-13.31-5.42l8.23-19.32c4.17,1.78,8.44,3.51,12.69,5.17ZM3799,881l-8.33-19.28c4.17-1.8,8.35-3.68,12.42-5.59l8.93,19C3807.76,877.16,3803.37,879.14,3799,881Zm-368-3.17c-4.34-2-8.71-4-13-6.13l9.26-18.84c4.08,2,8.24,4,12.38,5.84Zm390.21-7.14-9.36-18.8c4.06-2,8.14-4.13,12.11-6.26l9.94,18.5C3829.74,866.39,3825.47,868.6,3821.22,870.71Zm-412.36-3.61c-4.21-2.19-8.46-4.49-12.62-6.82L3406.5,842c4,2.23,8,4.41,12.05,6.5Zm434-7.89-10.35-18.27c3.94-2.23,7.89-4.56,11.76-6.91L3855.18,852C3851.13,854.44,3847,856.87,3842.85,859.21Zm-455.5-4c-4.1-2.42-8.21-4.93-12.24-7.48L3386.35,830c3.84,2.43,7.77,4.83,11.67,7.14Zm476.5-8.61-11.33-17.69c3.82-2.44,7.65-5,11.38-7.53l11.87,17.32C3871.86,841.34,3867.85,844,3863.85,846.56Zm-497.33-4.46c-4-2.64-7.95-5.38-11.82-8.13l12.18-17.1c3.69,2.62,7.48,5.23,11.27,7.75Zm517.61-9.31-12.25-17.06c3.67-2.63,7.36-5.37,11-8.13l12.79,16.66C3891.85,827.16,3888,830,3884.13,832.79Zm-537.7-4.85c-3.83-2.85-7.65-5.8-11.36-8.76l13.09-16.42c3.53,2.82,7.18,5.63,10.83,8.35Zm557.24-10-13.15-16.38c3.52-2.83,7.06-5.77,10.51-8.72l13.66,16C3911.07,811.9,3907.36,815,3903.67,818Zm-576.53-5.23c-3.67-3.05-7.32-6.2-10.87-9.34l13.95-15.71c3.38,3,6.87,6,10.36,8.92Zm595.24-10.65-14-15.64c3.37-3,6.75-6.14,10-9.28l14.49,15.2C3929.45,795.64,3925.91,798.91,3922.38,802.07ZM3308.7,796.5c-3.48-3.23-7-6.57-10.35-9.91l14.77-14.94c3.23,3.19,6.55,6.38,9.86,9.46Zm631.52-11.29-14.83-14.87c3.22-3.2,6.42-6.5,9.53-9.8l15.29,14.4C3947,778.4,3943.59,781.85,3940.22,785.21Zm-649.06-5.9c-3.3-3.4-6.59-6.92-9.8-10.44l15.54-14.13c3.06,3.37,6.21,6.72,9.35,10Zm666-11.9-15.6-14.06c3-3.35,6.05-6.81,9-10.29l16,13.56C3963.48,760.27,3960.31,763.9,3957.14,767.41Zm-682.57-6.19c-3.12-3.59-6.22-7.28-9.22-11L3281.63,737c2.86,3.51,5.81,7,8.79,10.45Zm698.52-12.49-16.34-13.2c2.86-3.54,5.7-7.16,8.43-10.77l16.74,12.68C3979.05,741.22,3976.08,745,3973.09,748.73ZM3259,742.27c-2.93-3.75-5.83-7.6-8.62-11.43l17-12.37c2.66,3.65,5.43,7.32,8.22,10.9Zm729-13.06-17-12.3c2.66-3.69,5.3-7.47,7.84-11.22l17.39,11.77C3993.57,721.39,3990.81,725.34,3988,729.21Zm-743.58-6.69c-2.7-3.87-5.38-7.87-8-11.86l17.6-11.46c2.48,3.82,5,7.63,7.62,11.33Zm757.45-13.62-17.66-11.36c2.46-3.83,4.89-7.73,7.23-11.63l18,10.81C4007,700.8,4004.46,704.9,4001.88,708.9ZM3231,702c-2.49-4-5-8.16-7.33-12.28l18.19-10.48c2.26,3.92,4.62,7.86,7,11.71Zm783.66-14.16-18.25-10.4c2.25-3.93,4.46-8,6.6-12l18.56,9.82C4019.3,679.52,4017,683.75,4014.63,687.87Zm-796-7c-2.28-4.16-4.52-8.42-6.66-12.65l18.73-9.49c2.05,4,4.18,8.1,6.35,12.07Zm807.59-14.68-18.78-9.39c2-4.08,4-8.23,5.93-12.34l19.07,8.79C4030.46,657.55,4028.37,661.9,4026.23,666.17Zm-818.76-7.12c-2-4.28-4-8.65-6-13l19.22-8.46c1.83,4.14,3.74,8.3,5.69,12.38Zm829.18-15.18-19.27-8.37c1.81-4.16,3.58-8.42,5.26-12.65l19.52,7.75C4040.4,635,4038.54,639.5,4036.65,643.87Zm-839.15-7.19c-1.82-4.39-3.59-8.87-5.27-13.32l19.65-7.41c1.6,4.24,3.29,8.51,5,12.71ZM4045.83,621l-19.68-7.31c1.58-4.26,3.11-8.61,4.56-12.92l19.91,6.67C4049.1,612,4047.49,616.55,4045.83,621Zm-857.11-7.28c-1.57-4.47-3.1-9-4.53-13.59l20-6.33c1.37,4.33,2.83,8.69,4.33,13Zm865.05-16.06-20.05-6.22c1.34-4.34,2.63-8.75,3.84-13.11l20.24,5.58C4056.54,588.5,4055.19,593.13,4053.77,597.68Zm-872.56-7.32c-1.33-4.57-2.61-9.22-3.79-13.82l20.33-5.24c1.13,4.39,2.35,8.82,3.62,13.18ZM4060.41,574,4040,568.91c1.11-4.4,2.16-8.87,3.13-13.3l20.51,4.47C4062.67,564.73,4061.57,569.42,4060.41,574ZM3175,566.6c-1.08-4.63-2.11-9.34-3-14l20.59-4.13c.89,4.45,1.87,8.94,2.9,13.35Zm890.77-16.54-20.61-4c.86-4.45,1.67-9,2.39-13.45l20.73,3.35C4067.5,540.65,4066.66,545.4,4065.75,550.06ZM3170,542.54c-.83-4.68-1.59-9.43-2.27-14.14l20.78-3c.65,4.49,1.38,9,2.17,13.49Zm899.75-16.71L4049,522.94c.63-4.48,1.19-9.05,1.67-13.56l20.88,2.23C4071,516.35,4070.44,521.13,4069.79,525.83Zm-903.37-7.58c-.58-4.72-1.09-9.51-1.51-14.24l20.91-1.89c.41,4.51.89,9.09,1.44,13.59Zm906.09-16.82-20.93-1.77c.38-4.52.7-9.11.94-13.63l21,1.11C4073.24,491.88,4072.91,496.69,4072.51,501.43Zm-908.41-7.62c-.32-4.74-.57-9.55-.74-14.31l21-.76c.17,4.53.41,9.13.71,13.65Zm909.82-16.89-21-.65c.14-4.53.21-9.13.21-13.67,0-4.27-.06-8.6-.19-12.84l21-.61c.13,4.45.2,9,.2,13.45C4074.14,467.36,4074.06,472.18,4073.92,476.92Zm-910.82-7.63q0-3.33,0-6.68c0-2.56,0-5.1.06-7.64l21,.35q-.06,3.63-.06,7.28,0,3.19,0,6.39Zm21.28-23.74-21-.81c.19-4.74.45-9.55.78-14.3l20.95,1.46C3184.8,436.43,3184.55,441,3184.38,445.55ZM4052.56,440c-.23-4.53-.54-9.12-.91-13.64l20.93-1.73c.39,4.74.71,9.54,1,14.3Zm-866.65-17.83L3165,420.25c.44-4.73,1-9.52,1.54-14.25l20.84,2.59C3186.81,413.09,3186.32,417.66,3185.91,422.17Zm864.83-5.53c-.48-4.51-1-9.08-1.64-13.56l20.8-2.85c.65,4.7,1.22,9.49,1.72,14.22Zm-862.06-17.73-20.77-3.05c.69-4.7,1.46-9.46,2.3-14.14l20.67,3.71C3190.08,389.89,3189.34,394.42,3188.68,398.91Zm859-5.49c-.71-4.48-1.51-9-2.37-13.46l20.62-4c.9,4.67,1.74,9.42,2.49,14.11Zm-854.95-17.58-20.58-4.17c.94-4.66,2-9.37,3.07-14l20.44,4.82C3194.6,366.9,3193.61,371.39,3192.71,375.84Zm850.63-5.44c-1-4.43-2-8.91-3.1-13.31l20.38-5.08c1.15,4.61,2.24,9.31,3.25,14ZM3198,353l-20.32-5.28c1.19-4.6,2.48-9.25,3.82-13.81l20.15,5.92C3200.35,344.2,3199.12,348.63,3198,353Zm839.79-5.37c-1.19-4.38-2.48-8.79-3.81-13.12l20.07-6.18c1.4,4.54,2.74,9.17,4,13.76Zm-833.28-17.14-20-6.37c1.45-4.56,3-9.14,4.58-13.63l19.8,7C3207.34,321.8,3205.87,326.17,3204.49,330.51ZM4031,325.23c-1.43-4.3-2.95-8.64-4.52-12.89l19.71-7.26c1.64,4.46,3.23,9,4.74,13.52Zm-818.75-16.9-19.63-7.46c1.69-4.47,3.48-9,5.31-13.35l19.39,8.08C3215.55,299.79,3213.85,304.07,3212.23,308.33ZM4023,303.22c-1.65-4.19-3.4-8.43-5.19-12.59l19.28-8.32c1.88,4.37,3.71,8.81,5.45,13.21Zm-801.82-16.61L3202,278.09c1.92-4.34,4-8.72,6-13l18.91,9.12C3224.94,278.28,3223,282.46,3221.16,286.61Zm792.67-4.87c-1.88-4.11-3.86-8.24-5.87-12.29l18.8-9.35c2.12,4.25,4.19,8.59,6.16,12.89Zm-782.57-16.33-18.71-9.54c2.17-4.25,4.43-8.52,6.73-12.68l18.39,10.13C3235.49,257.29,3233.33,261.36,3231.26,265.41Zm772.27-4.63c-2.11-4-4.3-8-6.53-12l18.27-10.35c2.34,4.13,4.64,8.35,6.85,12.55Zm-761-16-18.17-10.54c2.39-4.11,4.88-8.24,7.4-12.29l17.82,11.11C3247.13,236.94,3244.76,240.88,3242.49,244.8Zm749.61-4.42c-2.31-3.88-4.73-7.79-7.17-11.6l17.69-11.32c2.56,4,5.09,8.1,7.52,12.17Zm-737.3-15.54-17.56-11.51c2.61-4,5.32-8,8-11.87l17.2,12C3259.88,217.22,3257.3,221,3254.8,224.84Zm724.79-4.22c-2.52-3.74-5.14-7.51-7.79-11.2l17.06-12.25c2.78,3.87,5.52,7.82,8.16,11.75Zm-711.41-15.05-16.93-12.43c2.82-3.83,5.74-7.68,8.67-11.42l16.53,13C3273.65,198.25,3270.87,201.91,3268.18,205.57Zm697.85-4c-2.73-3.62-5.55-7.25-8.38-10.78L3974,177.63c3,3.71,5.93,7.51,8.79,11.3Zm-683.47-14.5-16.23-13.32c3-3.68,6.14-7.36,9.27-10.94l15.8,13.83C3288.42,180,3285.44,183.55,3282.56,187.06Zm668.9-3.82c-2.92-3.47-5.93-6.94-9-10.32l15.65-14c3.17,3.54,6.33,7.18,9.38,10.81Zm-653.55-13.89-15.49-14.18c3.22-3.52,6.53-7,9.84-10.41l15,14.65C3304.15,162.65,3301,166,3297.91,169.35Zm638-3.63c-3.08-3.29-6.27-6.6-9.49-9.83l14.88-14.82c3.37,3.38,6.71,6.85,9.95,10.3ZM3314.19,152.5l-14.72-15c3.39-3.32,6.88-6.64,10.38-9.87l14.24,15.44C3320.75,146.15,3317.42,149.32,3314.19,152.5Zm605.27-3.45c-3.28-3.14-6.65-6.28-10-9.31l14.06-15.6c3.52,3.18,7,6.47,10.49,9.76Zm-588.13-12.51-13.88-15.75c3.55-3.14,7.22-6.27,10.88-9.3l13.39,16.18C3338.22,130.56,3334.73,133.55,3331.33,136.54Zm570.79-3.26c-3.44-2.95-7-5.9-10.5-8.76l13.21-16.33c3.7,3,7.4,6.09,11,9.19ZM3349.3,121.53l-13-16.47c3.73-3,7.56-5.88,11.36-8.7l12.51,16.87C3356.52,115.92,3352.87,118.72,3349.3,121.53ZM3884,118.46c-3.59-2.77-7.28-5.52-11-8.19l12.31-17c3.86,2.79,7.72,5.68,11.48,8.58ZM3368,107.51l-12.12-17.14c3.88-2.74,7.85-5.46,11.81-8.08l11.58,17.52C3375.53,102.31,3371.74,104.9,3368,107.51Zm497-2.87c-3.73-2.58-7.56-5.13-11.38-7.6L3865,79.39c4,2.58,8,5.26,11.93,8ZM3387.5,94.53l-11.18-17.77c4-2.54,8.14-5,12.22-7.43l10.62,18.12C3395.27,89.73,3391.34,92.11,3387.5,94.53Zm457.86-2.69c-3.86-2.36-7.82-4.71-11.78-7L3844,66.63c4.15,2.37,8.31,4.83,12.36,7.31Zm-437.74-9.22-10.21-18.35c4.13-2.3,8.37-4.57,12.59-6.76l9.64,18.67C3415.6,78.26,3411.56,80.42,3407.62,82.62ZM3825,80.12c-4-2.15-8.08-4.28-12.14-6.32l9.4-18.77c4.26,2.13,8.55,4.36,12.73,6.63Zm-396.7-8.31-9.2-18.87c4.27-2.09,8.62-4.13,12.94-6.07l8.6,19.16C3436.56,67.88,3432.41,69.82,3428.33,71.81Zm375.76-2.29c-4.11-1.94-8.3-3.84-12.48-5.66L3800,44.6c4.37,1.91,8.77,3.9,13.07,5.94Zm-354.5-7.38-8.17-19.34c4.36-1.84,8.81-3.64,13.24-5.35L3462.22,57C3458,58.67,3453.75,60.39,3449.59,62.14Zm333-2.07c-4.2-1.72-8.49-3.39-12.76-5l7.31-19.68c4.47,1.66,9,3.41,13.39,5.21Zm-311.23-6.44-7.11-19.76c4.45-1.6,9-3.16,13.56-4.64l6.48,20C3480,50.61,3475.61,52.1,3471.36,53.63Zm289.25-1.84c-4.3-1.49-8.68-2.92-13-4.27l6.23-20.06c4.55,1.42,9.15,2.92,13.66,4.48Zm-267-5.49-6-20.12c4.56-1.37,9.2-2.68,13.79-3.9l5.39,20.3C3502.38,43.74,3498,45,3493.61,46.3Zm244.62-1.57c-4.36-1.25-8.8-2.44-13.2-3.55l5.13-20.36c4.61,1.16,9.27,2.41,13.84,3.72Zm-222-4.55-4.93-20.41c4.61-1.11,9.31-2.17,14-3.14l4.28,20.56C3525.1,38.11,3520.62,39.12,3516.22,40.18Zm199.32-1.27c-4.42-1-8.92-2-13.37-2.83l4-20.61c4.67.91,9.38,1.91,14,3ZM3539.13,35.3l-3.82-20.65c4.66-.86,9.41-1.66,14.13-2.38L3552.6,33C3548.11,33.72,3543.57,34.48,3539.13,35.3Zm153.44-1c-4.46-.77-9-1.47-13.5-2.1l2.89-20.8c4.72.66,9.49,1.4,14.16,2.2Zm-130.3-2.66-2.7-20.82c4.71-.61,9.5-1.16,14.23-1.62l2,20.9C3571.33,30.57,3566.76,31.09,3562.27,31.67ZM3669.38,31c-4.48-.52-9.06-1-13.59-1.36l1.77-20.93c4.75.4,9.55.89,14.25,1.43Zm-83.81-1.7L3584,8.35c4.73-.35,9.54-.64,14.3-.85l.92,21C3594.68,28.68,3590.09,29,3585.57,29.29Zm60.47-.38c-4.5-.28-9.1-.5-13.65-.64l.66-21c4.76.15,9.58.37,14.31.67ZM3609,28.16l-.46-21c3.33-.07,6.68-.1,10-.1,1.49,0,2.9,0,4.35,0l-.19,21c-1.39,0-2.79,0-4.16,0C3615.33,28.06,3612.13,28.09,3609,28.16Z"/><circle class="cls-1" cx="2024.47" cy="455.54" r="445.04"/><path class="cls-7" d="M2024.47,911.09c-3.66,0-7.35-.05-11-.13l.5-21c4.51.11,9.13.15,13.68.12l.15,21Zm13.58-.2-.62-21c4.54-.13,9.14-.34,13.66-.61l1.27,21C2047.62,910.53,2042.8,910.75,2038.05,910.89Zm-34.77-.28c-4.76-.22-9.57-.52-14.29-.88l1.61-20.94c4.51.35,9.1.63,13.64.84Zm59.28-1.09-1.73-20.93c4.53-.37,9.11-.82,13.6-1.34l2.39,20.86C2072.11,908.65,2067.31,909.13,2062.56,909.52Zm-83.77-.69c-4.73-.48-9.52-1-14.22-1.65l2.73-20.82c4.49.59,9.06,1.12,13.58,1.57Zm108.18-2L2084.11,886c4.51-.62,9-1.31,13.51-2.07l3.51,20.7C2096.46,905.46,2091.69,906.19,2087,906.84Zm-132.54-1.1c-4.72-.73-9.47-1.54-14.12-2.41l3.86-20.65c4.43.83,9,1.61,13.47,2.3Zm156.77-2.9-4-20.62c4.44-.86,8.94-1.8,13.37-2.8l4.63,20.49C2120.58,901,2115.86,901.94,2111.2,902.84Zm-180.93-1.51c-4.66-1-9.37-2-14-3.17l5-20.4c4.39,1.07,8.87,2.09,13.32,3Zm204.91-3.79-5.08-20.37c4.4-1.1,8.84-2.29,13.2-3.52l5.73,20.2C2144.46,895.15,2139.8,896.39,2135.18,897.54Zm-228.8-1.91c-4.59-1.23-9.23-2.55-13.78-3.93l6.07-20.1c4.34,1.31,8.76,2.57,13.14,3.74ZM2158.84,891l-6.18-20.07c4.33-1.34,8.7-2.76,13-4.23l6.82,19.86C2168,888.05,2163.39,889.54,2158.84,891Zm-276-2.33c-4.53-1.48-9.1-3-13.59-4.68l7.15-19.74c4.28,1.55,8.64,3,13,4.46Zm299.31-5.55-7.27-19.7c4.28-1.57,8.56-3.23,12.75-4.93l7.89,19.46C2191.09,879.68,2186.59,881.42,2182.11,883.07Zm-322.52-2.74c-4.46-1.73-8.93-3.55-13.31-5.41l8.23-19.33c4.17,1.78,8.44,3.52,12.69,5.17ZM2204.88,874l-8.32-19.28c4.16-1.8,8.34-3.69,12.42-5.6l8.93,19C2213.63,870.11,2209.25,872.08,2204.88,874Zm-368-3.18c-4.34-2-8.71-4-13-6.12l9.26-18.85c4.08,2,8.24,4,12.38,5.84Zm390.21-7.13-9.36-18.8c4.06-2,8.14-4.13,12.11-6.27l9.94,18.5C2235.62,859.33,2231.35,861.54,2227.1,863.66ZM1814.74,860c-4.21-2.19-8.46-4.48-12.62-6.81l10.26-18.33c4,2.23,8,4.42,12,6.51Zm434-7.88-10.35-18.28c3.94-2.23,7.89-4.55,11.76-6.91l10.92,17.94C2257,847.38,2252.86,849.82,2248.73,852.16Zm-455.5-4c-4.1-2.41-8.21-4.93-12.24-7.48l11.24-17.74c3.84,2.43,7.77,4.83,11.67,7.14Zm476.5-8.61-11.33-17.69c3.82-2.44,7.65-5,11.38-7.53l11.87,17.32C2277.74,834.28,2273.73,836.94,2269.73,839.5Zm-497.33-4.45c-4-2.65-8-5.39-11.82-8.14l12.18-17.1c3.69,2.62,7.48,5.23,11.27,7.75ZM2290,825.73l-12.25-17.05c3.67-2.64,7.36-5.37,11-8.14l12.79,16.66C2297.73,820.1,2293.86,823,2290,825.73Zm-537.7-4.85c-3.83-2.85-7.65-5.8-11.36-8.75L1754,795.7c3.53,2.82,7.18,5.63,10.83,8.35Zm557.24-10-13.15-16.37c3.52-2.84,7.06-5.77,10.51-8.72l13.66,16C2317,804.84,2313.24,807.92,2309.55,810.89ZM1733,805.66c-3.67-3-7.32-6.2-10.87-9.34l13.94-15.71c3.39,3,6.87,6,10.37,8.92ZM2328.26,795l-14-15.65c3.37-3,6.75-6.14,10-9.27l14.49,15.2C2335.33,788.58,2331.79,791.85,2328.26,795Zm-613.68-5.58c-3.48-3.23-7-6.57-10.35-9.91L1719,764.59c3.23,3.2,6.55,6.38,9.87,9.46Zm631.52-11.29-14.83-14.87c3.22-3.2,6.42-6.5,9.53-9.8l15.29,14.4C2352.83,771.34,2349.47,774.8,2346.1,778.15ZM1697,772.25c-3.3-3.4-6.59-6.92-9.8-10.44l15.54-14.13c3.06,3.37,6.21,6.72,9.35,10Zm666-11.89-15.6-14.06c3-3.35,6-6.82,9-10.3l16,13.56C2369.36,753.21,2366.19,756.84,2363,760.36Zm-682.57-6.2c-3.12-3.59-6.22-7.27-9.22-10.95l16.28-13.27c2.86,3.51,5.82,7,8.79,10.45ZM2379,741.67l-16.34-13.2c2.86-3.53,5.7-7.16,8.43-10.77l16.74,12.68C2384.93,734.17,2382,738,2379,741.67Zm-714.11-6.46c-2.93-3.76-5.83-7.6-8.62-11.42l17-12.38c2.66,3.64,5.42,7.31,8.22,10.9Zm729-13.06-17-12.3c2.66-3.69,5.3-7.46,7.84-11.21l17.39,11.76C2399.45,714.33,2396.69,718.29,2393.89,722.15Zm-743.58-6.68c-2.71-3.9-5.39-7.89-8-11.87l17.6-11.45c2.47,3.8,5,7.61,7.62,11.32Zm757.45-13.62-17.66-11.37c2.46-3.82,4.89-7.73,7.23-11.62l18,10.81C2412.88,693.74,2410.33,697.84,2407.76,701.85ZM1636.85,695c-2.49-4-5-8.16-7.33-12.27l18.19-10.49c2.26,3.92,4.62,7.86,7,11.71Zm783.66-14.15-18.24-10.4c2.24-3.94,4.46-8,6.59-12l18.56,9.82C2425.19,672.46,2422.86,676.69,2420.51,680.82Zm-796-7c-2.28-4.16-4.52-8.42-6.66-12.65l18.73-9.49c2.05,4,4.18,8.1,6.35,12.07Zm807.59-14.67-18.78-9.4c2-4.07,4-8.23,5.93-12.34l19.07,8.8C2436.34,650.49,2434.25,654.85,2432.11,659.12ZM1613.35,652c-2-4.28-4-8.65-6-13l19.22-8.46c1.83,4.14,3.74,8.3,5.69,12.38Zm829.18-15.18-19.27-8.36c1.81-4.17,3.58-8.42,5.26-12.65l19.52,7.75C2446.28,628,2444.42,632.44,2442.53,636.81Zm-839.15-7.19c-1.82-4.39-3.59-8.87-5.27-13.32l19.65-7.41c1.6,4.24,3.29,8.51,5,12.71ZM2451.71,614l-19.68-7.3c1.57-4.26,3.11-8.6,4.56-12.93l19.91,6.68C2455,604.94,2453.37,609.5,2451.71,614Zm-857.1-7.28c-1.58-4.47-3.11-9-4.54-13.59l20-6.33c1.37,4.33,2.83,8.69,4.33,13Zm865.05-16-20.06-6.22c1.34-4.34,2.63-8.75,3.84-13.12l20.24,5.58C2462.42,581.45,2461.07,586.08,2459.66,590.63Zm-872.57-7.33c-1.33-4.57-2.61-9.22-3.79-13.82l20.33-5.24c1.13,4.39,2.35,8.83,3.62,13.18ZM2466.29,567l-20.37-5.13c1.11-4.39,2.16-8.87,3.13-13.3l20.51,4.48C2468.55,557.67,2467.45,562.37,2466.29,567Zm-885.43-7.44c-1.08-4.63-2.11-9.34-3-14l20.59-4.13c.89,4.45,1.87,8.94,2.9,13.35ZM2471.63,543,2451,539c.86-4.44,1.67-9,2.39-13.45l20.73,3.36C2473.38,533.6,2472.54,538.34,2471.63,543Zm-895.71-7.52c-.82-4.67-1.59-9.43-2.27-14.14l20.78-3c.65,4.49,1.38,9,2.17,13.49Zm899.75-16.7-20.8-2.89c.62-4.49,1.18-9.05,1.66-13.57l20.88,2.24C2476.91,509.29,2476.32,514.07,2475.67,518.78Zm-903.37-7.59c-.58-4.72-1.09-9.51-1.51-14.24l20.91-1.89c.41,4.52.89,9.09,1.44,13.59Zm906.09-16.82-20.93-1.76c.38-4.52.7-9.11.94-13.64l21,1.11C2479.12,484.83,2478.79,489.64,2478.39,494.37ZM1570,486.75c-.32-4.74-.57-9.55-.74-14.31l21-.76c.17,4.53.41,9.13.71,13.65Zm909.82-16.89-21-.65c.14-4.52.21-9.12.21-13.67,0-4.27-.06-8.59-.19-12.84l21-.61c.13,4.45.2,9,.2,13.45C2480,460.3,2480,465.12,2479.8,469.86ZM1569,462.23q0-3.33,0-6.69c0-2.54,0-5.09.06-7.63l21,.35q-.06,3.63-.06,7.28c0,2.14,0,4.26,0,6.39Zm21.28-23.74-21-.81c.19-4.74.45-9.55.78-14.3l21,1.46C1590.68,429.37,1590.43,434,1590.26,438.49Zm868.18-5.55c-.23-4.53-.54-9.12-.91-13.63l20.93-1.73c.39,4.73.71,9.54,1,14.29Zm-866.65-17.83-20.92-1.92c.44-4.73,1-9.53,1.54-14.25l20.84,2.59C1592.7,406,1592.2,410.6,1591.79,415.11Zm864.83-5.53c-.48-4.51-1-9.07-1.64-13.56l20.8-2.85c.65,4.7,1.23,9.49,1.72,14.22Zm-862.06-17.73-20.77-3.05c.69-4.7,1.46-9.46,2.3-14.14l20.67,3.71C1596,382.83,1595.22,387.37,1594.56,391.85Zm859-5.49c-.71-4.48-1.51-9-2.37-13.45l20.62-4c.9,4.66,1.74,9.41,2.49,14.11Zm-854.95-17.58L1578,364.61c1-4.66,2-9.37,3.07-14l20.44,4.82C1600.48,359.84,1599.49,364.33,1598.59,368.78Zm850.63-5.44c-1-4.43-2-8.91-3.1-13.3L2466.5,345c1.15,4.61,2.24,9.31,3.25,14ZM1603.86,346l-20.32-5.28c1.19-4.6,2.48-9.25,3.82-13.81l20.15,5.92C1606.23,337.14,1605,341.58,1603.86,346Zm839.8-5.37c-1.2-4.38-2.48-8.79-3.82-13.12l20.07-6.18c1.4,4.54,2.75,9.17,4,13.76Zm-833.29-17.13-20-6.38c1.45-4.55,3-9.14,4.58-13.63l19.8,7C1613.22,314.75,1611.75,319.12,1610.37,323.46Zm826.49-5.28c-1.43-4.31-3-8.65-4.52-12.9l19.71-7.26c1.64,4.46,3.23,9,4.74,13.52Zm-818.75-16.91-19.63-7.46c1.7-4.46,3.48-9,5.31-13.35l19.39,8.08C1621.43,292.73,1619.73,297,1618.11,301.27Zm810.75-5.11c-1.65-4.19-3.4-8.42-5.19-12.59l19.28-8.31c1.88,4.36,3.72,8.8,5.45,13.2ZM1627,279.55,1607.85,271c1.92-4.35,4-8.73,6-13l18.91,9.12C1630.82,271.22,1628.88,275.41,1627,279.55Zm792.67-4.86c-1.88-4.11-3.86-8.25-5.87-12.3l18.8-9.35c2.12,4.25,4.19,8.59,6.16,12.9Zm-782.57-16.34-18.71-9.54c2.18-4.26,4.44-8.53,6.73-12.68l18.39,10.13C1641.37,250.22,1639.21,254.29,1637.14,258.35Zm772.27-4.63c-2.1-4-4.3-8-6.53-12l18.27-10.35c2.34,4.13,4.64,8.35,6.85,12.55Zm-761-16-18.17-10.54c2.39-4.11,4.88-8.25,7.4-12.3L1655.42,226C1653,229.88,1650.64,233.83,1648.37,237.75ZM2398,233.33c-2.31-3.89-4.73-7.79-7.17-11.61l17.69-11.31c2.56,4,5.09,8.09,7.52,12.16Zm-737.29-15.55-17.57-11.5c2.61-4,5.32-8,8-11.88l17.2,12.06C1665.76,210.16,1663.18,214,1660.69,217.78Zm724.78-4.21c-2.51-3.75-5.14-7.52-7.79-11.21l17.06-12.25c2.78,3.87,5.53,7.83,8.16,11.75Zm-711.41-15-16.93-12.44c2.82-3.83,5.74-7.67,8.67-11.42l16.53,13C1679.53,191.19,1676.75,194.86,1674.06,198.52Zm697.85-4c-2.73-3.62-5.55-7.24-8.38-10.78l16.37-13.14c3,3.7,5.93,7.5,8.79,11.3ZM1688.44,180l-16.23-13.32c3-3.68,6.14-7.36,9.27-10.93l15.8,13.82C1694.3,173,1691.33,176.49,1688.44,180Zm668.9-3.81c-2.92-3.48-5.93-6.95-9-10.33l15.64-14c3.17,3.54,6.33,7.18,9.39,10.82Zm-653.55-13.9-15.49-14.17c3.23-3.53,6.54-7,9.84-10.42l15,14.66C1710,155.59,1706.87,158.93,1703.79,162.29Zm638-3.63c-3.08-3.29-6.27-6.6-9.49-9.83L2347.18,134c3.37,3.38,6.72,6.85,10,10.3Zm-621.72-13.22-14.71-15c3.38-3.32,6.87-6.64,10.37-9.87L1730,136C1726.63,139.1,1723.3,142.27,1720.07,145.44ZM2325.34,142c-3.28-3.15-6.65-6.28-10-9.31l14.06-15.6c3.52,3.18,7.05,6.46,10.49,9.75Zm-588.13-12.52-13.88-15.75c3.55-3.13,7.22-6.26,10.88-9.3l13.39,16.18C1744.11,123.5,1740.61,126.49,1737.21,129.48ZM2308,126.23c-3.43-3-7-5.91-10.5-8.76l13.21-16.33c3.7,3,7.4,6.08,11,9.18Zm-552.82-11.75-13-16.48c3.74-3,7.56-5.88,11.37-8.7l12.5,16.87C1762.4,108.87,1758.75,111.66,1755.18,114.48Zm534.66-3.07c-3.59-2.77-7.28-5.53-11-8.19l12.31-17c3.86,2.8,7.72,5.68,11.48,8.59Zm-515.91-11L1761.8,83.31c3.88-2.74,7.85-5.46,11.81-8.07l11.58,17.52C1781.41,95.25,1777.62,97.84,1773.93,100.46Zm497-2.88c-3.73-2.58-7.56-5.13-11.38-7.59l11.37-17.65c4,2.58,8,5.25,11.94,8ZM1793.38,87.47,1782.2,69.7c4-2.54,8.14-5,12.22-7.43L1805,80.39C1801.15,82.67,1797.23,85.06,1793.38,87.47Zm457.86-2.68c-3.86-2.37-7.82-4.71-11.78-7l10.41-18.24c4.15,2.37,8.3,4.83,12.34,7.3ZM1813.5,75.56l-10.21-18.35c4.13-2.3,8.37-4.57,12.6-6.75l9.63,18.66C1821.48,71.2,1817.44,73.37,1813.5,75.56Zm417.41-2.49c-4-2.16-8.08-4.29-12.14-6.32l9.4-18.78c4.26,2.13,8.55,4.36,12.73,6.63Zm-396.7-8.32L1825,45.88c4.25-2.08,8.6-4.11,12.94-6.06L1846.56,59C1842.42,60.83,1838.27,62.78,1834.21,64.75ZM2210,62.46c-4.1-1.94-8.3-3.84-12.47-5.65l8.37-19.26c4.37,1.9,8.77,3.9,13.08,5.93Zm-354.5-7.38-8.17-19.34c4.36-1.84,8.81-3.64,13.24-5.35L1868.1,50C1863.88,51.61,1859.63,53.33,1855.47,55.08Zm333-2.07c-4.2-1.72-8.49-3.39-12.76-5L2183,28.35c4.48,1.66,9,3.42,13.39,5.22Zm-311.22-6.44-7.12-19.76c4.46-1.6,9-3.16,13.56-4.64l6.48,20C1885.85,43.55,1881.5,45,1877.25,46.57Zm289.24-1.84c-4.3-1.48-8.68-2.92-13-4.27l6.23-20c4.56,1.41,9.15,2.92,13.66,4.47Zm-267-5.49-6-20.12c4.56-1.36,9.2-2.67,13.79-3.89l5.39,20.29C1908.26,36.69,1903.84,37.94,1899.49,39.24Zm244.62-1.57c-4.36-1.24-8.8-2.44-13.2-3.54L2136,13.76c4.61,1.16,9.27,2.41,13.84,3.72Zm-222-4.54-4.93-20.42c4.61-1.11,9.31-2.17,14-3.14l4.28,20.56C1931,31.05,1926.5,32.06,1922.1,33.13Zm199.32-1.28c-4.41-1-8.91-2-13.37-2.82l4-20.61c4.67.91,9.39,1.9,14,3ZM1945,28.25,1941.19,7.6c4.67-.87,9.43-1.67,14.13-2.38L1958.48,26C1954,26.66,1949.46,27.42,1945,28.25Zm153.44-1c-4.46-.77-9-1.47-13.5-2.1l2.89-20.8c4.72.66,9.49,1.4,14.16,2.2Zm-130.3-2.65-2.7-20.83c4.71-.61,9.5-1.15,14.24-1.62l2,20.91C1977.21,23.52,1972.64,24,1968.15,24.62Zm107.11-.68c-4.48-.53-9.06-1-13.59-1.37l1.77-20.93c4.75.41,9.55.89,14.25,1.44Zm-83.81-1.7-1.57-20.95c4.73-.35,9.55-.64,14.3-.85l.92,21C2000.56,21.62,1996,21.9,1991.45,22.24Zm60.48-.39c-4.51-.28-9.11-.49-13.65-.64l.65-21c4.77.15,9.58.38,14.31.67Zm-37.09-.75-.46-21C2019.15,0,2024,0,2028.7,0l-.19,21C2024,21,2019.39,21,2014.84,21.1Z"/><path class="cls-8" d="M3656.43,247.89a13,13,0,0,1-1.66,3.43,10.27,10.27,0,0,1-2.7,2.58,21.66,21.66,0,0,1-3.23,1.8,21.12,21.12,0,0,1-3.78,1.2,37.47,37.47,0,0,1-3.88.73c-1.11.15-2.44.26-4,.35s-2.75.12-3.61.12-2,0-3.27,0l-2.52,0V229l3.23-.08c1.8-.06,3.26-.09,4.39-.09s2.71.09,4.7.26a32.52,32.52,0,0,1,5,.77,27.24,27.24,0,0,1,4.46,1.59,12.33,12.33,0,0,1,3.92,2.62,12.77,12.77,0,0,1,2.52,3.95,13.93,13.93,0,0,1,1,5.49A14.1,14.1,0,0,1,3656.43,247.89Zm-28.63-55.52,3.22-.05,4.4-.09a38.87,38.87,0,0,1,4.74.23,40.17,40.17,0,0,1,5,.76,25.18,25.18,0,0,1,4.49,1.56,12,12,0,0,1,3.91,2.65,13.27,13.27,0,0,1,2.49,4,14.11,14.11,0,0,1,1,5.54,15,15,0,0,1-.73,4.82,9.21,9.21,0,0,1-2.21,3.65,22.73,22.73,0,0,1-3,2.56,13.23,13.23,0,0,1-4,1.75c-1.6.44-3,.79-4.2,1a31,31,0,0,1-4.48.52c-1.8.09-3.16.16-4.08.19s-2.19,0-3.8,0l-2.81,0V192.37Zm47.78,36.22q-4.23-6.27-12.78-8.61,10.88-6.36,9.57-21.57a23.56,23.56,0,0,0-2.67-9.57,18.08,18.08,0,0,0-6-6.52,31,31,0,0,0-8.25-3.76,58.32,58.32,0,0,0-10.23-1.88V155.62h-11.25v20.47q-2.93,0-8.92.17V155.62h-11.25v21.06c-1.61.06-4,.08-7.09.08l-15.48-.08v13.71h8.1c3.71,0,5.87,1.89,6.51,5.68v24a6.17,6.17,0,0,1,1.17.09h-1.17v33.6q-.58,4.26-4.24,4.26h-8.11l-2.26,15.3h14.61c.92,0,2.26,0,4,0s3.06,0,3.94,0v21.32H3625V273.64q3.08.09,8.92.09v21h11.25V273.39a77.36,77.36,0,0,0,10.63-1.25,39.36,39.36,0,0,0,8.87-2.89,23.61,23.61,0,0,0,7.09-4.89,23.14,23.14,0,0,0,4.71-7.44,35.29,35.29,0,0,0,2.38-10.45Q3679.82,234.86,3675.58,228.59Z"/><path class="cls-6" d="M2000.43,192.5,2030,222.72l52.85-65.09Zm-34.35,100.19L2059.6,253,2030,222.72Z"/><polygon class="cls-6" points="415.28 223.98 455.78 248.34 495.81 223.98 455.78 155.62 415.28 223.98"/><polygon class="cls-6" points="415.28 239.07 455.83 262.16 495.81 239.07 455.54 294.71 415.28 239.07"/><path class="cls-6" d="M307.87,478.37H297.53l-6.71-23.76A12.22,12.22,0,0,0,287,448.5a10.16,10.16,0,0,0-6.27-1.81q-3.85,0-9.4-.06c-3.71,0-6.15-.05-7.32-.05v31.79h-9.57v-75.9q9.24-1,26.18-1,13.53,0,19,4.67t5.5,17.22q0,9.35-3.24,14T291.15,443v.55a11.22,11.22,0,0,1,5.61,3.57,17.49,17.49,0,0,1,3.74,7.32Zm-43.89-40h16.39q8.58-.12,11.77-3.08t3.19-11.33q0-8.25-3.19-11.17t-11.77-2.91q-12.11,0-16.39.11Z"/><path class="cls-6" d="M371.45,454.61H340.21l-7.48,23.76h-10l24.42-73.26a3.32,3.32,0,0,1,3.63-2.64h10.12a3.32,3.32,0,0,1,3.63,2.64l24.42,73.26h-10Zm-2.64-8.36-9.57-30.14q-1-2.87-1.87-6.16h-3.08l-1.87,6.16-9.57,30.14Z"/><path class="cls-6" d="M418.09,478.37h-9.68v-75.9h9.68Z"/><path class="cls-6" d="M446,478.37v-75.9q14.3-1,27.06-1,16.4,0,23,8.52t6.6,30.42q0,21.88-6.6,30.41t-23,8.53Q460.33,479.36,446,478.37Zm9.68-68.31v60.61q9.9.21,17.38.22,10.89,0,15.18-6.66t4.29-23.81q0-17.16-4.29-23.87t-15.18-6.71Q466.05,409.84,455.71,410.06Z"/><path class="cls-6" d="M574,470.34l.44,7.48q-10.12.66-32.56.66c-4.48,0-8-1.19-10.62-3.58a12.73,12.73,0,0,1-4-9.62V415.56a12.75,12.75,0,0,1,4-9.63c2.61-2.38,6.14-3.57,10.62-3.57q22.44,0,32.56.66l-.44,7.59H543.49q-6.6,0-6.6,7.26v16.5h32.78v7.81H536.89V463q0,7.36,6.6,7.37Z"/><path class="cls-6" d="M656.68,402.47v72c0,2.56-1.25,3.85-3.74,3.85h-9.46a4.46,4.46,0,0,1-4.29-3.08L613.56,421.5q-3.75-8.14-4.29-10h-1.76q.43,4.39.44,10v56.87h-9.68V406.32q0-3.85,3.85-3.85h9.13a4.44,4.44,0,0,1,4.29,3.08L640.4,458q2.75,5.39,5.17,11h1.87q-.33-5.94-.33-11.55v-55Z"/><path class="cls-6" d="M240.77,534.47v72c0,2.56-1.25,3.85-3.74,3.85h-9.46a4.46,4.46,0,0,1-4.29-3.08L197.65,553.5q-3.74-8.14-4.29-10H191.6q.43,4.39.44,10v56.87h-9.68v-72q0-3.86,3.85-3.85h9.13a4.44,4.44,0,0,1,4.29,3.08L224.49,590q2.74,5.38,5.17,11h1.87q-.33-5.94-.33-11.55v-55Z"/><path class="cls-6" d="M314.8,602.34l.44,7.48q-10.12.66-32.56.66-6.71,0-10.62-3.58a12.73,12.73,0,0,1-4-9.62V547.56a12.75,12.75,0,0,1,4-9.63q3.92-3.57,10.62-3.57,22.44,0,32.56.66l-.44,7.59H284.33q-6.6,0-6.6,7.26v16.5h32.78v7.81H277.73V595q0,7.37,6.6,7.37Z"/><path class="cls-6" d="M390.81,543.05H366.28v67.32H356.6V543.05H332.18v-8.58h58.63Z"/><path class="cls-6" d="M503.12,534.47l-15.4,73a3.6,3.6,0,0,1-3.85,2.86h-11q-3.19,0-3.74-3l-11.88-57.09q-.66-2.87-1.76-8.58h-2.31l-1.65,8.58L439.76,607.4a3.62,3.62,0,0,1-3.85,3H424.8a3.89,3.89,0,0,1-2.48-.83,3.29,3.29,0,0,1-1.26-2l-15.4-73h10.23l11.88,59.18c.14.66.66,3.77,1.54,9.35h2.53q.87-5.18,1.76-9.35l11.77-56a3.43,3.43,0,0,1,3.74-3.19h10.56q3,0,3.74,3.19l11.77,56q1.1,5.39,1.54,9.35h2.75c.66-4.4,1.13-7.48,1.43-9.24l12-59.29Z"/><path class="cls-6" d="M528.69,541.67q6.66-8.64,23.38-8.63t23.32,8.63q6.6,8.64,6.6,30.75t-6.6,30.74q-6.6,8.64-23.32,8.64t-23.38-8.64Q522,594.54,522,572.42T528.69,541.67Zm38.89,6.71q-4.29-6.64-15.51-6.65t-15.51,6.65q-4.29,6.66-4.29,24t4.29,24q4.29,6.66,15.51,6.66t15.51-6.66q4.29-6.66,4.29-24T567.58,548.38Z"/><path class="cls-6" d="M660.64,610.37H650.3l-6.71-23.76a12.29,12.29,0,0,0-3.85-6.11,10.2,10.2,0,0,0-6.27-1.81c-2.57,0-5.7,0-9.41-.06s-6.14,0-7.31,0v31.79h-9.57v-75.9q9.24-1,26.18-1,13.53,0,19,4.67t5.5,17.22q0,9.35-3.25,14T643.92,575v.55a11.22,11.22,0,0,1,5.61,3.57,17.6,17.6,0,0,1,3.74,7.32Zm-43.89-40h16.39q8.58-.12,11.77-3.08t3.19-11.33q0-8.25-3.19-11.17t-11.77-2.91q-12.1,0-16.39.11Z"/><path class="cls-6" d="M702.22,574.73h-9.35a51.41,51.41,0,0,1,.66,8v27.61H684v-75.9h9.57v23.76a57.1,57.1,0,0,1-.66,8.69h9.24l23.1-32.45h10.56l-22.11,31.46a34.76,34.76,0,0,1-4.18,4.84V571a40.12,40.12,0,0,1,4.73,5.28l23.1,34.1H726.42Z"/><path class="cls-6" d="M3346.43,402.47V463q0,7.26,7.37,7.26h27.39l.44,7.48q-9.57.77-29.37.77-15.41,0-15.4-14.3V402.47Z"/><path class="cls-6" d="M3412.1,478.37h-9.68v-75.9h9.68Z"/><path class="cls-6" d="M3485,478.37l-1.1-8a31.43,31.43,0,0,1-22.66,9.46q-12.66,0-18.32-9.46t-5.66-30.14q0-22.33,6.93-30.75T3469,401a86.61,86.61,0,0,1,21.12,2.31l-1,7.26q-9.24-.89-19.58-.88-8.7,0-13.15,2.25c-3,1.51-5.19,4.49-6.65,9s-2.2,11.11-2.2,19.91q0,16.83,3.63,23.65t12.76,6.82q8.58,0,18.7-7.37V434.48h9.46v43.89Z"/><path class="cls-6" d="M3572.26,402.47v75.9h-9.68V442h-35v36.41h-9.68v-75.9h9.68V433.6h35V402.47Z"/><path class="cls-6" d="M3651.89,411.05h-24.52v67.32h-9.68V411.05h-24.42v-8.58h58.62Z"/><path class="cls-6" d="M3731.31,402.47v72c0,2.56-1.24,3.85-3.74,3.85h-9.45a4.47,4.47,0,0,1-4.3-3.08L3688.2,421.5q-3.75-8.14-4.3-10h-1.76a99.52,99.52,0,0,1,.44,10v56.87h-9.68V406.32c0-2.57,1.29-3.85,3.85-3.85h9.13a4.44,4.44,0,0,1,4.29,3.08L3715,458q2.74,5.39,5.17,11h1.86q-.33-5.94-.33-11.55v-55Z"/><path class="cls-6" d="M3768.93,478.37h-9.68v-75.9h9.68Z"/><path class="cls-6" d="M3855.28,402.47v72c0,2.56-1.24,3.85-3.74,3.85h-9.46a4.46,4.46,0,0,1-4.29-3.08l-25.63-53.79q-3.73-8.14-4.29-10h-1.76q.43,4.39.44,10v56.87h-9.68V406.32q0-3.85,3.85-3.85h9.13a4.44,4.44,0,0,1,4.29,3.08L3839,458q2.74,5.39,5.17,11H3846q-.33-5.94-.33-11.55v-55Z"/><path class="cls-6" d="M3928.21,478.37l-1.1-8a31.42,31.42,0,0,1-22.66,9.46q-12.64,0-18.31-9.46t-5.67-30.14q0-22.33,6.93-30.75t24.75-8.41a86.61,86.61,0,0,1,21.12,2.31l-1,7.26q-9.24-.89-19.58-.88-8.68,0-13.14,2.25c-3,1.51-5.19,4.49-6.66,9s-2.2,11.11-2.2,19.91q0,16.83,3.63,23.65t12.76,6.82q8.58,0,18.7-7.37V434.48h9.46v43.89Z"/><path class="cls-6" d="M3420.35,534.47v72c0,2.56-1.25,3.85-3.74,3.85h-9.46a4.46,4.46,0,0,1-4.29-3.08l-25.63-53.79q-3.75-8.14-4.29-10h-1.76q.43,4.39.44,10v56.87h-9.68v-72q0-3.86,3.85-3.85h9.13a4.44,4.44,0,0,1,4.29,3.08L3404.07,590q2.74,5.38,5.17,11h1.87q-.33-5.94-.33-11.55v-55Z"/><path class="cls-6" d="M3494.37,602.34l.44,7.48q-10.11.66-32.56.66-6.7,0-10.61-3.58a12.77,12.77,0,0,1-4-9.62V547.56a12.8,12.8,0,0,1,4-9.63q3.9-3.57,10.61-3.57,22.44,0,32.56.66l-.44,7.59H3463.9q-6.6,0-6.6,7.26v16.5h32.78v7.81H3457.3V595q0,7.37,6.6,7.37Z"/><path class="cls-6" d="M3570.38,543.05h-24.53v67.32h-9.68V543.05h-24.42v-8.58h58.63Z"/><path class="cls-6" d="M3682.69,534.47l-15.4,73a3.6,3.6,0,0,1-3.85,2.86h-11a3.37,3.37,0,0,1-3.74-3l-11.88-57.09q-.66-2.87-1.76-8.58h-2.31l-1.65,8.58-11.77,57.09a3.61,3.61,0,0,1-3.85,3h-11.11a3.86,3.86,0,0,1-2.47-.83,3.3,3.3,0,0,1-1.27-2l-15.4-73h10.23l11.88,59.18c.15.66.66,3.77,1.54,9.35h2.53c.59-3.45,1.17-6.57,1.76-9.35l11.77-56a3.43,3.43,0,0,1,3.74-3.19h10.56q3,0,3.74,3.19l11.77,56c.73,3.59,1.25,6.71,1.54,9.35H3659q1-6.6,1.43-9.24l12-59.29Z"/><path class="cls-6" d="M3708.27,541.67q6.64-8.64,23.37-8.63t23.32,8.63q6.6,8.64,6.6,30.75t-6.6,30.74q-6.6,8.64-23.32,8.64t-23.37-8.64q-6.66-8.62-6.66-30.74T3708.27,541.67Zm38.88,6.71q-4.29-6.64-15.51-6.65t-15.51,6.65q-4.29,6.66-4.29,24t4.29,24q4.29,6.66,15.51,6.66t15.51-6.66q4.29-6.66,4.29-24T3747.15,548.38Z"/><path class="cls-6" d="M3840.21,610.37h-10.34l-6.71-23.76a12.22,12.22,0,0,0-3.85-6.11,10.16,10.16,0,0,0-6.27-1.81q-3.86,0-9.4-.06c-3.71,0-6.15,0-7.32,0v31.79h-9.57v-75.9q9.24-1,26.18-1,13.53,0,19,4.67t5.5,17.22q0,9.35-3.24,14T3823.49,575v.55a11.22,11.22,0,0,1,5.61,3.57,17.37,17.37,0,0,1,3.74,7.32Zm-43.89-40h16.39q8.58-.12,11.77-3.08t3.19-11.33q0-8.25-3.19-11.17t-11.77-2.91q-12.11,0-16.39.11Z"/><path class="cls-6" d="M3881.79,574.73h-9.35a51.41,51.41,0,0,1,.66,8v27.61h-9.57v-75.9h9.57v23.76a57.1,57.1,0,0,1-.66,8.69h9.24l23.1-32.45h10.56l-22.11,31.46a34.09,34.09,0,0,1-4.18,4.84V571a40.12,40.12,0,0,1,4.73,5.28l23.1,34.1H3906Z"/><path class="cls-6" d="M1894.25,410.61h-28.49c-2.57,0-4.44.56-5.61,1.7s-1.76,3-1.76,5.56v17.6h31.68v7.81h-31.68v35.09h-9.68V416q0-6.5,4-10.07t10.67-3.57q21.67,0,31.46.77Z"/><path class="cls-6" d="M1926.37,402.47V463q0,7.26,7.37,7.26h27.39l.44,7.48q-9.57.77-29.37.77-15.4,0-15.4-14.3V402.47Z"/><path class="cls-6" d="M2022.62,454.61h-31.24l-7.48,23.76h-10l24.42-73.26a3.32,3.32,0,0,1,3.63-2.64h10.12a3.32,3.32,0,0,1,3.63,2.64l24.42,73.26h-10Zm-2.64-8.36-9.57-30.14c-.66-1.91-1.29-4-1.87-6.16h-3.08l-1.87,6.16L1994,446.25Z"/><path class="cls-6" d="M2086.75,446.25l-15.73-4q-8-2-11.5-7.1t-3.46-14a33.84,33.84,0,0,1,1.37-10.62,11,11,0,0,1,4.73-6.05,20.66,20.66,0,0,1,7.48-2.69,73.27,73.27,0,0,1,11.06-.66,117.23,117.23,0,0,1,22.55,2.2l-.66,7q-10.68-.56-21.45-.55-4.84,0-7.15.22a12.47,12.47,0,0,0-4.51,1.32,5.48,5.48,0,0,0-2.92,3.46,23.91,23.91,0,0,0-.71,6.55q0,6,2.14,8.58c1.43,1.68,3.91,3,7.43,3.85l15.4,3.85q8.46,2.08,11.88,7.15t3.41,14.19q0,12.54-5.67,16.61t-19.74,4.07a132.28,132.28,0,0,1-23.54-2.09l.66-7.15q18.48.66,23.21.55,9,0,12.15-2.31t3.14-9.9q0-6.27-2.15-8.75T2086.75,446.25Z"/><path class="cls-6" d="M2184.43,402.47v75.9h-9.68V442h-35v36.41h-9.68v-75.9h9.68V433.6h35V402.47Z"/><path class="cls-6" d="M1801.91,534.47v72c0,2.56-1.25,3.85-3.74,3.85h-9.46a4.46,4.46,0,0,1-4.29-3.08l-25.63-53.79q-3.75-8.14-4.29-10h-1.76q.43,4.39.44,10v56.87h-9.68v-72q0-3.86,3.85-3.85h9.13a4.44,4.44,0,0,1,4.29,3.08L1785.63,590q2.74,5.38,5.17,11h1.87q-.33-5.94-.33-11.55v-55Z"/><path class="cls-6" d="M1875.93,602.34l.45,7.48q-10.12.66-32.57.66-6.7,0-10.61-3.58a12.77,12.77,0,0,1-4-9.62V547.56a12.8,12.8,0,0,1,4-9.63q3.9-3.57,10.61-3.57,22.44,0,32.57.66l-.45,7.59h-30.47q-6.6,0-6.6,7.26v16.5h32.78v7.81h-32.78V595q0,7.37,6.6,7.37Z"/><path class="cls-6" d="M1951.94,543.05h-24.53v67.32h-9.68V543.05h-24.42v-8.58h58.63Z"/><path class="cls-6" d="M2064.25,534.47l-15.4,73a3.6,3.6,0,0,1-3.85,2.86h-11a3.37,3.37,0,0,1-3.74-3l-11.88-57.09c-.44-1.91-1-4.77-1.76-8.58h-2.31l-1.65,8.58-11.77,57.09a3.61,3.61,0,0,1-3.85,3h-11.11a3.86,3.86,0,0,1-2.47-.83,3.3,3.3,0,0,1-1.27-2l-15.4-73H1977l11.88,59.18c.15.66.66,3.77,1.54,9.35H1993c.59-3.45,1.17-6.57,1.76-9.35l11.77-56a3.44,3.44,0,0,1,3.74-3.19h10.56q3,0,3.74,3.19l11.77,56c.73,3.59,1.25,6.71,1.54,9.35h2.75q1-6.6,1.43-9.24l12-59.29Z"/><path class="cls-6" d="M2089.83,541.67q6.65-8.64,23.37-8.63t23.32,8.63q6.6,8.64,6.6,30.75t-6.6,30.74q-6.6,8.64-23.32,8.64t-23.37-8.64q-6.66-8.62-6.66-30.74T2089.83,541.67Zm38.88,6.71q-4.29-6.64-15.51-6.65t-15.51,6.65q-4.29,6.66-4.29,24t4.29,24q4.29,6.66,15.51,6.66t15.51-6.66q4.29-6.66,4.29-24T2128.71,548.38Z"/><path class="cls-6" d="M2221.77,610.37h-10.34l-6.71-23.76a12.22,12.22,0,0,0-3.85-6.11,10.16,10.16,0,0,0-6.27-1.81c-2.56,0-5.7,0-9.4-.06s-6.15,0-7.32,0v31.79h-9.57v-75.9q9.24-1,26.18-1,13.53,0,19,4.67t5.5,17.22q0,9.35-3.24,14T2205.05,575v.55a11.18,11.18,0,0,1,5.61,3.57,17.37,17.37,0,0,1,3.74,7.32Zm-43.89-40h16.39q8.58-.12,11.77-3.08t3.19-11.33q0-8.25-3.19-11.17t-11.77-2.91q-12.09,0-16.39.11Z"/><path class="cls-6" d="M2263.35,574.73H2254a51.41,51.41,0,0,1,.66,8v27.61h-9.57v-75.9h9.57v23.76a57.1,57.1,0,0,1-.66,8.69h9.24l23.1-32.45h10.56l-22.11,31.46a34.09,34.09,0,0,1-4.18,4.84V571a40.12,40.12,0,0,1,4.73,5.28l23.1,34.1h-10.89Z"/></g></g></svg>