<svg xmlns="http://www.w3.org/2000/svg" xmlns:xlink="http://www.w3.org/1999/xlink" viewBox="0 0 1397.29 351.18"><defs><style>.cls-1{fill:url(#linear-gradient);}.cls-2{fill:url(#linear-gradient-2);}.cls-3{fill:url(#linear-gradient-3);}.cls-4{fill:url(#linear-gradient-7);}.cls-5{fill:url(#linear-gradient-8);}.cls-6{fill:url(#linear-gradient-9);}.cls-7{fill:url(#New_Gradient_Swatch_1);}</style><linearGradient id="linear-gradient" x1="371.53" y1="187.09" x2="371.53" gradientUnits="userSpaceOnUse"><stop offset="0" stop-color="#0cf"/><stop offset="0.63" stop-color="#fff"/><stop offset="1" stop-color="#fff"/></linearGradient><linearGradient id="linear-gradient-2" x1="762.5" y1="187.09" x2="762.5" xlink:href="#linear-gradient"/><linearGradient id="linear-gradient-3" x1="1153.46" y1="187.09" x2="1153.46" xlink:href="#linear-gradient"/><linearGradient id="linear-gradient-7" x1="196.86" y1="-1162.02" x2="196.86" y2="-974.93" gradientTransform="matrix(1, 0, 0, -1, 0, -810.84)" gradientUnits="userSpaceOnUse"><stop offset="0" stop-color="#4e6376"/><stop offset="1" stop-color="#0cf"/></linearGradient><linearGradient id="linear-gradient-8" x1="587.82" y1="-1162.02" x2="587.82" y2="-974.93" xlink:href="#linear-gradient-7"/><linearGradient id="linear-gradient-9" x1="978.79" y1="-1162.02" x2="978.79" y2="-974.93" xlink:href="#linear-gradient-7"/><linearGradient id="New_Gradient_Swatch_1" x1="731.08" y1="187.59" x2="731.08" y2="163.59" gradientUnits="userSpaceOnUse"><stop offset="0" stop-color="#0fc"/><stop offset="1" stop-color="#0cf"/></linearGradient></defs><title>Thorchain_Aesir</title><g id="Layer_2" data-name="Layer 2"><g id="Layer_1-2" data-name="Layer 1"><path class="cls-1" d="M556.9,187.09H457.62a90.1,90.1,0,0,1-90-90A74.18,74.18,0,0,0,293.53,23H186.17a11.5,11.5,0,0,1,0-23H293.53a97.2,97.2,0,0,1,97.09,97.09,67.08,67.08,0,0,0,67,67H556.9a11.5,11.5,0,0,1,0,23Z"/><path class="cls-2" d="M947.86,187.09H848.58a90.1,90.1,0,0,1-90-90A74.17,74.17,0,0,0,684.49,23H577.14a11.5,11.5,0,0,1,0-23H684.49a97.19,97.19,0,0,1,97.09,97.09,67.08,67.08,0,0,0,67,67h99.28a11.5,11.5,0,0,1,0,23Z"/><path class="cls-3" d="M1338.82,187.09h-99.27a90.11,90.11,0,0,1-90-90A74.17,74.17,0,0,0,1075.46,23H968.1a11.5,11.5,0,0,1,0-23h107.36a97.19,97.19,0,0,1,97.08,97.09,67.08,67.08,0,0,0,67,67h99.27a11.5,11.5,0,0,1,0,23Z"/><path class="cls-1" d="M556.9,187.09H457.62a90.1,90.1,0,0,1-90-90A74.18,74.18,0,0,0,293.53,23H186.17a11.5,11.5,0,0,1,0-23H293.53a97.2,97.2,0,0,1,97.09,97.09,67.08,67.08,0,0,0,67,67H556.9a11.5,11.5,0,0,1,0,23Z"/><path class="cls-2" d="M947.86,187.09H848.58a90.1,90.1,0,0,1-90-90A74.17,74.17,0,0,0,684.49,23H577.14a11.5,11.5,0,0,1,0-23H684.49a97.19,97.19,0,0,1,97.09,97.09,67.08,67.08,0,0,0,67,67h99.28a11.5,11.5,0,0,1,0,23Z"/><path class="cls-3" d="M1338.82,187.09h-99.27a90.11,90.11,0,0,1-90-90A74.17,74.17,0,0,0,1075.46,23H968.1a11.5,11.5,0,0,1,0-23h107.36a97.19,97.19,0,0,1,97.08,97.09,67.08,67.08,0,0,0,67,67h99.27a11.5,11.5,0,0,1,0,23Z"/><path class="cls-4" d="M118.86,351.18H11.5a11.5,11.5,0,0,1,0-23H118.86A74.18,74.18,0,0,0,193,254.09a90.1,90.1,0,0,1,90-90h99.27a11.5,11.5,0,0,1,0,23H283a67.07,67.07,0,0,0-67,67A97.2,97.2,0,0,1,118.86,351.18Z"/><path class="cls-5" d="M509.82,351.18H402.46a11.5,11.5,0,0,1,0-23H509.82a74.18,74.18,0,0,0,74.09-74.09,90.1,90.1,0,0,1,90-90h99.28a11.5,11.5,0,0,1,0,23H673.91a67.08,67.08,0,0,0-67,67A97.2,97.2,0,0,1,509.82,351.18Z"/><path class="cls-6" d="M900.78,351.18H793.43a11.5,11.5,0,0,1,0-23H900.78a74.17,74.17,0,0,0,74.09-74.09,90.1,90.1,0,0,1,90-90h99.28a11.5,11.5,0,0,1,0,23h-99.28a67.08,67.08,0,0,0-67,67A97.19,97.19,0,0,1,900.78,351.18Z"/><rect class="cls-7" x="64.88" y="163.59" width="1332.41" height="24"/></g></g></svg>