<svg xmlns="http://www.w3.org/2000/svg" xmlns:xlink="http://www.w3.org/1999/xlink" viewBox="0 0 2607.6 2607.6"><defs><style>.cls-1,.cls-10,.cls-11,.cls-12,.cls-13,.cls-14,.cls-15,.cls-16,.cls-17,.cls-18,.cls-19,.cls-2,.cls-20,.cls-21,.cls-22,.cls-23,.cls-24,.cls-25,.cls-26,.cls-27,.cls-28,.cls-29,.cls-3,.cls-30,.cls-31,.cls-32,.cls-33,.cls-34,.cls-35,.cls-36,.cls-37,.cls-4,.cls-5,.cls-6,.cls-7,.cls-8,.cls-9{fill:none;stroke-linecap:round;stroke-linejoin:round;stroke-width:14px;}.cls-1,.cls-11,.cls-12,.cls-13,.cls-14,.cls-16,.cls-19,.cls-2,.cls-22,.cls-24,.cls-27,.cls-28,.cls-3,.cls-30,.cls-33,.cls-34,.cls-7,.cls-9{opacity:0.5;}.cls-1{stroke:url(#linear-gradient);}.cls-2{stroke:url(#radial-gradient);}.cls-3{stroke:url(#radial-gradient-2);}.cls-4{stroke:url(#radial-gradient-3);}.cls-5{stroke:url(#linear-gradient-2);}.cls-6{stroke:url(#radial-gradient-4);}.cls-7{stroke:url(#linear-gradient-3);}.cls-10,.cls-20,.cls-29,.cls-35,.cls-8{opacity:0.3;}.cls-8{stroke:url(#linear-gradient-4);}.cls-9{stroke:url(#radial-gradient-5);}.cls-10{stroke:url(#radial-gradient-6);}.cls-11{stroke:url(#linear-gradient-5);}.cls-12{stroke:url(#radial-gradient-7);}.cls-13{stroke:url(#radial-gradient-8);}.cls-14{stroke:url(#radial-gradient-9);}.cls-15{stroke:url(#radial-gradient-10);}.cls-16{stroke:url(#radial-gradient-11);}.cls-17{stroke:url(#linear-gradient-6);}.cls-18{stroke:url(#radial-gradient-12);}.cls-19{stroke:url(#linear-gradient-7);}.cls-20{stroke:url(#radial-gradient-13);}.cls-21{stroke:url(#linear-gradient-8);}.cls-22{stroke:url(#radial-gradient-14);}.cls-23{stroke:url(#radial-gradient-15);}.cls-24{stroke:url(#radial-gradient-16);}.cls-25{stroke:url(#radial-gradient-17);}.cls-26{stroke:url(#linear-gradient-9);}.cls-27{stroke:url(#linear-gradient-10);}.cls-28{stroke:url(#radial-gradient-18);}.cls-29{stroke:url(#linear-gradient-11);}.cls-30{stroke:url(#linear-gradient-12);}.cls-31{stroke:url(#radial-gradient-19);}.cls-32{stroke:url(#radial-gradient-20);}.cls-33{stroke:url(#radial-gradient-21);}.cls-34{stroke:url(#radial-gradient-22);}.cls-35{stroke:url(#linear-gradient-13);}.cls-36{stroke:url(#linear-gradient-14);}.cls-37{stroke:url(#linear-gradient-15);}</style><linearGradient id="linear-gradient" x1="678.67" y1="2522.34" x2="1657.3" y2="2522.34" gradientUnits="userSpaceOnUse"><stop offset="0" stop-color="#101921" stop-opacity="0"/><stop offset="0.54" stop-color="#0cf" stop-opacity="0.46"/><stop offset="1" stop-color="#0fc"/></linearGradient><radialGradient id="radial-gradient" cx="2061.88" cy="2209.15" r="386.56" gradientUnits="userSpaceOnUse"><stop offset="0" stop-color="#0fc"/><stop offset="0.54" stop-color="#0cf" stop-opacity="0.46"/><stop offset="1" stop-color="#101921" stop-opacity="0"/></radialGradient><radialGradient id="radial-gradient-2" cx="2400.43" cy="1115.64" r="554.2" xlink:href="#radial-gradient"/><radialGradient id="radial-gradient-3" cx="2149.48" cy="322.93" r="54.42" xlink:href="#radial-gradient"/><linearGradient id="linear-gradient-2" x1="675.84" y1="143.05" x2="2105.69" y2="143.05" xlink:href="#linear-gradient"/><radialGradient id="radial-gradient-4" cx="576.78" cy="237.51" r="97.71" xlink:href="#radial-gradient"/><linearGradient id="linear-gradient-3" x1="6.53" y1="741.39" x2="477.71" y2="741.39" xlink:href="#radial-gradient"/><linearGradient id="linear-gradient-4" x1="0" y1="1808.45" x2="692.67" y2="1808.45" xlink:href="#linear-gradient"/><radialGradient id="radial-gradient-5" cx="1269.74" cy="2332.72" r="234.65" xlink:href="#radial-gradient"/><radialGradient id="radial-gradient-6" cx="785.52" cy="642.24" r="364.56" xlink:href="#radial-gradient"/><linearGradient id="linear-gradient-5" x1="316.14" y1="1314.54" x2="402.84" y2="1314.54" xlink:href="#radial-gradient"/><radialGradient id="radial-gradient-7" cx="717.63" cy="1961.72" r="311.74" xlink:href="#radial-gradient"/><radialGradient id="radial-gradient-8" cx="1403.04" cy="2226.52" r="266.06" xlink:href="#radial-gradient"/><radialGradient id="radial-gradient-9" cx="1937.56" cy="2016.54" r="168.73" xlink:href="#radial-gradient"/><radialGradient id="radial-gradient-10" cx="2137.28" cy="1817.88" r="45.61" xlink:href="#radial-gradient"/><radialGradient id="radial-gradient-11" cx="2191.57" cy="1250.3" r="379.93" xlink:href="#radial-gradient"/><linearGradient id="linear-gradient-6" x1="1176.69" y1="526.25" x2="2105.69" y2="526.25" xlink:href="#radial-gradient"/><radialGradient id="radial-gradient-12" cx="1930.09" cy="1543.71" r="467.52" xlink:href="#radial-gradient"/><linearGradient id="linear-gradient-7" x1="1647.76" y1="712.94" x2="2141.57" y2="712.94" xlink:href="#radial-gradient"/><radialGradient id="radial-gradient-13" cx="1525.37" cy="439.93" r="100.52" xlink:href="#radial-gradient"/><linearGradient id="linear-gradient-8" x1="558.63" y1="594.07" x2="1402.99" y2="594.07" xlink:href="#radial-gradient"/><radialGradient id="radial-gradient-14" cx="485.03" cy="1012.67" r="176.49" xlink:href="#radial-gradient"/><radialGradient id="radial-gradient-15" cx="445.89" cy="1465.5" r="168.69" xlink:href="#radial-gradient"/><radialGradient id="radial-gradient-16" cx="1072.18" cy="1948.52" r="456.75" xlink:href="#radial-gradient"/><radialGradient id="radial-gradient-17" cx="1926.43" cy="1709.23" r="256.64" xlink:href="#radial-gradient"/><linearGradient id="linear-gradient-9" x1="1965.61" y1="1119" x2="2133.39" y2="1119" xlink:href="#linear-gradient"/><linearGradient id="linear-gradient-10" x1="901.65" y1="653" x2="1979.61" y2="653" xlink:href="#linear-gradient"/><radialGradient id="radial-gradient-18" cx="694.93" cy="1042.96" r="365.75" xlink:href="#radial-gradient"/><linearGradient id="linear-gradient-11" x1="498.68" y1="1641.13" x2="638.93" y2="1641.13" xlink:href="#radial-gradient"/><linearGradient id="linear-gradient-12" x1="624.93" y1="1952.45" x2="1537.91" y2="1952.45" xlink:href="#radial-gradient"/><radialGradient id="radial-gradient-19" cx="1632.3" cy="2049.95" r="84.91" xlink:href="#radial-gradient"/><radialGradient id="radial-gradient-20" cx="1359.46" cy="756.42" r="335.4" xlink:href="#radial-gradient"/><radialGradient id="radial-gradient-21" cx="836.71" cy="842.29" r="79.38" xlink:href="#radial-gradient"/><radialGradient id="radial-gradient-22" cx="764.65" cy="1369.45" r="339.38" xlink:href="#radial-gradient"/><linearGradient id="linear-gradient-13" x1="883.01" y1="1896.06" x2="1599.43" y2="1896.06" xlink:href="#radial-gradient"/><linearGradient id="linear-gradient-14" x1="1585.43" y1="1503.75" x2="1975.32" y2="1503.75" xlink:href="#radial-gradient"/><linearGradient id="linear-gradient-15" x1="1803.25" y1="989.26" x2="1945.06" y2="989.26" xlink:href="#radial-gradient"/></defs><title>ThorchainClockwise</title><g id="Layer_2" data-name="Layer 2"><g id="Layer_1-2" data-name="Layer 1"><path class="cls-1" d="M1650.3,2553.79a1297.92,1297.92,0,0,1-346.5,46.81c-223.81,0-434.38-56.7-618.13-156.52"/><path class="cls-2" d="M2473.45,1864.51c-160.44,334.06-459.77,588.77-823.15,689.28"/><path class="cls-3" d="M2200.27,366.76c246.7,236.08,400.33,568.62,400.33,937,0,200.84-45.65,391-127.15,560.71"/><path class="cls-4" d="M2098.69,279.11a1304,1304,0,0,1,101.58,87.65"/><path class="cls-5" d="M682.84,165.06C867.26,64.28,1078.84,7,1303.8,7c299.53,0,575.35,101.55,794.89,272.11"/><path class="cls-6" d="M470.71,310A1299.17,1299.17,0,0,1,682.84,165.06"/><path class="cls-7" d="M13.53,1172.82C48.2,827.14,218.63,521.48,470.71,310"/><path class="cls-8" d="M685.67,2444.08C281.42,2224.49,7,1796.19,7,1303.8q0-66.32,6.53-131"/><path class="cls-9" d="M1592.43,2323.71A1065.52,1065.52,0,0,1,947,2301.94"/><path class="cls-10" d="M387.34,954.06c127.18-333,430.68-579,796.35-623.64"/><path class="cls-11" d="M395.84,1675a984.41,984.41,0,0,1-8.5-721"/><path class="cls-12" d="M1039.42,2248.41C746.87,2166.7,509.5,1952.73,395.84,1675"/><path class="cls-13" d="M1766.66,2168.57c-137.87,73.95-295.47,115.89-462.86,115.89a981.59,981.59,0,0,1-264.38-36.05"/><path class="cls-14" d="M2108.45,1864.51a985.34,985.34,0,0,1-341.79,304.06"/><path class="cls-15" d="M2166.1,1771.24a978.67,978.67,0,0,1-57.65,93.27"/><path class="cls-16" d="M2098.69,729.36c116.87,161.44,185.77,359.89,185.77,574.44,0,169.25-42.88,328.49-118.36,467.44"/><path class="cls-17" d="M1183.69,330.42a992.09,992.09,0,0,1,120.11-7.28c327.06,0,616.72,160.11,794.89,406.22"/><path class="cls-18" d="M2134.57,952.85a898.67,898.67,0,0,1,70.85,350.95c0,373.47-227.06,693.9-550.67,830.77"/><path class="cls-19" d="M1654.76,473a904.82,904.82,0,0,1,479.81,479.82"/><path class="cls-20" d="M1396,406.83A896.14,896.14,0,0,1,1654.76,473"/><path class="cls-21" d="M565.63,786c163.12-232.1,432.93-383.78,738.17-383.78a911.79,911.79,0,0,1,92.19,4.65"/><path class="cls-22" d="M404.44,1239.39A896.65,896.65,0,0,1,565.63,786"/><path class="cls-23" d="M489.61,1691.61a898.15,898.15,0,0,1-87.43-387.81q0-32.49,2.26-64.41"/><path class="cls-24" d="M1654.75,2134.57a898.67,898.67,0,0,1-351,70.85c-359.12,0-669.2-210-814.19-513.81"/><path class="cls-25" d="M2119.18,1413.2c-33.3,250.55-179.36,465.47-385.5,592.06"/><path class="cls-26" d="M1972.61,824.8a818.84,818.84,0,0,1,153.78,479,831.25,831.25,0,0,1-7.21,109.4"/><path class="cls-27" d="M908.65,582.16A819,819,0,0,1,1303.8,481.21c275.6,0,519.54,135.54,668.81,343.59"/><path class="cls-28" d="M505.68,1503.75a824.6,824.6,0,0,1-24.47-200c0-311.09,172.69-581.85,427.44-721.64"/><path class="cls-29" d="M631.93,1778.52a819,819,0,0,1-126.25-274.77"/><path class="cls-30" d="M1530.91,2094.64a823.32,823.32,0,0,1-227.11,31.75c-277.49,0-522.88-137.4-671.87-347.87"/><path class="cls-31" d="M1733.68,2005.26a818,818,0,0,1-202.77,89.38"/><path class="cls-32" d="M908.66,769.48a661.54,661.54,0,0,1,395.14-130.2c202.9,0,384.56,90.94,506.45,234.28"/><path class="cls-33" d="M764.77,915.1A668,668,0,0,1,908.66,769.48"/><path class="cls-34" d="M890,1823.79c-152.8-121.75-250.73-309.43-250.73-520A661.48,661.48,0,0,1,764.77,915.1"/><path class="cls-35" d="M1592.43,1902.53A665.17,665.17,0,0,1,890,1823.79"/><path class="cls-36" d="M1938.06,1105a664.31,664.31,0,0,1,30.26,198.84c0,263.58-153.45,491.31-375.89,598.73"/><path class="cls-37" d="M1810.25,873.56A663.32,663.32,0,0,1,1938.06,1105"/></g></g></svg>