<svg xmlns="http://www.w3.org/2000/svg" xmlns:xlink="http://www.w3.org/1999/xlink" viewBox="0 0 5457 4590.79"><defs><style>.cls-1{opacity:0.41;}.cls-10,.cls-11,.cls-12,.cls-13,.cls-14,.cls-15,.cls-16,.cls-17,.cls-18,.cls-19,.cls-2,.cls-20,.cls-21,.cls-22,.cls-23,.cls-24,.cls-25,.cls-26,.cls-27,.cls-28,.cls-29,.cls-3,.cls-30,.cls-31,.cls-32,.cls-33,.cls-34,.cls-35,.cls-36,.cls-37,.cls-38,.cls-39,.cls-4,.cls-40,.cls-41,.cls-42,.cls-43,.cls-44,.cls-45,.cls-46,.cls-47,.cls-48,.cls-49,.cls-5,.cls-50,.cls-51,.cls-52,.cls-53,.cls-54,.cls-55,.cls-56,.cls-57,.cls-58,.cls-59,.cls-6,.cls-60,.cls-61,.cls-62,.cls-63,.cls-64,.cls-65,.cls-66,.cls-67,.cls-68,.cls-69,.cls-7,.cls-70,.cls-71,.cls-72,.cls-73,.cls-74,.cls-75,.cls-76,.cls-77,.cls-78,.cls-79,.cls-8,.cls-80,.cls-81,.cls-82,.cls-83,.cls-84,.cls-85,.cls-86,.cls-87,.cls-88,.cls-89,.cls-9,.cls-90,.cls-91,.cls-92,.cls-93,.cls-94,.cls-95,.cls-96{fill:none;stroke-linecap:round;stroke-linejoin:round;stroke-width:14px;}.cls-2{stroke:url(#radial-gradient);}.cls-3{stroke:url(#radial-gradient-2);}.cls-4{stroke:url(#radial-gradient-3);}.cls-5{stroke:url(#radial-gradient-4);}.cls-6{stroke:url(#radial-gradient-5);}.cls-7{stroke:url(#radial-gradient-6);}.cls-8{stroke:url(#radial-gradient-7);}.cls-9{stroke:url(#radial-gradient-8);}.cls-10{stroke:url(#radial-gradient-9);}.cls-11{stroke:url(#radial-gradient-10);}.cls-12{stroke:url(#radial-gradient-11);}.cls-13{stroke:url(#radial-gradient-12);}.cls-14{stroke:url(#radial-gradient-13);}.cls-15{stroke:url(#radial-gradient-14);}.cls-16{stroke:url(#radial-gradient-15);}.cls-17{stroke:url(#radial-gradient-16);}.cls-18{stroke:url(#radial-gradient-17);}.cls-19{stroke:url(#radial-gradient-18);}.cls-20{stroke:url(#radial-gradient-19);}.cls-21{stroke:url(#radial-gradient-20);}.cls-22{stroke:url(#radial-gradient-21);}.cls-23{stroke:url(#radial-gradient-22);}.cls-24{stroke:url(#radial-gradient-23);}.cls-25{stroke:url(#radial-gradient-24);}.cls-26{stroke:url(#radial-gradient-25);}.cls-27{stroke:url(#radial-gradient-26);}.cls-28{stroke:url(#radial-gradient-27);}.cls-29{stroke:url(#radial-gradient-28);}.cls-30{stroke:url(#radial-gradient-29);}.cls-31{stroke:url(#radial-gradient-30);}.cls-32{stroke:url(#radial-gradient-31);}.cls-33{stroke:url(#radial-gradient-32);}.cls-34{stroke:url(#linear-gradient);}.cls-35{stroke:url(#radial-gradient-33);}.cls-36{stroke:url(#radial-gradient-34);}.cls-37{stroke:url(#linear-gradient-2);}.cls-38{stroke:url(#radial-gradient-35);}.cls-39{stroke:url(#radial-gradient-36);}.cls-40,.cls-46,.cls-49,.cls-51,.cls-52,.cls-55,.cls-56,.cls-57,.cls-58,.cls-63,.cls-64,.cls-65,.cls-67,.cls-69,.cls-72,.cls-76,.cls-80,.cls-85,.cls-92{opacity:0.5;}.cls-40{stroke:url(#radial-gradient-37);}.cls-41{stroke:url(#linear-gradient-3);}.cls-42{stroke:url(#radial-gradient-38);}.cls-43{stroke:url(#radial-gradient-39);}.cls-44{stroke:url(#radial-gradient-40);}.cls-45{stroke:url(#radial-gradient-41);}.cls-46{stroke:url(#radial-gradient-42);}.cls-47{stroke:url(#radial-gradient-43);}.cls-48{stroke:url(#linear-gradient-4);}.cls-49{stroke:url(#linear-gradient-5);}.cls-50{stroke:url(#radial-gradient-44);}.cls-51{stroke:url(#radial-gradient-45);}.cls-52{stroke:url(#linear-gradient-6);}.cls-53{stroke:url(#radial-gradient-46);}.cls-54{stroke:url(#radial-gradient-47);}.cls-55{stroke:url(#radial-gradient-48);}.cls-56{stroke:url(#linear-gradient-7);}.cls-57{stroke:url(#radial-gradient-49);}.cls-58{stroke:url(#linear-gradient-8);}.cls-59{stroke:url(#radial-gradient-50);}.cls-60{stroke:url(#radial-gradient-51);}.cls-61{stroke:url(#radial-gradient-52);}.cls-62{stroke:url(#radial-gradient-53);}.cls-63{stroke:url(#radial-gradient-54);}.cls-64{stroke:url(#linear-gradient-9);}.cls-65{stroke:url(#radial-gradient-55);}.cls-66{stroke:url(#radial-gradient-56);}.cls-67{stroke:url(#linear-gradient-10);}.cls-68{stroke:url(#radial-gradient-57);}.cls-69{stroke:url(#radial-gradient-58);}.cls-70{stroke:url(#radial-gradient-59);}.cls-71{stroke:url(#radial-gradient-60);}.cls-72{stroke:url(#linear-gradient-11);}.cls-73{stroke:url(#radial-gradient-61);}.cls-74{stroke:url(#radial-gradient-62);}.cls-75{stroke:url(#radial-gradient-63);}.cls-76{stroke:url(#radial-gradient-64);}.cls-77{stroke:url(#radial-gradient-65);}.cls-78{stroke:url(#radial-gradient-66);}.cls-79{stroke:url(#linear-gradient-12);}.cls-80{stroke:url(#radial-gradient-67);}.cls-81{stroke:url(#radial-gradient-68);}.cls-82{stroke:url(#radial-gradient-69);}.cls-83{stroke:url(#radial-gradient-70);}.cls-84{stroke:url(#radial-gradient-71);}.cls-85{stroke:url(#radial-gradient-72);}.cls-86{stroke:url(#linear-gradient-13);}.cls-87{stroke:url(#radial-gradient-73);}.cls-88{stroke:url(#radial-gradient-74);}.cls-89{stroke:url(#radial-gradient-75);}.cls-90{stroke:url(#radial-gradient-76);}.cls-91{stroke:url(#radial-gradient-77);}.cls-92{stroke:url(#radial-gradient-78);}.cls-93{stroke:url(#radial-gradient-79);}.cls-94{stroke:url(#radial-gradient-80);}.cls-95{stroke:url(#radial-gradient-81);}.cls-96{stroke:url(#radial-gradient-82);}</style><radialGradient id="radial-gradient" cx="4342.48" cy="674.65" r="25.39" gradientUnits="userSpaceOnUse"><stop offset="0" stop-color="#0fc"/><stop offset="0.54" stop-color="#0cf" stop-opacity="0.46"/><stop offset="1" stop-color="#101921" stop-opacity="0"/></radialGradient><radialGradient id="radial-gradient-2" cx="3920.72" cy="286.5" r="70.04" xlink:href="#radial-gradient"/><radialGradient id="radial-gradient-3" cx="4120.96" cy="527.1" r="179.97" xlink:href="#radial-gradient"/><radialGradient id="radial-gradient-4" cx="4051.44" cy="486.29" r="297.97" xlink:href="#radial-gradient"/><radialGradient id="radial-gradient-5" cx="3988.42" cy="502.16" r="386.64" xlink:href="#radial-gradient"/><radialGradient id="radial-gradient-6" cx="3925.4" cy="544.25" r="460.86" xlink:href="#radial-gradient"/><radialGradient id="radial-gradient-7" cx="3862.38" cy="605.04" r="524.63" xlink:href="#radial-gradient"/><radialGradient id="radial-gradient-8" cx="3799.36" cy="670.21" r="586.08" xlink:href="#radial-gradient"/><radialGradient id="radial-gradient-9" cx="3872.17" cy="1226.84" r="351.73" xlink:href="#radial-gradient"/><radialGradient id="radial-gradient-10" cx="3172.39" cy="147.24" r="97.25" xlink:href="#radial-gradient"/><radialGradient id="radial-gradient-11" cx="4017.72" cy="1486.09" r="222.22" xlink:href="#radial-gradient"/><radialGradient id="radial-gradient-12" cx="3043.32" cy="155.2" r="91.36" xlink:href="#radial-gradient"/><radialGradient id="radial-gradient-13" cx="3341.23" cy="1073.89" r="182.6" xlink:href="#radial-gradient"/><radialGradient id="radial-gradient-14" cx="3776.69" cy="1435.17" r="425.99" xlink:href="#radial-gradient"/><radialGradient id="radial-gradient-15" cx="3030.6" cy="541.8" r="394.27" xlink:href="#radial-gradient"/><radialGradient id="radial-gradient-16" cx="2999.06" cy="1033.83" r="166.99" xlink:href="#radial-gradient"/><radialGradient id="radial-gradient-17" cx="3713.5" cy="1520.51" r="478.73" xlink:href="#radial-gradient"/><radialGradient id="radial-gradient-18" cx="2832.84" cy="434.22" r="293.25" xlink:href="#radial-gradient"/><radialGradient id="radial-gradient-19" cx="3646.23" cy="1599.33" r="536.2" xlink:href="#radial-gradient"/><radialGradient id="radial-gradient-20" cx="2756.78" cy="562.55" r="377.32" xlink:href="#radial-gradient"/><radialGradient id="radial-gradient-21" cx="3421.25" cy="1056.37" r="958.71" xlink:href="#radial-gradient"/><radialGradient id="radial-gradient-22" cx="3230.71" cy="1841.06" r="140.94" xlink:href="#radial-gradient"/><radialGradient id="radial-gradient-23" cx="3850.58" cy="2069.08" r="345.02" xlink:href="#radial-gradient"/><radialGradient id="radial-gradient-24" cx="2408.34" cy="163.2" r="85.32" xlink:href="#radial-gradient"/><radialGradient id="radial-gradient-25" cx="2561.46" cy="944.67" r="270.58" xlink:href="#radial-gradient"/><radialGradient id="radial-gradient-26" cx="2733.97" cy="1351.49" r="56.32" xlink:href="#radial-gradient"/><radialGradient id="radial-gradient-27" cx="3928.47" cy="2239.37" r="284.14" xlink:href="#radial-gradient"/><radialGradient id="radial-gradient-28" cx="2333.56" cy="499.03" r="330.44" xlink:href="#radial-gradient"/><radialGradient id="radial-gradient-29" cx="2694.83" cy="1394.02" r="384.35" xlink:href="#radial-gradient"/><radialGradient id="radial-gradient-30" cx="3138.39" cy="1932.88" r="128.5" xlink:href="#radial-gradient"/><radialGradient id="radial-gradient-31" cx="3648.18" cy="2211.65" r="504.75" xlink:href="#radial-gradient"/><radialGradient id="radial-gradient-32" cx="2198.55" cy="491.23" r="311.54" xlink:href="#radial-gradient"/><linearGradient id="linear-gradient" x1="2240.43" y1="1451.72" x2="2988.66" y2="1451.72" gradientUnits="userSpaceOnUse"><stop offset="0" stop-color="#101921" stop-opacity="0"/><stop offset="0.54" stop-color="#0cf" stop-opacity="0.46"/><stop offset="1" stop-color="#0fc"/></linearGradient><radialGradient id="radial-gradient-33" cx="3286" cy="1872.43" r="913.77" xlink:href="#radial-gradient"/><radialGradient id="radial-gradient-34" cx="2115.75" cy="622.57" r="403.62" xlink:href="#radial-gradient"/><linearGradient id="linear-gradient-2" x1="2517.52" y1="1969.41" x2="2667.64" y2="1969.41" xlink:href="#radial-gradient"/><radialGradient id="radial-gradient-35" cx="3114.1" cy="2356.68" r="199.05" xlink:href="#radial-gradient"/><radialGradient id="radial-gradient-36" cx="3533.26" cy="2555.76" r="143.67" xlink:href="#radial-gradient"/><radialGradient id="radial-gradient-37" cx="2286.13" cy="1508.4" r="331.11" xlink:href="#radial-gradient"/><linearGradient id="linear-gradient-3" x1="2107.07" y1="2132.17" x2="3591.16" y2="2132.17" xlink:href="#radial-gradient"/><radialGradient id="radial-gradient-38" cx="3879.85" cy="2764.12" r="217.98" xlink:href="#radial-gradient"/><radialGradient id="radial-gradient-39" cx="4275.85" cy="2817.36" r="76.14" xlink:href="#radial-gradient"/><radialGradient id="radial-gradient-40" cx="1776.01" cy="168.87" r="81.17" xlink:href="#radial-gradient"/><radialGradient id="radial-gradient-41" cx="2137.17" cy="1166.21" r="208.58" gradientTransform="matrix(1, -0.02, 0.02, 1, -163.72, 172.45)" xlink:href="#radial-gradient"/><radialGradient id="radial-gradient-42" cx="2803.94" cy="2413.59" r="377.71" xlink:href="#radial-gradient"/><radialGradient id="radial-gradient-43" cx="3804.08" cy="2830.91" r="418.38" xlink:href="#radial-gradient"/><linearGradient id="linear-gradient-4" x1="1638.51" y1="947.62" x2="2158.71" y2="947.62" xlink:href="#linear-gradient"/><linearGradient id="linear-gradient-5" x1="1723.74" y1="2108.18" x2="3283.85" y2="2108.18" xlink:href="#radial-gradient"/><radialGradient id="radial-gradient-44" cx="3898.58" cy="3131.69" r="329" xlink:href="#radial-gradient"/><radialGradient id="radial-gradient-45" cx="1666.76" cy="1010.11" r="717.25" xlink:href="#radial-gradient"/><linearGradient id="linear-gradient-6" x1="2014.96" y1="2442.64" x2="2847.62" y2="2442.64" xlink:href="#radial-gradient"/><radialGradient id="radial-gradient-46" cx="3806.21" cy="3225.19" r="414.83" xlink:href="#radial-gradient"/><radialGradient id="radial-gradient-47" cx="1272.34" cy="152.4" r="92.8" xlink:href="#radial-gradient"/><radialGradient id="radial-gradient-48" cx="1757.2" cy="1804.18" r="461.09" xlink:href="#radial-gradient"/><linearGradient id="linear-gradient-7" x1="2279.92" y1="2730.45" x2="2788.37" y2="2730.45" xlink:href="#linear-gradient"/><radialGradient id="radial-gradient-49" cx="3008.72" cy="3018.54" r="184.73" xlink:href="#radial-gradient"/><linearGradient id="linear-gradient-8" x1="1635.84" y1="2152.3" x2="1890.53" y2="2152.3" xlink:href="#linear-gradient"/><radialGradient id="radial-gradient-50" cx="2963.84" cy="3147.52" r="56.2" xlink:href="#radial-gradient"/><radialGradient id="radial-gradient-51" cx="3207.46" cy="3244.64" r="142.41" xlink:href="#radial-gradient"/><radialGradient id="radial-gradient-52" cx="3811.45" cy="3463.05" r="504.45" xlink:href="#radial-gradient"/><radialGradient id="radial-gradient-53" cx="4733.69" cy="3541.19" r="166.62" xlink:href="#radial-gradient"/><radialGradient id="radial-gradient-54" cx="1472.37" cy="1318.02" r="939.28" xlink:href="#radial-gradient"/><linearGradient id="linear-gradient-9" x1="1922.43" y1="2737.07" x2="2345.6" y2="2737.07" xlink:href="#linear-gradient"/><radialGradient id="radial-gradient-55" cx="2726.86" cy="3134.55" r="320.93" xlink:href="#radial-gradient"/><radialGradient id="radial-gradient-56" cx="2443.71" cy="1979.19" r="92.96" gradientTransform="translate(-559.31 1180.88) rotate(-6.41)" xlink:href="#radial-gradient"/><linearGradient id="linear-gradient-10" x1="229.9" y1="5959.96" x2="1483.79" y2="5959.96" gradientTransform="translate(3140.29 -3703.14) rotate(23.89)" xlink:href="#radial-gradient"/><radialGradient id="radial-gradient-57" cx="2331.38" cy="3220.99" r="75.61" xlink:href="#radial-gradient"/><radialGradient id="radial-gradient-58" cx="4356.04" cy="2920.61" r="952.01" gradientTransform="translate(-529.08 1185.54) rotate(-6.42)" xlink:href="#radial-gradient"/><radialGradient id="radial-gradient-59" cx="790.4" cy="489.53" r="295.03" xlink:href="#radial-gradient"/><radialGradient id="radial-gradient-60" cx="971.5" cy="1369.38" r="356.65" xlink:href="#radial-gradient"/><linearGradient id="linear-gradient-11" x1="1734.05" y1="3371.96" x2="3415.08" y2="3371.96" xlink:href="#radial-gradient"/><radialGradient id="radial-gradient-61" cx="4241.47" cy="3897.29" r="595.93" xlink:href="#radial-gradient"/><radialGradient id="radial-gradient-62" cx="739.71" cy="784.95" r="509.33" xlink:href="#radial-gradient"/><radialGradient id="radial-gradient-63" cx="933.15" cy="1704.82" r="171.54" xlink:href="#radial-gradient"/><radialGradient id="radial-gradient-64" cx="1504.18" cy="2619.09" r="268.39" xlink:href="#radial-gradient"/><radialGradient id="radial-gradient-65" cx="4022.82" cy="3954.43" r="766.02" xlink:href="#radial-gradient"/><radialGradient id="radial-gradient-66" cx="711.64" cy="1029.07" r="691.54" xlink:href="#radial-gradient"/><linearGradient id="linear-gradient-12" x1="1066.59" y1="2443.73" x2="1325.87" y2="2443.73" xlink:href="#linear-gradient"/><radialGradient id="radial-gradient-67" cx="2037.39" cy="3183.21" r="652.57" xlink:href="#radial-gradient"/><radialGradient id="radial-gradient-68" cx="3664.71" cy="3904.42" r="1047.49" xlink:href="#radial-gradient"/><radialGradient id="radial-gradient-69" cx="416.81" cy="518.83" r="334.16" xlink:href="#radial-gradient"/><radialGradient id="radial-gradient-70" cx="701.9" cy="1822.76" r="56.47" xlink:href="#radial-gradient"/><radialGradient id="radial-gradient-71" cx="855.39" cy="2122.61" r="195.14" xlink:href="#radial-gradient"/><radialGradient id="radial-gradient-72" cx="1601.92" cy="2980.38" r="628.82" xlink:href="#radial-gradient"/><linearGradient id="linear-gradient-13" x1="832.6" y1="2681.04" x2="1311.46" y2="2681.04" xlink:href="#radial-gradient"/><radialGradient id="radial-gradient-73" cx="1671.11" cy="3324.19" r="298.54" xlink:href="#radial-gradient"/><radialGradient id="radial-gradient-74" cx="497.46" cy="1637.92" r="130.61" xlink:href="#radial-gradient"/><radialGradient id="radial-gradient-75" cx="3616.9" cy="4141.87" r="1099.03" xlink:href="#radial-gradient"/><radialGradient id="radial-gradient-76" cx="164.6" cy="532.4" r="339.45" xlink:href="#radial-gradient"/><radialGradient id="radial-gradient-77" cx="254.33" cy="1247.87" r="183.35" xlink:href="#radial-gradient"/><radialGradient id="radial-gradient-78" cx="914.61" cy="2586.97" r="549.98" xlink:href="#radial-gradient"/><radialGradient id="radial-gradient-79" cx="2669.66" cy="4175.34" r="577.33" xlink:href="#radial-gradient"/><radialGradient id="radial-gradient-80" cx="4558.47" cy="4548.46" r="386.14" xlink:href="#radial-gradient"/><radialGradient id="radial-gradient-81" cx="200.08" cy="1045.64" r="736.81" xlink:href="#radial-gradient"/><radialGradient id="radial-gradient-82" cx="651.23" cy="2487.88" r="359.37" xlink:href="#radial-gradient"/></defs><title>Thorchain assetAsset 2</title><g id="Layer_2" data-name="Layer 2"><g id="Layer_1-2" data-name="Layer 1"><g class="cls-1"><path class="cls-2" d="M4370.27,672.74a404.12,404.12,0,0,1-55.57,3.82"/><path class="cls-3" d="M3927.21,377.63a404.11,404.11,0,0,1-4.85-182.25"/><path class="cls-4" d="M4314.7,676.56c-186.09,0-342.54-126.92-387.49-298.93"/><path class="cls-5" d="M4314.7,802.6c-290.79,0-526.51-235.73-526.51-526.51A529.09,529.09,0,0,1,3798.88,170"/><path class="cls-6" d="M4314.7,928.64c-360.4,0-652.55-292.16-652.55-652.55a652.18,652.18,0,0,1,31.34-200.4"/><path class="cls-7" d="M4314.7,1054.68c-430,0-778.59-348.59-778.59-778.59a777.69,777.69,0,0,1,38.43-242.27"/><path class="cls-8" d="M4314.7,1180.72c-499.61,0-904.63-405-904.63-904.63a905.42,905.42,0,0,1,34-246.72"/><path class="cls-9" d="M4314.7,1306.76C3745.48,1306.76,3284,845.31,3284,276.09A1033.38,1033.38,0,0,1,3312.7,33.67"/><path class="cls-10" d="M4314.7,1432.8c-355.13,0-672.88-160-885.06-411.92"/><path class="cls-11" d="M3158,276.09a1160.09,1160.09,0,0,1,28.81-257.7"/><path class="cls-12" d="M4314.7,1558.84c-214.33,0-416.37-52.56-594-145.5"/><path class="cls-13" d="M3032,276.09A1289,1289,0,0,1,3054.7,34.32"/><path class="cls-14" d="M3498.75,1265.92a1288.24,1288.24,0,0,1-315-384.07"/><path class="cls-15" d="M4314.7,1684.88c-431.44,0-817.59-194-1076-499.41"/><path class="cls-16" d="M3155.29,1076.61C2998,849.27,2905.91,573.44,2905.91,276.09A1415.72,1415.72,0,0,1,2931.58,7"/><path class="cls-17" d="M3112.3,1230.1a1533.24,1533.24,0,0,1-226.48-392.53"/><path class="cls-18" d="M4314.7,1810.92c-487.11,0-921.23-226.92-1202.4-580.82"/><path class="cls-19" d="M2885.82,837.57c-68.39-173.9-106-363.31-106-561.48a1546.19,1546.19,0,0,1,19.48-245.23"/><path class="cls-20" d="M4314.7,1937c-548.26,0-1034.47-265.65-1336.94-675.25"/><path class="cls-21" d="M2859.74,1077.7C2728.51,840,2653.83,566.78,2653.83,276.09a1675,1675,0,0,1,15.62-228.7"/><path class="cls-22" d="M4314.7,2063c-986.88,0-1786.91-800-1786.91-1786.91A1804.34,1804.34,0,0,1,2542,49.74"/><path class="cls-23" d="M3386.46,1949.13A1917,1917,0,0,1,3075,1733"/><path class="cls-24" d="M4314.7,2189c-336.84,0-653.34-87.06-928.24-239.91"/><path class="cls-25" d="M2401.75,276.09a1934.36,1934.36,0,0,1,13.18-225.78"/><path class="cls-26" d="M2694.6,1293.73A1901,1901,0,0,1,2428.32,595.6"/><path class="cls-27" d="M2773.34,1409.25q-41.41-56.24-78.74-115.52"/><path class="cls-28" d="M4314.7,2315.08c-273.39,0-534.22-53.81-772.47-151.41"/><path class="cls-29" d="M2391.41,954.82c-74.93-212.32-115.7-440.77-115.7-678.73a2059.94,2059.94,0,0,1,13.15-232.84"/><path class="cls-30" d="M2998.26,1833.21c-273.5-231.46-485.2-533.67-606.85-878.39"/><path class="cls-31" d="M3278.53,2032.54a2045,2045,0,0,1-280.27-199.33"/><path class="cls-32" d="M4314.7,2441.12c-502.79,0-965.54-171.39-1333-458.93"/><path class="cls-33" d="M2247.43,921.25c-63.53-203.77-97.76-420.47-97.76-645.16q0-108.78,10.53-214.89"/><path class="cls-34" d="M2981.66,1982.19c-342.23-267.78-601.85-636.3-734.23-1060.94"/><path class="cls-35" d="M4364.14,2566.63q-24.66.52-49.44.52c-945.21,0-1756.72-572.38-2106.84-1389.45"/><path class="cls-36" d="M2207.86,1177.7C2089.28,901,2023.63,596.2,2023.63,276.09q0-105.51,9.38-208.65"/><path class="cls-37" d="M2660.64,2038.62q-70.8-66.46-136.12-138.42"/><path class="cls-38" d="M3349.51,2492.79a2414.84,2414.84,0,0,1-470.82-272.21"/><path class="cls-39" d="M3717,2618.73a2398.09,2398.09,0,0,1-367.49-125.94"/><path class="cls-40" d="M2524.52,1900.2a2416.48,2416.48,0,0,1-476.78-783.61"/><path class="cls-41" d="M3584.16,2712.75c-624.9-187.09-1148.79-608-1470.09-1161.15"/><path class="cls-42" d="M4175.54,2815.49a2536.71,2536.71,0,0,1-591.38-102.74"/><path class="cls-43" d="M4376.17,2818.51q-30.65.72-61.47.72-70,0-139.16-3.74"/><path class="cls-44" d="M1771.55,276.09q0-108.33,8.92-214.43"/><path class="cls-45" d="M2120,1548.93a2529.08,2529.08,0,0,1-241.26-518"/><path class="cls-46" d="M3232,2716.54c-324.64-144.24-615.16-351.36-856.09-605.9"/><path class="cls-47" d="M4376.18,2944.58q-30.65.69-61.48.69c-385.45,0-751.81-81.7-1082.72-228.73"/><path class="cls-48" d="M2151.71,1840.39c-318.45-439.56-506.2-980-506.2-1564.3q0-111.75,9-221.24"/><path class="cls-49" d="M3276.85,2872.3c-698.92-279.65-1258.59-833.36-1546.11-1528.25"/><path class="cls-50" d="M4351.15,3197.13q-18.19.23-36.45.22c-302.51,0-594.27-46-868.69-131.33"/><path class="cls-51" d="M1940.09,1977.94C1596,1498.71,1393.43,911.06,1393.43,276.09q0-118.06,9.23-233.81"/><path class="cls-52" d="M2840.62,2798.71A2936,2936,0,0,1,2022,2086.57"/><path class="cls-53" d="M4376.36,3322.78q-30.76.61-61.66.61c-379.78,0-743.33-69.47-1078.64-196.4"/><path class="cls-54" d="M1267.4,276.09q0-124.93,9.89-247.38"/><path class="cls-55" d="M2087.09,2355.49c-292.36-313.07-519.51-687.83-659.78-1102.62"/><path class="cls-56" d="M2781.37,2910.09a3057.09,3057.09,0,0,1-494.45-359.28"/><path class="cls-57" d="M3236.06,3127a3033.9,3033.9,0,0,1-454.69-216.9"/><path class="cls-58" d="M1796.73,2207.66q-81.39-105.94-153.89-218.75m153.89,218.75q42.24,55,86.8,108"/><path class="cls-59" d="M3027.24,3177.4q-64.15-28.52-126.8-59.76"/><path class="cls-60" d="M3387.67,3311.88a3149.32,3149.32,0,0,1-360.43-134.48"/><path class="cls-61" d="M4507.78,3569.92q-95.83,5.52-193.08,5.55c-423.19,0-827.78-79.67-1199.57-224.84"/><path class="cls-62" d="M4959.61,3512.47a3303.17,3303.17,0,0,1-451.83,57.45"/><path class="cls-63" d="M1929.43,2555.66c-566.29-592.38-914.11-1395.36-914.11-2279.57q0-98.56,5.7-195.72"/><path class="cls-64" d="M2338.6,2918.48a3317.44,3317.44,0,0,1-409.17-362.82"/><path class="cls-65" d="M3115.13,3350.63a3293.13,3293.13,0,0,1-776.53-432.15"/><path class="cls-66" d="M2182.41,2954q-95-75.84-184.59-158.27"/><path class="cls-67" d="M1915.91,2707.11c-360-348.66-635.12-769.36-812.15-1227.93"/><path class="cls-68" d="M2412,3275.36q-82.11-52.2-161.13-108.73"/><path class="cls-69" d="M5450,3657.13a3567.27,3567.27,0,0,1-703.19,151.72c-695.63,78.26-1366.89-50-1952.55-336"/><path class="cls-70" d="M817.57,898.36a3573.09,3573.09,0,0,1-54.33-622.27q0-98.34,5.28-195.39"/><path class="cls-71" d="M1125.42,1840.4a3526.16,3526.16,0,0,1-307.85-942"/><path class="cls-72" d="M3408.08,3841c-638.76-161.95-1210.86-491.06-1667-938"/><path class="cls-73" d="M5074.87,3874.93a3693,3693,0,0,1-760.17,78.66c-312.87,0-616.61-39.07-906.62-112.6"/><path class="cls-74" d="M842.22,1489.87c-132.82-380-205-788.46-205-1213.78q0-98.65,5.13-196.06"/><path class="cls-75" d="M1024.07,1919.78a3654.75,3654.75,0,0,1-181.85-429.91"/><path class="cls-76" d="M1741.05,2902.94a3695.84,3695.84,0,0,1-473.74-567.69"/><path class="cls-77" d="M5091,4000.34a3820.58,3820.58,0,0,1-776.34,79.29c-479.23,0-937.76-88.63-1360.1-250.39"/><path class="cls-78" d="M912.13,1977.79c-256.57-512-401-1090-401-1701.7q0-98.47,4.95-195.73"/><path class="cls-79" d="M1318.87,2619.85a3814,3814,0,0,1-245.28-352.24"/><path class="cls-80" d="M2755.91,3746.57c-566.13-254.68-1058.7-643.81-1437-1126.72"/><path class="cls-81" d="M5106.65,4125.83a3947,3947,0,0,1-791.95,79.84c-768.87,0-1486.17-220.82-2091.94-602.5"/><path class="cls-82" d="M448.5,982.81a3952.17,3952.17,0,0,1-63.38-706.72q0-111.37,6.12-221.25"/><path class="cls-83" d="M729.71,1887.63q-28.94-64.26-55.62-129.74"/><path class="cls-84" d="M981.07,2357.6a3920.15,3920.15,0,0,1-251.36-470"/><path class="cls-85" d="M2222.76,3603.17A3950.28,3950.28,0,0,1,981.07,2357.6"/><path class="cls-86" d="M1304.46,2994A4070.48,4070.48,0,0,1,839.6,2368.14"/><path class="cls-87" d="M1982.5,3594.47a4077.58,4077.58,0,0,1-622.77-540.56"/><path class="cls-88" d="M556.51,1803.42q-66-162.14-118.1-331"/><path class="cls-89" d="M5130.25,4378.26a4201.83,4201.83,0,0,1-815.55,79.49c-811.87,0-1569.7-231.37-2211.15-631.76"/><path class="cls-90" d="M196.15,1003.9A4208.15,4208.15,0,0,1,133,276.09q0-108.25,5.44-215.19"/><path class="cls-91" d="M312.51,1491.83A4155.09,4155.09,0,0,1,196.15,1003.9"/><path class="cls-92" d="M1346.79,3221.9C985.66,2858.08,691,2428.22,482.43,1952.05"/><path class="cls-93" d="M3413.38,4489.35c-540.22-115-1043-331.28-1487.43-628"/><path class="cls-94" d="M5095.92,4513.13a4332.79,4332.79,0,0,1-781.22,70.66q-148.05,0-293.67-9.86"/><path class="cls-95" d="M393.16,2061.26C145.17,1517.37,7,912.86,7,276.09Q7,152.21,13.91,30"/><path class="cls-96" d="M909.3,2914.51a4306.86,4306.86,0,0,1-516.14-853.25"/></g></g></g></svg>