<?xml version="1.0" encoding="utf-8"?>
<!-- Generator: Adobe Illustrator 22.1.0, SVG Export Plug-In . SVG Version: 6.00 Build 0)  -->
<svg version="1.1" id="Layer_1" xmlns="http://www.w3.org/2000/svg" xmlns:xlink="http://www.w3.org/1999/xlink" x="0px" y="0px"
	 viewBox="0 0 360 360" style="enable-background:new 0 0 360 360;" xml:space="preserve">
<style type="text/css">
	.st0{fill:#101921;}
	.st1{fill:url(#Combined-Shape_4_);}
	.st2{fill:#171D23;}
	.st3{fill:url(#Combined-Shape_5_);}
	.st4{fill:url(#btc---FontAwesome_1_);}
	.st5{fill:url(#Combined-Shape_6_);}
	.st6{fill:url(#Path-2_1_);}
	.st7{fill:url(#SVGID_1_);}
	.st8{fill:url(#SVGID_2_);}
	.st9{fill:url(#SVGID_3_);}
	.st10{fill:url(#SVGID_4_);}
	.st11{fill:url(#SVGID_5_);}
	.st12{fill:url(#SVGID_6_);}
	.st13{fill:url(#SVGID_7_);}
	.st14{fill:url(#SVGID_8_);}
	.st15{fill:url(#SVGID_9_);}
	.st16{fill:url(#SVGID_10_);}
	.st17{fill:url(#SVGID_11_);}
	.st18{fill:url(#path22_1_);}
	.st19{fill:url(#path26_1_);}
</style>
<title>LIQUIDITY-CIRCLE</title>
<desc>Created with Sketch.</desc>
<g id="Oval_2_">
	
		<image style="overflow:visible;opacity:0.3;" width="89" height="90" xlink:href="C3DFE3F1519B4DB.png"  transform="matrix(1 0 0 1 32 240)">
	</image>
	<g>
		<ellipse class="st0" cx="76.4" cy="284.8" rx="28.8" ry="29.7"/>
	</g>
</g>
<g id="tether-1-copy">
	<linearGradient id="Combined-Shape_4_" gradientUnits="userSpaceOnUse" x1="61.152" y1="284.78" x2="91.6978" y2="284.78">
		<stop  offset="0" style="stop-color:#00CCFF"/>
		<stop  offset="1" style="stop-color:#00FFCC"/>
	</linearGradient>
	<path id="Combined-Shape_1_" class="st1" d="M76.4,269.2c8.4,0,15.3,7,15.3,15.6c0,8.6-6.8,15.6-15.3,15.6s-15.3-7-15.3-15.6
		C61.2,276.1,68,269.2,76.4,269.2z M78.6,283v-2.3h5.2v-3.5H69.6v3.5h5.2v2.3c-4.2,0.2-7.4,1.1-7.4,2.1s3.2,1.9,7.4,2.1v7.4h3.8
		v-7.4c4.2-0.2,7.4-1.1,7.4-2.1C86,284.1,82.8,283.2,78.6,283z M78.6,286.6c-0.1,0-0.6,0-1.9,0c-1,0-1.7,0-1.9,0v0
		c-3.7-0.2-6.5-0.8-6.5-1.6s2.8-1.5,6.5-1.6v2.6c0.2,0,0.9,0.1,1.9,0.1c1.2,0,1.7,0,1.8-0.1v-2.6c3.7,0.2,6.5,0.8,6.5,1.6
		C85.1,285.7,82.3,286.4,78.6,286.6z"/>
	<g id="Vector_1_" transform="translate(8.796486, 11.235950)">
	</g>
</g>
<g id="Oval_3_">
	
		<image style="overflow:visible;opacity:0.3;" width="88" height="91" xlink:href="C3DFE3F1519B4DC.png"  transform="matrix(1 0 0 1 -8 138)">
	</image>
	<g>
		<ellipse class="st2" cx="36.1" cy="183.4" rx="28.8" ry="29.7"/>
	</g>
</g>
<linearGradient id="Combined-Shape_5_" gradientUnits="userSpaceOnUse" x1="26.4263" y1="183.4435" x2="45.8463" y2="183.4435">
	<stop  offset="0" style="stop-color:#00CCFF"/>
	<stop  offset="1" style="stop-color:#00FFCC"/>
</linearGradient>
<path id="Combined-Shape_2_" class="st3" d="M41.9,184.9L41.9,184.9l4-1.9v12.6l0,0l-4,1.8v0l-15.5-7.6v0v-4l10.7-5.4l-10.7-5.3v0
	v-4.1l4-1.8l15.4,7.6l0,0v4l0,0l-4,1.8v0l-10.5,5.5l10.5,5.2L41.9,184.9L41.9,184.9z"/>
<g id="Oval_4_">
	
		<image style="overflow:visible;opacity:0.3;" width="88" height="90" xlink:href="C3DFE3F1519B4D9.png"  transform="matrix(1 0 0 1 136 -8)">
	</image>
	<g>
		<ellipse class="st2" cx="180" cy="36.8" rx="28.8" ry="29.7"/>
	</g>
</g>
<linearGradient id="btc---FontAwesome_1_" gradientUnits="userSpaceOnUse" x1="166.7135" y1="36.8499" x2="193.3351" y2="36.8499">
	<stop  offset="0" style="stop-color:#00CCFF"/>
	<stop  offset="1" style="stop-color:#00FFCC"/>
</linearGradient>
<path id="btc---FontAwesome" class="st4" d="M193.1,34.8c-0.6,2.4-2,3.7-4.2,4c1.3,0.9,2.1,1.9,2.5,3.1c0.4,1.2,0.2,2.6-0.6,4.3
	c-0.4,0.9-0.9,1.6-1.4,2.1c-0.6,0.6-1.2,1-1.8,1.2c-0.6,0.3-1.4,0.4-2.2,0.4c-0.8,0-1.6,0-2.5-0.2s-1.7-0.4-2.8-0.7l-1.7,4.8l-2.8-1
	l1.7-4.7c-1-0.4-1.7-0.6-2.2-0.8l-1.7,4.7l-2.8-1l1.7-4.8c-0.2-0.1-0.5-0.2-1-0.4s-0.8-0.3-1-0.4l-3.7-1.3l1.8-3.2l2,0.7
	c0.6,0.2,1.1,0,1.4-0.6l2.7-7.5l0.3,0.1c-0.1,0-0.2-0.1-0.3-0.1l2-5.4c0.2-0.9-0.2-1.5-1.2-1.9l-2-0.7l1.1-3.1l3.9,1.4
	c0.8,0.3,1.4,0.5,1.8,0.6l1.7-4.7l2.8,1l-1.7,4.6c1,0.3,1.8,0.6,2.2,0.8l1.7-4.6l2.8,1l-1.7,4.7c0.9,0.4,1.7,0.9,2.4,1.4
	c0.7,0.5,1.3,1,1.8,1.6s0.8,1.3,1,2C193.4,33.1,193.4,33.9,193.1,34.8z M185.5,43.5c0.2-0.4,0.2-0.9,0.2-1.3
	c-0.1-0.4-0.2-0.8-0.4-1.1c-0.2-0.3-0.5-0.6-0.8-1s-0.7-0.6-1.1-0.8c-0.3-0.2-0.8-0.4-1.3-0.7c-0.5-0.2-0.9-0.4-1.2-0.5
	c-0.3-0.1-0.7-0.2-1.2-0.4c-0.5-0.2-0.8-0.3-0.9-0.3l-2.3,6.3c0.1,0,0.3,0.1,0.7,0.3c0.4,0.1,0.6,0.2,0.9,0.3s0.6,0.2,1,0.3
	c0.4,0.1,0.8,0.2,1.1,0.3c0.3,0.1,0.7,0.2,1.1,0.2c0.4,0.1,0.8,0.1,1.1,0.1s0.7,0,1-0.1c0.4-0.1,0.7-0.2,0.9-0.3
	c0.3-0.1,0.5-0.3,0.7-0.6C185.2,44.2,185.4,43.9,185.5,43.5z M187.4,34.2c0.1-0.4,0.2-0.8,0.2-1.2c0-0.4-0.1-0.7-0.3-1
	s-0.4-0.6-0.7-0.8c-0.3-0.3-0.6-0.5-0.9-0.7s-0.6-0.4-1.1-0.6c-0.4-0.2-0.8-0.3-1-0.4s-0.6-0.2-1-0.3c-0.4-0.1-0.6-0.2-0.7-0.3
	l-2.1,5.7c0.1,0,0.3,0.1,0.6,0.2c0.4,0.1,0.6,0.2,0.9,0.3c0.2,0.1,0.5,0.2,0.9,0.3c0.4,0.1,0.8,0.2,1,0.3c0.3,0,0.6,0.1,1,0.1
	s0.7,0,1,0c0.3-0.1,0.6-0.1,0.9-0.3c0.3-0.1,0.5-0.3,0.8-0.5C187.1,34.8,187.3,34.5,187.4,34.2z"/>
<g id="Oval_5_">
	
		<image style="overflow:visible;opacity:0.3;" width="89" height="90" xlink:href="C3DFE3F1519B4DA.png"  transform="matrix(1 0 0 1 242 45)">
	</image>
	<g>
		<ellipse class="st0" cx="286.5" cy="90" rx="28.8" ry="29.7"/>
	</g>
</g>
<linearGradient id="Combined-Shape_6_" gradientUnits="userSpaceOnUse" x1="278.2302" y1="89.9778" x2="294.7727" y2="89.9778">
	<stop  offset="0" style="stop-color:#00CCFF"/>
	<stop  offset="1" style="stop-color:#00FFCC"/>
</linearGradient>
<path id="Combined-Shape_3_" class="st5" d="M278.2,90.2l8.3-14.1l8.3,14.1l-8.3,5l-5.6-3.4L278.2,90.2L278.2,90.2z M286.5,96.8
	l8.3-5l-8.3,11.9l-8.3-11.9L286.5,96.8L286.5,96.8z"/>
<g id="Oval_6_">
	
		<image style="overflow:visible;opacity:0.3;" width="89" height="90" xlink:href="C3DFE3F1519B4D8.png"  transform="matrix(1 0 0 1 239 238)">
	</image>
	<g>
		<ellipse class="st0" cx="283.6" cy="282.8" rx="28.8" ry="29.7"/>
	</g>
</g>
<linearGradient id="Path-2_1_" gradientUnits="userSpaceOnUse" x1="273.0047" y1="282.8123" x2="294.2426" y2="282.8123">
	<stop  offset="0" style="stop-color:#00CCFF"/>
	<stop  offset="1" style="stop-color:#00FFCC"/>
</linearGradient>
<polygon id="Path-2" class="st6" points="273.5,286.6 277,284.1 279.9,268.9 285.8,268.9 283.9,279.5 291.8,274 290.8,278.5 
	282.9,284.1 281.4,291.7 294.2,291.7 293.3,296.7 274.5,296.7 276,288.6 273,290.6 "/>
<g id="Oval_7_">
	
		<image style="overflow:visible;opacity:0.3;" width="88" height="90" xlink:href="C3DFE3F1519B51C.png"  transform="matrix(1 0 0 1 136 278)">
	</image>
	<g>
		<ellipse class="st0" cx="180" cy="323.2" rx="28.8" ry="29.7"/>
	</g>
</g>
<g id="Oval_8_">
	
		<image style="overflow:visible;opacity:0.3;" width="89" height="90" xlink:href="C3DFE3F1519B521.png"  transform="matrix(1 0 0 1 32 40)">
	</image>
	<g>
		<ellipse class="st2" cx="76.4" cy="84.8" rx="28.8" ry="29.5"/>
	</g>
</g>
<g>
	<linearGradient id="SVGID_1_" gradientUnits="userSpaceOnUse" x1="72.4482" y1="86.1674" x2="81.1279" y2="86.1674">
		<stop  offset="0" style="stop-color:#00CCFF"/>
		<stop  offset="1" style="stop-color:#00FFCC"/>
	</linearGradient>
	<polygon class="st7" points="72.4,86.2 76.7,90.4 81.1,86.3 76.7,81.9 	"/>
	<linearGradient id="SVGID_2_" gradientUnits="userSpaceOnUse" x1="85.3185" y1="86.0029" x2="93.5335" y2="86.0029">
		<stop  offset="0" style="stop-color:#00CCFF"/>
		<stop  offset="1" style="stop-color:#00FFCC"/>
	</linearGradient>
	<polygon class="st8" points="89,90 93.5,85.5 90,82 85.3,86.4 	"/>
	<linearGradient id="SVGID_3_" gradientUnits="userSpaceOnUse" x1="59.885" y1="86.0366" x2="68.3211" y2="86.0366">
		<stop  offset="0" style="stop-color:#00CCFF"/>
		<stop  offset="1" style="stop-color:#00FFCC"/>
	</linearGradient>
	<polygon class="st9" points="64,81.8 59.9,85.9 64.2,90.2 68.3,86.2 	"/>
	<linearGradient id="SVGID_4_" gradientUnits="userSpaceOnUse" x1="66.0102" y1="76.6066" x2="87.9769" y2="76.6066">
		<stop  offset="0" style="stop-color:#00CCFF"/>
		<stop  offset="1" style="stop-color:#00FFCC"/>
	</linearGradient>
	<polygon class="st10" points="76.7,77.9 83.3,84.3 88,79.9 76.9,68.9 66,79.8 70.4,84.1 	"/>
	<linearGradient id="SVGID_5_" gradientUnits="userSpaceOnUse" x1="66.2448" y1="95.3606" x2="86.9593" y2="95.3606">
		<stop  offset="0" style="stop-color:#00CCFF"/>
		<stop  offset="1" style="stop-color:#00FFCC"/>
	</linearGradient>
	<polygon class="st11" points="76.7,94.4 70.4,88.2 66.2,92.3 76.5,102.5 87,92.1 83.2,88.3 	"/>
</g>
<g id="Oval_1_">
	
		<image style="overflow:visible;opacity:0.3;" width="88" height="91" xlink:href="C3DFE3F1519B522.png"  transform="matrix(1 0 0 1 280 138)">
	</image>
	<g>
		<ellipse class="st0" cx="323.9" cy="183.5" rx="28.8" ry="29.7"/>
	</g>
</g>
<g>
	<g>
		<linearGradient id="SVGID_6_" gradientUnits="userSpaceOnUse" x1="307.7333" y1="183.452" x2="316.9475" y2="183.452">
			<stop  offset="0" style="stop-color:#00CCFF"/>
			<stop  offset="1" style="stop-color:#00FFCC"/>
		</linearGradient>
		<path class="st12" d="M313.1,189.3c-0.9-1.8-1.4-3.8-1.4-5.8s0.5-4,1.4-5.8c0.9-1.8,2.2-3.3,3.8-4.5h-9.2v20.6h9.2
			C315.3,192.6,314,191.1,313.1,189.3z"/>
		<linearGradient id="SVGID_7_" gradientUnits="userSpaceOnUse" x1="330.7799" y1="183.4576" x2="339.9941" y2="183.4576">
			<stop  offset="0" style="stop-color:#00CCFF"/>
			<stop  offset="1" style="stop-color:#00FFCC"/>
		</linearGradient>
		<path class="st13" d="M330.8,173.1c1.6,1.2,2.9,2.7,3.8,4.5c0.9,1.8,1.4,3.8,1.4,5.8c0,2-0.5,4-1.4,5.8c-0.9,1.8-2.2,3.3-3.8,4.5
			h9.2v-20.6H330.8z"/>
	</g>
	<g>
		<linearGradient id="SVGID_8_" gradientUnits="userSpaceOnUse" x1="322.1049" y1="181.5873" x2="325.0985" y2="181.5873">
			<stop  offset="0" style="stop-color:#00CCFF"/>
			<stop  offset="1" style="stop-color:#00FFCC"/>
		</linearGradient>
		<path class="st14" d="M324,182.6c0.1-0.1,0.3-0.1,0.3-0.2c0.1-0.1,0.2-0.1,0.3-0.2c0.1-0.1,0.2-0.2,0.3-0.3
			c0.1-0.1,0.1-0.2,0.2-0.3c0-0.1,0.1-0.2,0.1-0.3c0-0.1,0-0.2-0.1-0.4c-0.1-0.2-0.2-0.3-0.3-0.4c-0.1-0.1-0.2-0.2-0.3-0.2
			c-0.1,0-0.3-0.1-0.4,0c-0.2,0-0.3,0-0.4,0.1c-0.1,0-0.3,0.1-0.4,0.1c-0.2,0.1-0.3,0.1-0.4,0.2c-0.1,0-0.2,0.1-0.4,0.2
			c-0.1,0.1-0.2,0.1-0.3,0.1l1,2.1c0,0,0.1,0,0.2-0.1c0.1-0.1,0.2-0.1,0.3-0.1C323.7,182.7,323.8,182.6,324,182.6z"/>
		<linearGradient id="SVGID_9_" gradientUnits="userSpaceOnUse" x1="323.5744" y1="184.7706" x2="327.0864" y2="184.7706">
			<stop  offset="0" style="stop-color:#00CCFF"/>
			<stop  offset="1" style="stop-color:#00FFCC"/>
		</linearGradient>
		<path class="st15" d="M326.7,183.4c-0.1-0.1-0.3-0.2-0.4-0.2c-0.1,0-0.3,0-0.5,0c-0.2,0-0.4,0-0.5,0.1s-0.3,0.1-0.5,0.2
			c-0.2,0.1-0.4,0.1-0.5,0.2s-0.3,0.1-0.4,0.2c-0.2,0.1-0.3,0.1-0.3,0.2l1.1,2.3c0,0,0.1-0.1,0.2-0.1s0.2-0.1,0.3-0.1
			c0.1,0,0.2-0.1,0.3-0.2c0.1-0.1,0.3-0.1,0.4-0.2c0.1-0.1,0.2-0.1,0.4-0.2c0.1-0.1,0.2-0.2,0.3-0.3c0.1-0.1,0.2-0.2,0.3-0.3
			c0.1-0.1,0.1-0.2,0.2-0.3c0-0.1,0-0.2,0-0.3c0-0.1,0-0.3-0.1-0.4C326.9,183.7,326.8,183.5,326.7,183.4z"/>
		<linearGradient id="SVGID_10_" gradientUnits="userSpaceOnUse" x1="313.9398" y1="183.4576" x2="333.7876" y2="183.4576">
			<stop  offset="0" style="stop-color:#00CCFF"/>
			<stop  offset="1" style="stop-color:#00FFCC"/>
		</linearGradient>
		<path class="st16" d="M330.9,176.2c-1.9-1.9-4.4-3-7-3c-2.6,0-5.2,1.1-7,3c-1.9,1.9-2.9,4.6-2.9,7.3s1,5.4,2.9,7.3
			c1.9,1.9,4.4,3,7,3c2.6,0,5.2-1.1,7-3c1.9-1.9,2.9-4.6,2.9-7.3S332.7,178.1,330.9,176.2z M329.1,184.9c-0.1,0.2-0.3,0.5-0.5,0.7
			c-0.2,0.2-0.4,0.4-0.7,0.6s-0.6,0.4-0.9,0.6l0.8,1.7l-1,0.5l-0.8-1.7c-0.4,0.2-0.6,0.3-0.8,0.4l0.8,1.7l-1,0.5l-0.8-1.7
			c-0.1,0-0.2,0.1-0.4,0.2c-0.2,0.1-0.3,0.1-0.4,0.2l-1.3,0.6l-0.4-1.3l0.7-0.3c0.2-0.1,0.3-0.3,0.2-0.5l-1.3-2.7l0.1,0
			c0,0-0.1,0-0.1,0l-0.9-2c-0.2-0.3-0.5-0.3-0.8-0.2l-0.7,0.3l-0.5-1.1l1.4-0.7c0.3-0.1,0.5-0.2,0.6-0.3l-0.8-1.7l1-0.5l0.8,1.7
			c0.4-0.2,0.6-0.3,0.8-0.4l-0.8-1.7l1-0.5l0.8,1.7c0.4-0.1,0.7-0.2,1-0.3c0.3-0.1,0.6-0.1,0.9,0c0.3,0,0.6,0.1,0.8,0.3
			c0.2,0.2,0.4,0.4,0.6,0.7c0.5,0.8,0.4,1.5-0.1,2.2c0.6-0.1,1.1-0.1,1.5,0.2c0.4,0.2,0.7,0.7,1,1.3c0.1,0.3,0.2,0.7,0.2,1
			C329.3,184.3,329.2,184.6,329.1,184.9z"/>
	</g>
</g>
<g id="Oval_9_">
	
		<image style="overflow:visible;opacity:0.3;" width="88" height="90" xlink:href="C3DFE3F1519B523.png"  transform="matrix(1 0 0 1 251.0618 -84.1591)">
	</image>
	<g>
		<linearGradient id="SVGID_11_" gradientUnits="userSpaceOnUse" x1="266.3085" y1="-39.3093" x2="323.8637" y2="-39.3093">
			<stop  offset="0" style="stop-color:#00CCFF"/>
			<stop  offset="1" style="stop-color:#00FFCC"/>
		</linearGradient>
		<ellipse class="st17" cx="295.1" cy="-39.3" rx="28.8" ry="29.7"/>
	</g>
</g>
<g>
	<linearGradient id="path22_1_" gradientUnits="userSpaceOnUse" x1="164.9791" y1="318.0037" x2="195.0695" y2="318.0037">
		<stop  offset="0" style="stop-color:#00CCFF"/>
		<stop  offset="1" style="stop-color:#00FFCC"/>
	</linearGradient>
	<path id="path22" class="st18" d="M180,308.1c-8.3,0-15,6.7-15,15c0,1.7,0.3,3.3,0.8,4.8h4.5v-12.7l9.8,9.8l9.8-9.8v12.7h4.5
		c0.5-1.5,0.8-3.1,0.8-4.8C195.1,314.8,188.3,308.1,180,308.1"/>
	<linearGradient id="path26_1_" gradientUnits="userSpaceOnUse" x1="167.1682" y1="330.5992" x2="192.8795" y2="330.5992">
		<stop  offset="0" style="stop-color:#00CCFF"/>
		<stop  offset="1" style="stop-color:#00FFCC"/>
	</linearGradient>
	<path id="path26" class="st19" d="M173.5,323v8h-6.3c2.6,4.3,7.4,7.2,12.9,7.2s10.2-2.9,12.9-7.2h-6.3v-8l-6.5,6.5L173.5,323z"/>
</g>
</svg>
