<?xml version="1.0" encoding="utf-8"?>
<!-- Generator: Adobe Illustrator 22.1.0, SVG Export Plug-In . SVG Version: 6.00 Build 0)  -->
<svg version="1.1" id="Layer_1" xmlns="http://www.w3.org/2000/svg" xmlns:xlink="http://www.w3.org/1999/xlink" x="0px" y="0px"
	 viewBox="0 0 1200 1200" style="enable-background:new 0 0 1200 1200;" xml:space="preserve">
<style type="text/css">
	.st0{fill:#101921;stroke:url(#SVGID_1_);stroke-width:20;stroke-miterlimit:10;}
	.st1{fill:#00FFCC;}
</style>
<linearGradient id="SVGID_1_" gradientUnits="userSpaceOnUse" x1="140" y1="600" x2="1060" y2="600">
	<stop  offset="0" style="stop-color:#00CCFF"/>
	<stop  offset="1" style="stop-color:#00FFCC"/>
</linearGradient>
<circle class="st0" cx="600" cy="600" r="450"/>
<g id="Block-Explorer">
	<g id="THORCHAIN-COM-MAIN" transform="translate(-989.000000, -1545.000000)">
		<g id="Group-10" transform="translate(120.000000, 1405.000000)">
			<g id="_x16B1_">
				<g>
					<polygon id="path-1_12_" class="st1" points="1409.8,963.8 1353.4,963.8 1353.4,516.2 1409.8,516.2 1554,597.6 1554,659.2 
						1502.5,747.3 1584.6,963.8 1524.6,963.8 1443.1,744.3 1506.2,634.7 1409.8,580.2 					"/>
				</g>
				<g>
					<polygon id="path-1_1_" class="st1" points="1409.8,963.8 1353.4,963.8 1353.4,516.2 1409.8,516.2 1554,597.6 1554,659.2 
						1502.5,747.3 1584.6,963.8 1524.6,963.8 1443.1,744.3 1506.2,634.7 1409.8,580.2 					"/>
				</g>
			</g>
		</g>
	</g>
</g>
</svg>
