<svg xmlns="http://www.w3.org/2000/svg" xmlns:xlink="http://www.w3.org/1999/xlink" viewBox="0 0 2810.76 1540.82"><defs><style>.cls-1,.cls-49,.cls-51,.cls-59{opacity:0.5;}.cls-2{fill:url(#radial-gradient);}.cls-3{fill:url(#radial-gradient-2);}.cls-4{fill:url(#radial-gradient-3);}.cls-5{fill:url(#radial-gradient-4);}.cls-6{fill:url(#radial-gradient-5);}.cls-7{fill:url(#radial-gradient-6);}.cls-8{fill:url(#radial-gradient-7);}.cls-9{fill:url(#radial-gradient-8);}.cls-10{fill:url(#linear-gradient);}.cls-11{fill:url(#linear-gradient-2);}.cls-12{opacity:0.3;}.cls-13{fill:url(#radial-gradient-9);}.cls-14{fill:url(#radial-gradient-10);}.cls-15{fill:url(#linear-gradient-3);}.cls-16{fill:url(#linear-gradient-4);}.cls-17{fill:url(#linear-gradient-5);}.cls-18{fill:url(#radial-gradient-11);}.cls-19{fill:url(#radial-gradient-12);}.cls-20,.cls-37,.cls-51,.cls-59{fill:none;stroke-linecap:round;stroke-linejoin:round;}.cls-20,.cls-37{stroke-width:14px;}.cls-20{stroke:url(#radial-gradient-13);}.cls-21{fill:url(#radial-gradient-14);}.cls-22{fill:url(#radial-gradient-15);}.cls-23{fill:url(#linear-gradient-6);}.cls-24{fill:url(#radial-gradient-16);}.cls-25{fill:url(#radial-gradient-17);}.cls-26{fill:url(#radial-gradient-18);}.cls-27{fill:url(#linear-gradient-7);}.cls-28{fill:url(#radial-gradient-19);}.cls-29{fill:url(#linear-gradient-8);}.cls-30{fill:url(#radial-gradient-20);}.cls-31{fill:url(#radial-gradient-21);}.cls-32{fill:url(#linear-gradient-9);}.cls-33{fill:url(#linear-gradient-10);}.cls-34{fill:url(#radial-gradient-22);}.cls-35{fill:url(#linear-gradient-11);}.cls-36{fill:url(#radial-gradient-23);}.cls-37{stroke:url(#linear-gradient-12);}.cls-38{fill:url(#linear-gradient-13);}.cls-39{fill:url(#linear-gradient-14);}.cls-40{fill:url(#radial-gradient-24);}.cls-41{fill:url(#radial-gradient-25);}.cls-42{fill:url(#radial-gradient-26);}.cls-43{fill:url(#linear-gradient-15);}.cls-44{fill:url(#linear-gradient-16);}.cls-45{fill:url(#linear-gradient-17);}.cls-46{fill:url(#linear-gradient-18);}.cls-47{fill:url(#New_Gradient_Swatch_1);}.cls-48{fill:url(#New_Gradient_Swatch_1-2);}.cls-49{fill:#101921;stroke:#231f20;stroke-miterlimit:10;}.cls-50{fill:url(#New_Gradient_Swatch_1-3);}.cls-51,.cls-59{stroke-width:2px;}.cls-51{stroke:url(#linear-gradient-19);}.cls-52{fill:#fff;opacity:0.2;}.cls-53{fill:url(#linear-gradient-20);}.cls-54{fill:url(#linear-gradient-21);}.cls-55{fill:url(#linear-gradient-22);}.cls-56{fill:url(#New_Gradient_Swatch_1-4);}.cls-57{fill:url(#New_Gradient_Swatch_1-5);}.cls-58{fill:url(#New_Gradient_Swatch_1-6);}.cls-59{stroke:url(#linear-gradient-23);}</style><radialGradient id="radial-gradient" cx="2452.3" cy="695.4" r="106.03" gradientUnits="userSpaceOnUse"><stop offset="0" stop-color="#0fc"/><stop offset="0.54" stop-color="#0cf" stop-opacity="0.46"/><stop offset="1" stop-color="#101921" stop-opacity="0"/></radialGradient><radialGradient id="radial-gradient-2" cx="2115.37" cy="321.93" r="268.47" xlink:href="#radial-gradient"/><radialGradient id="radial-gradient-3" cx="1466.87" cy="42.85" r="264.76" xlink:href="#radial-gradient"/><radialGradient id="radial-gradient-4" cx="802.92" cy="278.87" r="268.6" xlink:href="#radial-gradient"/><radialGradient id="radial-gradient-5" cx="414.08" cy="761.29" r="199.56" xlink:href="#radial-gradient"/><radialGradient id="radial-gradient-6" cx="1729.49" cy="196.88" r="132.8" xlink:href="#radial-gradient"/><radialGradient id="radial-gradient-7" cx="1198.68" cy="232.5" r="268.16" xlink:href="#radial-gradient"/><radialGradient id="radial-gradient-8" cx="654.51" cy="619.76" r="247.91" xlink:href="#radial-gradient"/><linearGradient id="linear-gradient" x1="2093.82" y1="833.87" x2="2359.52" y2="833.87" xlink:href="#radial-gradient"/><linearGradient id="linear-gradient-2" x1="1137.76" y1="340.53" x2="2105.15" y2="340.53" gradientUnits="userSpaceOnUse"><stop offset="0" stop-color="#101921" stop-opacity="0"/><stop offset="0.54" stop-color="#0cf" stop-opacity="0.46"/><stop offset="1" stop-color="#0fc"/></linearGradient><radialGradient id="radial-gradient-9" cx="874.94" cy="476.53" r="256.94" xlink:href="#radial-gradient"/><radialGradient id="radial-gradient-10" cx="559.02" cy="891.74" r="138.19" xlink:href="#radial-gradient"/><linearGradient id="linear-gradient-3" x1="658.59" y1="499.17" x2="1718.05" y2="499.17" xlink:href="#radial-gradient"/><linearGradient id="linear-gradient-4" x1="570.66" y1="899.63" x2="669.93" y2="899.63" xlink:href="#linear-gradient-2"/><linearGradient id="linear-gradient-5" x1="2230.3" y1="969.26" x2="2295.55" y2="969.26" xlink:href="#radial-gradient"/><radialGradient id="radial-gradient-11" cx="1974.17" cy="563.82" r="264.31" xlink:href="#radial-gradient"/><radialGradient id="radial-gradient-12" cx="1026.25" cy="731.55" r="159.42" xlink:href="#radial-gradient"/><radialGradient id="radial-gradient-13" cx="853.84" cy="984.48" r="75.49" xlink:href="#radial-gradient"/><radialGradient id="radial-gradient-14" cx="1771.58" cy="639.36" r="97.25" xlink:href="#radial-gradient"/><radialGradient id="radial-gradient-15" cx="1421.11" cy="545.87" r="178.66" xlink:href="#radial-gradient"/><linearGradient id="linear-gradient-6" x1="1334.43" y1="697.06" x2="1733.32" y2="697.06" xlink:href="#linear-gradient-2"/><radialGradient id="radial-gradient-16" cx="1202.71" cy="736.79" r="118.82" xlink:href="#radial-gradient"/><radialGradient id="radial-gradient-17" cx="2319.78" cy="799.93" r="336.11" xlink:href="#radial-gradient"/><radialGradient id="radial-gradient-18" cx="2116.66" cy="325.35" r="44.05" xlink:href="#radial-gradient"/><linearGradient id="linear-gradient-7" x1="923.92" y1="179.76" x2="2081.22" y2="179.76" xlink:href="#linear-gradient-2"/><radialGradient id="radial-gradient-19" cx="843.74" cy="256.2" r="79.09" xlink:href="#radial-gradient"/><linearGradient id="linear-gradient-8" x1="382.19" y1="664.04" x2="763.56" y2="664.04" xlink:href="#radial-gradient"/><radialGradient id="radial-gradient-20" cx="1012.69" cy="583.79" r="295.07" xlink:href="#radial-gradient"/><radialGradient id="radial-gradient-21" cx="2150.73" cy="886.78" r="177.83" xlink:href="#radial-gradient"/><linearGradient id="linear-gradient-9" x1="1329.3" y1="489.91" x2="2081.22" y2="489.91" xlink:href="#radial-gradient"/><linearGradient id="linear-gradient-10" x1="1710.57" y1="641.01" x2="2110.26" y2="641.01" xlink:href="#radial-gradient"/><radialGradient id="radial-gradient-22" cx="1611.52" cy="420.05" r="81.36" xlink:href="#radial-gradient"/><linearGradient id="linear-gradient-11" x1="829.05" y1="544.8" x2="1512.46" y2="544.8" xlink:href="#radial-gradient"/><radialGradient id="radial-gradient-23" cx="769.48" cy="883.62" r="142.85" xlink:href="#radial-gradient"/><linearGradient id="linear-gradient-12" x1="2085.14" y1="1136.67" x2="2104.97" y2="1136.67" xlink:href="#linear-gradient-2"/><linearGradient id="linear-gradient-13" x1="1967.84" y1="898.55" x2="2101.51" y2="898.55" xlink:href="#linear-gradient-2"/><linearGradient id="linear-gradient-14" x1="1106.69" y1="592.5" x2="1979.18" y2="592.5" xlink:href="#linear-gradient-2"/><radialGradient id="radial-gradient-24" cx="1477.23" cy="676.21" r="271.47" xlink:href="#radial-gradient"/><radialGradient id="radial-gradient-25" cx="1054.13" cy="745.71" r="64.25" xlink:href="#radial-gradient"/><radialGradient id="radial-gradient-26" cx="946.59" cy="933.58" r="102.81" xlink:href="#radial-gradient"/><linearGradient id="linear-gradient-15" x1="1836.43" y1="864.67" x2="1951.21" y2="864.67" xlink:href="#radial-gradient"/><linearGradient id="linear-gradient-16" x1="2166.43" y1="1287.43" x2="2962.13" y2="1287.43" gradientTransform="matrix(-1, 0, 0, 1, 4603.2, 0)" gradientUnits="userSpaceOnUse"><stop offset="0" stop-color="#0fc" stop-opacity="0.5"/><stop offset="0.16" stop-color="#00fecd" stop-opacity="0.51"/><stop offset="0.32" stop-color="#00f9d2" stop-opacity="0.55"/><stop offset="0.49" stop-color="#00f3d8" stop-opacity="0.62"/><stop offset="0.65" stop-color="#00e9e2" stop-opacity="0.72"/><stop offset="0.82" stop-color="#0de" stop-opacity="0.84"/><stop offset="0.98" stop-color="#00cefd" stop-opacity="0.98"/><stop offset="1" stop-color="#0cf"/></linearGradient><linearGradient id="linear-gradient-17" x1="1979.43" y1="1540.81" x2="1979.43" y2="1278.56" gradientTransform="matrix(-1, 0, 0, 1, 4603.2, 0)" gradientUnits="userSpaceOnUse"><stop offset="0" stop-color="#0fc" stop-opacity="0"/><stop offset="0.12" stop-color="#00fecd" stop-opacity="0.02"/><stop offset="0.25" stop-color="#00fccf" stop-opacity="0.06"/><stop offset="0.37" stop-color="#00f8d3" stop-opacity="0.15"/><stop offset="0.5" stop-color="#00f2d9" stop-opacity="0.26"/><stop offset="0.63" stop-color="#00eae1" stop-opacity="0.41"/><stop offset="0.76" stop-color="#00e1ea" stop-opacity="0.58"/><stop offset="0.89" stop-color="#00d7f4" stop-opacity="0.79"/><stop offset="1" stop-color="#0cf"/></linearGradient><linearGradient id="linear-gradient-18" x1="2377.35" y1="817.91" x2="2377.35" y2="1497.15" gradientTransform="matrix(-1, 0, 0, 1, 4603.2, 0)" gradientUnits="userSpaceOnUse"><stop offset="0" stop-color="#0cf"/><stop offset="1" stop-color="#0fc" stop-opacity="0"/></linearGradient><linearGradient id="New_Gradient_Swatch_1" x1="2119.97" y1="1160.76" x2="2959.7" y2="1160.76" gradientTransform="matrix(-1, 0, 0, 1, 4603.2, 0)" gradientUnits="userSpaceOnUse"><stop offset="0" stop-color="#0fc"/><stop offset="1" stop-color="#0cf"/></linearGradient><linearGradient id="New_Gradient_Swatch_1-2" x1="2511.12" y1="866.55" x2="2514.66" y2="860.42" xlink:href="#New_Gradient_Swatch_1"/><linearGradient id="New_Gradient_Swatch_1-3" x1="2288.89" y1="995.22" x2="2468.41" y2="1306.15" xlink:href="#New_Gradient_Swatch_1"/><linearGradient id="linear-gradient-19" x1="1961.8" y1="1354.95" x2="2059.35" y2="1354.95" gradientTransform="matrix(-1, 0, 0, 1, 4603.2, 0)" xlink:href="#radial-gradient"/><linearGradient id="linear-gradient-20" x1="373.99" y1="1287.43" x2="1169.69" y2="1287.43" gradientTransform="matrix(1, 0, 0, 1, 0, 0)" xlink:href="#linear-gradient-16"/><linearGradient id="linear-gradient-21" x1="187" y1="1278.56" x2="187" y2="1540.81" gradientTransform="matrix(1, 0, 0, 1, 0, 0)" xlink:href="#linear-gradient-17"/><linearGradient id="linear-gradient-22" x1="0.14" y1="1157.53" x2="1169.69" y2="1157.53" gradientTransform="matrix(1, 0, 0, 1, 0, 0)" xlink:href="#linear-gradient-17"/><linearGradient id="New_Gradient_Swatch_1-4" x1="327.54" y1="1160.76" x2="1167.26" y2="1160.76" gradientTransform="matrix(1, 0, 0, 1, 0, 0)" xlink:href="#New_Gradient_Swatch_1"/><linearGradient id="New_Gradient_Swatch_1-5" x1="718.68" y1="866.55" x2="722.22" y2="860.42" gradientTransform="matrix(1, 0, 0, 1, 0, 0)" xlink:href="#New_Gradient_Swatch_1"/><linearGradient id="New_Gradient_Swatch_1-6" x1="496.46" y1="995.22" x2="675.97" y2="1306.15" gradientTransform="matrix(1, 0, 0, 1, 0, 0)" xlink:href="#New_Gradient_Swatch_1"/><linearGradient id="linear-gradient-23" x1="169.36" y1="1354.95" x2="266.92" y2="1354.95" xlink:href="#radial-gradient"/></defs><title>Thorchain_Other Features</title><g id="Layer_2" data-name="Layer 2"><g id="Layer_1-2" data-name="Layer 1"><g class="cls-1"><path class="cls-2" d="M2507,832.65a5.66,5.66,0,0,1-5.46-4.18,1102.13,1102.13,0,0,0-108.89-261.83,5.67,5.67,0,0,1,9.82-5.66,1113.87,1113.87,0,0,1,110,264.52,5.66,5.66,0,0,1-4,7A5.46,5.46,0,0,1,2507,832.65Z"/></g><g class="cls-1"><path class="cls-3" d="M2397.58,569.48a5.68,5.68,0,0,1-4.92-2.84A1111.74,1111.74,0,0,0,1831.12,85.33a5.67,5.67,0,0,1,4.08-10.57A1123.19,1123.19,0,0,1,2402.48,561a5.67,5.67,0,0,1-2.08,7.74A5.56,5.56,0,0,1,2397.58,569.48Z"/></g><path class="cls-4" d="M1833.16,85.71a5.62,5.62,0,0,1-2-.38,1113.34,1113.34,0,0,0-728.86-24,5.67,5.67,0,0,1-3.37-10.82A1119.51,1119.51,0,0,1,1432.18,0c139,0,274.55,25.15,403,74.76a5.66,5.66,0,0,1-2,10.95Z"/><path class="cls-5" d="M505.26,507.54a5.66,5.66,0,0,1-4.71-8.81A1121.82,1121.82,0,0,1,1098.89,50.46a5.67,5.67,0,1,1,3.37,10.82A1110.45,1110.45,0,0,0,510,505,5.69,5.69,0,0,1,505.26,507.54Z"/><g class="cls-1"><path class="cls-6" d="M322.91,1026.38l-.51,0a5.67,5.67,0,0,1-5.15-6.14,1113,1113,0,0,1,183.3-521.48A5.67,5.67,0,0,1,510,505,1101.4,1101.4,0,0,0,328.54,1021.2,5.67,5.67,0,0,1,322.91,1026.38Z"/></g><path class="cls-7" d="M1901.42,257.93a5.58,5.58,0,0,1-2.69-.69,970.79,970.79,0,0,0-341.89-110.12,5.66,5.66,0,0,1,1.42-11.24,981.92,981.92,0,0,1,345.87,111.4,5.67,5.67,0,0,1-2.71,10.65Z"/><path class="cls-8" d="M839.82,337.07a5.67,5.67,0,0,1-3.42-10.19,986.94,986.94,0,0,1,595.78-198.94,1005,1005,0,0,1,126.08,7.94,5.66,5.66,0,1,1-1.42,11.24,993.71,993.71,0,0,0-124.66-7.85,975.66,975.66,0,0,0-589,196.66A5.63,5.63,0,0,1,839.82,337.07Z"/><g class="cls-1"><path class="cls-9" d="M469.21,913.79a5.66,5.66,0,0,1-5.54-6.87c50.41-231,182.78-437,372.73-580a5.67,5.67,0,1,1,6.82,9.05C655.43,477.35,524.57,681,474.74,909.33A5.68,5.68,0,0,1,469.21,913.79Z"/></g><path class="cls-10" d="M2351.6,1189.93l-.4,0a5.65,5.65,0,0,1-5.25-6c1.48-21.36,2.24-43.1,2.24-64.62A912.81,912.81,0,0,0,2095.38,487.4a5.67,5.67,0,0,1,8.2-7.82,924.16,924.16,0,0,1,255.94,639.67c0,21.78-.76,43.79-2.27,65.4A5.68,5.68,0,0,1,2351.6,1189.93Z"/><path class="cls-11" d="M2099.48,489.15a5.69,5.69,0,0,1-4.1-1.75,917.94,917.94,0,0,0-296.32-207.73c-115.89-50.71-239.32-76.43-366.88-76.43a915,915,0,0,0-287,45.86,5.67,5.67,0,1,1-3.55-10.77,926.5,926.5,0,0,1,290.53-46.42c129.13,0,254.09,26,371.42,77.38a929.4,929.4,0,0,1,300,210.29,5.66,5.66,0,0,1-4.1,9.57Z"/><g class="cls-12"><path class="cls-13" d="M606.45,715a5.66,5.66,0,0,1-5.07-8.19,928.86,928.86,0,0,1,540.27-468.48,5.67,5.67,0,0,1,3.55,10.77A914.48,914.48,0,0,0,831.35,427.81,918.9,918.9,0,0,0,611.53,711.86,5.67,5.67,0,0,1,606.45,715Z"/></g><g class="cls-1"><path class="cls-14" d="M511.6,1079.82h-.28a5.67,5.67,0,0,1-5.39-5.93,922.4,922.4,0,0,1,95.45-367.07,5.67,5.67,0,1,1,10.15,5.05,910.93,910.93,0,0,0-94.28,362.56A5.67,5.67,0,0,1,511.6,1079.82Z"/></g><path class="cls-15" d="M664.26,742.46a5.73,5.73,0,0,1-2.53-.6,5.66,5.66,0,0,1-2.54-7.6A864.56,864.56,0,0,1,1714.23,303a5.67,5.67,0,1,1-3.7,10.71A852.57,852.57,0,0,0,669.33,739.32,5.66,5.66,0,0,1,664.26,742.46Z"/><g class="cls-1"><path class="cls-16" d="M576.33,1068.15l-.37,0a5.67,5.67,0,0,1-5.29-6,855.33,855.33,0,0,1,88.52-327.85,5.67,5.67,0,1,1,10.14,5.06A844.12,844.12,0,0,0,582,1062.85,5.66,5.66,0,0,1,576.33,1068.15Z"/></g><path class="cls-17" d="M2289.89,1124.92a5.67,5.67,0,0,1-5.67-5.67,849,849,0,0,0-53.56-298,5.66,5.66,0,0,1,10.61-4,860.26,860.26,0,0,1,54.28,302A5.67,5.67,0,0,1,2289.89,1124.92Z"/><g class="cls-1"><path class="cls-18" d="M2236,824.94a5.67,5.67,0,0,1-5.31-3.68,853.76,853.76,0,0,0-520.13-507.55,5.67,5.67,0,0,1,3.7-10.71,865.24,865.24,0,0,1,527,514.29,5.66,5.66,0,0,1-3.32,7.29A5.53,5.53,0,0,1,2236,824.94Z"/></g><g class="cls-1"><path class="cls-19" d="M876.06,894.46a5.57,5.57,0,0,1-2.17-.44,5.66,5.66,0,0,1-3.06-7.4A609.63,609.63,0,0,1,1174,569.19a5.66,5.66,0,0,1,4.82,10.25A598.31,598.31,0,0,0,881.3,891,5.69,5.69,0,0,1,876.06,894.46Z"/></g><path class="cls-20" d="M831.61,1080.16a598.67,598.67,0,0,1,44.45-191.37"/><path class="cls-21" d="M1877.37,719.94a5.64,5.64,0,0,1-4.19-1.85,597.75,597.75,0,0,0-209.59-148.42,5.66,5.66,0,1,1,4.4-10.44,608.57,608.57,0,0,1,213.57,151.24,5.65,5.65,0,0,1-4.19,9.47Z"/><g class="cls-12"><path class="cls-22" d="M1176.44,580a5.66,5.66,0,0,1-2.41-10.79,609.16,609.16,0,0,1,494-10,5.66,5.66,0,0,1-4.4,10.44,597.85,597.85,0,0,0-484.74,9.77A5.6,5.6,0,0,1,1176.44,580Z"/></g><path class="cls-23" d="M1727.65,754.41a5.67,5.67,0,0,1-3.53-1.24A466.22,466.22,0,0,0,1432.18,651a472,472,0,0,0-91,8.84,5.67,5.67,0,1,1-2.19-11.12,483.52,483.52,0,0,1,93.17-9,477.59,477.59,0,0,1,299,104.62,5.66,5.66,0,0,1-3.54,10.09Z"/><path class="cls-24" d="M1065.31,824.94a5.66,5.66,0,0,1-4.38-9.25A480.33,480.33,0,0,1,1339,648.75a5.67,5.67,0,0,1,2.19,11.12,469,469,0,0,0-271.5,163A5.66,5.66,0,0,1,1065.31,824.94Z"/><g class="cls-1"><path class="cls-25" d="M2475,1244.7a4.58,4.58,0,0,1-.64,0,5.66,5.66,0,0,1-5-6.27A1055.84,1055.84,0,0,0,2453.7,903,1038.51,1038.51,0,0,0,2288,521.25a1052.45,1052.45,0,0,0-134.15-156.34,5.67,5.67,0,1,1,7.84-8.18A1057.28,1057.28,0,0,1,2399.85,697.6a1049.27,1049.27,0,0,1,64.94,203,1066.82,1066.82,0,0,1,15.87,339A5.66,5.66,0,0,1,2475,1244.7Z"/></g><path class="cls-26" d="M2157.77,366.49a5.67,5.67,0,0,1-3.92-1.58,1055.07,1055.07,0,0,0-81.77-70.56,5.67,5.67,0,1,1,7-9,1065.37,1065.37,0,0,1,82.66,71.33,5.67,5.67,0,0,1-3.92,9.76Z"/><path class="cls-27" d="M2075.55,295.54a5.65,5.65,0,0,1-3.47-1.19A1043.41,1043.41,0,0,0,932.3,202.54a5.67,5.67,0,1,1-5.43-9.95A1054.16,1054.16,0,0,1,2079,285.4a5.67,5.67,0,0,1-3.48,10.14Z"/><path class="cls-28" d="M757.89,320.51a5.67,5.67,0,0,1-3.64-10A1059.44,1059.44,0,0,1,926.87,192.59a5.67,5.67,0,0,1,5.43,9.95A1048.21,1048.21,0,0,0,761.53,319.18,5.64,5.64,0,0,1,757.89,320.51Z"/><g class="cls-1"><path class="cls-29" d="M387.86,1018.9l-.57,0a5.67,5.67,0,0,1-5.07-6.2,1044.83,1044.83,0,0,1,119.67-392A1059.88,1059.88,0,0,1,754.25,310.5a5.66,5.66,0,1,1,7.28,8.68A1048.77,1048.77,0,0,0,511.88,626a1033.42,1033.42,0,0,0-118.39,387.8A5.66,5.66,0,0,1,387.86,1018.9Z"/></g><g class="cls-12"><path class="cls-30" d="M690.41,841.84a5.76,5.76,0,0,1-2-.37,5.67,5.67,0,0,1-3.27-7.32,800.22,800.22,0,0,1,649.16-508.36,5.66,5.66,0,0,1,1.38,11.24A788.92,788.92,0,0,0,695.71,838.19,5.68,5.68,0,0,1,690.41,841.84Z"/></g><g class="cls-1"><path class="cls-31" d="M2225.92,1124.92a5.67,5.67,0,0,1-5.67-5.67A784.41,784.41,0,0,0,2071,657.62a5.66,5.66,0,1,1,9.18-6.64,795.79,795.79,0,0,1,151.44,468.27A5.67,5.67,0,0,1,2225.92,1124.92Z"/></g><path class="cls-32" d="M2075.56,660a5.67,5.67,0,0,1-4.6-2.35,791.82,791.82,0,0,0-274.52-237.39,784.89,784.89,0,0,0-364.26-89.05,799.75,799.75,0,0,0-96.52,5.85,5.66,5.66,0,1,1-1.38-11.24,807,807,0,0,1,291.19,17.59,797.24,797.24,0,0,1,329.65,171.23,804.89,804.89,0,0,1,125,136.37,5.67,5.67,0,0,1-4.58,9Z"/><g class="cls-1"><path class="cls-33" d="M2104.6,840.86a5.66,5.66,0,0,1-5.22-3.46A726.71,726.71,0,0,0,1714,452.05a5.66,5.66,0,1,1,4.42-10.43A737.92,737.92,0,0,1,2109.81,833a5.65,5.65,0,0,1-3,7.42A5.55,5.55,0,0,1,2104.6,840.86Z"/></g><g class="cls-12"><path class="cls-34" d="M1716.24,452.5a5.57,5.57,0,0,1-2.21-.45,719.55,719.55,0,0,0-207.81-53.16,5.66,5.66,0,1,1,1.15-11.27,730.56,730.56,0,0,1,211.08,54,5.66,5.66,0,0,1-2.21,10.88Z"/></g><path class="cls-35" d="M834.71,705.78a5.66,5.66,0,0,1-4.63-8.92,741.61,741.61,0,0,1,257.57-227.51,732.24,732.24,0,0,1,344.53-85.53,747,747,0,0,1,75.19,3.8,5.66,5.66,0,1,1-1.15,11.27,735.76,735.76,0,0,0-74-3.74A723.26,723.26,0,0,0,839.35,703.37,5.67,5.67,0,0,1,834.71,705.78Z"/><g class="cls-1"><path class="cls-36" d="M704.26,1072.78h-.41a5.66,5.66,0,0,1-5.25-6A733,733,0,0,1,830.08,696.86a5.66,5.66,0,0,1,9.27,6.51A721.72,721.72,0,0,0,709.9,1067.51,5.66,5.66,0,0,1,704.26,1072.78Z"/></g><path class="cls-37" d="M2095.84,1065.54q2.11,26.58,2.13,53.71a672,672,0,0,1-5.83,88.55"/><path class="cls-38" d="M2095.83,1071.21a5.67,5.67,0,0,1-5.64-5.22,657.86,657.86,0,0,0-121.28-331.14,5.66,5.66,0,1,1,9.2-6.6,669.18,669.18,0,0,1,123.38,336.84,5.67,5.67,0,0,1-5.2,6.1Z"/><g class="cls-1"><path class="cls-39" d="M1973.51,737.22a5.65,5.65,0,0,1-4.6-2.37,666,666,0,0,0-230.35-200.48,659.91,659.91,0,0,0-623.48,5.76,5.66,5.66,0,0,1-5.45-9.93,671.3,671.3,0,0,1,634.19-5.86,677.24,677.24,0,0,1,234.29,203.91,5.67,5.67,0,0,1-4.6,9Z"/></g><path class="cls-40" d="M1842.1,776.68a5.65,5.65,0,0,1-4.32-2,534.19,534.19,0,0,0-178.47-136.87,531.68,531.68,0,0,0-543.58,53.51,5.67,5.67,0,0,1-6.74-9.11A542.83,542.83,0,0,1,1763,688a548.07,548.07,0,0,1,83.45,79.4,5.67,5.67,0,0,1-4.32,9.33Z"/><g class="cls-1"><path class="cls-41" d="M995.89,810.31a5.59,5.59,0,0,1-3.31-1.08,5.66,5.66,0,0,1-1.28-7.91A545.75,545.75,0,0,1,1109,682.22a5.67,5.67,0,0,1,6.74,9.11A534.28,534.28,0,0,0,1000.49,808,5.67,5.67,0,0,1,995.89,810.31Z"/></g><g class="cls-1"><path class="cls-42" d="M897.29,1068.19l-.59,0a5.66,5.66,0,0,1-5.05-6.23A542.38,542.38,0,0,1,991.3,801.32a5.67,5.67,0,0,1,9.19,6.64,530.84,530.84,0,0,0-97.57,255.16A5.66,5.66,0,0,1,897.29,1068.19Z"/></g><path class="cls-43" d="M1945.54,964a5.65,5.65,0,0,1-5.4-4,528.46,528.46,0,0,0-102.36-185.31,5.67,5.67,0,0,1,8.64-7.34A539.89,539.89,0,0,1,1951,956.62a5.67,5.67,0,0,1-3.72,7.1A5.83,5.83,0,0,1,1945.54,964Z"/><path class="cls-44" d="M1641.08,1034c-.12,13,8.32,26,25.36,35.91l707.92,412.39c17,9.88,39.36,14.82,61.77,14.82h.64v43.68c-22.62.09-45.25-4.84-62.4-14.81l-707.93-412.39c-16.09-9.35-24.52-21.48-25.31-33.75h-.06V1034Z"/><path class="cls-45" d="M2802.15,1302.59c6.2-7.56,9-15.83,8.39-24h.22l-.26,43.23a.78.78,0,0,1,0,.16c1.17,13.84-7.39,27.92-25.67,38.48L2498.05,1526c-16.94,9.78-39.1,14.71-61.28,14.8V1497.2c22.18-.1,44.34-5,61.28-14.82l286.8-165.58c.85-.49,1.67-1,2.47-1.49v0A60.37,60.37,0,0,0,2802.15,1302.59Z"/><path class="cls-46" d="M2436.13,1497.15c-22.41,0-44.77-4.94-61.77-14.82l-707.92-412.39c-17.06-9.91-25.51-22.94-25.37-36a30.06,30.06,0,0,1,1.18-8c.21-.76.46-1.52.74-2.27,3.4-9.32,11.36-18.19,23.87-25.41L1740,956.06l2.33-1.35,107.09-61.83,2.33-1.34,101.87-58.82c1.75-1,3.57-2,5.43-2.89.85-.41,1.71-.81,2.57-1.2,15.81-7.15,34.88-10.72,53.93-10.72a148.48,148.48,0,0,1,20.93,1.46c1.23.17,2.44.36,3.66.57,13.62,2.3,26.45,6.56,37.14,12.77l76.76,44.72,2.31,1.34,106.27,61.91L2265,942l106.27,61.91,2.31,1.35,106.26,61.9,2.32,1.35,106.26,61.9,2.32,1.34L2697,1193.68l2.31,1.34,86,50.09a61.77,61.77,0,0,1,16.86,13.81c.5.61,1,1.22,1.44,1.84,9.88,13.33,9.41,28.66-1.4,41.83a62.45,62.45,0,0,1-17.3,14.16l-286.8,165.58c-16.94,9.78-39.1,14.72-61.28,14.81h-.64M2203,931.34l-23.89-13.89h0l-66.42-38.6-18.83-10.94-7-4.1h0L1777.29,1042.5h0l-47.46,27.4,120.91,70.26,261.92,152.22h0l66.42,38.6,95.91,55.73h0l87.32,50.75,357-206.09L2203,931.34"/><path class="cls-47" d="M1668.87,1070.8l707.92,412.39c28.72,16.69,72.81,19.29,106.43,7.76-32.45,8.77-72.28,5.41-98.89-10.06L1676.4,1068.5c-34-19.75-33.8-51.88.42-71.63l286.8-165.59a98.1,98.1,0,0,1,17.29-7.76,104,104,0,0,0-24.83,10.07L1669.29,999.17c-34.22,19.75-34.41,51.89-.42,71.63Z"/><polyline class="cls-48" points="2093.83 865.53 2086.78 861.44 2093.83 865.53"/><path class="cls-49" d="M1809,965c-4,2.28-4,6,0,8.26a15.72,15.72,0,0,0,14.26,0l63.16-36.47c3.95-2.28,4-6,0-8.26a15.74,15.74,0,0,0-14.27,0L1809,965Z"/><path class="cls-49" d="M1899.55,912.68c-4,2.28-4,6,0,8.26a15.72,15.72,0,0,0,14.26,0c4-2.28,4-6,0-8.26a15.74,15.74,0,0,0-14.27,0Z"/><polygon class="cls-50" points="1729.83 1069.95 1777.29 1042.55 2086.78 863.87 2093.83 867.96 2112.66 878.9 2112.66 878.9 2179.08 917.5 2202.97 931.39 2274.99 973.24 2274.99 973.24 2719.26 1231.42 2362.31 1437.51 2274.99 1386.77 2274.99 1386.76 2179.08 1331.03 2179.08 1331.03 2112.66 1292.43 1850.74 1140.21 1777.29 1097.53 1777.29 1097.53 1729.83 1069.95"/><path class="cls-51" d="M2592.48,1381.31c13.07,0,25.32-2.92,34.48-8.21,8.66-5,13.43-11.46,13.44-18.21s-4.69-13.13-13.23-18.09c-9.1-5.29-21.32-8.2-34.39-8.2s-25.33,2.91-34.5,8.2c-8.65,5-13.43,11.47-13.44,18.22s4.69,13.12,13.22,18.07c9.11,5.3,21.33,8.22,34.42,8.22Z"/><polyline class="cls-52" points="2112.66 1292.43 2112.66 878.9 2093.83 867.96 2086.78 863.87 1777.29 1042.55 1777.29 1097.53 1850.74 1140.21 2112.66 1292.43"/><polyline class="cls-52" points="2274.99 1386.77 2274.99 973.24 2202.97 931.39 2179.08 917.5 2179.08 1331.03 2274.99 1386.76"/><path class="cls-53" d="M1169.69,1034c.11,13-8.33,26-25.36,35.91L436.4,1482.33c-17,9.88-39.36,14.82-61.77,14.82H374v43.68c22.62.09,45.25-4.84,62.41-14.81l707.92-412.39c16.09-9.35,24.52-21.48,25.31-33.75h.06V1034Z"/><path class="cls-54" d="M8.61,1302.59c-6.2-7.56-9-15.83-8.39-24H0l.26,43.23s0,.1,0,.16c-1.17,13.84,7.39,27.92,25.67,38.48L312.71,1526c16.94,9.78,39.1,14.71,61.28,14.8V1497.2c-22.18-.1-44.34-5-61.28-14.82L25.91,1316.8c-.85-.49-1.67-1-2.47-1.49v0A60.37,60.37,0,0,1,8.61,1302.59Z"/><path class="cls-55" d="M374.63,1497.15H374c-22.18-.09-44.34-5-61.28-14.81L25.91,1316.75a62.45,62.45,0,0,1-17.3-14.16c-10.81-13.17-11.28-28.5-1.4-41.83.46-.62.94-1.23,1.44-1.84a61.77,61.77,0,0,1,16.86-13.81l86-50.09,2.31-1.34,106.27-61.91,2.31-1.34,106.26-61.9,2.32-1.35,106.26-61.9,2.31-1.35L545.79,942l2.31-1.34,106.27-61.91,2.31-1.34,76.76-44.72c10.69-6.21,23.52-10.47,37.14-12.77,1.22-.21,2.43-.4,3.66-.57a148.48,148.48,0,0,1,20.93-1.46c19.05,0,38.12,3.57,53.93,10.72.87.39,1.72.79,2.57,1.2,1.86.92,3.68,1.88,5.43,2.89L959,891.54l2.33,1.34,107.09,61.83,2.33,1.35,73.18,42.25c12.51,7.22,20.47,16.09,23.87,25.41.28.75.53,1.51.74,2.27a30.06,30.06,0,0,1,1.18,8c.14,13-8.31,26-25.36,36L436.4,1482.33c-17,9.88-39.36,14.82-61.77,14.82M607.79,931.34l-516.29,300,357,206.09,87.32-50.75h0L631.68,1331l66.42-38.6h0L960,1140.16l120.91-70.26-47.46-27.4h0L724,863.81h0l-7.05,4.1L698.1,878.85l-66.42,38.6h0l-23.89,13.89"/><path class="cls-56" d="M1141.9,1070.8,434,1483.19c-28.72,16.69-72.81,19.29-106.43,7.76,32.45,8.77,72.28,5.41,98.89-10.06l707.93-412.39c34-19.75,33.8-51.88-.42-71.63L847.14,831.28a98.1,98.1,0,0,0-17.29-7.76,104,104,0,0,1,24.83,10.07l286.79,165.58c34.22,19.75,34.41,51.89.43,71.63Z"/><polyline class="cls-57" points="716.93 865.53 723.98 861.44 716.93 865.53"/><path class="cls-49" d="M1001.76,965c4,2.28,4,6,0,8.26a15.72,15.72,0,0,1-14.26,0l-63.16-36.47c-4-2.28-4-6,0-8.26a15.74,15.74,0,0,1,14.27,0L1001.76,965Z"/><path class="cls-49" d="M911.21,912.68c3.95,2.28,4,6,0,8.26a15.72,15.72,0,0,1-14.26,0c-4-2.28-4-6,0-8.26a15.72,15.72,0,0,1,14.26,0Z"/><polygon class="cls-58" points="1080.93 1069.95 1033.47 1042.55 723.98 863.87 716.93 867.96 698.1 878.9 698.1 878.9 631.68 917.5 607.79 931.39 535.77 973.24 535.77 973.24 91.5 1231.42 448.45 1437.51 535.77 1386.77 535.77 1386.76 631.68 1331.03 631.68 1331.03 698.1 1292.43 960.02 1140.21 1033.47 1097.53 1033.47 1097.53 1080.93 1069.95"/><path class="cls-59" d="M218.28,1381.31c-13.07,0-25.32-2.92-34.48-8.21-8.66-5-13.43-11.46-13.44-18.21s4.69-13.13,13.24-18.09c9.09-5.29,21.31-8.2,34.38-8.2s25.34,2.91,34.5,8.2c8.65,5,13.43,11.47,13.44,18.22s-4.69,13.12-13.22,18.07c-9.11,5.3-21.33,8.22-34.41,8.22Z"/><polyline class="cls-52" points="698.1 1292.43 698.1 878.9 716.93 867.96 723.98 863.87 1033.47 1042.55 1033.47 1097.53 960.02 1140.21 698.1 1292.43"/><polyline class="cls-52" points="535.77 1386.77 535.77 973.24 607.79 931.39 631.68 917.5 631.68 1331.03 535.77 1386.76"/></g></g></svg>