<svg xmlns="http://www.w3.org/2000/svg" xmlns:xlink="http://www.w3.org/1999/xlink" viewBox="0 0 2131.66 2275.98"><defs><style>.cls-1{fill:url(#New_Gradient_Swatch_1);}.cls-2{fill:url(#New_Gradient_Swatch_1-2);}.cls-3{fill:url(#New_Gradient_Swatch_1-3);}.cls-4{fill:url(#New_Gradient_Swatch_1-4);}.cls-5{fill:url(#New_Gradient_Swatch_1-5);}</style><linearGradient id="New_Gradient_Swatch_1" y1="1065.83" x2="2131.66" y2="1065.83" gradientUnits="userSpaceOnUse"><stop offset="0" stop-color="#0fc"/><stop offset="1" stop-color="#0cf"/></linearGradient><linearGradient id="New_Gradient_Swatch_1-2" x1="1606.68" y1="1065.98" x2="524.68" y2="1065.98" xlink:href="#New_Gradient_Swatch_1"/><linearGradient id="New_Gradient_Swatch_1-3" x1="2112.68" y1="511.98" x2="1802.68" y2="511.98" xlink:href="#New_Gradient_Swatch_1"/><linearGradient id="New_Gradient_Swatch_1-4" x1="320.68" y1="511.98" x2="10.68" y2="511.98" xlink:href="#New_Gradient_Swatch_1"/><linearGradient id="New_Gradient_Swatch_1-5" x1="1224.68" y1="2120.98" x2="914.68" y2="2120.98" xlink:href="#New_Gradient_Swatch_1"/></defs><title>Thorchain_Organisation</title><g id="Layer_2" data-name="Layer 2"><g id="Layer_1-2" data-name="Layer 1"><path class="cls-1" d="M1065.83,2131.66c-143.88,0-283.46-28.18-414.87-83.76a1069.5,1069.5,0,0,1-567.2-567.2C28.18,1349.29,0,1209.71,0,1065.83S28.18,782.37,83.76,651A1069.5,1069.5,0,0,1,651,83.76C782.37,28.18,922,0,1065.83,0S1349.3,28.18,1480.7,83.76A1069.5,1069.5,0,0,1,2047.9,651c55.58,131.41,83.76,271,83.76,414.87s-28.18,283.46-83.76,414.87a1069.5,1069.5,0,0,1-567.2,567.2C1349.3,2103.48,1209.71,2131.66,1065.83,2131.66Zm0-2110.66c-141,0-277.89,27.62-406.69,82.1a1048.53,1048.53,0,0,0-556,556C48.62,787.94,21,924.77,21,1065.83s27.62,277.89,82.1,406.69a1048.53,1048.53,0,0,0,556,556c128.8,54.48,265.64,82.1,406.69,82.1s277.89-27.62,406.69-82.1a1048.53,1048.53,0,0,0,556-556c54.48-128.8,82.1-265.63,82.1-406.69s-27.62-277.89-82.1-406.69a1048.53,1048.53,0,0,0-556-556C1343.72,48.62,1206.89,21,1065.83,21Z"/><circle class="cls-2" cx="1065.68" cy="1065.98" r="541"/><circle class="cls-3" cx="1957.68" cy="511.98" r="155"/><circle class="cls-4" cx="165.68" cy="511.98" r="155"/><circle class="cls-5" cx="1069.68" cy="2120.98" r="155"/></g></g></svg>