<svg xmlns="http://www.w3.org/2000/svg" xmlns:xlink="http://www.w3.org/1999/xlink" viewBox="0 0 1364.41 343.14"><defs><style>.cls-1,.cls-2{fill:#fff;}.cls-1{fill-rule:evenodd;}.cls-3{fill:#eceeef;}.cls-4{fill:url(#linear-gradient);}.cls-5{fill:url(#linear-gradient-2);}.cls-6{fill:url(#linear-gradient-3);}.cls-7{fill:url(#linear-gradient-4);}.cls-8{fill:url(#linear-gradient-5);}.cls-9{fill:url(#linear-gradient-6);}.cls-10{fill:url(#linear-gradient-7);}.cls-11{fill:url(#linear-gradient-8);}.cls-12{fill:url(#linear-gradient-9);}.cls-13{fill:url(#linear-gradient-10);}.cls-14{fill:url(#linear-gradient-11);}.cls-15{fill:url(#linear-gradient-12);}.cls-16{fill:url(#linear-gradient-13);}.cls-17{fill:url(#linear-gradient-14);}.cls-18{fill:#dcffff;}.cls-19{fill:#4e6376;}.cls-20{fill:url(#New_Gradient_Swatch_1);}.cls-21{fill:url(#New_Gradient_Swatch_1-2);}.cls-22{fill:url(#New_Gradient_Swatch_1-3);}</style><linearGradient id="linear-gradient" x1="311.78" y1="343.14" x2="311.78" y2="195.76" gradientUnits="userSpaceOnUse"><stop offset="0" stop-color="#4e6376"/><stop offset="1" stop-color="#0cf"/></linearGradient><linearGradient id="linear-gradient-2" x1="663.73" y1="343.14" x2="663.73" y2="195.76" xlink:href="#linear-gradient"/><linearGradient id="linear-gradient-3" x1="1015.68" y1="343.14" x2="1015.68" y2="195.76" xlink:href="#linear-gradient"/><linearGradient id="linear-gradient-4" x1="1158.53" y1="203.76" x2="1158.53" y2="56.38" gradientUnits="userSpaceOnUse"><stop offset="0" stop-color="#0cf"/><stop offset="1" stop-color="#fff"/></linearGradient><linearGradient id="linear-gradient-5" x1="806.58" y1="203.76" x2="806.58" y2="56.38" xlink:href="#linear-gradient-4"/><linearGradient id="linear-gradient-6" x1="454.63" y1="203.76" x2="454.63" y2="56.38" xlink:href="#linear-gradient-4"/><linearGradient id="linear-gradient-7" x1="-6532.69" y1="203.76" x2="-6532.69" y2="56.38" gradientTransform="matrix(-1.1, 0, 0, 1, -6340.37, 0)" xlink:href="#linear-gradient-4"/><linearGradient id="linear-gradient-8" x1="1158.23" y1="203.76" x2="1158.23" y2="56.38" xlink:href="#linear-gradient-4"/><linearGradient id="linear-gradient-9" x1="-6853.42" y1="203.76" x2="-6853.42" y2="56.38" gradientTransform="matrix(-1.1, 0, 0, 1, -6340.37, 0)" xlink:href="#linear-gradient-4"/><linearGradient id="linear-gradient-10" x1="454.33" y1="203.76" x2="454.33" y2="56.38" xlink:href="#linear-gradient-4"/><linearGradient id="linear-gradient-11" x1="-6211.4" y1="203.76" x2="-6211.4" y2="56.39" gradientTransform="matrix(-1.1, 0, 0, 1, -6340.37, 0)" xlink:href="#linear-gradient-4"/><linearGradient id="linear-gradient-12" x1="-6528.72" y1="343.14" x2="-6528.72" y2="195.76" gradientTransform="matrix(-1.05, 0, 0, 1, -6195.91, 0)" xlink:href="#linear-gradient"/><linearGradient id="linear-gradient-13" x1="-6864.43" y1="343.14" x2="-6864.43" y2="195.76" gradientTransform="matrix(-1.05, 0, 0, 1, -6195.91, 0)" xlink:href="#linear-gradient"/><linearGradient id="linear-gradient-14" x1="-6193.01" y1="343.14" x2="-6193.01" y2="195.76" gradientTransform="matrix(-1.05, 0, 0, 1, -6195.91, 0)" xlink:href="#linear-gradient"/><linearGradient id="New_Gradient_Swatch_1" y1="199.76" x2="1364.41" y2="199.76" gradientUnits="userSpaceOnUse"><stop offset="0" stop-color="#0fc"/><stop offset="1" stop-color="#0cf"/></linearGradient><linearGradient id="New_Gradient_Swatch_1-2" x1="1.01" y1="199.76" x2="1364.41" y2="199.76" xlink:href="#New_Gradient_Swatch_1"/><linearGradient id="New_Gradient_Swatch_1-3" x1="0" y1="199.76" x2="1364.41" y2="199.76" xlink:href="#New_Gradient_Swatch_1"/></defs><title>Thorchain_Asset 30</title><g id="Layer_2" data-name="Layer 2"><g id="Layer_1-2" data-name="Layer 1"><path class="cls-1" d="M32.23,25.51a3.65,3.65,0,0,1-.46.95,2.79,2.79,0,0,1-.74.71,7.49,7.49,0,0,1-.89.5,7.3,7.3,0,0,1-1.05.33c-.41.09-.76.16-1.07.2s-.68.07-1.1.1l-1,0h-1.6v-8l.89,0c.5,0,.9,0,1.22,0s.74,0,1.3.07a10.08,10.08,0,0,1,1.39.21,7.69,7.69,0,0,1,1.23.44,3.39,3.39,0,0,1,1.08.72,3.52,3.52,0,0,1,.7,1.1,3.82,3.82,0,0,1,.28,1.52A3.89,3.89,0,0,1,32.23,25.51ZM24.32,10.16h.89l1.22,0a9.58,9.58,0,0,1,1.3.07,9.84,9.84,0,0,1,1.39.21,6.34,6.34,0,0,1,1.24.43,3.25,3.25,0,0,1,1.08.73,3.7,3.7,0,0,1,.69,1.1,3.83,3.83,0,0,1,.28,1.53,4,4,0,0,1-.2,1.33,2.45,2.45,0,0,1-.61,1,6.67,6.67,0,0,1-.83.71,3.5,3.5,0,0,1-1.1.48c-.44.12-.83.22-1.16.29a7.49,7.49,0,0,1-1.24.14l-1.12.06h-1l-.78,0v-8Zm13.21,10A6,6,0,0,0,34,17.79q3-1.75,2.65-6a6.43,6.43,0,0,0-.74-2.64,5,5,0,0,0-1.66-1.81,8.8,8.8,0,0,0-2.29-1,16,16,0,0,0-2.82-.52V0H26V5.66c-.54,0-1.36,0-2.47,0V0H20.44V5.82c-.44,0-1.1,0-2,0l-4.28,0V9.61h2.24a1.67,1.67,0,0,1,1.8,1.57v6.64a1.47,1.47,0,0,1,.32,0h-.32v9.29c-.11.78-.5,1.18-1.17,1.18H14.83l-.63,4.23h6.24v5.89h3.11V32.63l2.47,0v5.8h3.11V32.56a20.85,20.85,0,0,0,2.93-.35,10.42,10.42,0,0,0,2.46-.8,6.56,6.56,0,0,0,2-1.35,6.44,6.44,0,0,0,1.3-2,10.14,10.14,0,0,0,.66-2.89A7.7,7.7,0,0,0,37.53,20.17Z"/><path class="cls-2" d="M19.65,148.71l8.18,8.35,14.61-18Zm-9.5,27.7,25.86-11-8.18-8.37Z"/><path class="cls-3" d="M61.35,311.36H50.07V291.14H61.35v2.09H52.42v6.51h8.39v2.08H52.42v7.44h8.93Z"/><path class="cls-3" d="M72.5,309.74a7.53,7.53,0,0,0,1.18-.09,8.81,8.81,0,0,0,.9-.18v1.76a4.84,4.84,0,0,1-1.1.29,8.06,8.06,0,0,1-1.31.12q-4.4,0-4.4-4.63v-9H65.6v-1.11l2.17-1,1-3.23h1.33v3.51h4.4V298h-4.4v8.92a3.09,3.09,0,0,0,.65,2.1A2.25,2.25,0,0,0,72.5,309.74Z"/><path class="cls-3" d="M90.11,311.36v-9.8a4,4,0,0,0-.84-2.77,3.46,3.46,0,0,0-2.65-.91,4.32,4.32,0,0,0-3.49,1.3,6.58,6.58,0,0,0-1.1,4.26v7.92h-2.3V289.84H82v6.51a14.69,14.69,0,0,1-.11,1.95h.14A4.7,4.7,0,0,1,84,296.58a6.23,6.23,0,0,1,2.85-.63A5.87,5.87,0,0,1,91,297.27a5.59,5.59,0,0,1,1.39,4.2v9.89Z"/><path class="cls-3" d="M105.65,311.64a6.93,6.93,0,0,1-5.3-2.05,7.9,7.9,0,0,1-1.95-5.68,8.82,8.82,0,0,1,1.81-5.83,6,6,0,0,1,4.85-2.16,5.73,5.73,0,0,1,4.51,1.88,7.22,7.22,0,0,1,1.66,4.94v1.46H100.78a6,6,0,0,0,1.35,4.05,4.68,4.68,0,0,0,3.61,1.38,12.27,12.27,0,0,0,4.84-1v2.05a11.89,11.89,0,0,1-2.31.75A13,13,0,0,1,105.65,311.64ZM105,297.85a3.71,3.71,0,0,0-2.91,1.19,5.44,5.44,0,0,0-1.28,3.29h7.93a5.09,5.09,0,0,0-1-3.33A3.42,3.42,0,0,0,105,297.85Z"/><path class="cls-3" d="M124.18,295.92a9.09,9.09,0,0,1,1.82.17l-.32,2.13A7.75,7.75,0,0,0,124,298a4,4,0,0,0-3.15,1.5,5.43,5.43,0,0,0-1.31,3.72v8.13h-2.29V296.2h1.89l.27,2.81h.11a6.58,6.58,0,0,1,2-2.28A4.53,4.53,0,0,1,124.18,295.92Z"/><path class="cls-3" d="M136.8,311.64a7,7,0,0,1-5.31-2.05,7.89,7.89,0,0,1-1.94-5.68,8.82,8.82,0,0,1,1.8-5.83,6,6,0,0,1,4.85-2.16,5.73,5.73,0,0,1,4.51,1.88,7.17,7.17,0,0,1,1.66,4.94v1.46H131.93a5.93,5.93,0,0,0,1.35,4.05,4.66,4.66,0,0,0,3.6,1.38,12.27,12.27,0,0,0,4.84-1v2.05a12,12,0,0,1-2.3.75A13.14,13.14,0,0,1,136.8,311.64Zm-.63-13.79a3.74,3.74,0,0,0-2.91,1.19,5.5,5.5,0,0,0-1.28,3.29h7.93a5,5,0,0,0-1-3.33A3.42,3.42,0,0,0,136.17,297.85Z"/><path class="cls-3" d="M150.57,296.2V306a4,4,0,0,0,.84,2.76,3.44,3.44,0,0,0,2.64.92,4.33,4.33,0,0,0,3.48-1.3,6.54,6.54,0,0,0,1.1-4.25v-8h2.3v15.16H159l-.33-2h-.12a4.48,4.48,0,0,1-2,1.71,6.53,6.53,0,0,1-2.86.6,5.83,5.83,0,0,1-4.14-1.31,5.6,5.6,0,0,1-1.38-4.21V296.2Z"/><path class="cls-3" d="M187.25,311.36V301.5a4.14,4.14,0,0,0-.77-2.72,3,3,0,0,0-2.41-.9,3.89,3.89,0,0,0-3.17,1.23,5.86,5.86,0,0,0-1,3.79v8.46h-2.3V301.5a4.14,4.14,0,0,0-.77-2.72,3,3,0,0,0-2.43-.9,3.77,3.77,0,0,0-3.16,1.29,7,7,0,0,0-1,4.24v7.95h-2.3V296.2h1.87l.38,2.08h.11a4.43,4.43,0,0,1,1.83-1.73,5.55,5.55,0,0,1,2.65-.63q3.56,0,4.65,2.58h.11a4.74,4.74,0,0,1,2-1.88,6.13,6.13,0,0,1,2.93-.7,5.16,5.16,0,0,1,3.86,1.33,5.92,5.92,0,0,1,1.28,4.22v9.89Z"/><polygon class="cls-2" points="10.15 295.13 21.35 301.87 32.41 295.13 21.35 276.23 10.15 295.13"/><polygon class="cls-2" points="10.15 299.3 21.36 305.69 32.41 299.3 21.28 314.68 10.15 299.3"/><path class="cls-3" d="M69.75,168.31H67.4V150.17H61v-2.08H76.16v2.08H69.75Z"/><path class="cls-3" d="M96.65,168.31H94.3v-9.52H83.65v9.52H81.3V148.09h2.35v8.6H94.3v-8.6h2.35Z"/><path class="cls-3" d="M121.88,158.17a11.14,11.14,0,0,1-2.46,7.64,8.63,8.63,0,0,1-6.82,2.78,8.75,8.75,0,0,1-6.9-2.73q-2.43-2.75-2.43-7.72t2.44-7.65a8.77,8.77,0,0,1,6.91-2.72,8.62,8.62,0,0,1,6.81,2.76A11.15,11.15,0,0,1,121.88,158.17Zm-16.12,0c0,2.74.59,4.82,1.75,6.23a6.21,6.21,0,0,0,5.09,2.13,6.14,6.14,0,0,0,5.07-2.12q1.72-2.11,1.72-6.24T117.68,152a6.11,6.11,0,0,0-5.06-2.11,6.26,6.26,0,0,0-5.11,2.12A9.56,9.56,0,0,0,105.76,158.17Z"/><path class="cls-3" d="M130.87,159.9v8.41h-2.36V148.09h5.55c2.48,0,4.32.47,5.5,1.42a5.16,5.16,0,0,1,1.78,4.29q0,4-4.07,5.42l5.49,9.09H140l-4.9-8.41Zm0-2h3.22a5.55,5.55,0,0,0,3.65-1,3.67,3.67,0,0,0,1.16-3,3.38,3.38,0,0,0-1.18-2.89,6.41,6.41,0,0,0-3.8-.88h-3Z"/><path class="cls-3" d="M153.87,168.59a6.47,6.47,0,0,1-5.1-2,8.29,8.29,0,0,1-1.81-5.73A8.55,8.55,0,0,1,148.8,155a6.57,6.57,0,0,1,5.22-2.08,10.11,10.11,0,0,1,2.18.24,7.11,7.11,0,0,1,1.72.55l-.71,2a10.46,10.46,0,0,0-1.66-.5,7,7,0,0,0-1.59-.2q-4.62,0-4.62,5.89a7,7,0,0,0,1.13,4.29,3.93,3.93,0,0,0,3.34,1.49,10.32,10.32,0,0,0,3.89-.81v2A8.36,8.36,0,0,1,153.87,168.59Z"/><path class="cls-3" d="M173.79,168.31V158.5a4,4,0,0,0-.84-2.76,3.42,3.42,0,0,0-2.64-.92,4.33,4.33,0,0,0-3.49,1.3,6.56,6.56,0,0,0-1.1,4.26v7.93h-2.3V146.79h2.3v6.51a13,13,0,0,1-.12,1.95h.14a4.69,4.69,0,0,1,1.93-1.72,6.3,6.3,0,0,1,2.86-.63,5.86,5.86,0,0,1,4.17,1.32,5.55,5.55,0,0,1,1.39,4.2v9.89Z"/><path class="cls-3" d="M192.26,168.31l-.46-2.16h-.11a6.35,6.35,0,0,1-2.26,1.93,6.84,6.84,0,0,1-2.82.51,5.07,5.07,0,0,1-3.53-1.16,4.26,4.26,0,0,1-1.28-3.31q0-4.59,7.34-4.81l2.58-.09v-.94a3.83,3.83,0,0,0-.77-2.63,3.15,3.15,0,0,0-2.46-.85,9.88,9.88,0,0,0-4.28,1.16l-.71-1.76a11.21,11.21,0,0,1,5.13-1.3,5.78,5.78,0,0,1,4,1.2A5,5,0,0,1,194,158v10.35Zm-5.19-1.62a4.68,4.68,0,0,0,3.37-1.17,4.38,4.38,0,0,0,1.22-3.3v-1.37l-2.29.1a8.42,8.42,0,0,0-4,.85,2.58,2.58,0,0,0-1.21,2.35A2.36,2.36,0,0,0,185,166,3.1,3.1,0,0,0,187.07,166.69Z"/><path class="cls-3" d="M200.62,149a1.49,1.49,0,0,1,.39-1.15,1.43,1.43,0,0,1,1.92,0,1.49,1.49,0,0,1,.4,1.15,1.53,1.53,0,0,1-.4,1.16,1.4,1.4,0,0,1-1.92,0A1.56,1.56,0,0,1,200.62,149Zm2.49,19.27h-2.3V153.15h2.3Z"/><path class="cls-3" d="M220.48,168.31V158.5a4,4,0,0,0-.84-2.76,3.45,3.45,0,0,0-2.64-.92,4.36,4.36,0,0,0-3.49,1.29,6.48,6.48,0,0,0-1.11,4.25v7.95h-2.29V153.15H212l.38,2.07h.11a4.71,4.71,0,0,1,2-1.73,6.39,6.39,0,0,1,2.83-.62,5.75,5.75,0,0,1,4.12,1.32,5.6,5.6,0,0,1,1.39,4.23v9.89Z"/><path class="cls-3" d="M57.46,12.11h5.71q4,0,5.82,1.2a4.24,4.24,0,0,1,1.8,3.8,4.39,4.39,0,0,1-1,3,4.85,4.85,0,0,1-2.93,1.52v.13c3.07.53,4.61,2.14,4.61,4.85a5.2,5.2,0,0,1-1.83,4.23,7.85,7.85,0,0,1-5.13,1.52H57.46Zm2.35,8.66h3.87A6.22,6.22,0,0,0,67.26,20a3,3,0,0,0,1.1-2.63,2.69,2.69,0,0,0-1.22-2.46,7.62,7.62,0,0,0-3.87-.75H59.81Zm0,2v7.57H64a6,6,0,0,0,3.68-.95,3.49,3.49,0,0,0,1.24-3,3.16,3.16,0,0,0-1.26-2.77,6.8,6.8,0,0,0-3.86-.88Z"/><path class="cls-3" d="M78.45,13.06a1.55,1.55,0,0,1,.38-1.15,1.34,1.34,0,0,1,1-.37,1.36,1.36,0,0,1,1,.37,1.53,1.53,0,0,1,.4,1.15,1.57,1.57,0,0,1-.4,1.16,1.37,1.37,0,0,1-1,.38,1.34,1.34,0,0,1-1-.38A1.6,1.6,0,0,1,78.45,13.06Zm2.49,19.27h-2.3V17.17h2.3Z"/><path class="cls-3" d="M93.88,30.71a7.49,7.49,0,0,0,1.17-.09,8.81,8.81,0,0,0,.9-.18v1.75a4.19,4.19,0,0,1-1.1.3,8.06,8.06,0,0,1-1.31.12q-4.4,0-4.4-4.64V19H87v-1.1l2.17-1,1-3.23h1.33v3.51h4.4V19h-4.4v8.93a3.09,3.09,0,0,0,.65,2.1A2.26,2.26,0,0,0,93.88,30.71Z"/><path class="cls-3" d="M108.21,32.61a6.5,6.5,0,0,1-5.1-2,8.34,8.34,0,0,1-1.8-5.73A8.59,8.59,0,0,1,103.14,19a6.57,6.57,0,0,1,5.22-2.08,10.2,10.2,0,0,1,2.19.24,7.58,7.58,0,0,1,1.72.55l-.71,1.95a10.78,10.78,0,0,0-1.66-.5,7,7,0,0,0-1.59-.2q-4.62,0-4.62,5.89a7,7,0,0,0,1.13,4.29,3.93,3.93,0,0,0,3.34,1.49,10.23,10.23,0,0,0,3.88-.81v2A8.21,8.21,0,0,1,108.21,32.61Z"/><path class="cls-3" d="M131.9,24.74A8.35,8.35,0,0,1,130,30.53a6.59,6.59,0,0,1-5.16,2.08,6.81,6.81,0,0,1-3.61-1,6.25,6.25,0,0,1-2.43-2.74,9.52,9.52,0,0,1-.86-4.17A8.4,8.4,0,0,1,119.82,19,6.57,6.57,0,0,1,125,16.89,6.43,6.43,0,0,1,130,19,8.33,8.33,0,0,1,131.9,24.74Zm-11.55,0a7.21,7.21,0,0,0,1.16,4.42,4.6,4.6,0,0,0,6.84,0,7.16,7.16,0,0,0,1.17-4.43,7.08,7.08,0,0,0-1.17-4.4,4.11,4.11,0,0,0-3.45-1.5,4.05,4.05,0,0,0-3.4,1.48A7.11,7.11,0,0,0,120.35,24.74Z"/><path class="cls-3" d="M138.91,13.06a1.55,1.55,0,0,1,.38-1.15,1.44,1.44,0,0,1,1.93,0,1.53,1.53,0,0,1,.4,1.15,1.57,1.57,0,0,1-.4,1.16,1.42,1.42,0,0,1-1.93,0A1.6,1.6,0,0,1,138.91,13.06Zm2.49,19.27h-2.3V17.17h2.3Z"/><path class="cls-3" d="M159.81,32.33V22.52a4,4,0,0,0-.84-2.76,3.42,3.42,0,0,0-2.64-.92,4.36,4.36,0,0,0-3.49,1.29,6.49,6.49,0,0,0-1.1,4.25v8h-2.3V17.17h1.87l.37,2.07h.11a4.71,4.71,0,0,1,2-1.73,6.42,6.42,0,0,1,2.83-.62,5.77,5.77,0,0,1,4.13,1.32,5.65,5.65,0,0,1,1.38,4.23v9.89Z"/><path class="cls-4" d="M404,343.14H374.08a73.77,73.77,0,0,1-73.68-73.69,65.77,65.77,0,0,0-65.69-65.69H219.59a4,4,0,0,1,0-8h15.12a73.78,73.78,0,0,1,73.69,73.69,65.76,65.76,0,0,0,65.68,65.69H404a4,4,0,0,1,0,8Z"/><path class="cls-5" d="M755.92,343.14H726a73.77,73.77,0,0,1-73.69-73.69,65.77,65.77,0,0,0-65.69-65.69H571.54a4,4,0,0,1,0-8h15.12a73.78,73.78,0,0,1,73.69,73.69A65.76,65.76,0,0,0,726,335.14h29.88a4,4,0,0,1,0,8Z"/><path class="cls-6" d="M1107.87,343.14H1078a73.77,73.77,0,0,1-73.69-73.69,65.77,65.77,0,0,0-65.69-65.69H923.49a4,4,0,0,1,0-8h15.12a73.78,73.78,0,0,1,73.69,73.69A65.76,65.76,0,0,0,1078,335.14h29.88a4,4,0,0,1,0,8Z"/><path class="cls-7" d="M1096.23,203.76h-29.89a4,4,0,0,1,0-8h29.89a65.77,65.77,0,0,0,65.69-65.69,73.77,73.77,0,0,1,73.69-73.69h15.11a4,4,0,1,1,0,8h-15.11a65.76,65.76,0,0,0-65.69,65.69A73.78,73.78,0,0,1,1096.23,203.76Z"/><path class="cls-8" d="M744.28,203.76H714.39a4,4,0,0,1,0-8h29.89A65.77,65.77,0,0,0,810,130.07a73.77,73.77,0,0,1,73.69-73.69h15.11a4,4,0,1,1,0,8H883.66A65.76,65.76,0,0,0,818,130.07,73.78,73.78,0,0,1,744.28,203.76Z"/><path class="cls-9" d="M392.33,203.76H362.44a4,4,0,0,1,0-8h29.89A65.77,65.77,0,0,0,458,130.07a73.77,73.77,0,0,1,73.69-73.69h15.11a4,4,0,1,1,0,8H531.71A65.76,65.76,0,0,0,466,130.07,73.78,73.78,0,0,1,392.33,203.76Z"/><path class="cls-10" d="M918,203.76H886.85c-42.23,0-76.58-33.06-76.58-73.69,0-36.22-30.76-65.69-68.57-65.69H726a4,4,0,0,1,0-8H741.7c42.22,0,76.57,33.06,76.57,73.69,0,36.22,30.77,65.69,68.58,65.69H918a4,4,0,0,1,0,8Z"/><path class="cls-11" d="M1095.92,203.76H1066a4,4,0,0,1,0-8h29.88a65.77,65.77,0,0,0,65.69-65.69,73.78,73.78,0,0,1,73.69-73.69h15.12a4,4,0,1,1,0,8H1235.3a65.77,65.77,0,0,0-65.69,65.69A73.78,73.78,0,0,1,1095.92,203.76Z"/><path class="cls-12" d="M1269.62,203.76h-31.13c-42.22,0-76.57-33.06-76.57-73.69,0-36.22-30.77-65.69-68.58-65.69H1077.6a4,4,0,0,1,0-8h15.74c42.22,0,76.58,33.06,76.58,73.69,0,36.22,30.76,65.69,68.57,65.69h31.13a4,4,0,0,1,0,8Z"/><path class="cls-13" d="M392,203.76H362.14a4,4,0,0,1,0-8H392a65.77,65.77,0,0,0,65.69-65.69A73.78,73.78,0,0,1,531.4,56.38h15.11a4,4,0,1,1,0,8H531.4a65.77,65.77,0,0,0-65.69,65.69A73.78,73.78,0,0,1,392,203.76Z"/><path class="cls-14" d="M565.71,203.76H534.59c-42.22,0-76.57-33.06-76.57-73.69,0-36.22-30.77-65.69-68.58-65.69H373.7a4,4,0,0,1,0-8h15.74c42.22,0,76.58,33.06,76.58,73.69,0,36.22,30.76,65.69,68.57,65.69h31.12a4,4,0,0,1,0,8Z"/><path class="cls-15" d="M583.29,343.14H552a4,4,0,0,1,0-8h31.33c38.08,0,69.06-29.47,69.06-65.69,0-40.63,34.56-73.69,77.06-73.69h15.84a4,4,0,0,1,0,8H729.41c-38.08,0-69.06,29.47-69.06,65.69C660.35,310.08,625.78,343.14,583.29,343.14Z"/><path class="cls-16" d="M935.24,343.14H903.91a4,4,0,0,1,0-8h31.33c38.08,0,69.06-29.47,69.06-65.69,0-40.63,34.57-73.69,77.06-73.69h15.84a4,4,0,0,1,0,8h-15.84c-38.08,0-69.06,29.47-69.06,65.69C1012.3,310.08,977.73,343.14,935.24,343.14Z"/><path class="cls-17" d="M231.33,343.14H200a4,4,0,0,1,0-8h31.32c38.08,0,69.07-29.47,69.07-65.69,0-40.63,34.56-73.69,77.06-73.69H393.3a4,4,0,0,1,0,8H377.46c-38.08,0-69.06,29.47-69.06,65.69C308.4,310.08,273.83,343.14,231.33,343.14Z"/><rect class="cls-18" x="1360.41" y="56.38" width="4" height="8"/><path class="cls-18" d="M1358.41,64.38h-8v-8h8Zm-10,0h-8v-8h8Zm-10,0h-8v-8h8Zm-10,0h-8v-8h8Zm-10,0h-8v-8h8Zm-10,0h-8v-8h8Zm-10,0h-8v-8h8Zm-10,0h-8v-8h8Zm-10,0h-8v-8h8Zm-10,0h-8v-8h8Zm-10,0h-8v-8h8Zm-10,0h-8v-8h8Zm-10,0h-8v-8h8Zm-10,0h-8v-8h8Zm-10,0h-8v-8h8Zm-10,0h-8v-8h8Zm-10,0h-8v-8h8Zm-10,0h-8v-8h8Zm-10,0h-8v-8h8Zm-10,0h-8v-8h8Zm-10,0h-8v-8h8Zm-10,0h-8v-8h8Zm-10,0h-8v-8h8Zm-10,0h-8v-8h8Zm-10,0h-8v-8h8Zm-10,0h-8v-8h8Zm-10,0h-8v-8h8Zm-10,0h-8v-8h8Zm-10,0h-8v-8h8Zm-10,0h-8v-8h8Zm-10,0h-8v-8h8Zm-10,0h-8v-8h8Zm-10,0h-8v-8h8Zm-10,0h-8v-8h8Zm-10,0h-8v-8h8Zm-10,0h-8v-8h8Zm-10,0h-8v-8h8Zm-10,0h-8v-8h8Zm-10,0h-8v-8h8Zm-10,0h-8v-8h8Zm-10,0h-8v-8h8Zm-10,0h-8v-8h8Zm-10,0h-8v-8h8Zm-10,0h-8v-8h8Zm-10,0h-8v-8h8Zm-10,0h-8v-8h8Zm-10,0h-8v-8h8Zm-10,0h-8v-8h8Zm-10,0h-8v-8h8Zm-10,0h-8v-8h8Zm-10,0h-8v-8h8Zm-10,0h-8v-8h8Zm-10,0h-8v-8h8Zm-10,0h-8v-8h8Zm-10,0h-8v-8h8Zm-10,0h-8v-8h8Zm-10,0h-8v-8h8Zm-10,0h-8v-8h8Zm-10,0h-8v-8h8Zm-10,0h-8v-8h8Zm-10,0h-8v-8h8Zm-10,0h-8v-8h8Zm-10,0h-8v-8h8Zm-10,0h-8v-8h8Zm-10,0h-8v-8h8Zm-10,0h-8v-8h8Zm-10,0h-8v-8h8Zm-10,0h-8v-8h8Zm-10,0h-8v-8h8Zm-10,0h-8v-8h8Zm-10,0h-8v-8h8Zm-10,0h-8v-8h8Zm-10,0h-8v-8h8Zm-10,0h-8v-8h8Zm-10,0h-8v-8h8Zm-10,0h-8v-8h8Zm-10,0h-8v-8h8Zm-10,0h-8v-8h8Zm-10,0h-8v-8h8Zm-10,0h-8v-8h8Zm-10,0h-8v-8h8Zm-10,0h-8v-8h8Zm-10,0h-8v-8h8Zm-10,0h-8v-8h8Zm-10,0h-8v-8h8Zm-10,0h-8v-8h8Zm-10,0h-8v-8h8Zm-10,0h-8v-8h8Zm-10,0h-8v-8h8Zm-10,0h-8v-8h8Zm-10,0h-8v-8h8Zm-10,0h-8v-8h8Zm-10,0h-8v-8h8Zm-10,0h-8v-8h8Zm-10,0h-8v-8h8Zm-10,0h-8v-8h8Zm-10,0h-8v-8h8Zm-10,0h-8v-8h8Zm-10,0h-8v-8h8Zm-10,0h-8v-8h8Zm-10,0h-8v-8h8Zm-10,0h-8v-8h8Zm-10,0h-8v-8h8Zm-10,0h-8v-8h8Zm-10,0h-8v-8h8Zm-10,0h-8v-8h8Zm-10,0h-8v-8h8Zm-10,0h-8v-8h8Zm-10,0h-8v-8h8Zm-10,0h-8v-8h8Zm-10,0h-8v-8h8Zm-10,0h-8v-8h8Zm-10,0h-8v-8h8Zm-10,0h-8v-8h8Zm-10,0h-8v-8h8Zm-10,0h-8v-8h8Zm-10,0h-8v-8h8Zm-10,0h-8v-8h8Zm-10,0h-8v-8h8Zm-10,0h-8v-8h8Zm-10,0h-8v-8h8Zm-10,0h-8v-8h8Zm-10,0h-8v-8h8Zm-10,0h-8v-8h8Zm-10,0h-8v-8h8Zm-10,0h-8v-8h8Zm-10,0h-8v-8h8Zm-10,0h-8v-8h8Zm-10,0h-8v-8h8Zm-10,0h-8v-8h8Zm-10,0h-8v-8h8Zm-10,0h-8v-8h8Zm-10,0h-8v-8h8Zm-10,0H16v-8h8Zm-10,0H6v-8h8Z"/><rect class="cls-18" y="56.38" width="4" height="8"/><rect class="cls-19" x="1360.41" y="335.14" width="4" height="8"/><path class="cls-19" d="M1358.41,343.14h-8v-8h8Zm-10,0h-8v-8h8Zm-10,0h-8v-8h8Zm-10,0h-8v-8h8Zm-10,0h-8v-8h8Zm-10,0h-8v-8h8Zm-10,0h-8v-8h8Zm-10,0h-8v-8h8Zm-10,0h-8v-8h8Zm-10,0h-8v-8h8Zm-10,0h-8v-8h8Zm-10,0h-8v-8h8Zm-10,0h-8v-8h8Zm-10,0h-8v-8h8Zm-10,0h-8v-8h8Zm-10,0h-8v-8h8Zm-10,0h-8v-8h8Zm-10,0h-8v-8h8Zm-10,0h-8v-8h8Zm-10,0h-8v-8h8Zm-10,0h-8v-8h8Zm-10,0h-8v-8h8Zm-10,0h-8v-8h8Zm-10,0h-8v-8h8Zm-10,0h-8v-8h8Zm-10,0h-8v-8h8Zm-10,0h-8v-8h8Zm-10,0h-8v-8h8Zm-10,0h-8v-8h8Zm-10,0h-8v-8h8Zm-10,0h-8v-8h8Zm-10,0h-8v-8h8Zm-10,0h-8v-8h8Zm-10,0h-8v-8h8Zm-10,0h-8v-8h8Zm-10,0h-8v-8h8Zm-10,0h-8v-8h8Zm-10,0h-8v-8h8Zm-10,0h-8v-8h8Zm-10,0h-8v-8h8Zm-10,0h-8v-8h8Zm-10,0h-8v-8h8Zm-10,0h-8v-8h8Zm-10,0h-8v-8h8Zm-10,0h-8v-8h8Zm-10,0h-8v-8h8Zm-10,0h-8v-8h8Zm-10,0h-8v-8h8Zm-10,0h-8v-8h8Zm-10,0h-8v-8h8Zm-10,0h-8v-8h8Zm-10,0h-8v-8h8Zm-10,0h-8v-8h8Zm-10,0h-8v-8h8Zm-10,0h-8v-8h8Zm-10,0h-8v-8h8Zm-10,0h-8v-8h8Zm-10,0h-8v-8h8Zm-10,0h-8v-8h8Zm-10,0h-8v-8h8Zm-10,0h-8v-8h8Zm-10,0h-8v-8h8Zm-10,0h-8v-8h8Zm-10,0h-8v-8h8Zm-10,0h-8v-8h8Zm-10,0h-8v-8h8Zm-10,0h-8v-8h8Zm-10,0h-8v-8h8Zm-10,0h-8v-8h8Zm-10,0h-8v-8h8Zm-10,0h-8v-8h8Zm-10,0h-8v-8h8Zm-10,0h-8v-8h8Zm-10,0h-8v-8h8Zm-10,0h-8v-8h8Zm-10,0h-8v-8h8Zm-10,0h-8v-8h8Zm-10,0h-8v-8h8Zm-10,0h-8v-8h8Zm-10,0h-8v-8h8Zm-10,0h-8v-8h8Zm-10,0h-8v-8h8Zm-10,0h-8v-8h8Zm-10,0h-8v-8h8Zm-10,0h-8v-8h8Zm-10,0h-8v-8h8Zm-10,0h-8v-8h8Zm-10,0h-8v-8h8Zm-10,0h-8v-8h8Zm-10,0h-8v-8h8Zm-10,0h-8v-8h8Zm-10,0h-8v-8h8Zm-10,0h-8v-8h8Zm-10,0h-8v-8h8Zm-10,0h-8v-8h8Zm-10,0h-8v-8h8Zm-10,0h-8v-8h8Zm-10,0h-8v-8h8Zm-10,0h-8v-8h8Zm-10,0h-8v-8h8Zm-10,0h-8v-8h8Zm-10,0h-8v-8h8Zm-10,0h-8v-8h8Zm-10,0h-8v-8h8Zm-10,0h-8v-8h8Zm-10,0h-8v-8h8Zm-10,0h-8v-8h8Zm-10,0h-8v-8h8Zm-10,0h-8v-8h8Zm-10,0h-8v-8h8Zm-10,0h-8v-8h8Zm-10,0h-8v-8h8Zm-10,0h-8v-8h8Zm-10,0h-8v-8h8Zm-10,0h-8v-8h8Zm-10,0h-8v-8h8Zm-10,0h-8v-8h8Zm-10,0h-8v-8h8Zm-10,0h-8v-8h8Zm-10,0h-8v-8h8Zm-10,0h-8v-8h8Zm-10,0h-8v-8h8Zm-10,0h-8v-8h8Zm-10,0h-8v-8h8Zm-10,0h-8v-8h8Zm-10,0h-8v-8h8Zm-10,0h-8v-8h8Zm-10,0h-8v-8h8Zm-10,0h-8v-8h8Zm-10,0h-8v-8h8Zm-10,0h-8v-8h8Zm-10,0h-8v-8h8Zm-10,0h-8v-8h8Zm-10,0H16v-8h8Zm-10,0H6v-8h8Z"/><rect class="cls-19" y="335.14" width="4" height="8"/><rect class="cls-20" x="1360.41" y="189.76" width="4" height="20"/><path class="cls-21" d="M1358.41,209.76h-8v-20h8Zm-10,0h-8v-20h8Zm-10,0h-8v-20h8Zm-10,0h-8v-20h8Zm-10,0h-8v-20h8Zm-10,0h-8v-20h8Zm-10,0h-8v-20h8Zm-10,0h-8v-20h8Zm-10,0h-8v-20h8Zm-10,0h-8v-20h8Zm-10,0h-8v-20h8Zm-10,0h-8v-20h8Zm-10,0h-8v-20h8Zm-10,0h-8v-20h8Zm-10,0h-8v-20h8Zm-10,0h-8v-20h8Zm-10,0h-8v-20h8Zm-10,0h-8v-20h8Zm-10,0h-8v-20h8Zm-10,0h-8v-20h8Zm-10,0h-8v-20h8Zm-10,0h-8v-20h8Zm-10,0h-8v-20h8Zm-10,0h-8v-20h8Zm-10,0h-8v-20h8Zm-10,0h-8v-20h8Zm-10,0h-8v-20h8Zm-10,0h-8v-20h8Zm-10,0h-8v-20h8Zm-10,0h-8v-20h8Zm-10,0h-8v-20h8Zm-10,0h-8v-20h8Zm-10,0h-8v-20h8Zm-10,0h-8v-20h8Zm-10,0h-8v-20h8Zm-10,0h-8v-20h8Zm-10,0h-8v-20h8Zm-10,0h-8v-20h8Zm-10,0h-8v-20h8Zm-10,0h-8v-20h8Zm-10,0h-8v-20h8Zm-10,0h-8v-20h8Zm-10,0h-8v-20h8Zm-10,0h-8v-20h8Zm-10,0h-8v-20h8Zm-10,0h-8v-20h8Zm-10,0h-8v-20h8Zm-10,0h-8v-20h8Zm-10,0h-8v-20h8Zm-10,0h-8v-20h8Zm-10,0h-8v-20h8Zm-10,0h-8v-20h8Zm-10,0h-8v-20h8Zm-10,0h-8v-20h8Zm-10,0h-8v-20h8Zm-10,0h-8v-20h8Zm-10,0h-8v-20h8Zm-10,0h-8v-20h8Zm-10,0h-8v-20h8Zm-10,0h-8v-20h8Zm-10,0h-8v-20h8Zm-10,0h-8v-20h8Zm-10,0h-8v-20h8Zm-10,0h-8v-20h8Zm-10,0h-8v-20h8Zm-10,0h-8v-20h8Zm-10,0h-8v-20h8Zm-10,0h-8v-20h8Zm-10,0h-8v-20h8Zm-10,0h-8v-20h8Zm-10,0h-8v-20h8Zm-10,0h-8v-20h8Zm-10,0h-8v-20h8Zm-10,0h-8v-20h8Zm-10,0h-8v-20h8Zm-10,0h-8v-20h8Zm-10,0h-8v-20h8Zm-10,0h-8v-20h8Zm-10,0h-8v-20h8Zm-10,0h-8v-20h8Zm-10,0h-8v-20h8Zm-10,0h-8v-20h8Zm-10,0h-8v-20h8Zm-10,0h-8v-20h8Zm-10,0h-8v-20h8Zm-10,0h-8v-20h8Zm-10,0h-8v-20h8Zm-10,0h-8v-20h8Zm-10,0h-8v-20h8Zm-10,0h-8v-20h8Zm-10,0h-8v-20h8Zm-10,0h-8v-20h8Zm-10,0h-8v-20h8Zm-10,0h-8v-20h8Zm-10,0h-8v-20h8Zm-10,0h-8v-20h8Zm-10,0h-8v-20h8Zm-10,0h-8v-20h8Zm-10,0h-8v-20h8Zm-10,0h-8v-20h8Zm-10,0h-8v-20h8Zm-10,0h-8v-20h8Zm-10,0h-8v-20h8Zm-10,0h-8v-20h8Zm-10,0h-8v-20h8Zm-10,0h-8v-20h8Zm-10,0h-8v-20h8Zm-10,0h-8v-20h8Zm-10,0h-8v-20h8Zm-10,0h-8v-20h8Zm-10,0h-8v-20h8Zm-10,0h-8v-20h8Zm-10,0h-8v-20h8Zm-10,0h-8v-20h8Zm-10,0h-8v-20h8Zm-10,0h-8v-20h8Zm-10,0h-8v-20h8Zm-10,0h-8v-20h8Zm-10,0h-8v-20h8Zm-10,0h-8v-20h8Zm-10,0h-8v-20h8Zm-10,0h-8v-20h8Zm-10,0h-8v-20h8Zm-10,0h-8v-20h8Zm-10,0h-8v-20h8Zm-10,0h-8v-20h8Zm-10,0h-8v-20h8Zm-10,0h-8v-20h8Zm-10,0h-8v-20h8Zm-10,0h-8v-20h8Zm-10,0h-8v-20h8Zm-10,0h-8v-20h8Zm-10,0h-8v-20h8Zm-10,0H16v-20h8Zm-10,0H6v-20h8Z"/><rect class="cls-22" y="189.76" width="4" height="20"/></g></g></svg>